<svg width="414" height="361" viewBox="0 0 414 361" fill="none" xmlns="http://www.w3.org/2000/svg">
<g clip-path="url(#clip0_3103_42613)">
<g opacity="0.5">
<path d="M491.905 152.345C460.945 168.734 421.489 167.651 391.465 149.529C371.089 137.183 353.089 117.111 329.329 116.389C313.057 115.884 297.937 125.053 285.769 135.955C273.601 146.857 263.305 159.853 250.345 169.745C231.265 184.257 206.713 191.405 182.809 189.311C158.905 187.217 135.937 175.954 119.665 158.265C101.881 138.988 90.0008 111.263 65.0168 103.393C49.3928 98.4833 32.4008 102.96 17.1368 108.952C1.8728 114.945 -13.1752 122.526 -29.4472 124.042C-45.7912 125.558 -66.5992 120.865 -73.3672 105.848C-73.1512 113.718 -72.8632 121.66 -72.6472 129.529C-44.7112 147.363 -9.64719 152.128 20.0888 137.471C33.9128 130.612 47.3768 120.216 62.7128 121.587C74.3768 122.598 84.4568 130.612 91.5848 139.926C98.7128 149.312 103.537 160.142 109.657 170.178C126.793 198.119 155.305 219.563 187.561 224.761C219.817 229.887 255.169 217.18 274.177 190.466C282.313 178.986 287.353 165.485 295.057 153.716C302.761 141.948 314.569 131.334 328.681 130.757C345.961 130.107 359.785 144.114 372.241 156.099C387.217 170.539 403.993 183.752 423.289 191.549C442.585 199.347 464.833 201.368 484.201 193.715C486.001 180.286 490.177 165.702 491.905 152.345Z" fill="white"/>
</g>
<path d="M78.1916 58.7708H-50.4004C-42.8404 58.7708 -34.9204 56.7492 -28.2964 53.067C-25.5604 51.5508 -22.8964 49.6014 -19.7284 49.3848C-16.3444 49.1682 -13.1764 51.0454 -9.79239 50.9732C-5.61639 50.9732 -2.0164 48.1574 0.791607 45.0528C3.59961 42.0204 6.04761 38.4826 9.64761 36.3166C15.1196 32.9954 22.6796 33.7174 27.4316 37.9772C31.3916 41.5872 33.8396 47.4354 39.0236 48.735C42.0476 49.457 45.2876 48.374 48.3836 48.9516C51.8396 49.6014 54.5756 52.1284 57.2396 54.3666C59.8316 56.5326 74.4476 58.121 78.1916 58.7708Z" fill="white"/>
<path d="M128.448 87.9396H58.752C61.344 87.9396 63.792 87.001 66.096 85.8458C68.4719 84.6906 70.9919 83.391 73.5839 83.9686C74.5199 84.1852 75.4559 84.6906 76.4639 84.6184C77.8319 84.6184 79.0559 83.6798 79.9199 82.5968C80.7839 81.5138 81.4319 80.2864 82.3679 79.2756C83.8079 77.8316 85.8959 77.0374 87.9839 77.1818C89.9999 77.3262 92.0159 78.4814 93.1679 80.142C94.0319 81.2972 94.5359 82.8134 95.8319 83.5354C97.4159 84.4018 99.4319 83.6798 100.8 82.4524C102.096 81.225 102.96 79.5644 104.184 78.1926C105.336 76.8208 107.064 75.6656 108.864 75.9544C110.664 76.2432 111.96 77.9038 112.824 79.5644C113.688 81.225 114.408 83.03 115.992 84.0408C118.224 85.7736 123.624 83.752 128.448 87.9396Z" fill="white"/>
<path d="M466.344 113.21H407.232C409.464 113.21 411.48 112.415 413.496 111.405C415.512 110.394 417.672 109.311 419.832 109.816C420.624 110.033 421.416 110.394 422.28 110.394C423.432 110.394 424.44 109.6 425.16 108.661C425.88 107.722 426.456 106.712 427.248 105.845C428.472 104.618 430.272 103.896 432 104.04C433.728 104.185 435.384 105.123 436.392 106.567C437.112 107.578 437.544 108.878 438.624 109.455C439.92 110.249 441.72 109.6 442.8 108.589C443.952 107.578 444.672 106.134 445.68 104.979C446.688 103.824 448.128 102.813 449.64 103.102C451.152 103.318 452.232 104.762 452.952 106.134C453.672 107.506 454.32 109.094 455.616 109.961C457.704 111.332 462.312 109.6 466.344 113.21Z" fill="white"/>
<path d="M279.072 80.5752H388.152C381.744 80.5752 374.976 78.8424 369.432 75.7378C367.128 74.4382 364.824 72.7776 362.16 72.6332C359.28 72.4166 356.616 74.005 353.736 74.005C350.208 74.005 347.184 71.6224 344.808 69.0232C342.432 66.424 340.344 63.4638 337.32 61.6588C332.712 58.843 326.304 59.4206 322.272 63.0306C318.888 66.063 316.872 71.0448 312.48 72.1278C309.888 72.7776 307.152 71.839 304.56 72.2722C301.608 72.7776 299.304 74.9436 297 76.8208C294.624 78.698 282.24 80.0698 279.072 80.5752Z" fill="white"/>
<path d="M329 31.407H388.112C385.88 31.407 383.864 30.6128 381.848 29.602C379.832 28.5912 377.672 27.5082 375.512 28.0136C374.72 28.2302 373.928 28.5912 373.064 28.5912C371.912 28.5912 370.904 27.797 370.184 26.8584C369.464 25.9198 368.888 24.909 368.096 24.0426C366.872 22.8152 365.072 22.0932 363.344 22.2376C361.616 22.382 359.96 23.3206 358.952 24.7646C358.232 25.7754 357.8 27.075 356.72 27.6526C355.424 28.4468 353.624 27.797 352.544 26.7862C351.392 25.7754 350.672 24.3314 349.664 23.1762C348.656 22.021 347.216 21.0102 345.704 21.299C344.192 21.5156 343.112 22.9596 342.392 24.3314C341.672 25.7032 341.024 27.2916 339.728 28.158C337.64 29.602 333.104 27.8692 329 31.407Z" fill="white"/>
<path d="M473.834 244.469V262.88L266.186 237.538L287.282 206.42L302.978 197.467L301.394 166.493L314.138 162.594L326.018 102.596L347.186 95.5928L359.93 70.1784L420.266 52.4172L430.346 59.1318L427.97 80.142L436.97 89.6002L443.594 152.775L455.402 167.287L450.074 200.716L473.834 244.469Z" fill="#E8C075"/>
<path d="M420.266 52.4172L430.346 59.1318L405.938 82.7412L407.234 144.183L390.746 161.728V199.994L377.93 136.675L389.882 71.9112L420.266 52.4172Z" fill="#E0B165"/>
<path d="M430.345 59.1318L427.969 80.142L415.441 85.9902L420.265 144.183L401.977 161.728L396.073 239.56L389.881 195.734L390.745 161.728L407.233 144.183L405.937 82.7412L430.345 59.1318Z" fill="#D8A355"/>
<path d="M347.186 95.5927L341.066 136.386L345.746 151.837L341.066 193.713L355.754 152.92V123.534L359.93 70.1783L347.186 95.5927Z" fill="#F7D08B"/>
<path d="M314.138 162.594L308.954 170.031L317.45 191.474L309.458 211.113L266.186 237.538L287.282 206.42L302.978 197.467L301.394 166.493L314.138 162.594Z" fill="#E0B165"/>
<path d="M-103.68 276.67V289.161L169.704 271.977L141.912 250.823L121.248 244.758L123.336 223.748L106.56 221.076L90.9363 180.356L63.0723 175.59L46.2963 158.335L-33.1917 146.277L-46.4397 150.898L-43.2717 165.121L-55.1517 171.547L-63.8637 214.434L-79.4157 224.253L-72.3597 246.996L-103.68 276.67Z" fill="#E8C075"/>
<path d="M-33.1915 146.277L-46.4395 150.898L-14.3275 166.854L-16.0555 208.586L5.68855 220.499V246.491L22.6085 203.532L6.84055 159.49L-33.1915 146.277Z" fill="#E0B165"/>
<path d="M-46.4395 150.898L-43.2715 165.121L-26.7835 169.092L-33.1915 208.586L-9.14345 220.499L-1.29545 273.349L6.84055 243.603L5.68855 220.499L-16.0555 208.586L-14.3274 166.854L-46.4395 150.898Z" fill="#D8A355"/>
<path d="M63.0729 175.59L71.1369 203.315L64.9449 213.784L71.1369 242.231L51.7689 214.506V194.579L46.2969 158.335L63.0729 175.59Z" fill="#F7D08B"/>
<path d="M106.56 221.076L113.4 226.13L102.24 240.715L112.752 254.072L169.704 271.977L141.912 250.823L121.248 244.758L123.336 223.748L106.56 221.076Z" fill="#E0B165"/>
<path d="M260.353 229.018C260.353 227.935 260.209 226.78 259.993 225.697C259.777 224.759 259.345 223.748 258.625 223.315C258.553 223.242 258.481 223.242 258.409 223.242C258.337 223.242 258.265 223.242 258.193 223.17C257.977 223.098 257.833 223.17 257.617 223.17C257.545 223.17 257.473 223.17 257.401 223.242C257.113 223.315 256.825 223.531 256.609 223.748C256.537 223.82 256.465 223.892 256.465 223.964C256.393 224.037 256.321 224.109 256.321 224.181C256.177 224.398 256.033 224.686 255.961 224.975C255.817 225.481 255.745 225.986 255.745 226.491C255.745 227.791 256.033 229.018 256.105 230.318C256.177 231.618 256.033 232.917 255.313 234C255.169 234.217 254.953 234.433 254.737 234.65C254.233 235.083 253.585 235.372 252.937 235.372C253.225 231.834 253.369 228.296 253.153 224.759C253.009 222.737 252.721 220.715 252.289 218.766C252.001 217.466 251.641 216.095 250.849 215.084C250.849 215.012 250.777 215.012 250.777 214.939C250.705 214.867 250.705 214.795 250.633 214.723C250.417 214.506 250.201 214.29 249.985 214.145C250.201 213.712 250.417 213.279 250.705 212.918C250.849 212.701 250.993 212.557 251.137 212.268C251.209 212.051 251.281 211.763 251.137 211.546C250.993 211.257 250.633 211.185 250.345 211.257C250.057 211.329 249.841 211.546 249.697 211.835C249.553 212.124 249.409 212.412 249.337 212.701C249.337 212.412 249.337 212.124 249.193 211.835C249.049 211.618 248.761 211.402 248.473 211.546C248.329 211.618 248.257 211.763 248.185 211.907C248.185 212.051 248.113 212.196 248.185 212.412C248.041 212.051 247.897 211.69 247.753 211.329C247.537 210.968 247.321 210.68 246.961 210.535C246.673 210.391 246.313 210.319 246.025 210.535C245.809 210.68 245.737 211.041 245.809 211.329C245.881 211.618 246.025 211.835 246.169 212.051C246.313 212.268 246.529 212.485 246.673 212.701C246.385 212.196 245.809 211.907 245.305 211.979C245.017 211.979 244.729 212.124 244.585 212.34C244.441 212.629 244.585 212.918 244.729 213.134C244.945 213.351 245.161 213.495 245.449 213.64C245.809 213.856 246.097 214.073 246.385 214.362C246.241 214.506 246.097 214.723 245.953 214.939C245.665 215.373 245.521 215.95 245.377 216.456C245.089 217.755 245.233 219.055 245.305 220.427C245.665 224.47 246.025 228.585 246.385 232.628C246.673 235.877 246.961 239.126 247.249 242.448C247.465 242.448 247.609 242.52 247.753 242.52C247.825 242.52 247.897 242.52 247.969 242.52C248.257 242.592 248.545 242.664 248.833 242.736C248.905 242.736 248.977 242.736 249.049 242.809C249.481 242.881 249.841 243.025 250.273 243.17C250.345 243.17 250.417 243.17 250.489 243.242C250.705 243.314 250.993 243.386 251.281 243.386C251.353 243.386 251.425 243.386 251.497 243.458C251.641 243.458 251.857 243.531 252.001 243.531C252.217 241.653 252.433 239.848 252.649 237.971C252.649 237.682 252.721 237.394 252.721 237.105C254.161 238.404 256.537 238.116 257.905 236.816C258.265 236.527 258.553 236.166 258.841 235.733C259.633 234.506 260.065 232.917 260.209 231.401C260.281 230.39 260.353 229.668 260.353 229.018Z" fill="#A87431"/>
<path d="M235.224 228.441C235.152 228.008 235.08 227.647 234.936 227.213C234.864 226.997 234.72 226.852 234.576 226.708C234.576 226.708 234.504 226.636 234.432 226.636C234.288 226.564 234.144 226.491 234 226.419C233.928 226.419 233.856 226.419 233.784 226.419H233.712C233.568 226.419 233.496 226.491 233.352 226.564L233.28 226.636C232.992 226.852 232.776 227.141 232.632 227.502C232.416 228.08 232.488 228.802 232.632 229.379C232.776 230.318 232.848 231.257 232.92 232.195C233.136 235.011 233.136 237.755 232.92 240.57C232.92 240.787 232.848 241.004 232.848 241.22C232.776 241.581 232.704 241.87 232.488 242.159C232.128 242.664 231.408 242.953 230.76 242.953C230.616 242.953 230.544 242.953 230.4 242.953C230.544 241.87 230.616 240.787 230.76 239.704C231.048 236.383 231.192 232.989 231.12 229.668C231.048 226.925 230.904 224.037 229.392 221.654C229.176 221.293 228.96 221.004 228.672 220.715C228.6 220.643 228.456 220.499 228.312 220.427C228.24 220.427 228.24 220.354 228.168 220.354C228.168 220.354 228.096 220.354 228.096 220.282C228.168 219.993 228.312 219.777 228.528 219.488C228.672 219.344 228.816 219.127 228.744 218.91C228.672 218.694 228.456 218.622 228.312 218.622C228.168 218.622 227.952 218.766 227.808 218.91C227.808 218.694 227.88 218.405 227.808 218.188C227.736 217.972 227.52 217.755 227.304 217.683C227.088 217.683 226.872 217.827 226.728 218.044C226.584 218.261 226.584 218.477 226.512 218.766C226.44 218.622 226.368 218.477 226.296 218.405C226.152 218.333 226.008 218.333 225.936 218.405C225.864 218.477 225.864 218.549 225.864 218.694C225.864 218.766 225.864 218.838 225.936 218.91C225.792 218.766 225.648 218.694 225.432 218.622C225.216 218.549 225.072 218.549 224.856 218.622C224.712 218.694 224.568 218.91 224.568 219.055C224.568 219.199 224.64 219.344 224.784 219.488C224.856 219.56 225 219.705 225.144 219.777C225.36 219.921 225.576 220.138 225.72 220.354C225.648 220.427 225.504 220.571 225.432 220.643C225.36 220.715 225.36 220.715 225.36 220.788C224.928 221.51 224.784 222.593 224.784 223.531C224.784 226.058 224.784 228.657 224.856 231.184C224.856 232.412 224.856 233.639 224.856 234.867C224.568 234.867 224.28 234.794 223.992 234.722C223.848 234.722 223.632 234.65 223.488 234.578C223.128 234.433 222.84 234.289 222.552 234C222.048 233.423 221.976 232.701 221.976 231.906C221.976 231.257 222.12 230.607 222.048 229.957C222.048 229.524 221.976 229.091 221.832 228.657C221.76 228.441 221.688 228.296 221.544 228.08C221.472 227.935 221.328 227.863 221.184 227.719C221.112 227.719 221.112 227.647 221.04 227.647C220.896 227.574 220.68 227.502 220.536 227.43C220.464 227.43 220.464 227.43 220.392 227.43C220.248 227.43 220.104 227.43 219.96 227.43H219.888C219.888 227.43 219.888 227.43 219.816 227.43C219.6 227.502 219.456 227.574 219.312 227.719C219.24 227.791 219.24 227.791 219.168 227.863C218.952 228.08 218.808 228.369 218.736 228.657C218.592 229.163 218.592 229.74 218.664 230.318C218.664 230.896 218.736 231.545 218.736 232.123C218.736 232.34 218.736 232.556 218.736 232.773C218.808 233.639 218.808 234.506 219.24 235.3C219.384 235.589 219.528 235.805 219.744 236.022C220.32 236.599 221.112 237.033 221.976 237.249C222.84 237.466 223.848 237.321 224.784 237.249C224.784 239.921 224.784 242.592 224.856 245.191V247.141C224.856 252.027 227.736 255.911 227.304 251.282L227.448 249.606C228.312 251.641 227.16 249.161 227.52 249.233L228.024 249.606C228.24 249.678 227.411 248.23 227.627 248.302L228.6 249.049C228.744 249.122 228.041 248.043 228.185 248.116L228.37 247.935C228.586 248.007 228.384 247.863 228.6 247.935H228.672C228.888 248.007 229.104 248.079 229.32 248.151C229.464 247.141 229.68 246.13 229.824 245.191C230.472 245.336 231.192 245.408 231.84 245.408C232.992 245.408 234.144 245.047 234.792 244.108C235.224 243.386 235.296 242.52 235.296 241.653C235.368 240.065 235.368 238.404 235.368 236.816C235.368 234.145 235.296 231.473 235.008 228.874C235.296 228.874 235.296 228.657 235.224 228.441Z" fill="#A87431"/>
<path d="M242.568 226.13C242.352 225.769 242.064 225.408 241.776 225.12C241.632 224.975 241.56 224.903 241.416 224.831C241.344 224.831 241.345 224.759 241.273 224.759C241.273 224.759 241.2 224.759 241.2 224.686C241.344 224.398 241.417 224.109 241.633 223.892C241.777 223.676 241.92 223.531 241.848 223.242C241.776 223.026 241.561 222.881 241.345 222.954C241.129 222.954 240.984 223.098 240.84 223.242C240.84 222.954 240.912 222.737 240.84 222.448C240.768 222.159 240.553 221.943 240.265 221.943C239.977 221.943 239.76 222.087 239.616 222.304C239.472 222.52 239.472 222.809 239.4 223.026C239.328 222.881 239.257 222.737 239.113 222.665C238.969 222.593 238.824 222.593 238.68 222.665C238.608 222.737 238.608 222.809 238.608 222.954C238.608 223.026 238.608 223.098 238.68 223.17C238.536 223.026 238.32 222.954 238.176 222.881C237.96 222.809 237.744 222.809 237.6 222.881C237.384 222.954 237.312 223.17 237.312 223.387C237.312 223.531 237.384 223.676 237.528 223.82C237.672 223.964 237.816 224.037 237.888 224.109C238.104 224.253 238.32 224.47 238.536 224.686C238.464 224.759 238.32 224.903 238.248 224.975C238.176 225.047 238.177 225.047 238.105 225.12C237.601 225.914 237.528 227.069 237.528 228.08C237.528 230.823 237.528 233.567 237.6 236.311C237.6 241.365 237.673 246.346 237.673 251.4V253.422C237.889 253.422 238.105 253.494 238.393 253.494C238.465 253.494 238.464 253.494 238.536 253.494C238.968 253.566 239.328 253.639 239.76 253.711H239.833C240.049 253.783 240.337 253.855 240.553 253.855C240.625 253.855 240.625 253.855 240.625 253.855C240.769 253.927 240.912 253.927 241.128 254H241.2C241.416 254.072 241.632 254.144 241.848 254.216C241.848 254.216 241.92 254.216 241.92 254.288C242.136 254.361 242.424 254.433 242.64 254.577C243.216 251.545 243.577 248.44 243.865 245.336C244.153 241.798 244.297 238.188 244.225 234.578C244.369 231.762 244.152 228.657 242.568 226.13Z" fill="#A87431"/>
<path d="M127.872 232.845C127.512 232.701 127.152 232.556 126.864 232.34C126.576 232.123 126.288 231.762 126.144 231.329C126 230.896 126.072 230.39 126.36 230.101C126.576 229.813 126.936 229.74 127.296 229.74C128.088 229.668 128.808 229.813 129.528 230.101C129.96 229.957 130.464 229.74 130.896 229.74C131.4 229.668 131.904 229.813 132.264 230.174C132.624 230.535 132.84 231.112 132.696 231.69C133.704 232.917 134.352 234.722 134.352 236.455C134.352 237.105 134.928 237.538 135.432 237.755C135.936 237.899 136.512 237.827 137.016 237.755C139.032 237.321 140.904 236.238 142.416 234.65C142.992 234 143.64 233.278 144.432 233.062C145.512 232.773 146.592 233.567 147.528 234.361C147.744 234.361 147.96 234.289 148.176 234.217C148.32 233.928 148.464 233.711 148.536 233.423C147.888 232.773 147.168 232.267 146.304 232.123C146.016 232.051 145.728 231.979 145.728 231.69C145.728 231.401 146.016 231.257 146.304 231.257C147.24 231.184 148.176 231.762 149.04 231.618C149.904 231.401 150.552 230.607 151.2 229.885C150.984 229.379 150.84 228.874 150.84 228.296C150.84 227.719 150.984 227.141 151.344 226.852C151.632 226.636 151.992 226.564 152.352 226.564C152.64 226.564 153 226.636 153.216 226.852C153.576 227.141 153.792 227.791 153.72 228.369C153.72 228.946 153.504 229.452 153.288 229.957C153.792 231.112 153.936 232.484 153.576 233.711C153.36 234.578 153.504 235.589 153.072 236.383C153.288 236.816 153.648 237.321 154.008 237.61C154.152 237.61 154.368 237.61 154.512 237.682C154.656 237.755 154.8 237.827 154.872 238.043C154.944 238.26 154.872 238.549 154.8 238.765C154.584 239.487 154.368 240.282 154.152 241.004C155.304 242.881 156.528 245.047 156.744 247.357C156.888 248.801 156.672 250.317 156.672 251.834C156.672 253.35 157.104 254.938 158.184 255.66C157.536 255.588 156.816 255.299 156.384 254.722C156.672 255.732 157.032 256.671 157.392 257.61C156.96 260.425 156.6 263.241 156.24 266.129C155.952 266.057 155.664 266.057 155.376 265.985C156.672 262.591 156.528 258.548 155.232 255.227C154.872 254.361 154.44 253.566 154.008 252.844C153.072 254.577 153.72 257.032 152.856 258.837C152.496 259.631 151.848 260.209 151.2 260.786C150.12 261.725 149.04 262.664 147.96 263.602C147.528 263.458 147.096 263.458 146.664 263.241C148.032 262.447 149.256 261.22 150.192 259.703C151.56 257.321 151.704 253.927 150.48 251.4C150.552 250.895 150.552 250.39 150.624 249.956C150.264 249.595 149.904 249.162 149.544 248.801C147.024 249.234 144.36 248.512 142.2 246.78C142.056 248.946 141.984 251.256 141.84 253.494C141.696 255.877 140.76 258.115 140.256 260.498C139.608 260.209 139.032 259.992 138.384 259.776C138.816 259.703 139.248 259.415 139.536 258.981C139.824 258.548 139.968 258.043 140.112 257.537C140.472 256.093 140.616 254.577 140.472 253.061C140.256 250.895 140.616 248.657 140.472 246.491C139.536 246.924 138.6 247.429 137.736 248.007C136.872 248.585 136.08 249.379 135.504 250.39C134.352 252.556 134.568 255.299 133.632 257.61C132.984 257.971 132.264 258.332 131.616 258.62C132.768 257.61 133.2 255.66 133.344 253.927C133.488 252.195 133.56 250.39 134.352 248.946C135.288 247.141 137.16 246.274 138.168 244.469C137.88 244.036 137.664 243.531 137.52 243.025C135.288 243.025 133.056 241.509 131.544 239.632C130.104 237.682 128.88 235.228 127.872 232.845Z" fill="#A87431"/>
<path d="M191.736 263.313C191.736 261.508 192.024 259.776 192.168 258.043C192.24 257.393 192.312 256.671 192.24 256.021C192.168 255.371 191.88 254.649 191.376 254.288C191.16 252.917 190.44 251.545 189.432 250.823C189.72 249.668 189.432 248.224 188.64 247.429C189.144 245.985 189.576 244.541 189.648 243.025C189.72 241.509 189.288 239.776 188.352 238.838C188.496 238.26 188.568 237.61 188.424 237.033C188.28 236.455 187.848 235.95 187.344 235.877C186.84 235.805 186.408 236.238 186.264 236.888C185.904 236.816 185.544 236.888 185.184 236.96C185.328 237.249 185.688 237.466 185.976 237.466C185.616 238.188 185.832 239.199 186.48 239.56C185.976 240.498 185.472 241.365 184.968 242.303C184.68 242.881 184.248 243.458 183.744 243.458C183.456 243.458 183.168 243.314 182.88 243.097C182.592 242.953 182.304 242.736 182.016 242.809C181.728 242.809 181.44 243.097 181.44 243.458C181.44 243.747 181.728 243.964 181.944 244.036C182.16 244.108 182.448 244.036 182.664 244.036C183.168 244.036 183.672 244.253 184.104 244.686C183.528 245.047 182.88 244.902 182.232 244.758C181.584 244.614 180.936 244.686 180.432 245.119C179.856 244.902 179.208 244.614 178.632 244.758C178.056 244.83 177.336 245.336 177.336 246.058C176.256 246.202 175.32 247.068 174.384 247.79C173.448 248.512 172.296 249.018 171.288 248.44C170.424 247.935 169.992 246.707 169.776 245.48C169.56 244.325 169.56 243.097 169.128 242.014C168.696 240.931 167.616 240.137 166.68 240.57C165.6 239.921 164.088 240.137 163.08 240.931C162.864 241.076 162.576 241.365 162.648 241.726C162.72 242.014 163.008 242.159 163.224 242.303C163.8 242.52 164.304 242.809 164.88 243.025C164.88 243.892 165.24 244.686 165.6 245.408C165.96 246.13 166.32 246.996 166.104 247.718C166.032 248.007 166.104 248.368 166.248 248.657C166.392 248.873 166.68 249.018 166.968 249.018C167.76 250.462 168.624 251.978 169.776 252.989C170.928 254 172.512 254.505 173.808 253.855C174.312 254.649 174.672 255.516 174.888 256.454C174.744 257.104 174.816 257.826 174.888 258.476C174.24 259.631 173.52 260.714 172.872 261.869C172.728 262.158 172.512 262.447 172.44 262.808C172.368 263.458 172.728 264.035 173.088 264.469C173.52 264.902 174.024 265.191 174.312 265.768C174.024 266.201 173.808 266.779 173.664 267.357C173.52 267.934 173.448 268.512 173.16 269.017C172.944 269.45 172.512 269.739 172.152 269.811C172.44 269.884 172.656 270.172 172.872 270.317C173.16 270.533 173.592 270.678 173.808 270.461C173.952 270.317 174.024 270.172 174.096 269.956C174.528 268.728 174.888 267.501 175.32 266.274C176.04 267.284 176.472 268.656 176.472 270.028C176.832 269.234 177.192 268.512 177.552 267.79C177.048 266.996 176.4 266.274 175.68 265.768C176.184 264.469 175.968 262.808 176.112 261.364C176.256 259.92 176.904 258.332 178.128 258.043C178.632 257.898 179.136 258.043 179.568 258.187C181.584 258.765 183.672 259.342 185.688 259.92C185.544 262.158 186.552 264.396 186.192 266.562C185.904 268.079 185.04 269.378 183.96 270.245C182.88 271.183 181.656 271.761 180.504 272.266C181.08 272.411 181.728 272.699 182.304 272.844C185.688 270.678 188.064 266.346 188.424 261.797C190.152 263.313 191.16 265.985 191.088 268.584C191.016 271.183 189.864 273.71 188.064 275.154C188.496 275.299 189.288 275.226 189.72 275.371C191.16 273.421 192.384 270.75 192.888 268.223C192.096 266.923 191.736 265.118 191.736 263.313ZM174.096 263.169C174.024 262.808 174.24 262.447 174.456 262.158C174.672 261.869 174.888 261.653 175.032 261.292C174.96 262.303 174.888 263.241 174.672 264.18C174.528 263.963 174.168 263.602 174.096 263.169Z" fill="#A87431"/>
<path d="M167.545 242.881C166.177 244.902 164.089 246.13 161.929 246.274C159.841 246.419 157.753 245.336 156.241 243.603C155.377 242.592 154.801 241.365 154.369 240.065C154.225 239.56 153.649 239.848 153.721 240.354C154.441 242.881 156.025 245.047 158.041 246.202C160.201 247.429 162.649 247.429 164.809 246.274C166.033 245.624 167.113 244.686 167.977 243.458C168.265 243.025 167.761 242.52 167.545 242.881Z" fill="#A87431"/>
<path d="M232.633 287.5V365.26H-206.207V342.372L9.21696 240.643C18.577 236.238 28.369 233.639 38.233 232.845C48.457 232.051 58.825 233.206 68.8329 236.383C72.073 237.394 75.4569 238.477 78.9849 239.56C79.8489 239.848 80.7849 240.137 81.649 240.426C82.369 240.643 83.017 240.859 83.737 241.076C84.457 241.292 85.1049 241.509 85.825 241.726C89.5689 242.881 93.457 244.108 97.417 245.336C98.065 245.552 98.7849 245.769 99.433 245.985C104.185 247.502 109.081 249.018 114.049 250.534C114.697 250.751 115.273 250.895 115.921 251.112C129.601 255.371 143.785 259.848 157.393 264.108C158.473 264.469 159.481 264.757 160.489 265.118C162.073 265.624 163.585 266.057 165.097 266.562C165.601 266.707 166.105 266.851 166.609 267.068C171.721 268.656 176.689 270.245 181.441 271.689C182.377 271.977 183.313 272.266 184.321 272.555C185.185 272.844 186.049 273.06 186.841 273.349C187.633 273.566 188.497 273.855 189.289 274.143C189.937 274.36 190.513 274.504 191.089 274.721C192.025 275.01 192.889 275.299 193.825 275.587C194.257 275.732 194.689 275.876 195.121 276.021C195.841 276.237 196.561 276.454 197.281 276.67C197.569 276.743 197.857 276.887 198.145 276.959C198.721 277.176 199.297 277.32 199.873 277.465C201.241 277.898 202.609 278.331 203.977 278.764C204.337 278.909 204.697 278.981 205.057 279.125C206.353 279.558 207.649 279.919 208.945 280.353C209.305 280.497 209.665 280.569 210.025 280.714C211.249 281.075 212.473 281.508 213.625 281.797C213.985 281.941 214.345 282.013 214.705 282.158C215.353 282.374 216.001 282.519 216.649 282.735C216.937 282.807 217.225 282.952 217.513 283.024C218.305 283.241 219.097 283.529 219.889 283.746C220.105 283.818 220.249 283.89 220.465 283.89C220.681 283.963 220.825 284.035 221.041 284.035C221.545 284.179 222.121 284.324 222.553 284.54C223.633 284.829 224.569 285.19 225.505 285.407C225.937 285.551 226.369 285.695 226.801 285.768C227.089 285.84 227.305 285.912 227.593 285.984C227.809 286.056 228.025 286.129 228.241 286.201C228.745 286.345 229.177 286.49 229.609 286.634C229.825 286.706 229.969 286.778 230.185 286.778C230.329 286.851 230.473 286.851 230.617 286.923C230.761 286.995 230.977 286.995 231.121 287.067H231.193C231.337 287.139 231.481 287.139 231.553 287.212C232.129 287.356 232.489 287.428 232.633 287.5Z" fill="#A87431"/>
<path d="M232.632 290.749V321.001L4.32031 325.622L104.832 280.136C95.9763 281.652 76.6083 284.251 74.3763 276.237C73.5123 273.133 75.2403 271.761 75.6003 269.45C76.1043 266.201 75.0243 262.808 73.2963 260.498C71.5683 258.187 69.2643 256.815 67.0323 255.805C62.0643 253.566 56.8083 252.844 51.7683 250.751C46.7283 248.657 41.7603 245.047 39.0963 238.838C38.4483 237.394 38.2323 235.083 38.2323 232.917C48.4563 232.123 58.8243 233.278 68.8323 236.455C72.0723 237.466 75.4563 238.549 78.9843 239.632C79.8483 239.921 80.7843 240.209 81.6483 240.498C82.3683 240.715 83.0163 240.931 83.7363 241.148C84.4563 241.365 85.1043 241.581 85.8243 241.798C89.5683 242.953 93.4563 244.18 97.4163 245.408C98.0643 245.624 98.7843 245.841 99.4323 246.058C104.184 247.574 109.08 249.09 114.048 250.606C114.696 250.823 115.272 250.967 115.92 251.184C129.6 255.444 143.784 259.92 157.392 264.18C158.472 264.541 159.48 264.83 160.488 265.191C162.072 265.696 163.584 266.129 165.096 266.635C165.6 266.779 166.104 266.923 166.608 267.14C171.72 268.728 176.688 270.317 181.44 271.761C182.376 272.05 183.312 272.338 184.32 272.627C185.184 272.916 186.048 273.133 186.84 273.421C187.632 273.638 188.496 273.927 189.288 274.216C189.864 274.432 190.512 274.577 191.088 274.793C192.024 275.082 192.888 275.371 193.824 275.66C194.256 275.804 194.688 275.948 195.12 276.093C195.84 276.309 196.56 276.526 197.28 276.743C197.568 276.815 197.856 276.887 198.144 277.031C198.72 277.176 199.296 277.392 199.872 277.537C201.24 277.97 202.608 278.403 203.976 278.836C204.336 278.981 204.696 279.053 205.056 279.197C206.352 279.631 207.648 279.992 208.944 280.425C209.304 280.569 209.664 280.641 210.024 280.786C211.248 281.147 212.472 281.58 213.624 281.869C213.984 282.013 214.344 282.085 214.704 282.23C215.352 282.446 216 282.591 216.648 282.807C216.936 282.88 217.224 283.024 217.512 283.096C218.304 283.313 219.096 283.602 219.888 283.818C220.104 283.89 220.248 283.963 220.464 283.963C220.68 284.035 220.824 284.107 221.04 284.107C221.544 284.251 222.12 284.396 222.552 284.612C223.632 284.901 224.568 285.262 225.504 285.479C225.936 285.623 226.368 285.768 226.8 285.84C227.088 285.912 227.304 285.984 227.592 286.056C227.808 286.129 228.024 286.201 228.24 286.273C228.744 286.417 229.176 286.562 229.608 286.706C229.824 286.778 229.968 286.851 230.184 286.851C230.328 286.923 230.472 286.923 230.616 286.995C230.76 287.067 230.976 287.067 231.12 287.139H231.192C231.336 287.212 231.48 287.212 231.552 287.284L232.632 290.749Z" fill="#D1A14E"/>
<path d="M38.233 299.847C38.449 300.785 36.361 302.446 33.481 303.529C30.601 304.612 28.081 304.756 27.865 303.818C27.649 302.879 29.737 301.218 32.617 300.135C35.425 299.052 37.945 298.908 38.233 299.847Z" fill="#9A6527"/>
<path d="M15.2662 243.314C15.4822 244.253 13.3942 245.913 10.5142 246.996C7.63416 248.079 5.11416 248.224 4.89816 247.285C4.68216 246.346 6.77016 244.686 9.65016 243.603C12.4582 242.448 14.9782 242.375 15.2662 243.314Z" fill="#9A6527"/>
<path d="M47.522 270.606C47.738 271.544 45.65 273.205 42.77 274.288C39.89 275.371 37.37 275.515 37.154 274.577C36.938 273.638 39.026 271.977 41.906 270.894C44.786 269.811 47.306 269.667 47.522 270.606Z" fill="#9A6527"/>
<path d="M52.4897 278.403C52.6337 278.981 51.4097 279.919 49.8257 280.497C48.1697 281.147 46.7297 281.147 46.5857 280.641C46.4417 280.064 47.6657 279.125 49.2497 278.548C50.9057 277.898 52.3457 277.826 52.4897 278.403Z" fill="#9A6527"/>
<path d="M24.5542 249.884C24.6982 250.462 23.4742 251.4 21.8902 251.978C20.2342 252.628 18.7942 252.628 18.6502 252.122C18.5062 251.545 19.7302 250.606 21.3142 250.029C22.9702 249.379 24.4102 249.379 24.5542 249.884Z" fill="#9A6527"/>
<path d="M27.0017 297.897C27.0737 298.258 26.3537 298.764 25.4177 299.125C24.4097 299.486 23.6177 299.558 23.4737 299.197C23.4017 298.836 24.1217 298.33 25.0577 297.969C26.0657 297.608 26.9297 297.608 27.0017 297.897Z" fill="#9A6527"/>
<path d="M491.257 271.328V361H-85.4629L345.097 205.409C348.121 204.254 351.577 203.604 355.105 203.387C363.313 202.81 372.313 204.543 379.441 208.369C380.737 209.091 382.033 209.813 383.401 210.535C383.761 210.752 384.121 210.968 384.553 211.185C388.441 213.351 392.689 215.734 397.153 218.261C397.873 218.622 398.521 219.055 399.241 219.416C402.553 221.293 405.937 223.17 409.393 225.12C409.969 225.481 410.617 225.769 411.193 226.13C411.553 226.347 411.913 226.564 412.345 226.78C413.065 227.213 413.857 227.574 414.577 228.008C418.177 230.029 421.849 232.051 425.521 234.145C426.025 234.433 426.529 234.722 427.033 234.939C430.201 236.744 433.369 238.477 436.465 240.209C437.617 240.859 438.769 241.509 439.849 242.087C440.641 242.52 441.433 243.025 442.225 243.458C442.801 243.819 443.377 244.108 444.025 244.469C444.673 244.83 445.321 245.191 445.969 245.552C446.545 245.841 447.121 246.202 447.625 246.491C448.921 247.213 450.289 248.007 451.585 248.729C452.017 249.018 452.521 249.234 452.953 249.523C452.953 249.523 453.025 249.523 453.025 249.595C453.745 250.029 454.465 250.39 455.113 250.751C455.257 250.823 455.473 250.967 455.617 251.039C456.049 251.256 456.481 251.545 456.913 251.761C463.537 255.516 469.657 258.909 474.769 261.869C475.129 262.086 475.417 262.23 475.777 262.447C484.993 267.573 490.897 270.967 491.257 271.328Z" fill="#A87431"/>
<path d="M491.258 271.328V307.211C443.162 303.312 394.706 293.998 350.642 267.501C344.594 263.891 338.258 259.415 335.09 251.4C330.698 240.354 334.082 225.914 340.562 217.033C345.026 210.896 349.778 206.781 355.106 203.315C363.314 202.738 372.314 204.47 379.442 208.297C380.738 209.019 382.034 209.741 383.402 210.463C383.762 210.68 384.122 210.896 384.554 211.113C388.442 213.279 392.69 215.661 397.154 218.188C397.874 218.549 398.522 218.983 399.242 219.344C402.554 221.221 405.938 223.098 409.394 225.047C409.97 225.408 410.618 225.697 411.194 226.058C411.554 226.275 411.914 226.491 412.346 226.708C413.066 227.141 413.858 227.502 414.578 227.935C418.178 229.957 421.85 231.979 425.522 234.072C426.026 234.361 426.53 234.65 427.034 234.867C430.202 236.672 433.37 238.404 436.466 240.137C437.618 240.787 438.77 241.437 439.85 242.014C440.642 242.448 441.434 242.953 442.226 243.386C442.802 243.747 443.378 244.036 444.026 244.397C444.674 244.758 445.322 245.119 445.97 245.48C446.546 245.769 447.122 246.13 447.626 246.419C448.922 247.141 450.29 247.935 451.586 248.657C452.018 248.946 452.522 249.162 452.954 249.451C452.954 249.451 453.026 249.451 453.026 249.523C453.746 249.956 454.466 250.317 455.114 250.678C455.258 250.751 455.474 250.895 455.618 250.967C456.05 251.184 456.482 251.473 456.914 251.689C463.538 255.444 469.658 258.837 474.77 261.797C475.13 262.014 475.418 262.158 475.778 262.375C484.994 267.573 490.898 270.967 491.258 271.328Z" fill="#D1A14E"/>
<path d="M351.001 279.414C351.217 280.353 349.129 282.013 346.249 283.096C343.369 284.179 340.849 284.324 340.633 283.385C340.417 282.446 342.505 280.786 345.385 279.703C348.265 278.548 350.785 278.475 351.001 279.414Z" fill="#9A6527"/>
<path d="M257.014 250.492C259.864 249.369 261.891 247.736 261.542 246.846C261.192 245.955 258.599 246.143 255.75 247.267C252.9 248.39 250.873 250.022 251.222 250.913C251.571 251.804 254.164 251.615 257.014 250.492Z" fill="#9A6527"/>
<path d="M302.184 234.072C302.4 235.011 300.312 236.672 297.432 237.755C294.552 238.838 292.032 238.982 291.816 238.043C291.6 237.105 293.688 235.444 296.568 234.361C299.448 233.278 301.968 233.134 302.184 234.072Z" fill="#9A6527"/>
<path d="M251.208 274.143C251.352 274.721 250.128 275.66 248.544 276.237C246.888 276.887 245.448 276.887 245.304 276.382C245.16 275.804 246.384 274.865 247.968 274.288C249.624 273.638 251.064 273.566 251.208 274.143Z" fill="#9A6527"/>
<path d="M307.152 241.87C307.296 242.448 306.072 243.386 304.488 243.964C302.832 244.614 301.392 244.614 301.248 244.108C301.104 243.531 302.328 242.592 303.912 242.014C305.568 241.365 307.008 241.292 307.152 241.87Z" fill="#9A6527"/>
<path d="M146.449 286.129C146.593 286.706 145.369 287.645 143.785 288.222C142.129 288.872 140.689 288.872 140.545 288.367C140.401 287.789 141.625 286.851 143.209 286.273C144.865 285.695 146.305 285.623 146.449 286.129Z" fill="#9A6527"/>
<path d="M270.937 253.494C271.081 254.072 269.857 255.01 268.273 255.588C266.617 256.238 265.177 256.238 265.033 255.732C264.889 255.155 266.113 254.216 267.697 253.639C269.353 253.061 270.721 252.989 270.937 253.494Z" fill="#9A6527"/>
<path d="M255.097 275.443C255.169 275.804 254.449 276.309 253.513 276.67C252.505 277.031 251.713 277.104 251.569 276.743C251.497 276.382 252.217 275.876 253.153 275.515C254.089 275.154 254.953 275.082 255.097 275.443Z" fill="#9A6527"/>
<path d="M313.129 262.014C313.201 262.375 312.481 262.88 311.545 263.241C310.537 263.602 309.745 263.674 309.601 263.313C309.529 262.952 310.249 262.447 311.185 262.086C312.121 261.725 312.985 261.653 313.129 262.014Z" fill="#9A6527"/>
<path d="M155.521 297.464C155.593 297.825 154.873 298.33 153.937 298.691C152.929 299.052 152.137 299.125 151.993 298.764C151.921 298.403 152.641 297.897 153.577 297.536C154.585 297.175 155.449 297.175 155.521 297.464Z" fill="#9A6527"/>
</g>
<defs>
<clipPath id="clip0_3103_42613">
<rect width="540" height="361" fill="white" transform="translate(-63)"/>
</clipPath>
</defs>
</svg>
