<svg width="30" height="30" viewBox="0 0 30 30" fill="none" xmlns="http://www.w3.org/2000/svg"><path d="M15 0.060791C6.75 0.060791 0 6.79579 0 15.0908C0 22.5908 5.49 28.8158 12.66 29.9408V19.4408H8.85V15.0908H12.66V11.7758C12.66 8.01079 14.895 5.94079 18.33 5.94079C19.965 5.94079 21.675 6.22579 21.675 6.22579V9.93079H19.785C17.925 9.93079 17.34 11.0858 17.34 12.2708V15.0908H21.51L20.835 19.4408H17.34V29.9408C20.8747 29.3826 24.0933 27.5791 26.4149 24.8559C28.7365 22.1327 30.008 18.6693 30 15.0908C30 6.79579 23.25 0.060791 15 0.060791Z" fill="#4176FF"/></svg>
