<svg width="24" height="24" viewBox="0 0 24 24" fill="none" xmlns="http://www.w3.org/2000/svg">
<g opacity="0.5">
<path d="M0.5 22.8331C0.635807 22.3315 0.776296 21.8299 0.902737 21.3237C1.23523 19.997 1.56304 18.6657 1.90021 17.339C1.93299 17.2078 2.00792 17.0718 2.10158 16.9734C6.26475 12.8013 10.4279 8.62916 14.5911 4.46172C14.6239 4.42891 14.6567 4.40078 14.6754 4.38672C16.3144 6.02744 17.9488 7.66348 19.5972 9.31357C19.5691 9.34639 19.5129 9.40733 19.4567 9.46358C15.3357 13.5888 11.21 17.7188 7.08428 21.8393C6.95784 21.9659 6.78457 22.069 6.6113 22.1112C4.83176 22.5659 3.04754 23.0113 1.26333 23.4566C0.86059 23.5597 0.7201 23.4988 0.5 23.1472C0.5 23.0441 0.5 22.9363 0.5 22.8331Z" fill="white" fill-opacity="0.87"/>
<path d="M21.0671 7.85408C19.4141 6.1993 17.7797 4.56326 16.1641 2.95067C16.7682 2.33188 17.3535 1.66153 18.0092 1.07556C18.8802 0.292697 20.3366 0.316136 21.2076 1.099C21.8071 1.6334 22.3737 2.20062 22.9076 2.79597C23.713 3.70071 23.6849 5.10236 22.8935 6.0071C22.8139 6.09617 22.7296 6.18055 22.6453 6.26961C22.1161 6.80402 21.587 7.32905 21.0671 7.85408Z" fill="white" fill-opacity="0.87"/>
</g>
</svg>
