<svg width="76" height="92" viewBox="0 0 76 92" fill="none" xmlns="http://www.w3.org/2000/svg">
<path d="M71.8253 8.4465C73.7665 9.18013 75.0167 10.8565 75.0167 12.7126V53.8877C75.036 58.0032 74.0797 62.0644 72.2269 65.7361C70.3741 69.4078 67.6778 72.5849 64.3604 75.0053L40.2805 90.5362C39.4721 91.0415 38.5387 91.3093 37.5863 91.3093C36.6338 91.3093 35.7005 91.0415 34.892 90.5362L10.7646 75.0456C7.44445 72.6284 4.74492 69.4534 2.88886 65.7828C1.0328 62.1123 0.0734252 58.0513 0.0899859 53.9353V12.8703C0.0899859 10.9629 1.41701 9.2425 3.4386 8.54554C32.7132 -1.52355 44.4516 -1.79867 71.8253 8.46484V8.4465Z" fill="#FFBB07"/>
<path d="M3.43567 8.5294C17.6803 3.62784 27.7611 1.05232 37.5169 0.879883L37.5534 91.3093C36.601 91.314 35.6671 91.0454 34.8615 90.5351L10.7552 75.0417C7.43801 72.624 4.74085 69.4485 2.88641 65.7772C1.03198 62.1059 0.0734457 58.0443 0.0899918 53.9275V12.855C0.0899918 10.9472 1.41585 9.22648 3.43567 8.5294V8.5294Z" fill="#E4A600"/>
<path d="M23.1814 59H19L29.4244 28H33.6058L23.1814 59Z" fill="black"/>
<path d="M53.36 44.3725L42.0604 40.3922V34.9412L59 42.098V46.7059L42.0604 53.8824V48.4118L53.36 44.3725Z" fill="black"/>
</svg>
