<svg width="24" height="24" viewBox="0 0 24 24" fill="none" xmlns="http://www.w3.org/2000/svg">
<path d="M17.8124 10.2376C17.8124 10.2376 16.1249 8.85014 15.2249 7.50014C14.8874 7.01264 13.7999 7.08764 13.4249 8.02514L7.57487 10.2751L3.71237 8.21264C3.11237 7.83764 2.32487 8.10014 1.98737 8.81264C1.64987 9.48764 1.83737 10.3501 2.47487 10.7251L3.07487 11.0626C2.54987 10.9876 1.98737 11.2501 1.72487 11.7751C1.38737 12.4501 1.57487 13.3126 2.21237 13.6876L3.56237 14.4751C2.96237 14.1001 2.17487 14.3626 1.83737 15.0751C1.49987 15.7501 1.68737 16.6126 2.32487 16.9876C2.32487 16.9876 9.11237 21.1876 11.4374 22.4251C13.2749 23.4376 16.9124 23.9251 19.1999 21.1501C19.9499 20.1751 17.8124 10.2376 17.8124 10.2376Z" fill="#DC9D58"/>
<path d="M20.6261 10.2375C19.4261 9.41247 18.6011 8.32497 18.0011 6.67498C17.7761 6.11248 16.9511 5.99998 16.4636 6.93748C15.7511 8.28748 16.4261 9.37497 16.8011 9.86247L16.9886 10.0875C16.9886 10.0875 17.1011 10.5 17.2886 10.9875C16.2761 10.7625 15.1511 11.325 14.3636 12.375C13.5386 13.4625 11.5886 15.3375 10.7636 16.425C9.75106 17.7375 10.0136 19.6125 11.1386 20.4375C11.1386 20.4375 17.0261 24.75 20.9261 19.4625C24.0011 15.3375 21.8261 11.0625 20.6261 10.2375Z" fill="#FCE407"/>
<path d="M18.6382 11.8124C19.2382 12.2624 19.3882 13.1249 18.9382 13.7999C18.5257 14.4749 17.6632 14.6624 17.0632 14.2124L7.72571 7.49989C7.12571 7.04989 6.97571 6.18739 7.42571 5.51239C7.83821 4.83739 8.70071 4.64989 9.30071 5.09989L18.6382 11.8124Z" fill="#FCE407"/>
<path d="M13.7995 11.0626L7.83701 6.75015C7.49951 6.52515 7.27451 6.15015 7.38701 5.58765C6.97451 6.33765 7.23701 7.08765 7.72451 7.46265L13.687 11.7751C14.287 12.2251 14.3995 11.5126 13.7995 11.0626Z" fill="#D68429"/>
<path d="M15.6001 13.125C16.2001 13.575 16.3501 14.4375 15.9001 15.1125C15.4876 15.7875 14.6251 15.975 14.0251 15.525L4.68763 8.77504C4.08763 8.32504 3.93763 7.46254 4.38763 6.78754C4.80013 6.11254 5.66263 5.92504 6.26263 6.37504L15.6001 13.125Z" fill="#FCE407"/>
<path d="M12.0001 13.2751L4.80012 8.06265C4.46262 7.83765 4.23762 7.38765 4.35012 6.90015C3.93762 7.65015 4.16262 8.47515 4.68762 8.85015L11.9251 13.9876C12.4876 14.4376 12.6001 13.6876 12.0001 13.2751Z" fill="#D68429"/>
<path d="M14.9995 16.125C15.5995 16.575 15.7495 17.4375 15.2995 18.1125C14.887 18.7875 14.0245 18.975 13.4245 18.525L4.08704 11.775C3.48704 11.325 3.33704 10.4625 3.78704 9.78754C4.19954 9.11254 5.06204 8.92504 5.66204 9.37504L14.9995 16.125Z" fill="#FCE407"/>
<path d="M10.575 15.6751L4.19999 11.1001C3.86249 10.8751 3.63749 10.3501 3.78749 9.82507C3.29999 10.5376 3.48749 11.4751 4.01249 11.8501L10.4625 16.3876C11.0625 16.8376 11.175 16.1251 10.575 15.6751Z" fill="#D68429"/>
<path d="M14.7374 19.4999C15.3374 19.9499 11.0624 20.3999 10.4624 19.9499L3.86243 15.1874C3.26243 14.7374 3.11243 13.8749 3.56243 13.1999C3.97493 12.5249 4.83743 12.3374 5.43743 12.7874L14.7374 19.4999Z" fill="#FCE407"/>
<path d="M22.4626 15.6C22.4626 15.6 21.8251 18.9 19.2001 20.8875C16.8751 22.65 13.2751 21.1125 11.5501 19.9875C9.75005 18.75 8.85005 18.15 4.50005 14.85C3.67505 14.2125 3.45005 13.8 3.56255 13.125C2.92505 13.8 3.26255 14.85 3.78755 15.225L4.23755 15.525C4.23755 15.525 9.45005 19.35 11.2126 20.55C12.8251 21.675 16.9876 23.4375 19.6126 21.3375C22.5751 19.05 22.4626 15.6 22.4626 15.6Z" fill="#D68429"/>
<path d="M17.9996 11.2874C17.2496 10.4999 17.2121 9.37493 17.2121 9.37493L17.0246 9.14993C16.7246 8.77493 16.2371 7.98743 16.4246 7.04993C15.7121 8.36243 16.4246 9.41243 16.7621 9.86243L16.9496 10.0874C16.9496 10.0874 16.9121 10.4249 17.0996 10.6874L17.9996 11.2874Z" fill="#D68429"/>
<path d="M14.1748 0.75L15.2998 5.325L17.5123 1.0875L14.1748 0.75Z" fill="#0054FF"/>
<path d="M19.7246 2.09985L18.0371 5.88735L21.9746 4.87485L19.7246 2.09985Z" fill="#0054FF"/>
<path d="M11.3248 1.3125L12.3748 5.4375L8.9248 3.225L11.3248 1.3125Z" fill="#0054FF"/>
</svg>
