<svg width="224" height="64" viewBox="0 0 224 64" fill="none" xmlns="http://www.w3.org/2000/svg">
<path d="M84.4258 57.2651C84.6775 57.7159 84.8033 58.1667 84.8662 58.6175C84.4258 58.8107 83.9854 58.9395 83.5451 59.0039C83.1047 59.0683 82.6014 59.1327 82.0981 59.1327C81.2803 59.1327 80.5882 59.0039 79.9591 58.7463C79.33 58.4887 78.7638 58.1023 78.3235 57.5871C77.8831 57.0719 77.5685 56.4923 77.3169 55.7195C77.0653 55.0111 76.9395 54.1739 76.9395 53.2724C76.9395 52.3708 77.0653 51.5336 77.3169 50.8252C77.5685 50.1168 77.8831 49.4728 78.3235 48.9576C78.7638 48.4424 79.2671 48.056 79.8962 47.734C80.5253 47.4764 81.2174 47.2832 82.0352 47.2832C82.6014 47.2832 83.1047 47.3476 83.5451 47.412C83.9854 47.4764 84.3629 47.6052 84.6774 47.734C84.6774 47.9916 84.6145 48.1848 84.5516 48.4424C84.4887 48.6356 84.4258 48.8932 84.3 49.0864C84.1741 49.022 83.9854 48.9576 83.8596 48.9576C83.7338 48.8932 83.545 48.8932 83.4192 48.8288C83.2305 48.8288 83.1047 48.7644 82.8531 48.7644C82.6643 48.7644 82.4126 48.7644 82.161 48.7644C81.0286 48.7644 80.2108 49.1508 79.5817 49.9236C78.9526 50.6964 78.638 51.8556 78.638 53.3368C78.638 54.1095 78.7009 54.7535 78.8897 55.2687C79.0784 55.8483 79.33 56.2991 79.6446 56.6211C79.9591 57.0075 80.3366 57.2651 80.777 57.4583C81.2174 57.6515 81.7207 57.7159 82.2869 57.7159C82.7272 57.7159 83.1047 57.6515 83.4192 57.5871C83.7967 57.4583 84.1113 57.3939 84.4258 57.2651Z" fill="white"/>
<path d="M86.8789 47.4121C87.1305 47.4121 87.3193 47.3477 87.508 47.3477C87.6967 47.3477 87.8855 47.2833 88.0742 47.2833C88.263 47.2833 88.4517 47.2833 88.6404 47.2189C88.8292 47.2189 89.0179 47.2189 89.2695 47.2189C89.7728 47.2189 90.2761 47.2833 90.7794 47.3477C91.2827 47.4765 91.723 47.6697 92.1634 47.9273C92.5409 48.1849 92.8554 48.5713 93.1071 49.0221C93.3587 49.4728 93.4845 50.0524 93.4845 50.7608C93.4845 51.1472 93.4217 51.5336 93.2958 51.92C93.17 52.242 92.9813 52.564 92.7925 52.8216C92.6038 53.0792 92.3522 53.3368 92.1005 53.53C91.8489 53.7232 91.5973 53.9164 91.3456 54.0452L91.1569 54.1096L94.3653 58.9396C94.1137 59.004 93.7991 59.004 93.4216 59.004C93.17 59.004 92.8555 59.004 92.6038 58.9396L89.0808 53.6588V53.5944L89.2066 53.53C89.4583 53.4656 89.7729 53.3368 90.0874 53.208C90.402 53.0792 90.6536 52.886 90.9052 52.6928C91.1568 52.4996 91.4085 52.242 91.5343 51.92C91.723 51.598 91.786 51.276 91.786 50.8896C91.786 50.1168 91.5972 49.5372 91.1569 49.2153C90.7165 48.8289 90.1503 48.6357 89.3953 48.6357C89.2066 48.6357 89.0808 48.6357 88.8921 48.6357C88.7663 48.6357 88.5775 48.6357 88.3888 48.7001V58.9396C88.263 58.9396 88.1372 58.9396 88.0113 59.004C87.8855 59.004 87.7597 59.004 87.6339 59.004C87.5081 59.004 87.3823 59.004 87.2564 59.004C87.1306 59.004 87.0047 59.004 86.8789 58.9396V47.4121Z" fill="white"/>
<path d="M97.5742 54.818H100.909L99.21 48.9576L97.5742 54.818ZM101.349 56.2348H97.1968L96.4419 58.8751C96.3161 58.8751 96.1903 58.9395 96.0645 58.9395C95.9386 58.9395 95.8128 58.9395 95.6869 58.9395C95.5611 58.9395 95.4353 58.9395 95.2466 58.9395C95.1208 58.9395 94.995 58.9395 94.8691 58.8751L98.455 47.4121C98.5808 47.4121 98.7067 47.3477 98.8954 47.3477C99.0213 47.3477 99.2099 47.3477 99.3987 47.3477C99.5245 47.3477 99.7133 47.3477 99.8391 47.3477C99.9649 47.3477 100.154 47.3477 100.279 47.4121L103.802 58.8751C103.677 58.8751 103.551 58.9395 103.362 58.9395C103.236 58.9395 103.047 58.9395 102.922 58.9395C102.796 58.9395 102.67 58.9395 102.544 58.9395C102.418 58.9395 102.293 58.9395 102.167 58.8751L101.349 56.2348Z" fill="white"/>
<path d="M105.312 47.4764H111.037C111.037 47.6052 111.1 47.6696 111.1 47.7984C111.1 47.9272 111.1 48.056 111.1 48.1848C111.1 48.3136 111.1 48.4424 111.1 48.5712C111.1 48.7 111.1 48.8288 111.037 48.8932H106.885V52.242H110.345C110.345 52.3708 110.408 52.4996 110.408 52.6284C110.408 52.7572 110.408 52.886 110.408 53.0148C110.408 53.1436 110.408 53.2724 110.408 53.4012C110.408 53.53 110.408 53.6588 110.345 53.7876H106.885V59.0039C106.759 59.0039 106.634 59.0683 106.508 59.0683C106.382 59.0683 106.256 59.0683 106.13 59.0683C106.005 59.0683 105.879 59.0683 105.753 59.0683C105.627 59.0683 105.501 59.0683 105.375 59.0039V47.4764H105.312Z" fill="white"/>
<path d="M114.937 48.8932H112.106C112.106 48.7644 112.043 48.7 112.043 48.5712C112.043 48.4424 112.043 48.3136 112.043 48.1848C112.043 48.056 112.043 47.9272 112.043 47.7984C112.043 47.6696 112.043 47.5408 112.106 47.4764H119.341C119.341 47.6052 119.404 47.6696 119.404 47.7984C119.404 47.9272 119.404 48.056 119.404 48.1204C119.404 48.2492 119.404 48.378 119.404 48.5068C119.404 48.6356 119.404 48.7644 119.341 48.8932H116.51V58.9395C116.258 59.0039 116.006 59.0039 115.755 59.0039C115.44 59.0039 115.189 59.0039 114.937 58.9395V48.8932Z" fill="white"/>
<path d="M121.039 47.4764C121.165 47.4764 121.291 47.412 121.417 47.412C121.542 47.412 121.668 47.412 121.794 47.412C121.92 47.412 122.046 47.412 122.171 47.412C122.297 47.412 122.423 47.412 122.549 47.4764V58.9395C122.423 58.9395 122.297 59.0039 122.171 59.0039C122.046 59.0039 121.92 59.0039 121.794 59.0039C121.668 59.0039 121.542 59.0039 121.417 59.0039C121.291 59.0039 121.165 59.0039 121.039 58.9395V47.4764Z" fill="white"/>
<path d="M125.254 47.4764C125.38 47.4764 125.506 47.412 125.631 47.412C125.757 47.412 125.883 47.412 126.009 47.412C126.135 47.412 126.261 47.412 126.386 47.412C126.512 47.412 126.638 47.412 126.764 47.4764L131.545 56.1059V47.4764C131.671 47.4764 131.797 47.412 131.922 47.412C132.048 47.412 132.174 47.412 132.3 47.412C132.426 47.412 132.552 47.412 132.677 47.412C132.803 47.412 132.929 47.412 133.055 47.4764V58.9395C132.929 58.9395 132.803 59.0039 132.677 59.0039C132.552 59.0039 132.426 59.0039 132.3 59.0039C132.174 59.0039 132.048 59.0039 131.922 59.0039C131.797 59.0039 131.671 59.0039 131.545 58.9395L126.764 50.3744V58.9395C126.638 58.9395 126.512 59.0039 126.386 59.0039C126.261 59.0039 126.135 59.0039 126.009 59.0039C125.883 59.0039 125.757 59.0039 125.631 59.0039C125.506 59.0039 125.38 59.0039 125.317 58.9395V47.4764H125.254Z" fill="white"/>
<path d="M141.99 53.0148C142.116 53.0148 142.241 52.9504 142.367 52.9504C142.493 52.9504 142.619 52.9504 142.745 52.9504C142.87 52.9504 142.996 52.9504 143.122 52.9504C143.248 52.9504 143.374 52.9504 143.499 53.0148V58.6176C143.311 58.682 143.059 58.8108 142.807 58.8752C142.556 58.9396 142.304 59.004 141.99 59.004C141.738 59.0684 141.423 59.0684 141.172 59.0684C140.92 59.0684 140.669 59.0684 140.417 59.0684C139.599 59.0684 138.844 58.9396 138.215 58.682C137.586 58.4244 137.02 58.038 136.579 57.5228C136.139 57.0076 135.761 56.428 135.573 55.6552C135.321 54.9468 135.195 54.1096 135.195 53.208C135.195 52.3064 135.321 51.4692 135.573 50.7608C135.824 50.0524 136.139 49.4085 136.642 48.8933C137.083 48.3781 137.649 47.9917 138.278 47.6697C138.907 47.4121 139.599 47.2189 140.354 47.2189C140.92 47.2189 141.423 47.2833 141.864 47.3477C142.304 47.4121 142.682 47.5409 142.996 47.6697C142.996 47.9273 142.933 48.1205 142.87 48.3781C142.807 48.5713 142.745 48.8289 142.619 49.0221C142.304 48.9577 142.053 48.8289 141.675 48.7645C141.361 48.7001 140.92 48.6357 140.417 48.6357C139.851 48.6357 139.41 48.7645 138.97 48.9577C138.53 49.1509 138.152 49.4729 137.838 49.8592C137.523 50.2456 137.271 50.6964 137.146 51.276C136.957 51.8556 136.894 52.4996 136.894 53.208C136.894 53.9808 136.957 54.6248 137.146 55.14C137.334 55.7196 137.586 56.1704 137.9 56.4924C138.215 56.8144 138.592 57.1364 139.033 57.3296C139.473 57.5228 139.977 57.5872 140.48 57.5872C140.794 57.5872 141.109 57.5872 141.361 57.5228C141.612 57.4584 141.801 57.4584 141.99 57.394V53.0148Z" fill="white"/>
<path d="M150.041 57.2008C150.355 57.3296 150.733 57.4584 151.11 57.5228C151.488 57.5872 151.928 57.6516 152.431 57.6516C153.249 57.6516 153.878 57.4584 154.319 57.1364C154.759 56.75 154.948 56.2992 154.948 55.7196C154.948 55.3976 154.885 55.14 154.822 54.9468C154.759 54.7536 154.633 54.5604 154.444 54.3672C154.256 54.2384 154.067 54.0452 153.815 53.9164C153.564 53.7876 153.249 53.6588 152.935 53.53L152.054 53.1436C151.739 53.0148 151.488 52.886 151.236 52.6928C150.984 52.564 150.796 52.3708 150.607 52.1132C150.418 51.92 150.292 51.6624 150.167 51.3404C150.041 51.0184 150.041 50.6964 150.041 50.31C150.041 49.344 150.355 48.5713 150.984 48.0561C151.613 47.5409 152.494 47.2189 153.627 47.2189C154.13 47.2189 154.57 47.2833 155.011 47.3477C155.451 47.4121 155.829 47.5409 156.143 47.6697C156.08 48.1205 155.954 48.5713 155.829 49.0221C155.577 48.8933 155.262 48.8289 154.885 48.7645C154.507 48.7001 154.13 48.6357 153.69 48.6357C153.06 48.6357 152.557 48.7645 152.18 49.0221C151.865 49.2797 151.676 49.7304 151.676 50.2456C151.676 50.4388 151.739 50.6964 151.802 50.8252C151.865 51.0184 151.991 51.1472 152.117 51.276C152.243 51.4048 152.431 51.5336 152.62 51.6624C152.809 51.7912 152.998 51.8556 153.249 51.92L154.13 52.242C154.507 52.4352 154.885 52.564 155.199 52.7572C155.514 52.9504 155.766 53.1436 156.017 53.4012C156.269 53.6588 156.395 53.9164 156.521 54.3028C156.646 54.6248 156.709 55.0112 156.709 55.5264C156.709 56.6212 156.332 57.4584 155.64 58.1024C154.948 58.7464 153.878 59.0684 152.62 59.0684C152.305 59.0684 151.991 59.0684 151.739 59.0684C151.488 59.0684 151.236 59.004 151.047 59.004C150.859 58.9396 150.607 58.9396 150.418 58.8752C150.229 58.8108 149.978 58.7464 149.789 58.682C149.789 58.4244 149.852 58.2312 149.915 57.9736C149.852 57.6516 149.978 57.394 150.041 57.2008Z" fill="white"/>
<path d="M162.812 57.7159C163.315 57.7159 163.755 57.5871 164.133 57.3939C164.51 57.2007 164.825 56.8787 165.076 56.4923C165.328 56.1059 165.517 55.6551 165.643 55.0755C165.768 54.4959 165.831 53.9163 165.831 53.208C165.831 52.4996 165.768 51.92 165.643 51.3404C165.517 50.7608 165.328 50.31 165.076 49.9236C164.825 49.5372 164.51 49.2152 164.133 49.022C163.755 48.8288 163.315 48.7 162.812 48.7C162.308 48.7 161.868 48.8288 161.491 49.022C161.113 49.2152 160.799 49.5372 160.547 49.9236C160.295 50.31 160.106 50.7608 159.981 51.3404C159.855 51.92 159.792 52.4996 159.792 53.208C159.792 53.9163 159.855 54.5603 159.981 55.0755C160.106 55.6551 160.295 56.1059 160.547 56.4923C160.799 56.8787 161.113 57.2007 161.491 57.3939C161.868 57.5871 162.308 57.7159 162.812 57.7159ZM162.812 59.1327C161.994 59.1327 161.365 59.0039 160.736 58.6819C160.169 58.3599 159.666 57.9735 159.289 57.4583C158.911 56.9431 158.597 56.2991 158.408 55.5907C158.219 54.8823 158.156 54.0451 158.156 53.208C158.156 52.3708 158.219 51.5336 158.408 50.8252C158.597 50.1168 158.911 49.4728 159.289 48.9576C159.666 48.4424 160.169 47.9916 160.736 47.734C161.302 47.412 161.994 47.2832 162.812 47.2832C163.629 47.2832 164.259 47.412 164.888 47.734C165.454 48.056 165.957 48.4424 166.335 48.9576C166.712 49.4728 167.027 50.1168 167.153 50.8252C167.341 51.5336 167.404 52.3708 167.404 53.208C167.404 54.0451 167.341 54.8823 167.153 55.5907C166.964 56.2991 166.712 56.9431 166.335 57.4583C165.957 57.9735 165.454 58.4243 164.888 58.6819C164.321 58.9395 163.629 59.1327 162.812 59.1327Z" fill="white"/>
<path d="M169.732 47.4764H175.457C175.457 47.6052 175.52 47.6696 175.52 47.7984C175.52 47.9272 175.52 48.056 175.52 48.1848C175.52 48.3136 175.52 48.4424 175.52 48.5712C175.52 48.7 175.52 48.8288 175.457 48.8932H171.305V52.242H174.765C174.765 52.3708 174.828 52.4996 174.828 52.6284C174.828 52.7572 174.828 52.886 174.828 53.0148C174.828 53.1436 174.828 53.2724 174.828 53.4012C174.828 53.53 174.828 53.6588 174.765 53.7876H171.305V59.0039C171.179 59.0039 171.054 59.0683 170.928 59.0683C170.802 59.0683 170.676 59.0683 170.55 59.0683C170.424 59.0683 170.299 59.0683 170.173 59.0683C170.047 59.0683 169.921 59.0683 169.795 59.0039V47.4764H169.732Z" fill="white"/>
<path d="M179.294 48.8932H176.463C176.463 48.7644 176.4 48.7 176.4 48.5712C176.4 48.4424 176.4 48.3136 176.4 48.1848C176.4 48.056 176.4 47.9272 176.4 47.7984C176.4 47.6696 176.4 47.5408 176.463 47.4764H183.698C183.698 47.6052 183.761 47.6696 183.761 47.7984C183.761 47.9272 183.761 48.056 183.761 48.1204C183.761 48.2492 183.761 48.378 183.761 48.5068C183.761 48.6356 183.761 48.7644 183.698 48.8932H180.867V58.9395C180.615 59.0039 180.364 59.0039 180.112 59.0039C179.798 59.0039 179.546 59.0039 179.294 58.9395V48.8932Z" fill="white"/>
<path d="M184.516 47.4764C184.641 47.4764 184.767 47.412 184.956 47.412C185.145 47.412 185.271 47.412 185.396 47.412C185.522 47.412 185.711 47.412 185.837 47.412C185.963 47.412 186.088 47.412 186.214 47.4764L188.102 57.0075L190.366 47.4764C190.492 47.4764 190.618 47.412 190.744 47.412C190.87 47.412 191.058 47.412 191.184 47.412C191.31 47.412 191.436 47.412 191.624 47.412C191.75 47.412 191.939 47.412 192.002 47.4764L194.267 57.1363L196.154 47.4764C196.28 47.4764 196.406 47.412 196.532 47.412C196.657 47.412 196.783 47.412 196.909 47.412C197.035 47.412 197.224 47.412 197.349 47.412C197.475 47.412 197.601 47.412 197.727 47.4764L195.085 58.9395C194.959 58.9395 194.833 59.0039 194.644 59.0039C194.455 59.0039 194.33 59.0039 194.204 59.0039C194.078 59.0039 193.889 59.0039 193.701 59.0039C193.512 59.0039 193.386 59.0039 193.26 58.9395L191.121 49.988L188.919 58.9395C188.794 58.9395 188.605 59.0039 188.479 59.0039C188.29 59.0039 188.164 59.0039 188.039 59.0039C187.913 59.0039 187.787 59.0039 187.598 59.0039C187.41 59.0039 187.284 59.0039 187.158 58.9395L184.516 47.4764Z" fill="white"/>
<path d="M200.748 54.818H204.082L202.384 48.9576L200.748 54.818ZM204.523 56.2348H200.371L199.616 58.8751C199.49 58.8751 199.364 58.9395 199.238 58.9395C199.112 58.9395 198.987 58.9395 198.861 58.9395C198.735 58.9395 198.609 58.9395 198.42 58.9395C198.295 58.9395 198.169 58.9395 198.043 58.8751L201.629 47.4121C201.755 47.4121 201.881 47.3477 202.069 47.3477C202.195 47.3477 202.384 47.3477 202.572 47.3477C202.698 47.3477 202.887 47.3477 203.013 47.3477C203.139 47.3477 203.327 47.3477 203.453 47.4121L206.976 58.8751C206.85 58.8751 206.725 58.9395 206.536 58.9395C206.41 58.9395 206.221 58.9395 206.095 58.9395C205.97 58.9395 205.844 58.9395 205.718 58.9395C205.592 58.9395 205.466 58.9395 205.341 58.8751L204.523 56.2348Z" fill="white"/>
<path d="M208.549 47.4121C208.8 47.4121 208.989 47.3477 209.178 47.3477C209.367 47.3477 209.555 47.2833 209.744 47.2833C209.933 47.2833 210.122 47.2833 210.31 47.2189C210.499 47.2189 210.688 47.2189 210.939 47.2189C211.443 47.2189 211.946 47.2833 212.449 47.3477C212.953 47.4765 213.393 47.6697 213.833 47.9273C214.211 48.1849 214.525 48.5713 214.777 49.0221C215.029 49.4728 215.154 50.0524 215.154 50.7608C215.154 51.1472 215.092 51.5336 214.966 51.92C214.84 52.242 214.651 52.564 214.462 52.8216C214.274 53.0792 214.022 53.3368 213.77 53.53C213.519 53.7232 213.267 53.9164 213.015 54.0452L212.827 54.1096L216.035 58.9396C215.784 59.004 215.469 59.004 215.092 59.004C214.84 59.004 214.525 59.004 214.274 58.9396L210.751 53.6588V53.5944H210.877C211.128 53.53 211.443 53.4012 211.757 53.2724C212.072 53.1436 212.324 52.9504 212.575 52.7572C212.827 52.564 213.078 52.3064 213.204 51.9844C213.393 51.6624 213.456 51.3404 213.456 50.954C213.456 50.1812 213.267 49.6016 212.827 49.2797C212.386 48.8933 211.82 48.7001 211.065 48.7001C210.877 48.7001 210.751 48.7001 210.562 48.7001C210.436 48.7001 210.247 48.7001 210.059 48.7645V59.004C209.933 59.004 209.807 59.004 209.681 59.0684C209.555 59.0684 209.43 59.0684 209.304 59.0684C209.178 59.0684 209.052 59.0684 208.926 59.0684C208.8 59.0684 208.675 59.0684 208.549 59.004V47.4121Z" fill="white"/>
<path d="M217.607 47.4764H223.647C223.647 47.6696 223.71 47.9272 223.71 48.1848C223.71 48.3136 223.71 48.4424 223.71 48.5712C223.71 48.7 223.71 48.8288 223.647 48.8932H219.18V52.1776H222.766C222.766 52.3064 222.829 52.3708 222.829 52.4996C222.829 52.6284 222.829 52.7572 222.829 52.886C222.829 53.0148 222.829 53.1436 222.829 53.2724C222.829 53.4012 222.829 53.53 222.766 53.5944H219.18V57.5227H223.773C223.773 57.7159 223.836 57.9735 223.836 58.2311C223.836 58.3599 223.836 58.4887 223.836 58.6175C223.836 58.7463 223.836 58.8751 223.773 58.9395H217.607V47.4764Z" fill="white"/>
<path d="M77.1289 31.8918C77.2547 31.8918 77.3806 31.8274 77.5064 31.8274C77.6952 31.8274 77.821 31.8274 77.9468 31.8274C78.0726 31.8274 78.1984 31.8274 78.3871 31.8274C78.5129 31.8274 78.6388 31.8274 78.7646 31.8918L80.5261 40.9721L82.6651 31.8918C82.7909 31.8918 82.9167 31.8274 83.0425 31.8274C83.1683 31.8274 83.2941 31.8274 83.42 31.8274C83.5458 31.8274 83.6717 31.8274 83.7975 31.8274C83.9233 31.8274 84.0491 31.8274 84.1749 31.8918L86.3139 41.1009L88.1383 31.8918C88.2641 31.8918 88.327 31.8274 88.4528 31.8274C88.5786 31.8274 88.7045 31.8274 88.8303 31.8274C88.9562 31.8274 89.082 31.8274 89.2707 31.8274C89.3965 31.8274 89.5223 31.8274 89.6481 31.8918L87.1317 42.8397C87.0059 42.8397 86.8801 42.9041 86.7543 42.9041C86.6284 42.9041 86.4397 42.9041 86.3139 42.9041C86.1881 42.9041 85.9993 42.9041 85.8735 42.9041C85.6848 42.9041 85.559 42.9041 85.4332 42.8397L83.3571 34.2746L81.2811 42.8397C81.1552 42.8397 80.9665 42.9041 80.8406 42.9041C80.6519 42.9041 80.5261 42.9041 80.4003 42.9041C80.2745 42.9041 80.1487 42.9041 80.0229 42.9041C79.897 42.9041 79.7082 42.9041 79.6453 42.8397L77.1289 31.8918Z" fill="white"/>
<path d="M91.4086 31.8942H97.1335C97.1335 32.0874 97.1964 32.345 97.1964 32.5382C97.1964 32.667 97.1964 32.7958 97.1964 32.8602C97.1964 32.989 97.1964 33.1178 97.1335 33.1821H92.8555V36.3377H96.2527C96.2527 36.4665 96.3156 36.5309 96.3156 36.6597C96.3156 36.7885 96.3156 36.9173 96.3156 36.9817C96.3156 37.1105 96.3156 37.2393 96.3156 37.3037C96.3156 37.4325 96.3156 37.5613 96.2527 37.6257H92.8555V41.3609H97.1964C97.1964 41.5541 97.2592 41.8117 97.2592 42.0048C97.2592 42.1336 97.2592 42.2624 97.2592 42.3268C97.2592 42.4556 97.2593 42.5844 97.1964 42.6488H91.3457V31.8942H91.4086Z" fill="white"/>
<path d="M104.179 38.9757H107.387L105.815 33.373L104.179 38.9757ZM107.765 40.3281H103.801L103.109 42.8397C102.984 42.8397 102.858 42.9041 102.732 42.9041C102.606 42.9041 102.48 42.9041 102.355 42.9041C102.229 42.9041 102.103 42.9041 101.977 42.9041C101.851 42.9041 101.725 42.9041 101.6 42.8397L104.997 31.8918C105.123 31.8918 105.248 31.8274 105.374 31.8274C105.5 31.8274 105.689 31.8274 105.815 31.8274C105.94 31.8274 106.066 31.8274 106.255 31.8274C106.444 31.8274 106.57 31.8274 106.695 31.8918L110.093 42.8397C109.967 42.8397 109.841 42.9041 109.715 42.9041C109.589 42.9041 109.401 42.9041 109.275 42.9041C109.149 42.9041 109.023 42.9041 108.897 42.9041C108.771 42.9041 108.646 42.9041 108.52 42.8397L107.765 40.3281Z" fill="white"/>
<path d="M111.604 31.8918C111.792 31.8918 111.981 31.8274 112.17 31.8274C112.358 31.8274 112.547 31.763 112.673 31.763C112.862 31.763 113.05 31.763 113.176 31.6986C113.365 31.6986 113.554 31.6986 113.805 31.6986C114.309 31.6986 114.812 31.763 115.252 31.8274C115.756 31.9562 116.196 32.085 116.573 32.3426C116.951 32.6002 117.265 32.9222 117.517 33.373C117.769 33.8238 117.895 34.339 117.895 34.983C117.895 35.3694 117.832 35.7558 117.706 36.0778C117.58 36.3998 117.391 36.7218 117.203 36.915C117.014 37.1726 116.762 37.3658 116.573 37.559C116.322 37.7522 116.07 37.881 115.881 38.0097L115.693 38.0741L118.712 42.6465C118.461 42.6465 118.146 42.7109 117.832 42.7109C117.58 42.7109 117.328 42.7109 117.077 42.6465L113.742 37.559V37.4946H113.868C114.12 37.4302 114.435 37.3014 114.686 37.237C115.001 37.1082 115.252 36.9794 115.504 36.7862C115.756 36.593 115.944 36.3354 116.133 36.0778C116.322 35.8202 116.385 35.4338 116.385 35.0474C116.385 34.339 116.196 33.7594 115.756 33.4374C115.315 33.051 114.812 32.9222 114.12 32.9222C113.931 32.9222 113.805 32.9222 113.68 32.9222C113.554 32.9222 113.365 32.9222 113.176 32.9866V42.7109C113.05 42.7109 112.925 42.7109 112.799 42.7109C112.673 42.7109 112.547 42.7109 112.421 42.7109C112.296 42.7109 112.17 42.7109 112.044 42.7109C111.918 42.7109 111.792 42.7109 111.666 42.6465V31.8918H111.604Z" fill="white"/>
<path d="M120.221 31.8942H125.946C125.946 32.0874 126.009 32.345 126.009 32.5382C126.009 32.667 126.009 32.7958 126.009 32.8602C126.009 32.989 126.009 33.1178 125.946 33.1821H121.668V36.3377H125.065C125.065 36.4665 125.128 36.5309 125.128 36.6597C125.128 36.7885 125.128 36.9173 125.128 36.9817C125.128 37.1105 125.128 37.2393 125.128 37.3037C125.128 37.4325 125.128 37.5613 125.065 37.6257H121.668V41.3609H126.009C126.009 41.5541 126.072 41.8117 126.072 42.0048C126.072 42.1336 126.072 42.2624 126.072 42.3268C126.072 42.4556 126.072 42.5844 126.009 42.6488H120.158V31.8942H120.221Z" fill="white"/>
<path d="M34.3492 13.538L41.4581 44.2565L0 0.59375L34.3492 13.538Z" fill="#00B8C1"/>
<path d="M47.183 63.0612L61.0862 45.4158L35.6074 13.5381L47.183 63.0612Z" fill="#E20579"/>
<path d="M63.2246 16.5004L66.8735 25.9027L75.1147 16.5004H63.2246Z" fill="#E20579"/>
<path d="M54.6055 35.2406L61.966 44.4497L69.2636 35.2406L61.966 16.5004L54.6055 35.2406Z" fill="#00B8C1"/>
</svg>
