<svg width="1440" height="690" viewBox="0 0 1440 690" fill="none" xmlns="http://www.w3.org/2000/svg">
<mask id="mask0_3103_43917" style="mask-type:alpha" maskUnits="userSpaceOnUse" x="0" y="0" width="1440" height="690">
<rect width="1440" height="690" fill="#D9D9D9"/>
</mask>
<g mask="url(#mask0_3103_43917)">
<g clip-path="url(#clip0_3103_43917)">
<path opacity="0.1" d="M1490.1 353.921C1406.8 397.914 1300.63 395.007 1219.84 346.363C1165.02 313.223 1116.58 259.347 1052.65 257.409C1008.87 256.052 968.184 280.665 935.443 309.929C902.702 339.193 874.999 374.077 840.127 400.627C788.787 439.581 722.724 458.767 658.405 453.147C594.085 447.527 532.284 417.294 488.501 369.813C440.648 318.068 408.682 243.649 341.457 222.525C299.417 209.347 253.696 221.362 212.624 237.448C171.553 253.533 131.063 273.882 87.2789 277.952C43.3014 282.022 -12.6875 269.425 -30.8984 229.114C-30.3172 250.238 -29.5423 271.556 -28.9611 292.681C46.2074 340.549 140.556 353.34 220.567 313.999C257.764 295.588 293.992 267.68 335.258 271.363C366.642 274.076 393.765 295.588 412.945 320.588C432.124 345.782 445.104 374.852 461.572 401.79C507.68 476.791 584.399 534.349 671.191 548.303C757.984 562.063 853.107 527.954 904.252 456.248C926.144 425.434 939.705 389.193 960.435 357.604C981.164 326.014 1012.94 297.526 1050.91 295.975C1097.4 294.231 1134.6 331.828 1168.12 363.999C1208.41 402.759 1253.55 438.224 1305.47 459.155C1357.39 480.085 1417.26 485.512 1469.37 464.969C1474.22 428.922 1485.45 389.774 1490.1 353.921Z" fill="white"/>
<path opacity="0.6" d="M376.91 102.753H30.9023C51.2443 102.753 72.555 97.3267 90.3785 87.4429C97.7403 83.3731 104.908 78.1405 113.433 77.5591C122.538 76.9777 131.062 82.0165 140.168 81.8227C151.404 81.8227 161.091 74.2645 168.647 65.9311C176.202 57.7915 182.789 48.2953 192.476 42.4813C207.2 33.5665 227.542 35.5045 240.328 46.9387C250.983 56.6287 257.57 72.3265 271.519 75.8149C279.656 77.7529 288.374 74.8459 296.704 76.3963C306.004 78.1405 313.366 84.9235 320.534 90.9313C327.508 96.7453 366.836 101.009 376.91 102.753Z" fill="white"/>
<path opacity="0.6" d="M512.135 181.048H324.602C331.576 181.048 338.163 178.529 344.362 175.428C350.756 172.327 357.536 168.839 364.511 170.389C367.029 170.971 369.548 172.327 372.26 172.134C375.941 172.134 379.234 169.614 381.559 166.707C383.884 163.8 385.628 160.506 388.146 157.792C392.021 153.916 397.639 151.785 403.257 152.172C408.682 152.56 414.106 155.661 417.206 160.118C419.531 163.219 420.887 167.289 424.374 169.227C428.636 171.552 434.061 169.614 437.742 166.32C441.229 163.025 443.554 158.568 446.847 154.885C449.947 151.203 454.597 148.102 459.44 148.878C464.283 149.653 467.77 154.11 470.095 158.568C472.42 163.025 474.357 167.87 478.62 170.583C484.625 175.234 499.155 169.808 512.135 181.048Z" fill="white"/>
<path opacity="0.6" d="M1421.32 248.878H1262.27C1268.28 248.878 1273.7 246.747 1279.12 244.033C1284.55 241.32 1290.36 238.413 1296.17 239.77C1298.3 240.351 1300.44 241.32 1302.76 241.32C1305.86 241.32 1308.57 239.188 1310.51 236.669C1312.45 234.15 1314 231.436 1316.13 229.111C1319.42 225.816 1324.26 223.878 1328.91 224.266C1333.56 224.653 1338.02 227.173 1340.73 231.049C1342.67 233.762 1343.83 237.25 1346.74 238.801C1350.22 240.933 1355.07 239.188 1357.97 236.475C1361.07 233.762 1363.01 229.886 1365.72 226.785C1368.44 223.684 1372.31 220.971 1376.38 221.746C1380.45 222.328 1383.35 226.204 1385.29 229.886C1387.23 233.568 1388.97 237.832 1392.46 240.157C1398.08 243.84 1410.48 239.188 1421.32 248.878Z" fill="white"/>
<path opacity="0.6" d="M917.426 161.281H1210.93C1193.69 161.281 1175.48 156.63 1160.56 148.296C1154.36 144.808 1148.16 140.35 1140.99 139.963C1133.24 139.381 1126.08 143.645 1118.33 143.645C1108.83 143.645 1100.7 137.25 1094.3 130.273C1087.91 123.296 1082.29 115.35 1074.16 110.505C1061.76 102.947 1044.51 104.497 1033.67 114.187C1024.56 122.327 1019.14 135.699 1007.32 138.606C1000.34 140.35 992.982 137.831 986.007 138.994C978.064 140.35 971.865 146.164 965.665 151.203C959.272 156.242 925.95 159.924 917.426 161.281Z" fill="white"/>
<path opacity="0.6" d="M1047 29.3029H1206.06C1200.05 29.3029 1194.62 27.1711 1189.2 24.4579C1183.78 21.7447 1177.96 18.8377 1172.15 20.1943C1170.02 20.7757 1167.89 21.7447 1165.56 21.7447C1162.47 21.7447 1159.75 19.6129 1157.82 17.0935C1155.88 14.5741 1154.33 11.8609 1152.2 9.53531C1148.9 6.24071 1144.06 4.30271 1139.41 4.69031C1134.76 5.07791 1130.31 7.59731 1127.59 11.4733C1125.66 14.1865 1124.49 17.6749 1121.59 19.2253C1118.1 21.3571 1113.26 19.6129 1110.35 16.8997C1107.25 14.1865 1105.31 10.3105 1102.6 7.20971C1099.89 4.10891 1096.01 1.39571 1091.95 2.17091C1087.88 2.75231 1084.97 6.62831 1083.03 10.3105C1081.1 13.9927 1079.35 18.2563 1075.87 20.5819C1070.25 24.4579 1058.04 19.8067 1047 29.3029Z" fill="white"/>
<path d="M1441.48 601.207V650.626L882.75 582.602L939.514 499.074L981.748 475.043L977.486 391.903L1011.78 381.438L1043.74 220.39L1100.7 201.591L1134.99 133.374L1297.34 85.6987L1324.46 103.722L1318.07 160.118L1342.29 185.506L1360.11 355.081L1391.88 394.035L1377.54 483.764L1441.48 601.207Z" fill="#E8C075"/>
<path d="M1297.34 85.6987L1324.46 103.722L1258.79 167.095L1262.28 332.019L1217.91 379.112V481.826L1183.43 311.863L1215.59 138.025L1297.34 85.6987Z" fill="#E0B165"/>
<path d="M1324.46 103.722L1318.07 160.118L1284.36 175.816L1297.34 332.019L1248.13 379.112L1232.24 588.028L1215.58 470.392L1217.91 379.112L1262.27 332.019L1258.78 167.095L1324.46 103.722Z" fill="#D8A355"/>
<path d="M1100.7 201.591L1084.23 311.088L1096.83 352.561L1084.23 464.965L1123.76 355.468V276.592L1134.99 133.374L1100.7 201.591Z" fill="#F7D08B"/>
<path d="M1391.88 394.035L1377.54 483.764L1360.11 440.934L1330.27 425.043L1336.28 389.965L1291.91 365.934L1360.11 355.081L1391.88 394.035Z" fill="#E0B165"/>
<path d="M1011.78 381.438L997.828 401.399L1020.69 458.958L999.184 511.671L882.75 582.602L939.514 499.074L981.748 475.043L977.486 391.903L1011.78 381.438Z" fill="#E0B165"/>
<path d="M-112.461 687.641V721.169L623.145 675.044L548.364 618.261L492.762 601.982L498.38 545.586L453.24 538.415L411.2 429.112L336.225 416.321L291.086 370.003L77.204 337.639L41.5571 350.042L50.0813 388.22L18.1153 405.469L-5.3264 520.586L-47.1728 546.943L-28.1869 607.99L-112.461 687.641Z" fill="#E8C075"/>
<path d="M77.2055 337.639L41.5586 350.042L127.964 392.872L123.314 504.888L181.822 536.865V606.633L227.349 491.322L184.921 373.104L77.2055 337.639Z" fill="#E0B165"/>
<path d="M41.5586 350.042L50.0829 388.22L94.4478 398.879L77.2055 504.888L141.912 536.865L163.029 678.727L184.921 598.881L181.822 536.865L123.314 504.888L127.964 392.872L41.5586 350.042Z" fill="#D8A355"/>
<path d="M336.226 416.321L357.924 490.741L341.263 518.842L357.924 595.199L305.81 520.78V467.291L291.086 370.003L336.226 416.321Z" fill="#F7D08B"/>
<path d="M-47.1719 546.943L-28.186 607.99L-5.32548 578.92L33.8087 568.067L25.8656 544.23L84.5668 527.95L-5.32548 520.586L-47.1719 546.943Z" fill="#E0B165"/>
<path d="M453.241 538.416L471.646 551.982L441.617 591.129L469.902 626.982L623.145 675.045L548.364 618.261L492.763 601.982L498.381 545.586L453.241 538.416Z" fill="#E0B165"/>
<path d="M867.057 559.734C867.057 556.827 866.669 553.726 866.088 550.819C865.507 548.299 864.345 545.586 862.407 544.423C862.214 544.23 862.02 544.23 861.826 544.23C861.632 544.23 861.439 544.23 861.245 544.036C860.664 543.842 860.276 544.036 859.695 544.036C859.501 544.036 859.307 544.036 859.114 544.23C858.339 544.423 857.564 545.005 856.983 545.586C856.789 545.78 856.595 545.974 856.595 546.168C856.402 546.361 856.208 546.555 856.208 546.749C855.82 547.33 855.433 548.106 855.239 548.881C854.852 550.237 854.658 551.594 854.658 552.951C854.658 556.439 855.433 559.734 855.627 563.222C855.82 566.71 855.433 570.199 853.496 573.106C853.108 573.687 852.527 574.269 851.946 574.85C850.589 576.013 848.846 576.788 847.102 576.788C847.877 567.292 848.265 557.796 847.684 548.299C847.296 542.873 846.521 537.447 845.359 532.214C844.584 528.726 843.615 525.043 841.484 522.33C841.484 522.136 841.29 522.136 841.29 521.943C841.097 521.749 841.097 521.555 840.903 521.361C840.322 520.78 839.74 520.198 839.159 519.811C839.74 518.648 840.322 517.485 841.097 516.516C841.484 515.935 841.871 515.547 842.259 514.772C842.453 514.191 842.646 513.415 842.259 512.834C841.871 512.059 840.903 511.865 840.128 512.059C839.353 512.253 838.772 512.834 838.384 513.609C837.997 514.384 837.609 515.16 837.416 515.935C837.416 515.16 837.416 514.384 837.028 513.609C836.641 513.028 835.866 512.446 835.091 512.834C834.703 513.028 834.51 513.415 834.316 513.803C834.316 514.191 834.122 514.578 834.316 515.16C833.928 514.191 833.541 513.222 833.154 512.253C832.572 511.284 831.991 510.508 831.022 510.121C830.247 509.733 829.279 509.539 828.504 510.121C827.923 510.508 827.729 511.477 827.923 512.253C828.116 513.028 828.504 513.609 828.891 514.191C829.279 514.772 829.86 515.353 830.248 515.935C829.473 514.578 827.923 513.803 826.567 513.997C825.792 513.997 825.017 514.384 824.629 514.966C824.242 515.741 824.629 516.516 825.017 517.098C825.598 517.679 826.179 518.067 826.954 518.454C827.923 519.036 828.698 519.617 829.473 520.392C829.085 520.78 828.698 521.361 828.31 521.943C827.535 523.105 827.148 524.656 826.76 526.012C825.985 529.501 826.373 532.989 826.567 536.671C827.535 547.524 828.504 558.571 829.473 569.424C830.248 578.145 831.022 586.866 831.797 595.78C832.379 595.78 832.766 595.974 833.154 595.974C833.347 595.974 833.541 595.974 833.735 595.974C834.51 596.168 835.285 596.362 836.06 596.556C836.253 596.556 836.447 596.556 836.641 596.749C837.803 596.943 838.772 597.331 839.934 597.718C840.128 597.718 840.322 597.718 840.515 597.912C841.097 598.106 841.871 598.3 842.646 598.3C842.84 598.3 843.034 598.3 843.228 598.494C843.615 598.494 844.196 598.687 844.584 598.687C845.165 593.649 845.746 588.804 846.327 583.765C846.327 582.99 846.521 582.214 846.521 581.439C850.396 584.928 856.789 584.152 860.47 580.664C861.439 579.889 862.213 578.92 862.988 577.757C865.119 574.462 866.282 570.199 866.669 566.129C866.863 563.416 867.057 561.478 867.057 559.734Z" fill="#A87431"/>
<path d="M799.444 558.183C799.25 557.021 799.056 556.052 798.669 554.889C798.475 554.307 798.088 553.92 797.7 553.532C797.7 553.532 797.506 553.338 797.313 553.338C796.925 553.145 796.538 552.951 796.15 552.757C795.957 552.757 795.763 552.757 795.569 552.757H795.375C794.988 552.757 794.794 552.951 794.407 553.145L794.213 553.338C793.438 553.92 792.857 554.695 792.469 555.664C791.888 557.214 792.082 559.152 792.469 560.703C792.857 563.222 793.051 565.742 793.244 568.261C793.825 575.819 793.825 583.184 793.244 590.742C793.244 591.323 793.051 591.905 793.051 592.486C792.857 593.455 792.663 594.23 792.082 595.005C791.113 596.362 789.176 597.137 787.432 597.137C787.045 597.137 786.851 597.137 786.464 597.137C786.851 594.23 787.045 591.323 787.432 588.416C788.207 579.501 788.595 570.393 788.401 561.478C788.207 554.114 787.82 546.362 783.751 539.966C783.17 538.997 782.589 538.222 781.814 537.447C781.62 537.253 781.233 536.865 780.845 536.672C780.652 536.672 780.652 536.478 780.458 536.478C780.458 536.478 780.264 536.478 780.264 536.284C780.458 535.509 780.845 534.927 781.427 534.152C781.814 533.765 782.201 533.183 782.008 532.602C781.814 532.02 781.233 531.827 780.845 531.827C780.458 531.827 779.877 532.214 779.489 532.602C779.489 532.02 779.683 531.245 779.489 530.664C779.295 530.082 778.714 529.501 778.133 529.307C777.552 529.307 776.971 529.695 776.583 530.276C776.196 530.858 776.196 531.439 776.002 532.214C775.808 531.827 775.615 531.439 775.421 531.245C775.033 531.051 774.646 531.051 774.452 531.245C774.258 531.439 774.258 531.633 774.258 532.02C774.258 532.214 774.258 532.408 774.452 532.602C774.065 532.214 773.677 532.02 773.096 531.827C772.515 531.633 772.127 531.633 771.546 531.827C771.159 532.02 770.771 532.602 770.771 532.989C770.771 533.377 770.965 533.765 771.352 534.152C771.546 534.346 771.934 534.734 772.321 534.927C772.902 535.315 773.483 535.896 773.871 536.478C773.677 536.672 773.29 537.059 773.096 537.253C772.902 537.447 772.902 537.447 772.902 537.641C771.74 539.579 771.352 542.486 771.352 545.005C771.352 551.788 771.352 558.765 771.546 565.548C771.546 568.842 771.546 572.137 771.546 575.432C770.771 575.432 769.996 575.238 769.221 575.044C768.834 575.044 768.253 574.85 767.865 574.656C766.897 574.269 766.122 573.881 765.347 573.106C763.991 571.556 763.797 569.618 763.797 567.486C763.797 565.742 764.184 563.997 763.991 562.253C763.991 561.09 763.797 559.928 763.409 558.765C763.216 558.183 763.022 557.796 762.634 557.214C762.441 556.827 762.053 556.633 761.666 556.245C761.472 556.245 761.472 556.052 761.278 556.052C760.891 555.858 760.31 555.664 759.922 555.47C759.728 555.47 759.728 555.47 759.535 555.47C759.147 555.47 758.76 555.47 758.372 555.47H758.179C758.179 555.47 758.179 555.47 757.985 555.47C757.404 555.664 757.016 555.858 756.629 556.245C756.435 556.439 756.435 556.439 756.241 556.633C755.66 557.214 755.273 557.99 755.079 558.765C754.691 560.121 754.691 561.672 754.885 563.222C754.885 564.773 755.079 566.517 755.079 568.067C755.079 568.649 755.079 569.23 755.079 569.811C755.273 572.137 755.273 574.463 756.435 576.594C756.822 577.37 757.21 577.951 757.791 578.532C759.341 580.083 761.472 581.246 763.797 581.827C766.122 582.408 768.834 582.021 771.352 581.827C771.352 588.998 771.352 596.168 771.546 603.145V608.378C771.546 621.495 779.295 631.918 778.133 619.495L778.521 614.995C780.845 620.456 777.746 613.801 778.714 613.995L780.07 614.995C780.652 615.188 778.42 611.301 779.001 611.495L781.62 613.501C782.008 613.695 780.114 610.801 780.501 610.995L781.001 610.509C781.582 610.703 781.039 610.316 781.62 610.509H781.814C782.395 610.703 782.976 610.897 783.558 611.091C783.945 608.378 784.526 605.664 784.914 603.145C786.657 603.533 788.595 603.726 790.338 603.726C793.438 603.726 796.538 602.757 798.281 600.238C799.444 598.3 799.637 595.974 799.637 593.649C799.831 589.385 799.831 584.928 799.831 580.664C799.831 573.494 799.637 566.323 798.863 559.346C799.637 559.346 799.637 558.765 799.444 558.183Z" fill="#A87431"/>
<path d="M819.205 551.982C818.624 551.013 817.849 550.044 817.074 549.268C816.686 548.881 816.493 548.687 816.105 548.493C815.912 548.493 815.912 548.299 815.718 548.299C815.718 548.299 815.524 548.299 815.524 548.106C815.912 547.33 816.105 546.555 816.687 545.974C817.074 545.392 817.461 545.005 817.268 544.23C817.074 543.648 816.493 543.261 815.912 543.454C815.33 543.454 814.943 543.842 814.555 544.23C814.555 543.454 814.749 542.873 814.555 542.098C814.362 541.323 813.781 540.741 813.006 540.741C812.231 540.741 811.649 541.129 811.262 541.71C810.874 542.292 810.874 543.067 810.681 543.648C810.487 543.261 810.293 542.873 809.906 542.679C809.518 542.485 809.131 542.485 808.743 542.679C808.55 542.873 808.55 543.067 808.55 543.454C808.55 543.648 808.55 543.842 808.743 544.036C808.356 543.648 807.775 543.454 807.387 543.261C806.806 543.067 806.225 543.067 805.837 543.261C805.256 543.454 805.062 544.036 805.062 544.617C805.062 545.005 805.256 545.392 805.644 545.78C806.031 546.168 806.419 546.361 806.612 546.555C807.194 546.943 807.775 547.524 808.356 548.106C808.162 548.299 807.775 548.687 807.581 548.881C807.387 549.075 807.387 549.075 807.194 549.268C805.837 551.4 805.644 554.501 805.644 557.214C805.644 564.579 805.644 571.943 805.837 579.307C805.837 592.873 806.031 606.246 806.031 619.812V625.238C806.612 625.238 807.194 625.432 807.969 625.432C808.162 625.432 808.162 625.432 808.356 625.432C809.518 625.626 810.487 625.819 811.649 626.013H811.843C812.424 626.207 813.199 626.401 813.781 626.401C813.974 626.401 813.974 626.401 813.974 626.401C814.362 626.595 814.749 626.595 815.33 626.788H815.524C816.105 626.982 816.686 627.176 817.268 627.37C817.268 627.37 817.461 627.37 817.461 627.564C818.043 627.757 818.818 627.951 819.399 628.339C820.949 620.199 821.917 611.866 822.692 603.532C823.467 594.036 823.855 584.346 823.661 574.656C824.048 567.098 823.467 558.765 819.205 551.982Z" fill="#A87431"/>
<path d="M102.584 622.912C102.584 620.78 102.391 618.842 101.809 616.711C101.422 614.966 100.647 613.028 99.2909 612.253C99.0972 612.253 99.0972 612.06 98.9035 612.06C98.7097 612.06 98.7097 612.06 98.516 612.06C98.1285 612.06 97.7411 612.06 97.3536 612.06C97.1599 612.06 97.1599 612.059 96.9661 612.253C96.3849 612.447 95.8037 612.835 95.4163 613.222C95.2225 613.416 95.2225 613.416 95.0288 613.61C94.8351 613.804 94.8351 613.804 94.6413 613.998C94.4476 614.385 94.2539 614.966 94.0601 615.354C93.8664 616.323 93.6727 617.292 93.6727 618.067C93.6727 620.393 94.0601 622.718 94.2539 625.044C94.4476 627.37 94.0601 629.889 92.8977 631.827C92.704 632.215 92.3165 632.602 91.9291 632.99C90.9604 633.765 89.798 634.347 88.4419 634.347C89.0231 627.757 89.2168 621.168 88.8293 614.773C88.6356 611.09 88.0544 607.214 87.2795 603.532C86.6983 601.013 85.9233 598.687 84.5672 596.749L84.3735 596.556C84.3735 596.362 84.1797 596.362 83.986 596.168C83.5985 595.78 83.2111 595.393 82.8236 595.005C83.2111 594.23 83.5985 593.455 84.1797 592.68C84.3735 592.292 84.7609 591.904 84.9547 591.517C85.1484 591.129 85.1484 590.548 84.9547 590.16C84.7609 589.579 83.986 589.385 83.4048 589.579C82.8236 589.772 82.4361 590.16 82.0487 590.548C81.8549 591.129 81.4675 591.517 81.4675 592.098C81.4675 591.517 81.4675 590.935 81.2737 590.548C81.08 590.16 80.4988 589.772 79.9176 589.966C79.7239 590.16 79.5301 590.354 79.5301 590.742C79.5301 591.129 79.5301 591.323 79.5301 591.711C79.3364 591.129 79.1427 590.354 78.7552 589.773C78.3677 589.191 77.9803 588.61 77.2053 588.222C76.6241 588.028 76.0429 587.834 75.4617 588.222C75.0743 588.61 74.8805 589.191 75.0743 589.579C75.268 590.16 75.4617 590.548 75.8492 590.935C76.2367 591.323 76.4304 591.71 76.8179 592.098C76.2367 591.129 75.268 590.742 74.2993 590.742C73.7181 590.742 73.1369 590.935 72.9432 591.517C72.7495 591.904 72.9432 592.679 73.3307 593.067C73.7181 593.455 74.1056 593.648 74.6868 594.036C75.268 594.424 75.8492 594.811 76.4304 595.393C76.0429 595.78 75.8492 596.168 75.6555 596.556C75.0743 597.331 74.8805 598.3 74.4931 599.269C73.9119 601.594 74.1056 604.114 74.4931 606.633C75.0743 614.191 75.8492 621.749 76.4304 629.308C77.0116 635.315 77.5928 641.517 77.9803 647.525C78.3677 647.525 78.5615 647.525 78.9489 647.719C79.1427 647.719 79.1427 647.719 79.3364 647.719C79.9176 647.912 80.4988 647.912 80.8863 648.106C81.08 648.106 81.08 648.106 81.2737 648.3C82.0487 648.494 82.8236 648.688 83.5985 648.882C83.7923 648.882 83.7923 648.881 83.986 649.075C84.3735 649.269 84.9547 649.269 85.3421 649.463C85.5359 649.463 85.5359 649.463 85.7296 649.463C86.1171 649.463 86.3108 649.657 86.6983 649.657C87.0857 646.168 87.4732 642.68 87.8607 639.385C87.8607 638.804 88.0544 638.416 88.0544 637.835C90.7667 640.16 95.0288 639.773 97.7411 637.254C98.3223 636.672 98.9035 635.897 99.4847 635.316C101.035 632.99 101.809 630.083 102.003 627.37C102.584 625.432 102.584 624.269 102.584 622.912Z" fill="#D1A14E"/>
<path d="M55.895 633.571C55.895 632.796 55.7013 632.021 55.3138 631.439C55.1201 631.052 54.9264 630.858 54.5389 630.47L54.3452 630.277C54.1514 630.083 53.764 630.083 53.5702 629.889C53.3765 629.889 53.1828 629.889 53.1828 629.889H52.989C52.7953 629.889 52.6016 630.083 52.4078 630.083C52.4078 630.083 52.2141 630.083 52.2141 630.277C51.6329 630.664 51.2454 631.246 51.0517 631.827C50.6642 632.99 50.858 634.153 51.0517 635.315C51.2454 637.06 51.4392 638.804 51.6329 640.548C52.0204 645.781 52.0204 651.013 51.6329 656.052C51.6329 656.44 51.6329 656.827 51.4392 657.215C51.2454 657.796 51.0517 658.378 50.858 658.959C50.083 659.928 48.9206 660.509 47.7582 660.509C47.5645 660.509 47.3708 660.509 47.177 660.509C47.3708 658.571 47.5645 656.44 47.7582 654.502C48.3394 648.3 48.5332 642.098 48.3394 635.897C48.3394 630.858 47.952 625.432 45.2397 620.974C44.8522 620.393 44.4648 619.811 43.8836 619.23C43.6898 619.036 43.4961 618.842 43.3024 618.649L43.1086 618.455C43.1086 618.455 43.1086 618.455 42.9149 618.455C43.1086 617.873 43.3024 617.486 43.6898 617.098C43.8836 616.711 44.271 616.323 44.0773 615.935C44.0773 615.548 43.6898 615.354 43.3024 615.354C42.9149 615.354 42.5274 615.548 42.3337 615.935C42.3337 615.548 42.5274 614.966 42.3337 614.579C42.14 614.191 41.9462 613.804 41.365 613.61C40.9776 613.61 40.5901 613.804 40.2026 614.191C40.0089 614.579 40.0089 614.966 39.8152 615.548C39.6214 615.354 39.6214 615.16 39.4277 614.966C39.234 614.773 38.8465 614.773 38.6528 614.966C38.459 615.16 38.459 615.354 38.459 615.354C38.459 615.548 38.459 615.548 38.6528 615.742C38.459 615.548 38.0716 615.354 37.6841 615.16C37.2966 614.966 36.9092 614.966 36.7154 615.16C36.328 615.354 36.1342 615.742 36.1342 615.935C36.1342 616.129 36.328 616.517 36.5217 616.711C36.7154 616.904 36.9092 617.098 37.1029 617.292C37.4904 617.68 37.8778 617.873 38.2653 618.261C38.0716 618.455 37.8778 618.649 37.6841 618.842L37.4904 619.036C36.7154 620.393 36.5217 622.331 36.5217 624.075C36.5217 628.92 36.5217 633.571 36.5217 638.416C36.5217 640.742 36.5217 643.067 36.5217 645.199C35.9405 645.199 35.553 645.005 34.9718 645.005C34.5844 645.005 34.3906 644.812 34.0032 644.812C33.422 644.618 32.647 644.23 32.2596 643.649C31.2909 642.68 31.0972 641.129 31.0972 639.773C31.0972 638.61 31.2909 637.447 31.2909 636.091C31.2909 635.315 31.0972 634.346 30.9034 633.765C30.7097 633.377 30.516 632.99 30.3222 632.796C30.1285 632.602 29.9348 632.408 29.741 632.215L29.5473 632.021C29.1598 631.827 28.9661 631.633 28.5786 631.633H28.3849C28.1912 631.633 27.8037 631.633 27.61 631.633H27.4162C27.0288 631.827 26.6413 632.021 26.4476 632.215L26.2538 632.408C25.8664 632.796 25.6726 633.377 25.4789 633.765C25.2852 634.734 25.2852 635.897 25.2852 636.866C25.2852 638.029 25.4789 638.998 25.4789 640.16C25.4789 640.548 25.4789 640.936 25.4789 641.323C25.4789 642.874 25.6726 644.618 26.4476 645.974C26.6413 646.556 27.0288 646.943 27.4162 647.331C28.5786 648.494 29.9348 649.269 31.4846 649.463C33.0345 649.85 34.9718 649.657 36.7154 649.463C36.7154 654.308 36.7154 659.347 36.7154 664.192V667.68C37.1029 667.68 37.4904 667.68 37.8778 667.874H38.0716C38.8465 667.874 39.4277 668.068 40.2026 668.261H40.3964C40.7838 668.261 41.1713 668.455 41.5588 668.649H41.7525C41.9462 668.649 42.3337 668.843 42.5274 668.843H42.7212C43.1086 669.037 43.4961 669.037 43.8836 669.23H44.0773C44.4648 669.424 44.8522 669.618 45.2397 669.618C45.6272 667.874 45.8209 665.936 46.2084 663.998C47.3708 664.192 48.7269 664.385 50.083 664.385C52.2141 664.385 54.3452 663.804 55.5076 662.06C56.2825 660.703 56.4762 659.153 56.4762 657.409C56.4762 654.502 56.67 651.401 56.67 648.3C56.67 643.261 56.67 638.416 56.0888 633.571C56.0888 634.346 55.895 633.959 55.895 633.571Z" fill="#D1A14E"/>
<path d="M69.4562 617.68C69.0687 617.098 68.4875 616.323 67.9063 615.936C67.7126 615.742 67.5189 615.548 67.3251 615.354L67.1314 615.16C67.1314 615.16 67.1314 615.16 66.9377 615.16C67.1314 614.579 67.3251 614.191 67.7126 613.61C67.9063 613.222 68.2938 612.835 68.1001 612.447C68.1001 612.06 67.5189 611.866 67.1314 611.866C66.7439 611.866 66.3565 612.06 66.1627 612.447C66.1627 611.866 66.3565 611.478 66.1627 610.897C65.969 610.509 65.5815 609.928 65.1941 609.928C64.8066 609.928 64.2254 610.122 64.0317 610.703C63.8379 611.284 63.6442 611.672 63.6442 612.06C63.4505 611.866 63.4505 611.478 63.2567 611.478C63.063 611.284 62.6755 611.284 62.4818 611.478C62.2881 611.672 62.2881 611.866 62.2881 612.06C62.2881 612.253 62.2881 612.447 62.4818 612.447C62.0943 612.253 61.9006 612.06 61.5131 611.866C61.1257 611.672 60.7382 611.672 60.3507 611.866C59.9633 612.06 59.7695 612.447 59.7695 612.835C59.7695 613.222 59.9633 613.416 60.157 613.61C60.3507 613.804 60.5445 613.997 60.9319 614.191C61.3194 614.579 61.7069 614.967 62.0943 615.354C61.9006 615.548 61.7069 615.742 61.5131 615.936C61.5131 616.129 61.3194 616.129 61.3194 616.323C60.3507 617.874 60.157 620.005 60.157 621.75C60.157 626.788 60.157 631.827 60.157 636.866C60.157 646.168 60.3507 655.471 60.3507 664.773V668.649C60.7382 668.649 61.1257 668.649 61.7069 668.843H61.9006C62.6755 669.037 63.4505 669.037 64.2254 669.231H64.4191C64.8066 669.231 65.3878 669.424 65.7753 669.618H65.969C66.3565 669.618 66.5502 669.812 66.9377 669.812H67.1314C67.5189 670.006 67.9063 670.006 68.2938 670.2H68.4875C68.875 670.393 69.4562 670.587 69.8437 670.781C70.8123 665.161 71.5873 659.347 72.1685 653.727C72.7497 647.137 72.9434 640.354 72.9434 633.765C72.9434 627.951 72.3622 622.331 69.4562 617.68Z" fill="#D1A14E"/>
<path d="M510.586 570.005C509.617 569.617 508.648 569.23 507.873 568.648C507.098 568.067 506.323 567.098 505.936 565.935C505.548 564.772 505.742 563.416 506.517 562.641C507.098 561.865 508.067 561.672 509.036 561.672C511.167 561.478 513.104 561.865 515.041 562.641C516.204 562.253 517.56 561.672 518.722 561.672C520.078 561.478 521.435 561.865 522.403 562.834C523.372 563.803 523.953 565.354 523.566 566.904C526.278 570.199 528.022 575.044 528.022 579.695C528.022 581.439 529.571 582.602 530.928 583.183C532.284 583.571 533.833 583.377 535.19 583.183C540.614 582.02 545.651 579.114 549.72 574.85C551.269 573.106 553.013 571.168 555.144 570.586C558.05 569.811 560.956 571.943 563.475 574.075C564.056 574.075 564.637 573.881 565.218 573.687C565.606 572.912 565.993 572.33 566.187 571.555C564.443 569.811 562.506 568.455 560.181 568.067C559.406 567.873 558.631 567.679 558.631 566.904C558.631 566.129 559.406 565.741 560.181 565.741C562.7 565.547 565.218 567.098 567.543 566.71C569.868 566.129 571.612 563.997 573.355 562.059C572.774 560.702 572.386 559.346 572.386 557.796C572.386 556.245 572.774 554.695 573.743 553.92C574.518 553.338 575.486 553.144 576.455 553.144C577.23 553.144 578.198 553.338 578.78 553.92C579.748 554.695 580.33 556.439 580.136 557.989C580.136 559.54 579.555 560.896 578.973 562.253C580.329 565.354 580.717 569.036 579.748 572.331C579.167 574.656 579.555 577.369 578.392 579.501C578.973 580.664 579.942 582.021 580.911 582.796C581.298 582.796 581.879 582.796 582.267 582.99C582.654 583.183 583.042 583.377 583.236 583.959C583.429 584.54 583.236 585.315 583.042 585.897C582.461 587.835 581.879 589.966 581.298 591.904C584.398 596.943 587.691 602.757 588.273 608.959C588.66 612.835 588.079 616.904 588.079 620.974C588.079 625.044 589.241 629.308 592.147 631.246C590.404 631.052 588.466 630.277 587.304 628.726C588.079 631.439 589.048 633.959 590.016 636.478C588.854 644.036 587.885 651.595 586.916 659.347C586.142 659.153 585.367 659.153 584.592 658.959C588.079 649.85 587.691 638.998 584.204 630.083C583.236 627.757 582.073 625.626 580.911 623.688C578.392 628.339 580.136 634.928 577.811 639.773C576.842 641.905 575.099 643.455 573.355 645.006C570.449 647.525 567.543 650.044 564.637 652.564C563.475 652.176 562.312 652.176 561.15 651.595C564.831 649.463 568.124 646.168 570.643 642.099C574.324 635.703 574.711 626.595 571.418 619.812C571.612 618.455 571.612 617.098 571.805 615.936C570.837 614.967 569.868 613.804 568.899 612.835C562.119 613.998 554.95 612.059 549.138 607.408C548.751 613.222 548.557 619.424 548.17 625.432C547.782 631.827 545.264 637.835 543.908 644.23C542.164 643.455 540.614 642.874 538.871 642.292C540.033 642.098 541.195 641.323 541.97 640.161C542.745 638.998 543.133 637.641 543.52 636.285C544.489 632.409 544.876 628.339 544.489 624.269C543.908 618.455 544.876 612.447 544.489 606.633C541.97 607.796 539.452 609.153 537.127 610.703C534.802 612.253 532.671 614.385 531.121 617.098C528.022 622.912 528.603 630.277 526.084 636.478C524.341 637.447 522.403 638.416 520.66 639.192C523.759 636.478 524.922 631.246 525.309 626.595C525.697 621.943 525.89 617.098 528.022 613.222C530.54 608.377 535.577 606.052 538.289 601.207C537.514 600.044 536.933 598.687 536.546 597.331C530.54 597.331 524.534 593.261 520.466 588.222C516.591 582.989 513.298 576.4 510.586 570.005Z" fill="#A87431"/>
<path d="M682.427 651.789C682.427 646.944 683.202 642.292 683.59 637.641C683.784 635.897 683.977 633.959 683.784 632.215C683.59 630.471 682.815 628.533 681.459 627.564C680.878 623.881 678.94 620.199 676.228 618.261C677.003 615.16 676.228 611.284 674.097 609.153C675.453 605.277 676.616 601.401 676.809 597.331C677.003 593.261 675.841 588.61 673.322 586.09C673.71 584.54 673.903 582.796 673.516 581.245C673.128 579.695 671.966 578.338 670.61 578.145C669.254 577.951 668.091 579.114 667.704 580.858C666.735 580.664 665.766 580.858 664.798 581.052C665.185 581.827 666.154 582.408 666.929 582.408C665.96 584.346 666.541 587.059 668.285 588.028C666.929 590.548 665.573 592.873 664.217 595.393C663.442 596.943 662.279 598.494 660.923 598.494C660.148 598.494 659.373 598.106 658.598 597.525C657.823 597.137 657.048 596.556 656.273 596.749C655.499 596.749 654.724 597.525 654.724 598.494C654.724 599.269 655.499 599.85 656.08 600.044C656.661 600.238 657.436 600.044 658.017 600.044C659.373 600.044 660.729 600.625 661.892 601.788C660.342 602.757 658.598 602.37 656.855 601.982C655.111 601.594 653.368 601.788 652.011 602.951C650.462 602.37 648.718 601.594 647.168 601.982C645.618 602.176 643.681 603.532 643.681 605.47C640.775 605.858 638.256 608.184 635.738 610.122C633.219 612.06 630.12 613.416 627.407 611.866C625.082 610.509 623.92 607.215 623.339 603.92C622.758 600.819 622.758 597.525 621.595 594.618C620.433 591.711 617.527 589.579 615.008 590.742C612.102 588.997 608.034 589.579 605.322 591.711C604.74 592.098 603.966 592.873 604.159 593.842C604.353 594.618 605.128 595.005 605.709 595.393C607.259 595.974 608.615 596.749 610.165 597.331C610.165 599.656 611.134 601.788 612.102 603.726C613.071 605.664 614.04 607.99 613.458 609.928C613.265 610.703 613.458 611.672 613.846 612.447C614.233 613.029 615.008 613.416 615.783 613.416C617.914 617.292 620.239 621.362 623.339 624.075C626.439 626.788 630.701 628.145 634.188 626.401C635.544 628.533 636.513 630.858 637.094 633.378C636.706 635.122 636.9 637.06 637.094 638.804C635.35 641.905 633.413 644.812 631.669 647.913C631.282 648.688 630.701 649.463 630.507 650.432C630.313 652.176 631.282 653.727 632.251 654.889C633.413 656.052 634.769 656.827 635.544 658.378C634.769 659.541 634.188 661.091 633.8 662.641C633.413 664.192 633.219 665.742 632.444 667.099C631.863 668.262 630.701 669.037 629.732 669.231C630.507 669.424 631.088 670.2 631.669 670.587C632.444 671.169 633.607 671.556 634.188 670.975C634.575 670.587 634.769 670.2 634.963 669.618C636.125 666.324 637.094 663.029 638.256 659.734C640.194 662.448 641.356 666.13 641.356 669.812C642.325 667.68 643.293 665.742 644.262 663.804C642.906 661.672 641.162 659.734 639.225 658.378C640.581 654.889 640 650.432 640.387 646.556C640.775 642.68 642.518 638.416 645.812 637.641C647.168 637.254 648.524 637.641 649.687 638.029C655.111 639.579 660.729 641.13 666.154 642.68C665.766 648.688 668.479 654.696 667.51 660.51C666.735 664.579 664.41 668.068 661.504 670.393C658.598 672.913 655.305 674.463 652.205 675.82C653.755 676.207 655.499 676.983 657.048 677.37C666.154 671.556 672.547 659.928 673.516 647.719C678.165 651.789 680.878 658.959 680.684 665.936C680.49 672.913 677.39 679.696 672.547 683.572C673.71 683.959 675.841 683.766 677.003 684.153C680.878 678.921 684.171 671.75 685.527 664.967C683.396 661.479 682.427 656.634 682.427 651.789ZM634.963 651.401C634.769 650.432 635.35 649.463 635.931 648.688C636.513 647.913 637.094 647.331 637.481 646.362C637.288 649.075 637.094 651.595 636.513 654.114C636.125 653.533 635.157 652.564 634.963 651.401Z" fill="#A87431"/>
<path d="M617.331 596.943C613.65 602.369 608.031 605.664 602.219 606.052C596.601 606.439 590.983 603.532 586.915 598.881C584.59 596.168 583.04 592.873 581.877 589.385C581.49 588.028 579.94 588.803 580.134 590.16C582.071 596.943 586.333 602.757 591.758 605.858C597.57 609.152 604.157 609.153 609.969 606.052C613.262 604.308 616.168 601.788 618.493 598.494C619.268 597.331 617.912 595.974 617.331 596.943Z" fill="#A87431"/>
<path d="M792.469 716.712V925.434H-388.336V864L191.314 590.935C216.5 579.114 242.847 572.137 269.389 570.005C296.899 567.873 324.796 570.974 351.725 579.501C360.443 582.214 369.549 585.121 379.042 588.028C381.367 588.804 383.885 589.579 386.21 590.354C388.147 590.935 389.891 591.517 391.828 592.098C393.766 592.68 395.509 593.261 397.446 593.842C407.521 596.943 417.982 600.238 428.638 603.532C430.381 604.114 432.318 604.695 434.062 605.277C446.848 609.346 460.022 613.416 473.39 617.486C475.133 618.067 476.683 618.455 478.427 619.036C515.236 630.471 553.402 642.486 590.017 653.92C592.923 654.889 595.636 655.665 598.348 656.634C602.61 657.99 606.678 659.153 610.747 660.51C612.103 660.897 613.459 661.285 614.815 661.866C628.57 666.13 641.938 670.393 654.724 674.269C657.243 675.045 659.761 675.82 662.474 676.595C664.798 677.37 667.123 677.952 669.254 678.727C671.385 679.308 673.71 680.083 675.841 680.859C677.585 681.44 679.135 681.828 680.685 682.409C683.203 683.184 685.528 683.959 688.046 684.735C689.209 685.122 690.371 685.51 691.534 685.897C693.471 686.479 695.408 687.06 697.346 687.642C698.121 687.835 698.896 688.223 699.67 688.417C701.22 688.998 702.77 689.386 704.32 689.773C708.001 690.936 711.682 692.099 715.363 693.262C716.331 693.649 717.3 693.843 718.269 694.231C721.756 695.394 725.243 696.363 728.73 697.525C729.699 697.913 730.668 698.107 731.636 698.494C734.93 699.463 738.223 700.626 741.323 701.401C742.292 701.789 743.26 701.983 744.229 702.37C745.973 702.952 747.716 703.339 749.46 703.921C750.235 704.115 751.01 704.502 751.785 704.696C753.916 705.277 756.047 706.053 758.178 706.634C758.759 706.828 759.147 707.022 759.728 707.022C760.309 707.215 760.697 707.409 761.278 707.409C762.634 707.797 764.184 708.184 765.346 708.766C768.252 709.541 770.771 710.51 773.289 711.091C774.452 711.479 775.614 711.867 776.776 712.06C777.551 712.254 778.132 712.448 778.907 712.642C779.489 712.836 780.07 713.029 780.651 713.223C782.007 713.611 783.17 713.998 784.332 714.386C784.913 714.58 785.301 714.774 785.882 714.774C786.269 714.967 786.657 714.967 787.044 715.161C787.432 715.355 788.013 715.355 788.4 715.549H788.594C788.982 715.743 789.369 715.743 789.563 715.936C791.113 716.324 792.081 716.518 792.469 716.712Z" fill="#A87431"/>
<path d="M792.469 725.433V806.635L178.141 819.038L448.592 696.944C424.763 701.014 372.649 707.991 366.643 686.479C364.318 678.145 368.968 674.463 369.937 668.262C371.293 659.541 368.387 650.432 363.737 644.23C359.088 638.029 352.888 634.347 346.882 631.633C333.515 625.626 319.372 623.688 305.811 618.067C292.25 612.447 278.882 602.757 271.714 586.09C269.97 582.214 269.389 576.013 269.389 570.199C296.899 568.067 324.797 571.168 351.726 579.695C360.444 582.408 369.549 585.315 379.042 588.222C381.367 588.997 383.885 589.773 386.21 590.548C388.148 591.129 389.891 591.711 391.829 592.292C393.766 592.873 395.509 593.455 397.447 594.036C407.521 597.137 417.982 600.432 428.638 603.726C430.381 604.308 432.319 604.889 434.062 605.47C446.849 609.54 460.023 613.61 473.39 617.68C475.134 618.261 476.684 618.649 478.427 619.23C515.237 630.664 553.402 642.68 590.018 654.114C592.924 655.083 595.636 655.858 598.348 656.827C602.61 658.184 606.679 659.347 610.747 660.703C612.103 661.091 613.459 661.479 614.816 662.06C628.571 666.324 641.938 670.587 654.725 674.463C657.243 675.238 659.762 676.014 662.474 676.789C664.799 677.564 667.124 678.145 669.255 678.921C671.386 679.502 673.71 680.277 675.842 681.052C677.391 681.634 679.135 682.021 680.685 682.603C683.203 683.378 685.528 684.153 688.047 684.928C689.209 685.316 690.372 685.704 691.534 686.091C693.471 686.673 695.409 687.254 697.346 687.835C698.121 688.029 698.896 688.223 699.671 688.611C701.221 688.998 702.771 689.58 704.32 689.967C708.001 691.13 711.682 692.293 715.363 693.456C716.332 693.843 717.3 694.037 718.269 694.425C721.756 695.587 725.244 696.556 728.731 697.719C729.699 698.107 730.668 698.301 731.637 698.688C734.93 699.657 738.224 700.82 741.323 701.595C742.292 701.983 743.261 702.177 744.229 702.564C745.973 703.146 747.717 703.533 749.46 704.115C750.235 704.308 751.01 704.696 751.785 704.89C753.916 705.471 756.047 706.246 758.178 706.828C758.759 707.022 759.147 707.215 759.728 707.215C760.309 707.409 760.697 707.603 761.278 707.603C762.634 707.991 764.184 708.378 765.346 708.96C768.252 709.735 770.771 710.704 773.289 711.285C774.452 711.673 775.614 712.06 776.777 712.254C777.552 712.448 778.133 712.642 778.908 712.836C779.489 713.029 780.07 713.223 780.651 713.417C782.007 713.805 783.17 714.192 784.332 714.58C784.913 714.774 785.301 714.967 785.882 714.967C786.27 715.161 786.657 715.161 787.044 715.355C787.432 715.549 788.013 715.549 788.401 715.743H788.594C788.982 715.936 789.369 715.936 789.563 716.13L792.469 725.433Z" fill="#D1A14E"/>
<path d="M207.587 598.106C208.169 600.625 202.55 605.083 194.801 607.99C187.052 610.897 180.271 611.284 179.69 608.765C179.109 606.246 184.727 601.788 192.476 598.881C200.032 595.78 206.812 595.587 207.587 598.106Z" fill="#9A6527"/>
<path d="M294.38 671.362C294.961 673.882 289.343 678.339 281.594 681.246C273.845 684.153 267.064 684.541 266.483 682.021C265.902 679.502 271.52 675.045 279.269 672.138C287.018 669.231 293.799 668.843 294.38 671.362Z" fill="#9A6527"/>
<path d="M232.577 615.742C232.965 617.292 229.671 619.812 225.409 621.362C220.953 623.106 217.079 623.106 216.691 621.75C216.304 620.199 219.597 617.68 223.859 616.129C228.315 614.385 232.19 614.385 232.577 615.742Z" fill="#9A6527"/>
<path d="M1488.36 673.301V914H-63.4453L1095.08 496.361C1103.22 493.26 1112.52 491.516 1122.01 490.935C1144.09 489.385 1168.31 494.036 1187.49 504.307C1190.98 506.245 1194.47 508.183 1198.15 510.121C1199.11 510.703 1200.08 511.284 1201.25 511.865C1211.71 517.679 1223.14 524.075 1235.15 530.858C1237.09 531.827 1238.83 532.989 1240.77 533.958C1249.68 538.997 1258.78 544.036 1268.08 549.269C1269.63 550.238 1271.38 551.013 1272.93 551.982C1273.9 552.563 1274.86 553.145 1276.03 553.726C1277.96 554.889 1280.1 555.858 1282.03 557.021C1291.72 562.447 1301.6 567.873 1311.48 573.494C1312.84 574.269 1314.19 575.044 1315.55 575.625C1324.07 580.47 1332.6 585.122 1340.93 589.773C1344.03 591.517 1347.13 593.261 1350.03 594.812C1352.16 595.974 1354.3 597.331 1356.43 598.494C1357.98 599.463 1359.53 600.238 1361.27 601.207C1363.01 602.176 1364.76 603.145 1366.5 604.114C1368.05 604.889 1369.6 605.858 1370.96 606.633C1374.44 608.571 1378.12 610.703 1381.61 612.641C1382.77 613.416 1384.13 613.998 1385.29 614.773C1385.29 614.773 1385.49 614.773 1385.49 614.967C1387.42 616.13 1389.36 617.099 1391.1 618.068C1391.49 618.261 1392.07 618.649 1392.46 618.843C1393.62 619.424 1394.79 620.2 1395.95 620.781C1413.77 630.859 1430.24 639.967 1443.99 647.913C1444.96 648.494 1445.74 648.882 1446.71 649.463C1471.5 663.223 1487.39 672.332 1488.36 673.301Z" fill="#A87431"/>
<path d="M1488.36 673.3V769.619C1358.94 759.154 1228.56 734.154 1110 663.029C1093.72 653.339 1076.67 641.323 1068.15 619.812C1056.33 590.16 1065.44 551.4 1082.87 527.563C1094.89 511.09 1107.67 500.043 1122.01 490.741C1144.09 489.19 1168.31 493.842 1187.49 504.113C1190.98 506.051 1194.46 507.989 1198.15 509.927C1199.11 510.508 1200.08 511.09 1201.24 511.671C1211.71 517.485 1223.14 523.881 1235.15 530.664C1237.09 531.633 1238.83 532.795 1240.77 533.764C1249.68 538.803 1258.78 543.842 1268.08 549.075C1269.63 550.044 1271.38 550.819 1272.93 551.788C1273.89 552.369 1274.86 552.951 1276.03 553.532C1277.96 554.695 1280.09 555.664 1282.03 556.827C1291.72 562.253 1301.6 567.679 1311.48 573.3C1312.84 574.075 1314.19 574.85 1315.55 575.431C1324.07 580.276 1332.6 584.928 1340.93 589.579C1344.03 591.323 1347.13 593.067 1350.03 594.618C1352.16 595.78 1354.29 597.137 1356.43 598.3C1357.98 599.269 1359.52 600.044 1361.27 601.013C1363.01 601.982 1364.76 602.951 1366.5 603.92C1368.05 604.695 1369.6 605.664 1370.96 606.439C1374.44 608.377 1378.12 610.509 1381.61 612.447C1382.77 613.222 1384.13 613.804 1385.29 614.579C1385.29 614.579 1385.49 614.579 1385.49 614.773C1387.42 615.936 1389.36 616.905 1391.1 617.874C1391.49 618.067 1392.07 618.455 1392.46 618.649C1393.62 619.23 1394.78 620.005 1395.95 620.587C1413.77 630.664 1430.24 639.773 1443.99 647.719C1444.96 648.3 1445.74 648.688 1446.7 649.269C1471.5 663.223 1487.39 672.331 1488.36 673.3Z" fill="#D1A14E"/>
<path d="M858.071 617.374C865.738 614.359 871.193 609.977 870.253 607.586C869.314 605.195 862.337 605.701 854.669 608.716C847.001 611.731 841.547 616.113 842.486 618.503C843.425 620.894 850.403 620.388 858.071 617.374Z" fill="#9A6527"/>
<path d="M979.615 573.3C980.196 575.819 974.578 580.277 966.828 583.184C959.079 586.091 952.298 586.478 951.717 583.959C951.136 581.439 956.754 576.982 964.503 574.075C972.253 571.168 979.034 570.78 979.615 573.3Z" fill="#9A6527"/>
<path d="M842.452 680.859C842.84 682.409 839.546 684.929 835.284 686.479C830.828 688.223 826.954 688.223 826.566 686.867C826.179 685.316 829.472 682.797 833.734 681.246C838.19 679.502 842.065 679.309 842.452 680.859Z" fill="#9A6527"/>
<path d="M992.984 594.23C993.371 595.781 990.078 598.3 985.815 599.85C981.36 601.595 977.485 601.595 977.097 600.238C976.71 598.688 980.003 596.168 984.266 594.618C988.721 592.874 992.596 592.68 992.984 594.23Z" fill="#9A6527"/>
<path d="M895.534 625.432C895.922 626.982 892.628 629.502 888.366 631.052C883.91 632.796 880.036 632.796 879.648 631.44C879.261 629.889 882.554 627.37 886.816 625.819C891.272 624.269 894.953 624.075 895.534 625.432Z" fill="#9A6527"/>
<path d="M852.913 684.347C853.106 685.316 851.169 686.673 848.65 687.642C845.938 688.611 843.807 688.804 843.42 687.835C843.226 686.866 845.163 685.51 847.682 684.541C850.2 683.572 852.525 683.378 852.913 684.347Z" fill="#9A6527"/>
<path d="M1009.06 648.3C1009.25 649.269 1007.32 650.626 1004.8 651.595C1002.09 652.564 999.956 652.758 999.568 651.789C999.374 650.82 1001.31 649.463 1003.83 648.494C1006.35 647.525 1008.67 647.331 1009.06 648.3Z" fill="#9A6527"/>
</g>
<g clip-path="url(#clip1_3103_43917)">
<path opacity="0.1" d="M1490.1 353.921C1406.8 397.914 1300.63 395.007 1219.84 346.363C1165.02 313.223 1116.58 259.347 1052.65 257.409C1008.87 256.052 968.184 280.665 935.443 309.929C902.702 339.193 874.999 374.077 840.127 400.627C788.787 439.581 722.724 458.767 658.405 453.147C594.085 447.527 532.284 417.294 488.501 369.813C440.648 318.068 408.682 243.649 341.457 222.525C299.417 209.347 253.696 221.362 212.624 237.448C171.553 253.533 131.063 273.882 87.2789 277.952C43.3014 282.022 -12.6875 269.425 -30.8984 229.114C-30.3172 250.238 -29.5423 271.556 -28.9611 292.681C46.2074 340.549 140.556 353.34 220.567 313.999C257.764 295.588 293.992 267.68 335.258 271.363C366.642 274.076 393.765 295.588 412.945 320.588C432.124 345.782 445.104 374.852 461.572 401.79C507.68 476.791 584.399 534.349 671.191 548.303C757.984 562.063 853.107 527.954 904.252 456.248C926.144 425.434 939.705 389.193 960.435 357.604C981.164 326.014 1012.94 297.526 1050.91 295.975C1097.4 294.231 1134.6 331.828 1168.12 363.999C1208.41 402.759 1253.55 438.224 1305.47 459.155C1357.39 480.085 1417.26 485.512 1469.37 464.969C1474.22 428.922 1485.45 389.774 1490.1 353.921Z" fill="white"/>
<path opacity="0.6" d="M376.91 102.753H30.9023C51.2443 102.753 72.555 97.3267 90.3785 87.4429C97.7403 83.3731 104.908 78.1405 113.433 77.5591C122.538 76.9777 131.062 82.0165 140.168 81.8227C151.404 81.8227 161.091 74.2645 168.647 65.9311C176.202 57.7915 182.789 48.2953 192.476 42.4813C207.2 33.5665 227.542 35.5045 240.328 46.9387C250.983 56.6287 257.57 72.3265 271.519 75.8149C279.656 77.7529 288.374 74.8459 296.704 76.3963C306.004 78.1405 313.366 84.9235 320.534 90.9313C327.508 96.7453 366.836 101.009 376.91 102.753Z" fill="white"/>
<path opacity="0.6" d="M512.135 181.048H324.602C331.576 181.048 338.163 178.529 344.362 175.428C350.756 172.327 357.536 168.839 364.511 170.389C367.029 170.971 369.548 172.327 372.26 172.134C375.941 172.134 379.234 169.614 381.559 166.707C383.884 163.8 385.628 160.506 388.146 157.792C392.021 153.916 397.639 151.785 403.257 152.172C408.682 152.56 414.106 155.661 417.206 160.118C419.531 163.219 420.887 167.289 424.374 169.227C428.636 171.552 434.061 169.614 437.742 166.32C441.229 163.025 443.554 158.568 446.847 154.885C449.947 151.203 454.597 148.102 459.44 148.878C464.283 149.653 467.77 154.11 470.095 158.568C472.42 163.025 474.357 167.87 478.62 170.583C484.625 175.234 499.155 169.808 512.135 181.048Z" fill="white"/>
<path opacity="0.6" d="M1421.32 248.878H1262.27C1268.28 248.878 1273.7 246.747 1279.12 244.033C1284.55 241.32 1290.36 238.413 1296.17 239.77C1298.3 240.351 1300.44 241.32 1302.76 241.32C1305.86 241.32 1308.57 239.188 1310.51 236.669C1312.45 234.15 1314 231.436 1316.13 229.111C1319.42 225.816 1324.26 223.878 1328.91 224.266C1333.56 224.653 1338.02 227.173 1340.73 231.049C1342.67 233.762 1343.83 237.25 1346.74 238.801C1350.22 240.933 1355.07 239.188 1357.97 236.475C1361.07 233.762 1363.01 229.886 1365.72 226.785C1368.44 223.684 1372.31 220.971 1376.38 221.746C1380.45 222.328 1383.35 226.204 1385.29 229.886C1387.23 233.568 1388.97 237.832 1392.46 240.157C1398.08 243.84 1410.48 239.188 1421.32 248.878Z" fill="white"/>
<path opacity="0.6" d="M917.426 161.281H1210.93C1193.69 161.281 1175.48 156.63 1160.56 148.296C1154.36 144.808 1148.16 140.35 1140.99 139.963C1133.24 139.381 1126.08 143.645 1118.33 143.645C1108.83 143.645 1100.7 137.25 1094.3 130.273C1087.91 123.296 1082.29 115.35 1074.16 110.505C1061.76 102.947 1044.51 104.497 1033.67 114.187C1024.56 122.327 1019.14 135.699 1007.32 138.606C1000.34 140.35 992.982 137.831 986.007 138.994C978.064 140.35 971.865 146.164 965.665 151.203C959.272 156.242 925.95 159.924 917.426 161.281Z" fill="white"/>
<path opacity="0.6" d="M1047 29.3029H1206.06C1200.05 29.3029 1194.62 27.1711 1189.2 24.4579C1183.78 21.7447 1177.96 18.8377 1172.15 20.1943C1170.02 20.7757 1167.89 21.7447 1165.56 21.7447C1162.47 21.7447 1159.75 19.6129 1157.82 17.0935C1155.88 14.5741 1154.33 11.8609 1152.2 9.53531C1148.9 6.24071 1144.06 4.30271 1139.41 4.69031C1134.76 5.07791 1130.31 7.59731 1127.59 11.4733C1125.66 14.1865 1124.49 17.6749 1121.59 19.2253C1118.1 21.3571 1113.26 19.6129 1110.35 16.8997C1107.25 14.1865 1105.31 10.3105 1102.6 7.20971C1099.89 4.10891 1096.01 1.39571 1091.95 2.17091C1087.88 2.75231 1084.97 6.62831 1083.03 10.3105C1081.1 13.9927 1079.35 18.2563 1075.87 20.5819C1070.25 24.4579 1058.04 19.8067 1047 29.3029Z" fill="white"/>
<path d="M1441.48 601.207V650.626L882.75 582.602L939.514 499.074L981.748 475.043L977.486 391.903L1011.78 381.438L1043.74 220.39L1100.7 201.591L1134.99 133.374L1297.34 85.6987L1324.46 103.722L1318.07 160.118L1342.29 185.506L1360.11 355.081L1391.88 394.035L1377.54 483.764L1441.48 601.207Z" fill="#E8C075"/>
<path d="M1297.34 85.6987L1324.46 103.722L1258.79 167.095L1262.28 332.019L1217.91 379.112V481.826L1183.43 311.863L1215.59 138.025L1297.34 85.6987Z" fill="#E0B165"/>
<path d="M1324.46 103.722L1318.07 160.118L1284.36 175.816L1297.34 332.019L1248.13 379.112L1232.24 588.028L1215.58 470.392L1217.91 379.112L1262.27 332.019L1258.78 167.095L1324.46 103.722Z" fill="#D8A355"/>
<path d="M1100.7 201.591L1084.23 311.088L1096.83 352.561L1084.23 464.965L1123.76 355.468V276.592L1134.99 133.374L1100.7 201.591Z" fill="#F7D08B"/>
<path d="M1391.88 394.035L1377.54 483.764L1360.11 440.934L1330.27 425.043L1336.28 389.965L1291.91 365.934L1360.11 355.081L1391.88 394.035Z" fill="#E0B165"/>
<path d="M1011.78 381.438L997.828 401.399L1020.69 458.958L999.184 511.671L882.75 582.602L939.514 499.074L981.748 475.043L977.486 391.903L1011.78 381.438Z" fill="#E0B165"/>
<path d="M-112.461 687.641V721.169L623.145 675.044L548.364 618.261L492.762 601.982L498.38 545.586L453.24 538.415L411.2 429.112L336.225 416.321L291.086 370.003L77.204 337.639L41.5571 350.042L50.0813 388.22L18.1153 405.469L-5.3264 520.586L-47.1728 546.943L-28.1869 607.99L-112.461 687.641Z" fill="#E8C075"/>
<path d="M77.2055 337.639L41.5586 350.042L127.964 392.872L123.314 504.888L181.822 536.865V606.633L227.349 491.322L184.921 373.104L77.2055 337.639Z" fill="#E0B165"/>
<path d="M41.5586 350.042L50.0829 388.22L94.4478 398.879L77.2055 504.888L141.912 536.865L163.029 678.727L184.921 598.881L181.822 536.865L123.314 504.888L127.964 392.872L41.5586 350.042Z" fill="#D8A355"/>
<path d="M336.226 416.321L357.924 490.741L341.263 518.842L357.924 595.199L305.81 520.78V467.291L291.086 370.003L336.226 416.321Z" fill="#F7D08B"/>
<path d="M-47.1719 546.943L-28.186 607.99L-5.32548 578.92L33.8087 568.067L25.8656 544.23L84.5668 527.95L-5.32548 520.586L-47.1719 546.943Z" fill="#E0B165"/>
<path d="M453.241 538.416L471.646 551.982L441.617 591.129L469.902 626.982L623.145 675.045L548.364 618.261L492.763 601.982L498.381 545.586L453.241 538.416Z" fill="#E0B165"/>
<path d="M867.057 559.734C867.057 556.827 866.669 553.726 866.088 550.819C865.507 548.299 864.345 545.586 862.407 544.423C862.214 544.23 862.02 544.23 861.826 544.23C861.632 544.23 861.439 544.23 861.245 544.036C860.664 543.842 860.276 544.036 859.695 544.036C859.501 544.036 859.307 544.036 859.114 544.23C858.339 544.423 857.564 545.005 856.983 545.586C856.789 545.78 856.595 545.974 856.595 546.168C856.402 546.361 856.208 546.555 856.208 546.749C855.82 547.33 855.433 548.106 855.239 548.881C854.852 550.237 854.658 551.594 854.658 552.951C854.658 556.439 855.433 559.734 855.627 563.222C855.82 566.71 855.433 570.199 853.496 573.106C853.108 573.687 852.527 574.269 851.946 574.85C850.589 576.013 848.846 576.788 847.102 576.788C847.877 567.292 848.265 557.796 847.684 548.299C847.296 542.873 846.521 537.447 845.359 532.214C844.584 528.726 843.615 525.043 841.484 522.33C841.484 522.136 841.29 522.136 841.29 521.943C841.097 521.749 841.097 521.555 840.903 521.361C840.322 520.78 839.74 520.198 839.159 519.811C839.74 518.648 840.322 517.485 841.097 516.516C841.484 515.935 841.871 515.547 842.259 514.772C842.453 514.191 842.646 513.415 842.259 512.834C841.871 512.059 840.903 511.865 840.128 512.059C839.353 512.253 838.772 512.834 838.384 513.609C837.997 514.384 837.609 515.16 837.416 515.935C837.416 515.16 837.416 514.384 837.028 513.609C836.641 513.028 835.866 512.446 835.091 512.834C834.703 513.028 834.51 513.415 834.316 513.803C834.316 514.191 834.122 514.578 834.316 515.16C833.928 514.191 833.541 513.222 833.154 512.253C832.572 511.284 831.991 510.508 831.022 510.121C830.247 509.733 829.279 509.539 828.504 510.121C827.923 510.508 827.729 511.477 827.923 512.253C828.116 513.028 828.504 513.609 828.891 514.191C829.279 514.772 829.86 515.353 830.248 515.935C829.473 514.578 827.923 513.803 826.567 513.997C825.792 513.997 825.017 514.384 824.629 514.966C824.242 515.741 824.629 516.516 825.017 517.098C825.598 517.679 826.179 518.067 826.954 518.454C827.923 519.036 828.698 519.617 829.473 520.392C829.085 520.78 828.698 521.361 828.31 521.943C827.535 523.105 827.148 524.656 826.76 526.012C825.985 529.501 826.373 532.989 826.567 536.671C827.535 547.524 828.504 558.571 829.473 569.424C830.248 578.145 831.022 586.866 831.797 595.78C832.379 595.78 832.766 595.974 833.154 595.974C833.347 595.974 833.541 595.974 833.735 595.974C834.51 596.168 835.285 596.362 836.06 596.556C836.253 596.556 836.447 596.556 836.641 596.749C837.803 596.943 838.772 597.331 839.934 597.718C840.128 597.718 840.322 597.718 840.515 597.912C841.097 598.106 841.871 598.3 842.646 598.3C842.84 598.3 843.034 598.3 843.228 598.494C843.615 598.494 844.196 598.687 844.584 598.687C845.165 593.649 845.746 588.804 846.327 583.765C846.327 582.99 846.521 582.214 846.521 581.439C850.396 584.928 856.789 584.152 860.47 580.664C861.439 579.889 862.213 578.92 862.988 577.757C865.119 574.462 866.282 570.199 866.669 566.129C866.863 563.416 867.057 561.478 867.057 559.734Z" fill="#A87431"/>
<path d="M799.444 558.183C799.25 557.021 799.056 556.052 798.669 554.889C798.475 554.307 798.088 553.92 797.7 553.532C797.7 553.532 797.506 553.338 797.313 553.338C796.925 553.145 796.538 552.951 796.15 552.757C795.957 552.757 795.763 552.757 795.569 552.757H795.375C794.988 552.757 794.794 552.951 794.407 553.145L794.213 553.338C793.438 553.92 792.857 554.695 792.469 555.664C791.888 557.214 792.082 559.152 792.469 560.703C792.857 563.222 793.051 565.742 793.244 568.261C793.825 575.819 793.825 583.184 793.244 590.742C793.244 591.323 793.051 591.905 793.051 592.486C792.857 593.455 792.663 594.23 792.082 595.005C791.113 596.362 789.176 597.137 787.432 597.137C787.045 597.137 786.851 597.137 786.464 597.137C786.851 594.23 787.045 591.323 787.432 588.416C788.207 579.501 788.595 570.393 788.401 561.478C788.207 554.114 787.82 546.362 783.751 539.966C783.17 538.997 782.589 538.222 781.814 537.447C781.62 537.253 781.233 536.865 780.845 536.672C780.652 536.672 780.652 536.478 780.458 536.478C780.458 536.478 780.264 536.478 780.264 536.284C780.458 535.509 780.845 534.927 781.427 534.152C781.814 533.765 782.201 533.183 782.008 532.602C781.814 532.02 781.233 531.827 780.845 531.827C780.458 531.827 779.877 532.214 779.489 532.602C779.489 532.02 779.683 531.245 779.489 530.664C779.295 530.082 778.714 529.501 778.133 529.307C777.552 529.307 776.971 529.695 776.583 530.276C776.196 530.858 776.196 531.439 776.002 532.214C775.808 531.827 775.615 531.439 775.421 531.245C775.033 531.051 774.646 531.051 774.452 531.245C774.258 531.439 774.258 531.633 774.258 532.02C774.258 532.214 774.258 532.408 774.452 532.602C774.065 532.214 773.677 532.02 773.096 531.827C772.515 531.633 772.127 531.633 771.546 531.827C771.159 532.02 770.771 532.602 770.771 532.989C770.771 533.377 770.965 533.765 771.352 534.152C771.546 534.346 771.934 534.734 772.321 534.927C772.902 535.315 773.483 535.896 773.871 536.478C773.677 536.672 773.29 537.059 773.096 537.253C772.902 537.447 772.902 537.447 772.902 537.641C771.74 539.579 771.352 542.486 771.352 545.005C771.352 551.788 771.352 558.765 771.546 565.548C771.546 568.842 771.546 572.137 771.546 575.432C770.771 575.432 769.996 575.238 769.221 575.044C768.834 575.044 768.253 574.85 767.865 574.656C766.897 574.269 766.122 573.881 765.347 573.106C763.991 571.556 763.797 569.618 763.797 567.486C763.797 565.742 764.184 563.997 763.991 562.253C763.991 561.09 763.797 559.928 763.409 558.765C763.216 558.183 763.022 557.796 762.634 557.214C762.441 556.827 762.053 556.633 761.666 556.245C761.472 556.245 761.472 556.052 761.278 556.052C760.891 555.858 760.31 555.664 759.922 555.47C759.728 555.47 759.728 555.47 759.535 555.47C759.147 555.47 758.76 555.47 758.372 555.47H758.179C758.179 555.47 758.179 555.47 757.985 555.47C757.404 555.664 757.016 555.858 756.629 556.245C756.435 556.439 756.435 556.439 756.241 556.633C755.66 557.214 755.273 557.99 755.079 558.765C754.691 560.121 754.691 561.672 754.885 563.222C754.885 564.773 755.079 566.517 755.079 568.067C755.079 568.649 755.079 569.23 755.079 569.811C755.273 572.137 755.273 574.463 756.435 576.594C756.822 577.37 757.21 577.951 757.791 578.532C759.341 580.083 761.472 581.246 763.797 581.827C766.122 582.408 768.834 582.021 771.352 581.827C771.352 588.998 771.352 596.168 771.546 603.145V608.378C771.546 621.495 779.295 631.918 778.133 619.495L778.521 614.995C780.845 620.456 777.746 613.801 778.714 613.995L780.07 614.995C780.652 615.188 778.42 611.301 779.001 611.495L781.62 613.501C782.008 613.695 780.114 610.801 780.501 610.995L781.001 610.509C781.582 610.703 781.039 610.316 781.62 610.509H781.814C782.395 610.703 782.976 610.897 783.558 611.091C783.945 608.378 784.526 605.664 784.914 603.145C786.657 603.533 788.595 603.726 790.338 603.726C793.438 603.726 796.538 602.757 798.281 600.238C799.444 598.3 799.637 595.974 799.637 593.649C799.831 589.385 799.831 584.928 799.831 580.664C799.831 573.494 799.637 566.323 798.863 559.346C799.637 559.346 799.637 558.765 799.444 558.183Z" fill="#A87431"/>
<path d="M819.205 551.982C818.624 551.013 817.849 550.044 817.074 549.268C816.686 548.881 816.493 548.687 816.105 548.493C815.912 548.493 815.912 548.299 815.718 548.299C815.718 548.299 815.524 548.299 815.524 548.106C815.912 547.33 816.105 546.555 816.687 545.974C817.074 545.392 817.461 545.005 817.268 544.23C817.074 543.648 816.493 543.261 815.912 543.454C815.33 543.454 814.943 543.842 814.555 544.23C814.555 543.454 814.749 542.873 814.555 542.098C814.362 541.323 813.781 540.741 813.006 540.741C812.231 540.741 811.649 541.129 811.262 541.71C810.874 542.292 810.874 543.067 810.681 543.648C810.487 543.261 810.293 542.873 809.906 542.679C809.518 542.485 809.131 542.485 808.743 542.679C808.55 542.873 808.55 543.067 808.55 543.454C808.55 543.648 808.55 543.842 808.743 544.036C808.356 543.648 807.775 543.454 807.387 543.261C806.806 543.067 806.225 543.067 805.837 543.261C805.256 543.454 805.062 544.036 805.062 544.617C805.062 545.005 805.256 545.392 805.644 545.78C806.031 546.168 806.419 546.361 806.612 546.555C807.194 546.943 807.775 547.524 808.356 548.106C808.162 548.299 807.775 548.687 807.581 548.881C807.387 549.075 807.387 549.075 807.194 549.268C805.837 551.4 805.644 554.501 805.644 557.214C805.644 564.579 805.644 571.943 805.837 579.307C805.837 592.873 806.031 606.246 806.031 619.812V625.238C806.612 625.238 807.194 625.432 807.969 625.432C808.162 625.432 808.162 625.432 808.356 625.432C809.518 625.626 810.487 625.819 811.649 626.013H811.843C812.424 626.207 813.199 626.401 813.781 626.401C813.974 626.401 813.974 626.401 813.974 626.401C814.362 626.595 814.749 626.595 815.33 626.788H815.524C816.105 626.982 816.686 627.176 817.268 627.37C817.268 627.37 817.461 627.37 817.461 627.564C818.043 627.757 818.818 627.951 819.399 628.339C820.949 620.199 821.917 611.866 822.692 603.532C823.467 594.036 823.855 584.346 823.661 574.656C824.048 567.098 823.467 558.765 819.205 551.982Z" fill="#A87431"/>
<path d="M102.584 622.912C102.584 620.78 102.391 618.842 101.809 616.711C101.422 614.966 100.647 613.028 99.2909 612.253C99.0972 612.253 99.0972 612.06 98.9035 612.06C98.7097 612.06 98.7097 612.06 98.516 612.06C98.1285 612.06 97.7411 612.06 97.3536 612.06C97.1599 612.06 97.1599 612.059 96.9661 612.253C96.3849 612.447 95.8037 612.835 95.4163 613.222C95.2225 613.416 95.2225 613.416 95.0288 613.61C94.8351 613.804 94.8351 613.804 94.6413 613.998C94.4476 614.385 94.2539 614.966 94.0601 615.354C93.8664 616.323 93.6727 617.292 93.6727 618.067C93.6727 620.393 94.0601 622.718 94.2539 625.044C94.4476 627.37 94.0601 629.889 92.8977 631.827C92.704 632.215 92.3165 632.602 91.9291 632.99C90.9604 633.765 89.798 634.347 88.4419 634.347C89.0231 627.757 89.2168 621.168 88.8293 614.773C88.6356 611.09 88.0544 607.214 87.2795 603.532C86.6983 601.013 85.9233 598.687 84.5672 596.749L84.3735 596.556C84.3735 596.362 84.1797 596.362 83.986 596.168C83.5985 595.78 83.2111 595.393 82.8236 595.005C83.2111 594.23 83.5985 593.455 84.1797 592.68C84.3735 592.292 84.7609 591.904 84.9547 591.517C85.1484 591.129 85.1484 590.548 84.9547 590.16C84.7609 589.579 83.986 589.385 83.4048 589.579C82.8236 589.772 82.4361 590.16 82.0487 590.548C81.8549 591.129 81.4675 591.517 81.4675 592.098C81.4675 591.517 81.4675 590.935 81.2737 590.548C81.08 590.16 80.4988 589.772 79.9176 589.966C79.7239 590.16 79.5301 590.354 79.5301 590.742C79.5301 591.129 79.5301 591.323 79.5301 591.711C79.3364 591.129 79.1427 590.354 78.7552 589.773C78.3677 589.191 77.9803 588.61 77.2053 588.222C76.6241 588.028 76.0429 587.834 75.4617 588.222C75.0743 588.61 74.8805 589.191 75.0743 589.579C75.268 590.16 75.4617 590.548 75.8492 590.935C76.2367 591.323 76.4304 591.71 76.8179 592.098C76.2367 591.129 75.268 590.742 74.2993 590.742C73.7181 590.742 73.1369 590.935 72.9432 591.517C72.7495 591.904 72.9432 592.679 73.3307 593.067C73.7181 593.455 74.1056 593.648 74.6868 594.036C75.268 594.424 75.8492 594.811 76.4304 595.393C76.0429 595.78 75.8492 596.168 75.6555 596.556C75.0743 597.331 74.8805 598.3 74.4931 599.269C73.9119 601.594 74.1056 604.114 74.4931 606.633C75.0743 614.191 75.8492 621.749 76.4304 629.308C77.0116 635.315 77.5928 641.517 77.9803 647.525C78.3677 647.525 78.5615 647.525 78.9489 647.719C79.1427 647.719 79.1427 647.719 79.3364 647.719C79.9176 647.912 80.4988 647.912 80.8863 648.106C81.08 648.106 81.08 648.106 81.2737 648.3C82.0487 648.494 82.8236 648.688 83.5985 648.882C83.7923 648.882 83.7923 648.881 83.986 649.075C84.3735 649.269 84.9547 649.269 85.3421 649.463C85.5359 649.463 85.5359 649.463 85.7296 649.463C86.1171 649.463 86.3108 649.657 86.6983 649.657C87.0857 646.168 87.4732 642.68 87.8607 639.385C87.8607 638.804 88.0544 638.416 88.0544 637.835C90.7667 640.16 95.0288 639.773 97.7411 637.254C98.3223 636.672 98.9035 635.897 99.4847 635.316C101.035 632.99 101.809 630.083 102.003 627.37C102.584 625.432 102.584 624.269 102.584 622.912Z" fill="#D1A14E"/>
<path d="M55.895 633.571C55.895 632.796 55.7013 632.021 55.3138 631.439C55.1201 631.052 54.9264 630.858 54.5389 630.47L54.3452 630.277C54.1514 630.083 53.764 630.083 53.5702 629.889C53.3765 629.889 53.1828 629.889 53.1828 629.889H52.989C52.7953 629.889 52.6016 630.083 52.4078 630.083C52.4078 630.083 52.2141 630.083 52.2141 630.277C51.6329 630.664 51.2454 631.246 51.0517 631.827C50.6642 632.99 50.858 634.153 51.0517 635.315C51.2454 637.06 51.4392 638.804 51.6329 640.548C52.0204 645.781 52.0204 651.013 51.6329 656.052C51.6329 656.44 51.6329 656.827 51.4392 657.215C51.2454 657.796 51.0517 658.378 50.858 658.959C50.083 659.928 48.9206 660.509 47.7582 660.509C47.5645 660.509 47.3708 660.509 47.177 660.509C47.3708 658.571 47.5645 656.44 47.7582 654.502C48.3394 648.3 48.5332 642.098 48.3394 635.897C48.3394 630.858 47.952 625.432 45.2397 620.974C44.8522 620.393 44.4648 619.811 43.8836 619.23C43.6898 619.036 43.4961 618.842 43.3024 618.649L43.1086 618.455C43.1086 618.455 43.1086 618.455 42.9149 618.455C43.1086 617.873 43.3024 617.486 43.6898 617.098C43.8836 616.711 44.271 616.323 44.0773 615.935C44.0773 615.548 43.6898 615.354 43.3024 615.354C42.9149 615.354 42.5274 615.548 42.3337 615.935C42.3337 615.548 42.5274 614.966 42.3337 614.579C42.14 614.191 41.9462 613.804 41.365 613.61C40.9776 613.61 40.5901 613.804 40.2026 614.191C40.0089 614.579 40.0089 614.966 39.8152 615.548C39.6214 615.354 39.6214 615.16 39.4277 614.966C39.234 614.773 38.8465 614.773 38.6528 614.966C38.459 615.16 38.459 615.354 38.459 615.354C38.459 615.548 38.459 615.548 38.6528 615.742C38.459 615.548 38.0716 615.354 37.6841 615.16C37.2966 614.966 36.9092 614.966 36.7154 615.16C36.328 615.354 36.1342 615.742 36.1342 615.935C36.1342 616.129 36.328 616.517 36.5217 616.711C36.7154 616.904 36.9092 617.098 37.1029 617.292C37.4904 617.68 37.8778 617.873 38.2653 618.261C38.0716 618.455 37.8778 618.649 37.6841 618.842L37.4904 619.036C36.7154 620.393 36.5217 622.331 36.5217 624.075C36.5217 628.92 36.5217 633.571 36.5217 638.416C36.5217 640.742 36.5217 643.067 36.5217 645.199C35.9405 645.199 35.553 645.005 34.9718 645.005C34.5844 645.005 34.3906 644.812 34.0032 644.812C33.422 644.618 32.647 644.23 32.2596 643.649C31.2909 642.68 31.0972 641.129 31.0972 639.773C31.0972 638.61 31.2909 637.447 31.2909 636.091C31.2909 635.315 31.0972 634.346 30.9034 633.765C30.7097 633.377 30.516 632.99 30.3222 632.796C30.1285 632.602 29.9348 632.408 29.741 632.215L29.5473 632.021C29.1598 631.827 28.9661 631.633 28.5786 631.633H28.3849C28.1912 631.633 27.8037 631.633 27.61 631.633H27.4162C27.0288 631.827 26.6413 632.021 26.4476 632.215L26.2538 632.408C25.8664 632.796 25.6726 633.377 25.4789 633.765C25.2852 634.734 25.2852 635.897 25.2852 636.866C25.2852 638.029 25.4789 638.998 25.4789 640.16C25.4789 640.548 25.4789 640.936 25.4789 641.323C25.4789 642.874 25.6726 644.618 26.4476 645.974C26.6413 646.556 27.0288 646.943 27.4162 647.331C28.5786 648.494 29.9348 649.269 31.4846 649.463C33.0345 649.85 34.9718 649.657 36.7154 649.463C36.7154 654.308 36.7154 659.347 36.7154 664.192V667.68C37.1029 667.68 37.4904 667.68 37.8778 667.874H38.0716C38.8465 667.874 39.4277 668.068 40.2026 668.261H40.3964C40.7838 668.261 41.1713 668.455 41.5588 668.649H41.7525C41.9462 668.649 42.3337 668.843 42.5274 668.843H42.7212C43.1086 669.037 43.4961 669.037 43.8836 669.23H44.0773C44.4648 669.424 44.8522 669.618 45.2397 669.618C45.6272 667.874 45.8209 665.936 46.2084 663.998C47.3708 664.192 48.7269 664.385 50.083 664.385C52.2141 664.385 54.3452 663.804 55.5076 662.06C56.2825 660.703 56.4762 659.153 56.4762 657.409C56.4762 654.502 56.67 651.401 56.67 648.3C56.67 643.261 56.67 638.416 56.0888 633.571C56.0888 634.346 55.895 633.959 55.895 633.571Z" fill="#D1A14E"/>
<path d="M69.4562 617.68C69.0687 617.098 68.4875 616.323 67.9063 615.936C67.7126 615.742 67.5189 615.548 67.3251 615.354L67.1314 615.16C67.1314 615.16 67.1314 615.16 66.9377 615.16C67.1314 614.579 67.3251 614.191 67.7126 613.61C67.9063 613.222 68.2938 612.835 68.1001 612.447C68.1001 612.06 67.5189 611.866 67.1314 611.866C66.7439 611.866 66.3565 612.06 66.1627 612.447C66.1627 611.866 66.3565 611.478 66.1627 610.897C65.969 610.509 65.5815 609.928 65.1941 609.928C64.8066 609.928 64.2254 610.122 64.0317 610.703C63.8379 611.284 63.6442 611.672 63.6442 612.06C63.4505 611.866 63.4505 611.478 63.2567 611.478C63.063 611.284 62.6755 611.284 62.4818 611.478C62.2881 611.672 62.2881 611.866 62.2881 612.06C62.2881 612.253 62.2881 612.447 62.4818 612.447C62.0943 612.253 61.9006 612.06 61.5131 611.866C61.1257 611.672 60.7382 611.672 60.3507 611.866C59.9633 612.06 59.7695 612.447 59.7695 612.835C59.7695 613.222 59.9633 613.416 60.157 613.61C60.3507 613.804 60.5445 613.997 60.9319 614.191C61.3194 614.579 61.7069 614.967 62.0943 615.354C61.9006 615.548 61.7069 615.742 61.5131 615.936C61.5131 616.129 61.3194 616.129 61.3194 616.323C60.3507 617.874 60.157 620.005 60.157 621.75C60.157 626.788 60.157 631.827 60.157 636.866C60.157 646.168 60.3507 655.471 60.3507 664.773V668.649C60.7382 668.649 61.1257 668.649 61.7069 668.843H61.9006C62.6755 669.037 63.4505 669.037 64.2254 669.231H64.4191C64.8066 669.231 65.3878 669.424 65.7753 669.618H65.969C66.3565 669.618 66.5502 669.812 66.9377 669.812H67.1314C67.5189 670.006 67.9063 670.006 68.2938 670.2H68.4875C68.875 670.393 69.4562 670.587 69.8437 670.781C70.8123 665.161 71.5873 659.347 72.1685 653.727C72.7497 647.137 72.9434 640.354 72.9434 633.765C72.9434 627.951 72.3622 622.331 69.4562 617.68Z" fill="#D1A14E"/>
<path d="M510.586 570.005C509.617 569.617 508.648 569.23 507.873 568.648C507.098 568.067 506.323 567.098 505.936 565.935C505.548 564.772 505.742 563.416 506.517 562.641C507.098 561.865 508.067 561.672 509.036 561.672C511.167 561.478 513.104 561.865 515.041 562.641C516.204 562.253 517.56 561.672 518.722 561.672C520.078 561.478 521.435 561.865 522.403 562.834C523.372 563.803 523.953 565.354 523.566 566.904C526.278 570.199 528.022 575.044 528.022 579.695C528.022 581.439 529.571 582.602 530.928 583.183C532.284 583.571 533.833 583.377 535.19 583.183C540.614 582.02 545.651 579.114 549.72 574.85C551.269 573.106 553.013 571.168 555.144 570.586C558.05 569.811 560.956 571.943 563.475 574.075C564.056 574.075 564.637 573.881 565.218 573.687C565.606 572.912 565.993 572.33 566.187 571.555C564.443 569.811 562.506 568.455 560.181 568.067C559.406 567.873 558.631 567.679 558.631 566.904C558.631 566.129 559.406 565.741 560.181 565.741C562.7 565.547 565.218 567.098 567.543 566.71C569.868 566.129 571.612 563.997 573.355 562.059C572.774 560.702 572.386 559.346 572.386 557.796C572.386 556.245 572.774 554.695 573.743 553.92C574.518 553.338 575.486 553.144 576.455 553.144C577.23 553.144 578.198 553.338 578.78 553.92C579.748 554.695 580.33 556.439 580.136 557.989C580.136 559.54 579.555 560.896 578.973 562.253C580.329 565.354 580.717 569.036 579.748 572.331C579.167 574.656 579.555 577.369 578.392 579.501C578.973 580.664 579.942 582.021 580.911 582.796C581.298 582.796 581.879 582.796 582.267 582.99C582.654 583.183 583.042 583.377 583.236 583.959C583.429 584.54 583.236 585.315 583.042 585.897C582.461 587.835 581.879 589.966 581.298 591.904C584.398 596.943 587.691 602.757 588.273 608.959C588.66 612.835 588.079 616.904 588.079 620.974C588.079 625.044 589.241 629.308 592.147 631.246C590.404 631.052 588.466 630.277 587.304 628.726C588.079 631.439 589.048 633.959 590.016 636.478C588.854 644.036 587.885 651.595 586.916 659.347C586.142 659.153 585.367 659.153 584.592 658.959C588.079 649.85 587.691 638.998 584.204 630.083C583.236 627.757 582.073 625.626 580.911 623.688C578.392 628.339 580.136 634.928 577.811 639.773C576.842 641.905 575.099 643.455 573.355 645.006C570.449 647.525 567.543 650.044 564.637 652.564C563.475 652.176 562.312 652.176 561.15 651.595C564.831 649.463 568.124 646.168 570.643 642.099C574.324 635.703 574.711 626.595 571.418 619.812C571.612 618.455 571.612 617.098 571.805 615.936C570.837 614.967 569.868 613.804 568.899 612.835C562.119 613.998 554.95 612.059 549.138 607.408C548.751 613.222 548.557 619.424 548.17 625.432C547.782 631.827 545.264 637.835 543.908 644.23C542.164 643.455 540.614 642.874 538.871 642.292C540.033 642.098 541.195 641.323 541.97 640.161C542.745 638.998 543.133 637.641 543.52 636.285C544.489 632.409 544.876 628.339 544.489 624.269C543.908 618.455 544.876 612.447 544.489 606.633C541.97 607.796 539.452 609.153 537.127 610.703C534.802 612.253 532.671 614.385 531.121 617.098C528.022 622.912 528.603 630.277 526.084 636.478C524.341 637.447 522.403 638.416 520.66 639.192C523.759 636.478 524.922 631.246 525.309 626.595C525.697 621.943 525.89 617.098 528.022 613.222C530.54 608.377 535.577 606.052 538.289 601.207C537.514 600.044 536.933 598.687 536.546 597.331C530.54 597.331 524.534 593.261 520.466 588.222C516.591 582.989 513.298 576.4 510.586 570.005Z" fill="#A87431"/>
<path d="M682.427 651.789C682.427 646.944 683.202 642.292 683.59 637.641C683.784 635.897 683.977 633.959 683.784 632.215C683.59 630.471 682.815 628.533 681.459 627.564C680.878 623.881 678.94 620.199 676.228 618.261C677.003 615.16 676.228 611.284 674.097 609.153C675.453 605.277 676.616 601.401 676.809 597.331C677.003 593.261 675.841 588.61 673.322 586.09C673.71 584.54 673.903 582.796 673.516 581.245C673.128 579.695 671.966 578.338 670.61 578.145C669.254 577.951 668.091 579.114 667.704 580.858C666.735 580.664 665.766 580.858 664.798 581.052C665.185 581.827 666.154 582.408 666.929 582.408C665.96 584.346 666.541 587.059 668.285 588.028C666.929 590.548 665.573 592.873 664.217 595.393C663.442 596.943 662.279 598.494 660.923 598.494C660.148 598.494 659.373 598.106 658.598 597.525C657.823 597.137 657.048 596.556 656.273 596.749C655.499 596.749 654.724 597.525 654.724 598.494C654.724 599.269 655.499 599.85 656.08 600.044C656.661 600.238 657.436 600.044 658.017 600.044C659.373 600.044 660.729 600.625 661.892 601.788C660.342 602.757 658.598 602.37 656.855 601.982C655.111 601.594 653.368 601.788 652.011 602.951C650.462 602.37 648.718 601.594 647.168 601.982C645.618 602.176 643.681 603.532 643.681 605.47C640.775 605.858 638.256 608.184 635.738 610.122C633.219 612.06 630.12 613.416 627.407 611.866C625.082 610.509 623.92 607.215 623.339 603.92C622.758 600.819 622.758 597.525 621.595 594.618C620.433 591.711 617.527 589.579 615.008 590.742C612.102 588.997 608.034 589.579 605.322 591.711C604.74 592.098 603.966 592.873 604.159 593.842C604.353 594.618 605.128 595.005 605.709 595.393C607.259 595.974 608.615 596.749 610.165 597.331C610.165 599.656 611.134 601.788 612.102 603.726C613.071 605.664 614.04 607.99 613.458 609.928C613.265 610.703 613.458 611.672 613.846 612.447C614.233 613.029 615.008 613.416 615.783 613.416C617.914 617.292 620.239 621.362 623.339 624.075C626.439 626.788 630.701 628.145 634.188 626.401C635.544 628.533 636.513 630.858 637.094 633.378C636.706 635.122 636.9 637.06 637.094 638.804C635.35 641.905 633.413 644.812 631.669 647.913C631.282 648.688 630.701 649.463 630.507 650.432C630.313 652.176 631.282 653.727 632.251 654.889C633.413 656.052 634.769 656.827 635.544 658.378C634.769 659.541 634.188 661.091 633.8 662.641C633.413 664.192 633.219 665.742 632.444 667.099C631.863 668.262 630.701 669.037 629.732 669.231C630.507 669.424 631.088 670.2 631.669 670.587C632.444 671.169 633.607 671.556 634.188 670.975C634.575 670.587 634.769 670.2 634.963 669.618C636.125 666.324 637.094 663.029 638.256 659.734C640.194 662.448 641.356 666.13 641.356 669.812C642.325 667.68 643.293 665.742 644.262 663.804C642.906 661.672 641.162 659.734 639.225 658.378C640.581 654.889 640 650.432 640.387 646.556C640.775 642.68 642.518 638.416 645.812 637.641C647.168 637.254 648.524 637.641 649.687 638.029C655.111 639.579 660.729 641.13 666.154 642.68C665.766 648.688 668.479 654.696 667.51 660.51C666.735 664.579 664.41 668.068 661.504 670.393C658.598 672.913 655.305 674.463 652.205 675.82C653.755 676.207 655.499 676.983 657.048 677.37C666.154 671.556 672.547 659.928 673.516 647.719C678.165 651.789 680.878 658.959 680.684 665.936C680.49 672.913 677.39 679.696 672.547 683.572C673.71 683.959 675.841 683.766 677.003 684.153C680.878 678.921 684.171 671.75 685.527 664.967C683.396 661.479 682.427 656.634 682.427 651.789ZM634.963 651.401C634.769 650.432 635.35 649.463 635.931 648.688C636.513 647.913 637.094 647.331 637.481 646.362C637.288 649.075 637.094 651.595 636.513 654.114C636.125 653.533 635.157 652.564 634.963 651.401Z" fill="#A87431"/>
<path d="M617.331 596.943C613.65 602.369 608.031 605.664 602.219 606.052C596.601 606.439 590.983 603.532 586.915 598.881C584.59 596.168 583.04 592.873 581.877 589.385C581.49 588.028 579.94 588.803 580.134 590.16C582.071 596.943 586.333 602.757 591.758 605.858C597.57 609.152 604.157 609.153 609.969 606.052C613.262 604.308 616.168 601.788 618.493 598.494C619.268 597.331 617.912 595.974 617.331 596.943Z" fill="#A87431"/>
<path d="M792.469 716.712V925.434H-388.336V864L191.314 590.935C216.5 579.114 242.847 572.137 269.389 570.005C296.899 567.873 324.796 570.974 351.725 579.501C360.443 582.214 369.549 585.121 379.042 588.028C381.367 588.804 383.885 589.579 386.21 590.354C388.147 590.935 389.891 591.517 391.828 592.098C393.766 592.68 395.509 593.261 397.446 593.842C407.521 596.943 417.982 600.238 428.638 603.532C430.381 604.114 432.318 604.695 434.062 605.277C446.848 609.346 460.022 613.416 473.39 617.486C475.133 618.067 476.683 618.455 478.427 619.036C515.236 630.471 553.402 642.486 590.017 653.92C592.923 654.889 595.636 655.665 598.348 656.634C602.61 657.99 606.678 659.153 610.747 660.51C612.103 660.897 613.459 661.285 614.815 661.866C628.57 666.13 641.938 670.393 654.724 674.269C657.243 675.045 659.761 675.82 662.474 676.595C664.798 677.37 667.123 677.952 669.254 678.727C671.385 679.308 673.71 680.083 675.841 680.859C677.585 681.44 679.135 681.828 680.685 682.409C683.203 683.184 685.528 683.959 688.046 684.735C689.209 685.122 690.371 685.51 691.534 685.897C693.471 686.479 695.408 687.06 697.346 687.642C698.121 687.835 698.896 688.223 699.67 688.417C701.22 688.998 702.77 689.386 704.32 689.773C708.001 690.936 711.682 692.099 715.363 693.262C716.331 693.649 717.3 693.843 718.269 694.231C721.756 695.394 725.243 696.363 728.73 697.525C729.699 697.913 730.668 698.107 731.636 698.494C734.93 699.463 738.223 700.626 741.323 701.401C742.292 701.789 743.26 701.983 744.229 702.37C745.973 702.952 747.716 703.339 749.46 703.921C750.235 704.115 751.01 704.502 751.785 704.696C753.916 705.277 756.047 706.053 758.178 706.634C758.759 706.828 759.147 707.022 759.728 707.022C760.309 707.215 760.697 707.409 761.278 707.409C762.634 707.797 764.184 708.184 765.346 708.766C768.252 709.541 770.771 710.51 773.289 711.091C774.452 711.479 775.614 711.867 776.776 712.06C777.551 712.254 778.132 712.448 778.907 712.642C779.489 712.836 780.07 713.029 780.651 713.223C782.007 713.611 783.17 713.998 784.332 714.386C784.913 714.58 785.301 714.774 785.882 714.774C786.269 714.967 786.657 714.967 787.044 715.161C787.432 715.355 788.013 715.355 788.4 715.549H788.594C788.982 715.743 789.369 715.743 789.563 715.936C791.113 716.324 792.081 716.518 792.469 716.712Z" fill="#A87431"/>
<path d="M792.469 725.433V806.635L178.141 819.038L448.592 696.944C424.763 701.014 372.649 707.991 366.643 686.479C364.318 678.145 368.968 674.463 369.937 668.262C371.293 659.541 368.387 650.432 363.737 644.23C359.088 638.029 352.888 634.347 346.882 631.633C333.515 625.626 319.372 623.688 305.811 618.067C292.25 612.447 278.882 602.757 271.714 586.09C269.97 582.214 269.389 576.013 269.389 570.199C296.899 568.067 324.797 571.168 351.726 579.695C360.444 582.408 369.549 585.315 379.042 588.222C381.367 588.997 383.885 589.773 386.21 590.548C388.148 591.129 389.891 591.711 391.829 592.292C393.766 592.873 395.509 593.455 397.447 594.036C407.521 597.137 417.982 600.432 428.638 603.726C430.381 604.308 432.319 604.889 434.062 605.47C446.849 609.54 460.023 613.61 473.39 617.68C475.134 618.261 476.684 618.649 478.427 619.23C515.237 630.664 553.402 642.68 590.018 654.114C592.924 655.083 595.636 655.858 598.348 656.827C602.61 658.184 606.679 659.347 610.747 660.703C612.103 661.091 613.459 661.479 614.816 662.06C628.571 666.324 641.938 670.587 654.725 674.463C657.243 675.238 659.762 676.014 662.474 676.789C664.799 677.564 667.124 678.145 669.255 678.921C671.386 679.502 673.71 680.277 675.842 681.052C677.391 681.634 679.135 682.021 680.685 682.603C683.203 683.378 685.528 684.153 688.047 684.928C689.209 685.316 690.372 685.704 691.534 686.091C693.471 686.673 695.409 687.254 697.346 687.835C698.121 688.029 698.896 688.223 699.671 688.611C701.221 688.998 702.771 689.58 704.32 689.967C708.001 691.13 711.682 692.293 715.363 693.456C716.332 693.843 717.3 694.037 718.269 694.425C721.756 695.587 725.244 696.556 728.731 697.719C729.699 698.107 730.668 698.301 731.637 698.688C734.93 699.657 738.224 700.82 741.323 701.595C742.292 701.983 743.261 702.177 744.229 702.564C745.973 703.146 747.717 703.533 749.46 704.115C750.235 704.308 751.01 704.696 751.785 704.89C753.916 705.471 756.047 706.246 758.178 706.828C758.759 707.022 759.147 707.215 759.728 707.215C760.309 707.409 760.697 707.603 761.278 707.603C762.634 707.991 764.184 708.378 765.346 708.96C768.252 709.735 770.771 710.704 773.289 711.285C774.452 711.673 775.614 712.06 776.777 712.254C777.552 712.448 778.133 712.642 778.908 712.836C779.489 713.029 780.07 713.223 780.651 713.417C782.007 713.805 783.17 714.192 784.332 714.58C784.913 714.774 785.301 714.967 785.882 714.967C786.27 715.161 786.657 715.161 787.044 715.355C787.432 715.549 788.013 715.549 788.401 715.743H788.594C788.982 715.936 789.369 715.936 789.563 716.13L792.469 725.433Z" fill="#D1A14E"/>
<path d="M207.587 598.106C208.169 600.625 202.55 605.083 194.801 607.99C187.052 610.897 180.271 611.284 179.69 608.765C179.109 606.246 184.727 601.788 192.476 598.881C200.032 595.78 206.812 595.587 207.587 598.106Z" fill="#9A6527"/>
<path d="M294.38 671.362C294.961 673.882 289.343 678.339 281.594 681.246C273.845 684.153 267.064 684.541 266.483 682.021C265.902 679.502 271.52 675.045 279.269 672.138C287.018 669.231 293.799 668.843 294.38 671.362Z" fill="#9A6527"/>
<path d="M232.577 615.742C232.965 617.292 229.671 619.812 225.409 621.362C220.953 623.106 217.079 623.106 216.691 621.75C216.304 620.199 219.597 617.68 223.859 616.129C228.315 614.385 232.19 614.385 232.577 615.742Z" fill="#9A6527"/>
<path d="M1488.36 673.301V914H-63.4453L1095.08 496.361C1103.22 493.26 1112.52 491.516 1122.01 490.935C1144.09 489.385 1168.31 494.036 1187.49 504.307C1190.98 506.245 1194.47 508.183 1198.15 510.121C1199.11 510.703 1200.08 511.284 1201.25 511.865C1211.71 517.679 1223.14 524.075 1235.15 530.858C1237.09 531.827 1238.83 532.989 1240.77 533.958C1249.68 538.997 1258.78 544.036 1268.08 549.269C1269.63 550.238 1271.38 551.013 1272.93 551.982C1273.9 552.563 1274.86 553.145 1276.03 553.726C1277.96 554.889 1280.1 555.858 1282.03 557.021C1291.72 562.447 1301.6 567.873 1311.48 573.494C1312.84 574.269 1314.19 575.044 1315.55 575.625C1324.07 580.47 1332.6 585.122 1340.93 589.773C1344.03 591.517 1347.13 593.261 1350.03 594.812C1352.16 595.974 1354.3 597.331 1356.43 598.494C1357.98 599.463 1359.53 600.238 1361.27 601.207C1363.01 602.176 1364.76 603.145 1366.5 604.114C1368.05 604.889 1369.6 605.858 1370.96 606.633C1374.44 608.571 1378.12 610.703 1381.61 612.641C1382.77 613.416 1384.13 613.998 1385.29 614.773C1385.29 614.773 1385.49 614.773 1385.49 614.967C1387.42 616.13 1389.36 617.099 1391.1 618.068C1391.49 618.261 1392.07 618.649 1392.46 618.843C1393.62 619.424 1394.79 620.2 1395.95 620.781C1413.77 630.859 1430.24 639.967 1443.99 647.913C1444.96 648.494 1445.74 648.882 1446.71 649.463C1471.5 663.223 1487.39 672.332 1488.36 673.301Z" fill="#A87431"/>
<path d="M1488.36 673.3V769.619C1358.94 759.154 1228.56 734.154 1110 663.029C1093.72 653.339 1076.67 641.323 1068.15 619.812C1056.33 590.16 1065.44 551.4 1082.87 527.563C1094.89 511.09 1107.67 500.043 1122.01 490.741C1144.09 489.19 1168.31 493.842 1187.49 504.113C1190.98 506.051 1194.46 507.989 1198.15 509.927C1199.11 510.508 1200.08 511.09 1201.24 511.671C1211.71 517.485 1223.14 523.881 1235.15 530.664C1237.09 531.633 1238.83 532.795 1240.77 533.764C1249.68 538.803 1258.78 543.842 1268.08 549.075C1269.63 550.044 1271.38 550.819 1272.93 551.788C1273.89 552.369 1274.86 552.951 1276.03 553.532C1277.96 554.695 1280.09 555.664 1282.03 556.827C1291.72 562.253 1301.6 567.679 1311.48 573.3C1312.84 574.075 1314.19 574.85 1315.55 575.431C1324.07 580.276 1332.6 584.928 1340.93 589.579C1344.03 591.323 1347.13 593.067 1350.03 594.618C1352.16 595.78 1354.29 597.137 1356.43 598.3C1357.98 599.269 1359.52 600.044 1361.27 601.013C1363.01 601.982 1364.76 602.951 1366.5 603.92C1368.05 604.695 1369.6 605.664 1370.96 606.439C1374.44 608.377 1378.12 610.509 1381.61 612.447C1382.77 613.222 1384.13 613.804 1385.29 614.579C1385.29 614.579 1385.49 614.579 1385.49 614.773C1387.42 615.936 1389.36 616.905 1391.1 617.874C1391.49 618.067 1392.07 618.455 1392.46 618.649C1393.62 619.23 1394.78 620.005 1395.95 620.587C1413.77 630.664 1430.24 639.773 1443.99 647.719C1444.96 648.3 1445.74 648.688 1446.7 649.269C1471.5 663.223 1487.39 672.331 1488.36 673.3Z" fill="#D1A14E"/>
<path d="M858.071 617.374C865.738 614.359 871.193 609.977 870.253 607.586C869.314 605.195 862.337 605.701 854.669 608.716C847.001 611.731 841.547 616.113 842.486 618.503C843.425 620.894 850.403 620.388 858.071 617.374Z" fill="#9A6527"/>
<path d="M979.615 573.3C980.196 575.819 974.578 580.277 966.828 583.184C959.079 586.091 952.298 586.478 951.717 583.959C951.136 581.439 956.754 576.982 964.503 574.075C972.253 571.168 979.034 570.78 979.615 573.3Z" fill="#9A6527"/>
<path d="M842.452 680.859C842.84 682.409 839.546 684.929 835.284 686.479C830.828 688.223 826.954 688.223 826.566 686.867C826.179 685.316 829.472 682.797 833.734 681.246C838.19 679.502 842.065 679.309 842.452 680.859Z" fill="#9A6527"/>
<path d="M992.984 594.23C993.371 595.781 990.078 598.3 985.815 599.85C981.36 601.595 977.485 601.595 977.097 600.238C976.71 598.688 980.003 596.168 984.266 594.618C988.721 592.874 992.596 592.68 992.984 594.23Z" fill="#9A6527"/>
<path d="M895.534 625.432C895.922 626.982 892.628 629.502 888.366 631.052C883.91 632.796 880.036 632.796 879.648 631.44C879.261 629.889 882.554 627.37 886.816 625.819C891.272 624.269 894.953 624.075 895.534 625.432Z" fill="#9A6527"/>
<path d="M852.913 684.347C853.106 685.316 851.169 686.673 848.65 687.642C845.938 688.611 843.807 688.804 843.42 687.835C843.226 686.866 845.163 685.51 847.682 684.541C850.2 683.572 852.525 683.378 852.913 684.347Z" fill="#9A6527"/>
<path d="M1009.06 648.3C1009.25 649.269 1007.32 650.626 1004.8 651.595C1002.09 652.564 999.956 652.758 999.568 651.789C999.374 650.82 1001.31 649.463 1003.83 648.494C1006.35 647.525 1008.67 647.331 1009.06 648.3Z" fill="#9A6527"/>
</g>
</g>
<defs>
<clipPath id="clip0_3103_43917">
<rect width="1453" height="969" fill="white" transform="translate(-3 -55)"/>
</clipPath>
<clipPath id="clip1_3103_43917">
<rect width="1453" height="969" fill="white" transform="translate(-3 -55)"/>
</clipPath>
</defs>
</svg>
