<svg width="40" height="40" viewBox="0 0 40 40" fill="none" xmlns="http://www.w3.org/2000/svg">
<rect width="40" height="40" rx="8" fill="#292929"/>
<path d="M11.072 20.6723H15.4394C15.3362 20.3332 15.1986 19.9298 15.0439 19.51C14.8895 19.0736 14.7343 18.6057 14.5799 18.1212C14.4076 17.6203 14.2529 17.1359 14.0809 16.6356C13.9093 16.135 13.7546 15.6668 13.6166 15.1985C13.4791 14.7463 13.3587 14.3261 13.2383 13.9386H13.2039C13.0492 14.6333 12.86 15.3273 12.6193 16.022C12.3614 16.7971 12.1038 17.6045 11.8283 18.4119C11.6047 19.2355 11.33 19.9944 11.072 20.6723ZM16.4711 23.8861H10.0743L8.76748 27.6966C8.73308 27.8423 8.59588 27.9392 8.44112 27.923H5.20799C5.01884 27.923 4.96725 27.8262 5.01884 27.6324L10.5558 12.7278C10.6074 12.5664 10.659 12.421 10.7278 12.2272C10.7966 11.8881 10.8309 11.5329 10.8309 11.1776C10.8141 11.0969 10.8825 11.0161 10.9689 11H15.4225C15.5425 11 15.6285 11.0484 15.6457 11.1288L21.9221 27.6808C21.9737 27.8581 21.9221 27.9392 21.7501 27.9392H18.1563C18.0359 27.955 17.9155 27.8746 17.8815 27.7616" fill="#E3E2E2"/>
<path d="M26.9498 20.5648H30.6375C31.0919 20.5648 31.424 20.5648 31.6337 20.5485C31.7735 20.5319 31.9137 20.4987 32.0357 20.4158V20.2498C32.0357 20.034 32.0004 19.8348 31.9308 19.6356C31.6162 18.706 30.6899 18.0749 29.6592 18.1085C28.6975 18.0587 27.7887 18.54 27.3343 19.37C27.1246 19.7518 27.0019 20.1502 26.9498 20.5648ZM32.4905 22.9886H26.9498C27.0197 23.5032 27.1945 24.0178 27.4916 24.466C27.8062 24.9142 28.2431 25.2627 28.7678 25.4619C29.4665 25.7441 30.2355 25.8935 31.0045 25.8769C31.6162 25.8603 32.2279 25.8105 32.8222 25.6943C33.3639 25.6279 33.8883 25.4951 34.3776 25.3125C34.465 25.2461 34.5174 25.279 34.5174 25.4453V27.985C34.5174 28.0514 34.5 28.1178 34.4825 28.1842C34.4475 28.234 34.4126 28.2672 34.3601 28.3004C33.8009 28.5328 33.2241 28.6988 32.6124 28.7984C31.791 28.9478 30.9696 29.0142 30.1307 28.9976C28.8024 28.9976 27.6839 28.7984 26.7751 28.4166C25.9183 28.068 25.1672 27.5202 24.5729 26.8393C24.0137 26.1923 23.6117 25.4619 23.3674 24.6652C23.1223 23.885 23 23.0716 23 22.2413C23 21.3453 23.1398 20.4652 23.4369 19.602C23.7166 18.7724 24.1535 18.0089 24.7477 17.3283C25.3245 16.6643 26.041 16.1331 26.8624 15.7514C27.6839 15.3696 28.663 15.2364 29.7811 15.2364C30.7074 15.2202 31.6337 15.3858 32.4905 15.7514C33.2067 16.0501 33.8358 16.4983 34.3252 17.079C34.7796 17.6437 35.1466 18.2741 35.3738 18.9716C35.601 19.6356 35.7059 20.3162 35.7059 20.9967C35.7059 21.3951 35.6884 21.7437 35.6709 22.0591C35.6363 22.3745 35.6185 22.6069 35.601 22.7562C35.5835 22.8724 35.4787 22.972 35.3563 22.972C35.2515 22.972 35.0592 22.9886 34.7796 23.0052C34.5 23.0384 34.1679 23.055 33.7659 23.055C33.3639 23.055 32.9445 22.9886 32.4905 22.9886Z" fill="#E3E2E2"/>
</svg>
