<svg width="40" height="40" viewBox="0 0 40 40" fill="none" xmlns="http://www.w3.org/2000/svg">
<rect width="40" height="40" rx="8" fill="#292929"/>
<path d="M30.9536 7.00098H26.2074C25.0594 7.00098 24.117 7.90855 24.117 9.01414V14.9216H17.2462C16.1325 14.9216 15.2244 15.7962 15.2244 16.8853V23.5023H9.03897C7.90811 23.5023 7 24.3768 7 25.4659V30.0863C7 31.1754 7.90811 32.05 9.03897 32.083H30.9707C32.1187 32.083 33.0611 31.1754 33.0611 30.0698V9.01414C33.0439 7.90855 32.1016 7.00098 30.9536 7.00098Z" fill="url(#paint0_linear_2610_40173)"/>
<path d="M30.9536 7.00098H26.2074C25.0594 7.00098 24.117 7.90855 24.117 9.01414V14.9216H17.2462C16.1325 14.9216 15.2244 15.7962 15.2244 16.8853V23.5023H9.03897C7.90811 23.5023 7 24.3768 7 25.4659V30.0863C7 31.1754 7.90811 32.05 9.03897 32.083H30.9707C32.1187 32.083 33.0611 31.1754 33.0611 30.0698V9.01414C33.0439 7.90855 32.1016 7.00098 30.9536 7.00098Z" fill="url(#paint1_linear_2610_40173)"/>
<path d="M30.9507 7H26.2388C25.0908 7 24.1484 7.90757 24.1484 9.01316V32.082H30.9507C32.0987 32.082 33.041 31.1744 33.041 30.0688V9.01316C33.041 7.90757 32.0987 7 30.9507 7Z" fill="#A1A1A1"/>
<path d="M15.2244 16.902V23.5025H9.05611C7.92525 23.5025 7 24.3936 7 25.4827V30.103C7 31.1921 7.92525 32.0832 9.05611 32.0832H24.1342V14.9219H17.2805C16.1497 14.9219 15.2244 15.8129 15.2244 16.902Z" fill="#D7D7D7"/>
<path d="M24.1377 14.9219V32.0832H30.94C32.088 32.0832 33.0304 31.1757 33.0304 30.0701V23.5026L24.1377 14.9219Z" fill="url(#paint2_linear_2610_40173)"/>
<path opacity="0.2" d="M17.2749 15.083H24.1285V14.918H17.2749C16.144 14.918 15.2188 15.809 15.2188 16.8981V17.0631C15.2188 15.9741 16.144 15.083 17.2749 15.083Z" fill="white"/>
<path opacity="0.2" d="M9.0561 23.6689H15.2244V23.5039H9.0561C7.92525 23.5039 7 24.395 7 25.4841V25.6491C7 24.56 7.92525 23.6689 9.0561 23.6689Z" fill="white"/>
<path opacity="0.2" d="M30.9585 7H26.2466C25.0986 7 24.1562 7.90756 24.1562 9.01314V9.17816C24.1562 8.07258 25.0986 7.16501 26.2466 7.16501H30.9585C32.1065 7.16501 33.0489 8.07258 33.0489 9.17816V9.01314C33.0489 7.90756 32.1065 7 30.9585 7Z" fill="white"/>
<path opacity="0.2" d="M30.9537 31.9155H9.05611C7.92525 31.9155 7 31.0244 7 29.9353V30.1004C7 31.1895 7.92525 32.0805 9.05611 32.0805H30.9365C32.0845 32.0805 33.0269 31.173 33.0269 30.0674V29.9023C33.044 31.0079 32.1017 31.9155 30.9537 31.9155Z" fill="#BF360C"/>
<path d="M30.9536 7.00098H26.2417C25.0937 7.00098 24.1513 7.90855 24.1513 9.01414V14.9216H17.2976C16.1668 14.9216 15.2415 15.8127 15.2415 16.9018V23.5023H9.0561C7.92525 23.5023 7 24.3933 7 25.4824V30.1028C7 31.1919 7.92525 32.083 9.0561 32.083H30.9536C32.1016 32.083 33.044 31.1754 33.044 30.0698V9.01414C33.044 7.90855 32.1016 7.00098 30.9536 7.00098Z" fill="url(#paint3_linear_2610_40173)"/>
<defs>
<linearGradient id="paint0_linear_2610_40173" x1="7" y1="19.542" x2="33.0611" y2="19.542" gradientUnits="userSpaceOnUse">
<stop stop-color="white" stop-opacity="0.1"/>
<stop offset="1" stop-color="white" stop-opacity="0"/>
</linearGradient>
<linearGradient id="paint1_linear_2610_40173" x1="7" y1="19.542" x2="33.0611" y2="19.542" gradientUnits="userSpaceOnUse">
<stop stop-color="white" stop-opacity="0.1"/>
<stop offset="1" stop-color="white" stop-opacity="0"/>
</linearGradient>
<linearGradient id="paint2_linear_2610_40173" x1="19.7256" y1="19.2535" x2="31.9461" y2="31.9427" gradientUnits="userSpaceOnUse">
<stop stop-color="#878787" stop-opacity="0.2"/>
<stop offset="1" stop-color="#595959" stop-opacity="0.02"/>
</linearGradient>
<linearGradient id="paint3_linear_2610_40173" x1="15.7331" y1="15.4218" x2="31.9467" y2="32.2572" gradientUnits="userSpaceOnUse">
<stop stop-color="white" stop-opacity="0.1"/>
<stop offset="1" stop-color="white" stop-opacity="0"/>
</linearGradient>
</defs>
</svg>
