<svg width="40" height="40" viewBox="0 0 40 40" fill="none" xmlns="http://www.w3.org/2000/svg">
<rect width="40" height="40" rx="8" fill="#292929"/>
<path d="M25.9833 23.2066C25.3863 23.2066 24.9007 22.7089 24.9007 22.0976C24.9007 21.4863 25.3863 20.989 25.9833 20.989C26.5804 20.989 27.066 21.4862 27.066 22.0976C27.066 22.709 26.5804 23.2066 25.9833 23.2066ZM14.0167 23.2066C13.4198 23.2066 12.9342 22.7089 12.9342 22.0976C12.9342 21.4863 13.4197 20.989 14.0167 20.989C14.6137 20.989 15.0993 21.4862 15.0993 22.0976C15.0993 22.709 14.6138 23.2066 14.0167 23.2066ZM26.3716 16.5285L28.5353 12.6912C28.5949 12.5853 28.611 12.4595 28.5801 12.3415C28.5492 12.2234 28.4739 12.1227 28.3706 12.0615C28.2672 12.0006 28.1443 11.9841 28.0291 12.0157C27.9138 12.0474 27.8155 12.1245 27.7557 12.2303L25.5649 16.1161C23.8894 15.3333 22.0078 14.8971 20 14.8971C17.9922 14.8971 16.1106 15.3333 14.4353 16.1161L12.2444 12.2303C12.1845 12.1245 12.0862 12.0474 11.9709 12.0157C11.8557 11.9841 11.7328 12.0006 11.6294 12.0615C11.5261 12.1227 11.4506 12.2234 11.4198 12.3415C11.3889 12.4595 11.405 12.5853 11.4647 12.6912L13.6284 16.5285C9.91292 18.5978 7.37173 22.4495 7 27H33C32.628 22.4495 30.0868 18.5978 26.3716 16.5284" fill="#E3E2E2"/>
</svg>
