<svg width="40" height="40" viewBox="0 0 40 40" fill="none" xmlns="http://www.w3.org/2000/svg">
<path d="M31.1111 0H8.88889C3.97969 0 0 3.97969 0 8.88889V31.1111C0 36.0203 3.97969 40 8.88889 40H31.1111C36.0203 40 40 36.0203 40 31.1111V8.88889C40 3.97969 36.0203 0 31.1111 0Z" fill="#292929"/>
<path d="M19.8598 6.21875L6.31836 10.9843L8.45827 28.7258L19.8741 35.0002L31.349 28.6408L33.488 10.8999L19.8598 6.21875Z" fill="#B3B3B3"/>
<path d="M32.1441 11.9232L19.835 7.72559V33.499L30.1506 27.7899L32.144 11.9232H32.1441Z" fill="#555555"/>
<path d="M7.84277 11.9992L9.67651 27.8662L19.8329 33.4994V7.72559L7.84288 11.9991L7.84277 11.9992Z" fill="#868686"/>
<path d="M23.2148 21.4505L19.8265 23.035H16.2553L14.5765 27.2339L11.4541 27.2916L19.8265 8.66602L23.2148 21.4506V21.4505ZM22.8873 20.6528L19.849 14.6379L17.3568 20.5493H19.8264L22.8873 20.6529V20.6528Z" fill="white"/>
<path d="M19.835 8.66602L19.8574 14.638L22.6852 20.554H19.8414L19.835 23.0312L23.7674 23.035L25.6053 27.2924L28.593 27.3477L19.835 8.66602Z" fill="#B3B3B3"/>
</svg>
