<svg width="40" height="40" viewBox="0 0 40 40" fill="none" xmlns="http://www.w3.org/2000/svg">
<path d="M31.1111 0H8.88889C3.97969 0 0 3.97969 0 8.88889V31.1111C0 36.0203 3.97969 40 8.88889 40H31.1111C36.0203 40 40 36.0203 40 31.1111V8.88889C40 3.97969 36.0203 0 31.1111 0Z" fill="#292929"/>
<path d="M11.8889 28.8996L8.95508 29.5442V11.2461L11.8889 11.892V28.8996Z" fill="white"/>
<path d="M15.5462 29.9794L11.8857 30.9812V9.8338L15.5462 10.8344V29.9794ZM20.2417 31.0891L15.5462 32.744V8.071L20.2417 9.7252V31.0891ZM32.7969 28.9546L20.2417 35.0003V5.80957L32.7969 11.8553V28.9546Z" fill="white"/>
<path d="M17.7421 7.01489L20.2448 5.80957V35.0003L17.7421 33.7953V7.01489ZM13.6118 9.00349L15.5492 8.07063V32.7392L13.6118 31.8063V9.00349ZM10.3455 10.5766L11.8888 9.83342V30.9764L10.3455 30.2328V10.5766ZM8.955 11.2459L7.69629 11.8521V28.9582L8.955 29.5639V11.2459Z" fill="#868686"/>
</svg>
