<svg width="40" height="40" viewBox="0 0 40 40" fill="none" xmlns="http://www.w3.org/2000/svg">
<path d="M31.1111 0H8.88889C3.97969 0 0 3.97969 0 8.88889V31.1111C0 36.0203 3.97969 40 8.88889 40H31.1111C36.0203 40 40 36.0203 40 31.1111V8.88889C40 3.97969 36.0203 0 31.1111 0Z" fill="#292929"/>
<path d="M15.0989 21.5503C15.2084 19.5981 16.1628 17.8731 17.6089 16.6542C19.024 15.456 20.9246 14.7227 23.0111 14.7227C25.0873 14.7227 26.9879 15.455 28.403 16.6542C29.8491 17.8731 30.7994 19.5981 30.913 21.5503C31.0225 23.5542 30.2158 25.4238 28.8058 26.8079C27.3597 28.2127 25.3146 29.101 23.0111 29.101C20.7077 29.101 18.6522 28.2189 17.2164 26.8079C15.8013 25.4238 14.9956 23.5645 15.1092 21.5606L15.0989 21.5503Z" fill="white"/>
<path d="M19.4259 21.3114C19.4822 20.3081 19.9727 19.4217 20.7158 18.7953C21.443 18.1796 22.4197 17.8027 23.4919 17.8027C24.5589 17.8027 25.5355 18.1791 26.2628 18.7953C27.0059 19.4217 27.4942 20.3081 27.5526 21.3114C27.6089 22.3411 27.1943 23.3019 26.4698 24.0132C25.7266 24.7351 24.6756 25.1916 23.4919 25.1916C22.3082 25.1916 21.2519 24.7383 20.5141 24.0132C19.7869 23.3019 19.3728 22.3465 19.4312 21.3167L19.4259 21.3114Z" fill="#292929"/>
<path d="M13.0566 23.4348C13.0635 23.8276 13.1888 24.592 13.3767 25.1865C13.7716 26.4498 14.4436 27.6176 15.3726 28.642C16.328 29.6984 17.5064 30.5477 18.8653 31.1528C20.2931 31.7844 21.8431 32.1082 23.4515 32.1082C25.0598 32.1061 26.6098 31.777 28.0377 31.1369C29.3965 30.5264 30.5749 29.6771 31.5304 28.6155C32.4646 27.5804 33.1334 26.4127 33.5262 25.1493C33.7253 24.5124 33.8511 23.8648 33.9015 23.2172C33.9509 22.5802 33.9302 21.9379 33.8394 21.2956C33.6621 20.0482 33.229 18.8752 32.5655 17.8135C31.9603 16.8315 31.1747 15.9769 30.2405 15.255L30.2426 15.2534L20.8473 8.03443C20.8388 8.02806 20.8319 8.02115 20.8229 8.01532C20.2072 7.54183 19.1668 7.54343 18.4926 8.01797C17.8079 8.49782 17.7283 9.29191 18.3387 9.79087L18.3361 9.79353L22.2587 12.9837L10.3155 12.9964H10.2996C9.3123 12.9975 8.36215 13.644 8.17636 14.4668C7.98315 15.3002 8.65409 15.9955 9.68386 15.9955L9.68227 15.9992L15.7335 15.9875L4.90499 24.2682C4.89119 24.2783 4.87632 24.2889 4.86358 24.299C3.84443 25.0792 3.51533 26.3797 4.15761 27.1972C4.8105 28.0306 6.19591 28.0359 7.22568 27.202L13.1177 22.3716C13.1177 22.3716 13.0317 23.0245 13.0386 23.412L13.0566 23.4348ZM28.2378 25.6164C27.0222 26.8532 25.3183 27.5592 23.4817 27.5592C21.6398 27.5624 19.9359 26.8691 18.7204 25.6324C18.1259 25.0272 17.6906 24.3372 17.4199 23.5994C17.1561 22.8721 17.0536 22.1025 17.1216 21.3275C17.1858 20.5684 17.4119 19.8412 17.7745 19.1883C18.129 18.5461 18.6184 17.9622 19.2183 17.4685C20.402 16.5077 21.9042 15.9822 23.4754 15.9822C25.0519 15.9801 26.554 16.4966 27.7377 17.4579C28.3376 17.9484 28.8259 18.5301 29.1815 19.1724C29.5441 19.8253 29.7708 20.5472 29.8345 21.3116C29.9013 22.0865 29.7989 22.8562 29.5351 23.5834C29.2654 24.3266 28.8291 25.0166 28.2346 25.6217L28.2378 25.6164Z" fill="#A1A1A1"/>
</svg>
