<svg width="40" height="40" viewBox="0 0 40 40" fill="none" xmlns="http://www.w3.org/2000/svg">
<path d="M31.1111 0H8.88889C3.97969 0 0 3.97969 0 8.88889V31.1111C0 36.0203 3.97969 40 8.88889 40H31.1111C36.0203 40 40 36.0203 40 31.1111V8.88889C40 3.97969 36.0203 0 31.1111 0Z" fill="#292929"/>
<path d="M31.9902 15.3039C31.99 14.8862 31.8971 14.5171 31.7092 14.2003C31.5246 13.8888 31.2482 13.6277 30.8774 13.4212C27.8166 11.7245 24.7528 10.0329 21.693 8.33439C20.8681 7.87653 20.0683 7.89322 19.2495 8.35765C18.0312 9.04842 11.9317 12.4081 10.1141 13.4203C9.36559 13.8369 9.00135 14.4745 9.00117 15.3032C9 18.7155 9.00117 22.1277 9 25.5401C9 25.9486 9.08915 26.3106 9.26879 26.6226C9.45347 26.9436 9.73378 27.2118 10.1131 27.423C11.9308 28.4351 18.0311 31.7946 19.2492 32.4855C20.0683 32.9502 20.8681 32.9668 21.6933 32.5088C24.7532 30.8102 27.8171 29.1187 30.8783 27.4219C31.2577 27.2109 31.538 26.9424 31.7227 26.6218C31.9021 26.3097 31.9914 25.9478 31.9914 25.5391C31.9914 25.5391 31.9914 18.7163 31.9902 15.3039Z" fill="#B3B3B3"/>
<path d="M20.5345 20.3857L9.27246 26.62C9.45714 26.9409 9.73745 27.2092 10.1168 27.4203C11.9345 28.4325 18.0348 31.7919 19.2528 32.4829C20.072 32.9476 20.8718 32.9642 21.697 32.5061C24.7568 30.8076 27.8208 29.1161 30.882 27.4193C31.2614 27.2083 31.5417 26.9398 31.7264 26.6191L20.5345 20.3857Z" fill="#585858"/>
<path d="M31.9906 15.3029C31.9904 14.8851 31.8975 14.516 31.7096 14.1992L20.5312 20.3873L31.7231 26.6207C31.9024 26.3086 31.9916 25.9467 31.9918 25.538C31.9918 25.538 31.9918 18.7153 31.9906 15.3029Z" fill="#8E8E8E"/>
<path d="M27.1618 18.0576V19.2229H28.3739V18.0576H28.9799V19.2229H30.192V19.8055H28.9799V20.9708H30.192V21.5535H28.9799V22.7188H28.3739V21.5535H27.1618V22.7188H26.5558V21.5535H25.3438V20.9708H26.5558V19.8055H25.3438V19.2229H26.5558V18.0576H27.1618ZM28.3739 19.8055H27.1618V20.9708H28.3739V19.8055Z" fill="white"/>
<path d="M20.5557 12.2051C23.7172 12.2051 26.4773 13.8558 27.9558 16.3094L27.9413 16.2857L24.2217 18.3448C23.4889 17.1519 22.1454 16.3468 20.6043 16.3302L20.5557 16.33C18.2056 16.33 16.3002 18.1617 16.3002 20.4212C16.3002 21.1601 16.5051 21.8527 16.8615 22.451C17.595 23.6821 18.9739 24.5125 20.5557 24.5125C22.1473 24.5125 23.5341 23.6716 24.2639 22.4273L24.2462 22.4571L27.9602 24.5257C26.498 26.9585 23.7756 28.6041 20.6509 28.6369L20.5557 28.6374C17.3843 28.6374 14.6163 26.9766 13.1416 24.51C12.4217 23.3059 12.0098 21.9098 12.0098 20.4212C12.0098 15.8836 15.8358 12.2051 20.5557 12.2051Z" fill="white"/>
</svg>
