<svg width="40" height="40" viewBox="0 0 40 40" fill="none" xmlns="http://www.w3.org/2000/svg">
<path d="M31.1111 0H8.88889C3.97969 0 0 3.97969 0 8.88889V31.1111C0 36.0203 3.97969 40 8.88889 40H31.1111C36.0203 40 40 36.0203 40 31.1111V8.88889C40 3.97969 36.0203 0 31.1111 0Z" fill="#292929"/>
<path d="M34.7986 17.9316C34.7148 17.8639 33.9612 17.3081 32.3423 17.3081C31.9236 17.3081 31.4909 17.3487 31.0722 17.4165C30.7652 15.3424 28.9927 14.3393 28.9229 14.2851L28.4903 14.041L28.2112 14.4342C27.8623 14.9628 27.5971 15.5593 27.4436 16.1693C27.1505 17.3487 27.3319 18.4603 27.946 19.4092C27.2063 19.8159 26.0061 19.9108 25.7549 19.9243H5.93691C5.42049 19.9243 5.00182 20.331 5.00182 20.8326C4.97392 22.5136 5.26699 24.1945 5.86712 25.7806C6.55096 27.5157 7.56976 28.8036 8.88169 29.5898C10.361 30.471 12.7755 30.9725 15.497 30.9725C16.7251 30.9725 17.9533 30.8641 19.1675 30.6472C20.8562 30.3489 22.4751 29.7796 23.9685 28.9527C25.1966 28.2613 26.2992 27.3802 27.2342 26.3499C28.8113 24.6283 29.7464 22.7034 30.4303 20.9953H30.7094C32.426 20.9953 33.4867 20.331 34.0729 19.7617C34.4636 19.4092 34.7567 18.9754 34.9661 18.4874L35.0917 18.1349L34.7986 17.9316Z" fill="white"/>
<path d="M7.77633 19.3672H10.428C10.5536 19.3672 10.6653 19.2723 10.6653 19.1368V16.8323C10.6653 16.7102 10.5676 16.6018 10.428 16.6018H7.77633C7.65074 16.6018 7.53906 16.6967 7.53906 16.8323V19.1368C7.55305 19.2723 7.65074 19.3672 7.77633 19.3672ZM11.4329 19.3672H14.0846C14.2102 19.3672 14.3218 19.2723 14.3218 19.1368V16.8323C14.3218 16.7102 14.2241 16.6018 14.0846 16.6018H11.4329C11.3073 16.6018 11.1957 16.6967 11.1957 16.8323V19.1368C11.2096 19.2723 11.3073 19.3672 11.4329 19.3672ZM15.1592 19.3672H17.8109C17.9365 19.3672 18.0482 19.2723 18.0482 19.1368V16.8323C18.0482 16.7102 17.9505 16.6018 17.8109 16.6018H15.1592C15.0336 16.6018 14.922 16.6967 14.922 16.8323V19.1368C14.922 19.2723 15.0197 19.3672 15.1592 19.3672ZM18.8297 19.3672H21.4814C21.607 19.3672 21.7187 19.2723 21.7187 19.1368V16.8323C21.7187 16.7102 21.621 16.6018 21.4814 16.6018H18.8297C18.7041 16.6018 18.5925 16.6967 18.5925 16.8323V19.1368C18.5925 19.2723 18.7041 19.3672 18.8297 19.3672ZM11.4329 16.0731H14.0846C14.2102 16.0731 14.3218 15.9647 14.3218 15.8426V13.5382C14.3218 13.4161 14.2241 13.3077 14.0846 13.3077H11.4329C11.3073 13.3077 11.1957 13.4026 11.1957 13.5382V15.8426C11.2096 15.9647 11.3073 16.0731 11.4329 16.0731ZM15.1592 16.0731H17.8109C17.9365 16.0731 18.0482 15.9647 18.0482 15.8426V13.5382C18.0482 13.4161 17.9505 13.3077 17.8109 13.3077H15.1592C15.0336 13.3077 14.922 13.4026 14.922 13.5382V15.8426C14.922 15.9647 15.0197 16.0731 15.1592 16.0731ZM18.8297 16.0731H21.4814C21.607 16.0731 21.7187 15.9647 21.7187 15.8426V13.5382C21.7187 13.4161 21.607 13.3077 21.4814 13.3077H18.8297C18.7041 13.3077 18.5925 13.4026 18.5925 13.5382V15.8426C18.5925 15.9647 18.7041 16.0731 18.8297 16.0731ZM18.8297 12.7654H21.4814C21.607 12.7654 21.7187 12.6706 21.7187 12.535V10.2305C21.7187 10.1085 21.607 10 21.4814 10H18.8297C18.7041 10 18.5925 10.0949 18.5925 10.2305V12.535C18.5925 12.657 18.7041 12.7654 18.8297 12.7654ZM22.5282 19.3672H25.1799C25.3055 19.3672 25.4171 19.2723 25.4171 19.1368V16.8323C25.4171 16.7102 25.3194 16.6018 25.1799 16.6018H22.5282C22.4026 16.6018 22.2909 16.6967 22.2909 16.8323V19.1368C22.3049 19.2723 22.4026 19.3672 22.5282 19.3672Z" fill="white"/>
</svg>
