<svg width="40" height="40" viewBox="0 0 40 40" fill="none" xmlns="http://www.w3.org/2000/svg">
<path d="M31.1111 0H8.88889C3.97969 0 0 3.97969 0 8.88889V31.1111C0 36.0203 3.97969 40 8.88889 40H31.1111C36.0203 40 40 36.0203 40 31.1111V8.88889C40 3.97969 36.0203 0 31.1111 0Z" fill="#292929"/>
<path d="M18.8547 7.17773C18.9573 7.89538 18.9573 8.61302 19.111 9.2794C19.4699 11.176 20.3925 12.8164 21.674 14.2516C22.4429 15.1231 23.3656 15.9432 24.1858 16.8147C24.2883 16.9172 24.3908 17.071 24.3908 17.1735C24.4421 18.9676 24.7497 20.7617 25.006 22.5558C25.0572 22.9146 25.1085 23.3247 25.1597 23.6835C25.1597 23.786 25.1085 23.9398 25.006 23.9911C23.6219 24.76 22.0841 25.2213 20.4951 25.3239C20.3925 25.3239 20.2388 25.2726 20.1875 25.2213C17.8808 22.4533 15.9842 19.4802 15.0102 15.9945C14.7027 14.9693 14.7539 13.9441 15.164 12.8676C15.6766 11.6374 16.1379 10.4071 16.8556 9.2794C17.4195 8.45924 18.1884 7.89538 18.8547 7.17773Z" fill="#E3E2E2"/>
<path d="M13.5762 28.8604C13.8325 28.9116 14.0375 29.0141 14.1913 29.0141C15.4215 29.1679 16.6518 29.373 17.882 29.5267C18.1896 29.578 18.4459 29.578 18.7535 29.6293C18.9072 29.6293 19.0098 29.7318 19.1123 29.8343C19.9837 30.7057 20.9064 31.5259 21.9316 32.1923C22.2904 32.4486 22.7005 32.6536 23.1106 32.8587C22.3417 33.6788 21.4702 34.2427 20.24 34.3452C17.0106 34.6015 14.9089 32.4998 14.0375 30.2956C13.8837 29.8343 13.7812 29.373 13.5762 28.8604Z" fill="#E3E2E2"/>
<path d="M19.6619 25.4294C17.4577 25.2756 15.5611 24.5579 14.3821 22.61C14.0233 22.0462 13.767 21.4311 13.5107 20.7647C13.4081 20.5084 13.5107 20.0983 13.5619 19.7907C13.8182 18.4067 14.0745 17.0739 14.3308 15.6899C14.3308 15.6387 14.3821 15.5874 14.3821 15.5361C15.3048 19.2781 17.3039 22.405 19.6619 25.4294Z" fill="#E3E2E2"/>
<path d="M12.6463 16.4043C12.5438 17.6858 12.5438 18.916 12.8514 20.0438C13.0564 20.8127 12.9539 21.5303 12.9026 22.248C12.7488 24.1959 12.6976 26.0925 13.0051 28.0916C12.4413 27.8353 11.9287 27.5278 11.4673 27.1177C11.0572 26.7076 10.8009 26.2463 10.7497 25.6311C10.5446 22.453 11.1598 19.4287 12.4413 16.5581C12.5438 16.5581 12.5951 16.5068 12.6463 16.4043Z" fill="#E3E2E2"/>
<path d="M26.7942 19.8926C27.9732 21.4304 28.9472 23.0195 28.9984 25.0186C28.9984 25.685 28.9472 26.3514 28.8959 26.9665C28.8959 27.1203 28.7421 27.2741 28.6396 27.3766C27.8194 27.9917 26.8455 28.3505 25.769 28.6581C25.769 28.4018 25.8203 28.1967 25.8203 27.9404C25.769 26.8127 25.769 25.685 25.7178 24.5573C25.7178 24.301 25.769 24.1472 25.9741 23.9934C26.6917 23.5833 27.2043 22.9682 27.2556 22.0968C27.3068 21.4816 27.1531 20.8665 26.948 20.2514C26.8968 20.1489 26.8455 20.0464 26.7942 19.8926Z" fill="#E3E2E2"/>
<path d="M18.3379 29.1193C17.8253 29.068 17.3127 29.0168 16.8001 28.9655C15.8262 28.8117 14.8522 28.6067 13.8783 28.4529C13.5707 28.4016 13.417 28.2479 13.417 27.889C13.3657 26.9151 13.2632 25.9411 13.2119 24.9672C13.2119 24.0445 13.2632 23.1218 13.3144 22.2504C13.3144 22.1479 13.3657 22.0454 13.3657 21.7891C14.801 24.4033 16.39 26.8638 18.3379 29.1193Z" fill="#E3E2E2"/>
<path d="M15.5127 24.5078C16.8455 25.4305 18.332 25.8918 19.9211 25.8406C20.0236 25.8406 20.1261 25.8918 20.1774 25.9431C21.2538 26.9683 22.3303 28.0448 23.4068 29.07C22.9454 29.1212 22.4841 29.1725 21.9715 29.1725C21.1001 29.1725 20.2286 29.1725 19.3572 29.1725C19.2547 29.1725 19.0497 29.1212 18.9984 29.0187C17.6656 27.6859 16.4866 26.1481 15.5127 24.5078Z" fill="#E3E2E2"/>
<path d="M25.2082 24.4033C25.3619 25.531 25.4132 26.6075 25.3619 27.684C25.3619 27.7352 25.3619 27.7865 25.3619 27.8378C25.2594 28.8117 25.2594 28.8117 24.2855 28.9142C24.2342 28.9142 24.1317 28.9142 24.0804 28.863C22.7989 28.0428 21.7737 26.9663 20.6973 25.7873C22.2863 25.6848 23.7729 25.1722 25.2082 24.4033Z" fill="#E3E2E2"/>
<path d="M19.624 29.681C20.8543 29.6297 22.0845 29.5785 23.2635 29.5272H23.3148C24.1349 29.4247 24.1349 29.4247 24.9551 29.9373C24.8013 30.5524 24.545 31.1163 24.1349 31.6289C23.366 32.6541 23.7248 32.6028 22.5459 32.039C21.4181 31.4238 20.4954 30.6037 19.624 29.681Z" fill="#E3E2E2"/>
<path d="M24.131 16.0983C22.0293 14.2016 20.1839 12.1512 19.6201 9.28065C19.4663 8.56301 19.4663 7.79411 19.415 7.0252C19.415 6.92268 19.415 6.82016 19.5176 6.7689C19.8764 6.5126 20.2352 6.30756 20.6965 6C20.4402 9.89578 21.6192 13.2277 24.131 16.0983Z" fill="#E3E2E2"/>
<path d="M24.8979 17.7412C25.7693 18.9715 26.692 20.1504 26.7945 21.6882C26.8971 22.5597 26.3845 23.3286 25.5643 23.6361C25.308 21.6882 25.0517 19.7404 24.7441 17.7412C24.7954 17.7925 24.8467 17.7925 24.8979 17.7412Z" fill="#E3E2E2"/>
<path d="M15.5168 33.1694C13.8252 32.5543 11.3647 29.2736 11.2109 27.582C11.7235 27.8896 12.1849 28.1972 12.7487 28.4535C13.0563 28.6072 13.2101 28.761 13.2613 29.0686C13.6202 30.6576 14.2865 31.9904 15.5168 33.1694Z" fill="#E3E2E2"/>
<path d="M15.5659 10.9248C14.4381 13.6416 13.618 16.4609 13.1566 19.3827C13.1054 19.0239 13.0541 18.7164 13.0541 18.3575C12.9516 17.076 13.1054 15.8458 13.3104 14.6155C13.3104 14.5643 13.3104 14.513 13.3617 14.513C13.9255 13.2828 14.6944 12.0525 15.5659 10.9248Z" fill="#E3E2E2"/>
<path d="M28.591 28.042C28.386 28.8622 27.9759 29.5798 27.4633 30.2974C27.4121 30.3487 27.3095 30.4 27.207 30.4C26.6944 30.2462 26.1818 30.0924 25.6179 29.8874C25.5667 29.8874 25.5154 29.7848 25.5154 29.7848C25.4642 29.5285 25.7205 29.1697 25.9255 29.0672C26.8482 28.7084 27.7196 28.3496 28.591 28.042Z" fill="#E3E2E2"/>
<path d="M23.9805 32.7056C24.288 32.2442 24.5443 31.8854 24.8006 31.4241C25.0057 31.014 25.2107 30.6039 25.3645 30.1426C25.8771 30.3476 26.441 30.5014 27.0048 30.7064C26.3384 31.5266 25.5695 32.193 24.6981 32.7056C24.5443 32.8594 24.288 32.7569 23.9805 32.7056Z" fill="#E3E2E2"/>
</svg>
