<svg width="40" height="40" viewBox="0 0 40 40" fill="none" xmlns="http://www.w3.org/2000/svg">
<rect width="40" height="40" rx="8" fill="#292929"/>
<path d="M25.5165 26.5497C25.5165 27.472 25.5165 28.3943 25.5165 29.3165C25.2213 29.3165 24.9631 29.3165 24.668 29.3165C24.668 27.9147 24.668 26.4759 24.668 25.0371C24.7786 25.0371 24.8524 25.0371 24.9262 25.0371C25 25.0371 25.0738 25.0371 25.1845 25.0371C25.2582 25.0371 25.2951 25.0371 25.332 25.1109C25.5903 25.4429 25.8485 25.7749 26.1067 26.107C26.5494 26.6972 26.9921 27.2506 27.398 27.8409C27.4348 27.8778 27.4349 27.9147 27.4717 27.9147C27.4717 26.9924 27.4717 26.0701 27.4717 25.1478C27.7669 25.1478 28.0251 25.1478 28.3203 25.1478C28.3571 25.2216 28.3571 29.2428 28.3203 29.4272C28.2834 29.4272 28.2465 29.4272 28.2465 29.4272C28.1358 29.4272 27.9882 29.4272 27.8776 29.4272C27.8038 29.4272 27.73 29.3903 27.6931 29.3165C27.2873 28.7632 26.8815 28.2467 26.4757 27.6933C26.2174 27.3244 25.9223 26.9924 25.664 26.6235C25.5903 26.6235 25.5903 26.5866 25.5165 26.5497C25.5534 26.5497 25.5165 26.5497 25.5165 26.5497Z" fill="white"/>
<path d="M33.4909 26.0699C33.2696 26.1805 33.0113 26.2912 32.79 26.4019C32.7531 26.365 32.7531 26.3281 32.7162 26.2912C32.6424 26.1805 32.5318 26.0699 32.4211 25.9592C32.0153 25.6272 31.4619 25.6272 31.093 25.9961C30.8716 26.2174 30.7241 26.4757 30.6503 26.7708C30.5396 27.1766 30.5765 27.6193 30.7609 27.9882C30.9085 28.2834 31.093 28.5047 31.425 28.6154C32.0153 28.8367 32.6424 28.4678 32.7531 27.8407C32.7531 27.8038 32.7531 27.7669 32.7531 27.73C32.6424 27.6931 32.5686 27.73 32.458 27.73C32.3473 27.73 32.2735 27.73 32.1628 27.73C32.0522 27.73 31.9784 27.73 31.8677 27.73C31.8308 27.6562 31.8308 27.2135 31.8677 27.1028C32.458 27.1028 33.0482 27.1028 33.6385 27.1028V27.1397C33.6385 27.5824 33.6016 27.9882 33.4172 28.394C33.0482 29.2425 32.2735 29.5377 31.5357 29.427C30.761 29.3163 30.2445 28.9105 29.9493 28.1727C29.6173 27.3242 29.6911 26.5126 30.2076 25.7747C30.5765 25.2582 31.093 25 31.757 25C32.1997 25 32.6424 25.1107 32.9745 25.4058C33.1958 25.5903 33.3803 25.8485 33.4909 26.0699Z" fill="white"/>
<path d="M13.0166 27.5825C13.3855 28.1728 13.7913 28.7262 14.1602 29.3164C13.8282 29.3164 13.4962 29.3164 13.1641 29.3164C12.8321 28.8 12.5001 28.2466 12.205 27.7301C12.1681 27.8777 12.1681 27.9883 12.1681 28.1359C12.1681 28.2835 12.1681 28.3941 12.1681 28.5417C12.1681 28.6893 12.1681 28.8 12.1681 28.9475C12.1681 29.0951 12.1681 29.2058 12.1681 29.3533C11.9098 29.3533 11.6516 29.3533 11.3564 29.3533C11.3564 27.9515 11.3564 26.5865 11.3564 25.1846C11.3933 25.1846 11.4302 25.1846 11.4671 25.1846C11.7991 25.1846 12.1312 25.1846 12.5001 25.1846C12.6845 25.1846 12.9059 25.2215 13.0904 25.2584C13.4962 25.4059 13.7544 25.6642 13.8651 26.1069C13.9389 26.4389 13.902 26.734 13.7544 27.0292C13.5699 27.2874 13.3486 27.5087 13.0166 27.5825ZM12.1681 25.8117C12.1681 26.2175 12.1681 26.6602 12.1681 27.066C12.3156 27.066 12.4632 27.066 12.6108 27.0292C12.8321 26.9923 12.9797 26.8447 12.9797 26.5865C12.9797 26.4758 12.9797 26.3282 12.9797 26.2175C12.9428 26.0331 12.8321 25.9224 12.6845 25.8855C12.5001 25.8117 12.3525 25.8117 12.1681 25.8117Z" fill="white"/>
<path d="M20.9465 25.0732C21.1678 25.0732 21.3892 25.0732 21.6105 25.0732C22.127 26.4751 22.6435 27.9139 23.16 29.3158C23.0862 29.3527 22.5328 29.3527 22.3115 29.3158C22.2008 29.0575 22.0901 28.7624 21.9794 28.4673C21.4999 28.4673 21.0203 28.4673 20.5038 28.4673C20.3931 28.7255 20.2824 29.0207 20.1718 29.3158C19.8766 29.3158 19.6184 29.3158 19.3232 29.3158C19.8397 27.9139 20.3931 26.4751 20.9465 25.0732ZM21.7581 27.8032C21.5736 27.2867 21.3892 26.8072 21.2047 26.2907C21.2047 26.2907 21.2047 26.2907 21.1678 26.2907C21.0203 26.8072 20.8727 27.2867 20.7251 27.8032C21.094 27.8032 21.4261 27.8032 21.7581 27.8032Z" fill="white"/>
<path d="M7.14746 25.1475C7.8853 25.1475 8.58624 25.1475 9.28718 25.1475C9.32407 25.2212 9.32407 25.6639 9.28718 25.8484C8.84448 25.8484 8.40178 25.8484 7.95908 25.8484C7.95908 26.1804 7.95908 26.4756 7.95908 26.8076C8.40178 26.8076 8.80759 26.8076 9.25029 26.8076C9.25029 27.0289 9.25029 27.2872 9.25029 27.5085C8.80759 27.5085 8.40178 27.5085 7.95908 27.5085C7.95908 27.8774 7.95908 28.2464 7.95908 28.6153C8.40178 28.6153 8.84448 28.6153 9.28718 28.6153C9.28718 28.8366 9.28718 29.0949 9.28718 29.3162C8.58624 29.3162 7.8484 29.3162 7.14746 29.3162C7.14746 27.9512 7.14746 26.5493 7.14746 25.1475Z" fill="white"/>
<path d="M15.8513 25.1475C16.1096 25.1475 16.3678 25.1475 16.6261 25.1475C16.6261 26.2911 16.6261 27.4347 16.6261 28.6153C17.0319 28.6153 17.4008 28.6153 17.7697 28.6153C17.7697 28.8366 17.7697 29.058 17.7697 29.2793C17.6959 29.3162 15.962 29.3162 15.8145 29.2793C15.8513 27.9512 15.8513 26.5493 15.8513 25.1475Z" fill="white"/>
<path d="M12.166 25.8105C12.3505 25.8105 12.5349 25.8105 12.6825 25.8843C12.8301 25.9581 12.9407 26.0688 12.9776 26.2164C13.0145 26.327 13.0145 26.4746 12.9776 26.5853C12.9407 26.8066 12.8301 26.9542 12.6087 27.028C12.4611 27.0649 12.3136 27.0649 12.166 27.0649C12.166 26.6591 12.166 26.2532 12.166 25.8105Z" fill="#9C9C9C"/>
<path d="M21.7578 27.8016C21.4258 27.8016 21.0937 27.8016 20.7617 27.8016C20.9093 27.2851 21.0569 26.8055 21.2044 26.2891C21.2044 26.2891 21.2044 26.2891 21.2413 26.2891C21.3889 26.8055 21.5733 27.2851 21.7578 27.8016Z" fill="#9C9C9C"/>
<path d="M33.4514 22.9702C32.4553 22.9702 31.4961 22.9702 30.5 22.9702C31.4592 21.9372 32.2339 20.8305 32.898 19.613C31.533 18.949 30.2049 18.2849 28.8768 17.584C28.8399 17.6209 28.803 17.6578 28.803 17.6947C28.3234 18.4325 27.8069 19.1335 27.2167 19.7606C26.7002 20.314 26.1099 20.7936 25.4459 21.1625C24.7449 21.5683 23.9702 21.8634 23.1586 21.9372C22.0887 22.0479 21.0189 21.9372 20.0597 21.4576C19.2481 21.0518 18.6209 20.4616 18.1413 19.7237C17.6986 19.0228 17.3666 18.2849 17.1821 17.5102C16.9977 16.8462 16.887 16.1821 16.8132 15.5181C16.7763 15.0016 16.7394 14.522 16.7394 14.0055C16.7394 13.9686 16.7394 13.9317 16.7394 13.8579C19.3218 13.8579 21.9411 13.8579 24.5236 13.8579C27.106 13.8579 29.6884 13.8579 32.3077 13.8579C32.3077 13.821 32.3077 13.7473 32.3077 13.7104C32.3077 13.4152 32.3077 13.157 32.3077 12.8619C32.3077 12.7881 32.3077 12.7143 32.3077 12.6405C32.3446 11.3493 32.197 10.095 31.7912 8.84066C31.4961 7.88148 31.0534 6.95918 30.4262 6.14757C30.4262 6.11068 30.3156 6 30.3156 6H10.763C10.763 6 10.6892 6.11068 10.6523 6.14757C9.47175 7.62324 8.69702 9.32026 8.29121 11.1648C8.14364 11.8658 8.03297 12.5667 7.99608 13.3046C7.95919 13.9317 7.95919 14.522 7.99608 15.1491C8.10675 17.0306 8.58634 18.8383 9.47175 20.5353C9.91445 21.3838 10.4678 22.1586 11.1319 22.8964C11.1688 22.9333 11.1688 22.9702 11.2057 23.0071C9.80377 23.0071 8.43878 23.0071 7.03689 23.0071H7C7 25.1837 7 27.3972 7 29.5738C15.9278 29.5738 24.8925 29.5738 33.8203 29.5738C33.8203 27.3972 33.8203 25.1837 33.8203 23.0071H33.4514V22.9702ZM17.0345 9.54161C17.2928 8.32418 17.9568 7.40189 19.0636 6.8854C19.617 6.62716 20.2441 6.47959 20.8713 6.51648C21.7936 6.55338 22.6052 6.92229 23.2324 7.62324C23.6382 8.06594 23.8595 8.61931 23.9702 9.20958C24.0071 9.43093 24.0071 9.65228 24.044 9.87363C24.044 9.91052 24.044 9.94741 24.044 9.98431C21.6829 9.98431 19.3218 9.98431 16.9608 9.98431C16.9977 9.79985 16.9977 9.65228 17.0345 9.54161ZM9.2504 26.8069C9.2504 27.0283 9.2504 27.2865 9.2504 27.5079C8.80769 27.5079 8.40189 27.5079 7.95918 27.5079C7.95918 27.8768 7.95918 28.2457 7.95918 28.6146C8.40189 28.6146 8.84459 28.6146 9.28729 28.6146C9.28729 28.836 9.28729 29.0942 9.28729 29.3156C8.58634 29.3156 7.84851 29.3156 7.14757 29.3156C7.14757 27.9137 7.14757 26.5487 7.14757 25.1468C7.8854 25.1468 8.58634 25.1468 9.28729 25.1468C9.32418 25.2206 9.32418 25.6633 9.28729 25.8477C8.84459 25.8477 8.40189 25.8477 7.95918 25.8477C7.95918 26.1798 7.95918 26.4749 7.95918 26.8069C8.40189 26.8069 8.84459 26.8069 9.2504 26.8069ZM13.124 29.3156C12.792 28.7991 12.46 28.2457 12.1648 27.7292C12.1279 27.8768 12.1279 27.9875 12.1279 28.135C12.1279 28.2826 12.1279 28.3933 12.1279 28.5408C12.1279 28.6884 12.1279 28.7991 12.1279 28.9467C12.1279 29.0942 12.1279 29.2049 12.1279 29.3525C11.8697 29.3525 11.6115 29.3525 11.3163 29.3525C11.3163 27.9506 11.3163 26.5856 11.3163 25.1837C11.3532 25.1837 11.3901 25.1837 11.427 25.1837C11.759 25.1837 12.0911 25.1837 12.46 25.1837C12.6444 25.1837 12.8658 25.2206 13.0502 25.2575C13.4561 25.405 13.7143 25.6633 13.825 26.106C13.8988 26.438 13.8619 26.7331 13.7143 27.0283C13.5667 27.3234 13.3454 27.5448 13.0134 27.6185C13.3823 28.2088 13.7881 28.7622 14.157 29.3525C13.7881 29.3156 13.4561 29.3156 13.124 29.3156ZM17.8093 29.3156C17.7355 29.3525 16.0016 29.3525 15.854 29.3156C15.854 27.9506 15.854 26.5487 15.854 25.1468C16.1123 25.1468 16.3705 25.1468 16.6656 25.1468C16.6656 26.2904 16.6656 27.4341 16.6656 28.6146C17.0714 28.6146 17.4404 28.6146 17.8093 28.6146C17.8093 28.8729 17.8093 29.0942 17.8093 29.3156ZM22.3101 29.3156C22.1994 29.0573 22.0887 28.7622 21.978 28.4671C21.4984 28.4671 21.0189 28.4671 20.5024 28.4671C20.3917 28.7253 20.281 29.0204 20.1703 29.3156C19.8752 29.3156 19.617 29.3156 19.3218 29.3156C19.8752 27.8768 20.4286 26.4749 20.982 25.0361C21.2033 25.0361 21.4247 25.0361 21.646 25.0361C22.1625 26.438 22.679 27.8768 23.1955 29.2787C23.0479 29.3525 22.5314 29.3525 22.3101 29.3156ZM28.3234 29.4262C28.2865 29.4262 28.2496 29.4262 28.2496 29.4262C28.139 29.4262 27.9914 29.4262 27.8807 29.4262C27.8069 29.4262 27.7331 29.3893 27.6963 29.3156C27.2904 28.7622 26.8846 28.2457 26.4788 27.6923C26.2206 27.3234 25.9255 26.9914 25.6672 26.6225C25.6303 26.5856 25.6303 26.5487 25.5934 26.5118C25.5934 26.5118 25.5934 26.5118 25.5565 26.5118C25.5565 27.4341 25.5565 28.3564 25.5565 29.2787C25.2614 29.2787 25.0032 29.2787 24.708 29.2787C24.708 27.8768 24.708 26.438 24.708 24.9992C24.8187 24.9992 24.8925 24.9992 24.9663 24.9992C25.0401 24.9992 25.1138 24.9992 25.2245 24.9992C25.2983 24.9992 25.3352 24.9992 25.3721 25.073C25.6303 25.405 25.8886 25.7371 26.1468 26.0691C26.5895 26.6594 27.0322 27.2127 27.438 27.803C27.4749 27.8399 27.4749 27.8768 27.5118 27.8768C27.5118 26.9545 27.5118 26.0322 27.5118 25.1099C27.8069 25.1099 28.0652 25.1099 28.3603 25.1099C28.3603 25.2575 28.3603 29.2418 28.3234 29.4262ZM33.4514 28.4302C33.0824 29.2787 32.3077 29.5738 31.5699 29.4631C30.7952 29.3525 30.2787 28.9466 29.9835 28.2088C29.6515 27.3603 29.7253 26.5487 30.2418 25.8109C30.6107 25.2944 31.1272 25.0361 31.7912 25.0361C32.2339 25.0361 32.6766 25.1468 33.0087 25.4419C33.23 25.5895 33.3776 25.8477 33.4883 26.0691C33.2669 26.1798 33.0087 26.2904 32.7873 26.4011C32.7504 26.3642 32.7504 26.3273 32.7135 26.2904C32.6397 26.1798 32.5291 26.0691 32.4184 25.9584C32.0126 25.6264 31.4592 25.6264 31.0903 25.9953C30.8689 26.2167 30.7214 26.4749 30.6476 26.77C30.5369 27.1758 30.5738 27.6185 30.7583 27.9875C30.9058 28.2826 31.0903 28.504 31.4223 28.6146C32.0126 28.836 32.6397 28.4671 32.7504 27.8399C32.7504 27.803 32.7504 27.7661 32.7504 27.7292C32.6397 27.6923 32.566 27.7292 32.4553 27.7292C32.3446 27.7292 32.2708 27.7292 32.1602 27.7292C32.0495 27.7292 31.9757 27.7292 31.865 27.7292C31.8281 27.6554 31.8281 27.2127 31.865 27.1021C32.4553 27.1021 33.0456 27.1021 33.6358 27.1021V27.139C33.7096 27.5817 33.6358 28.0244 33.4514 28.4302Z" fill="#9C9C9C"/>
</svg>
