<svg width="40" height="40" viewBox="0 0 40 40" fill="none" xmlns="http://www.w3.org/2000/svg">
<rect width="40" height="40" rx="8" fill="#292929"/>
<path d="M33.1025 22.5663L33.2351 25.3866H36.2668L36.4008 22.5663L34.7517 21.5195L33.1025 22.5663Z" fill="white"/>
<path d="M20.898 14.2383L18.1725 23.6872H18.1267L15.4046 14.2383H13.4717L16.9103 25.3871H19.3543L22.8653 14.2383H20.8944" fill="white"/>
<path d="M7.18991 16.4839C7.53258 15.8242 8.07193 15.5321 9.08831 15.5321C10.1047 15.5321 10.643 15.8242 10.9857 16.4839C11.336 17.1581 11.3301 18.5003 11.3301 18.8628H6.85974C6.85974 18.5003 6.8396 17.1581 7.18991 16.4839ZM11.3563 21.7569C11.3318 22.1798 11.3443 22.6899 10.9015 23.3042C10.5673 23.7677 10.0886 24.0949 9.10132 24.0949C8.11409 24.0949 7.72375 23.6662 7.44907 23.3119C6.96778 22.6914 6.86662 21.6916 6.86662 20.4112H13.1843L13.1852 20.4113C13.159 18.41 13.2836 16.5257 12.3456 15.3061C11.5822 14.3136 10.5129 14 9.10132 14C7.68984 14 6.75265 14.2748 5.90873 15.3187C4.9407 16.5161 5.0025 18.5191 5.0025 18.8734C5.0025 19.1566 5 20.3225 5 20.9867C5 22.8219 5.27167 23.6324 5.85618 24.3417C6.69116 25.3549 7.8807 25.6295 9.10132 25.6295C10.322 25.6295 11.6447 25.3525 12.3894 24.3468C12.9002 23.657 13.1723 22.8358 13.1923 21.7569H11.3563V21.7569Z" fill="white"/>
<path d="M25.2856 16.4839C25.6283 15.8242 26.1676 15.5321 27.184 15.5321C28.2004 15.5321 28.7387 15.8242 29.0814 16.4839C29.4317 17.1581 29.4258 18.5003 29.4258 18.8628H24.9554C24.9554 18.5003 24.9353 17.1581 25.2856 16.4839H25.2856ZM29.4521 21.7569C29.4275 22.1798 29.44 22.6899 28.9972 23.3042C28.6631 23.7677 28.1843 24.0949 27.197 24.0949C26.2098 24.0949 25.8195 23.6662 25.5448 23.3119C25.0635 22.6914 24.9623 21.6916 24.9623 20.4112H31.28L31.2809 20.4113C31.2547 18.41 31.3793 16.5257 30.4413 15.3061C29.6779 14.3136 28.6086 14 27.197 14C25.7855 14 24.8484 14.2748 24.0044 15.3187C23.0364 16.5161 23.0982 18.5191 23.0982 18.8734C23.0982 19.1566 23.0957 20.3225 23.0957 20.9867C23.0957 22.8219 23.3674 23.6324 23.9519 24.3417C24.7869 25.3549 25.9764 25.6295 27.197 25.6295C28.4177 25.6295 29.7404 25.3525 30.4851 24.3468C30.9959 23.657 31.268 22.8358 31.288 21.7569H29.4521V21.7569Z" fill="white"/>
</svg>
