<svg width="40" height="40" viewBox="0 0 40 40" fill="none" xmlns="http://www.w3.org/2000/svg">
<path d="M31.1111 0H8.88889C3.97969 0 0 3.97969 0 8.88889V31.1111C0 36.0203 3.97969 40 8.88889 40H31.1111C36.0203 40 40 36.0203 40 31.1111V8.88889C40 3.97969 36.0203 0 31.1111 0Z" fill="#292929"/>
<path d="M21.5415 14.0729L16.7601 21.0855L21.8602 28.5232C21.8921 28.5798 21.908 28.6365 21.8921 28.6932C21.8762 28.7498 21.8124 28.7073 21.7168 28.7215H18.067C17.812 28.7215 17.6367 28.7073 17.5252 28.5657C17.1905 27.9707 16.8398 27.3898 16.5051 26.7948C16.1705 26.214 15.8039 25.6189 15.4214 25.0098C15.0389 24.4006 14.6564 23.7914 14.2739 23.1681H14.242C13.9073 23.7772 13.5407 24.3864 13.1742 24.9956C12.8076 25.6048 12.441 26.214 12.0904 26.809C11.7238 27.404 11.3573 28.0132 10.9907 28.594C10.9269 28.7357 10.7994 28.7498 10.6241 28.7498H7.11782C7.05407 28.7498 7.00625 28.7782 7.00625 28.7073C6.99031 28.6507 7.00625 28.594 7.03813 28.5515L11.9948 21.3263L7.16563 14.0587C7.11782 14.002 7.10188 13.9454 7.13375 13.917C7.16563 13.8745 7.22938 13.8604 7.29313 13.8604H10.911C10.9907 13.8604 11.0704 13.8745 11.1341 13.8887C11.1979 13.917 11.2457 13.9595 11.2935 14.0162C11.5963 14.6254 11.947 15.2345 12.3135 15.8437C12.696 16.4529 13.0626 17.0479 13.461 17.6429C13.8435 18.2379 14.1942 18.833 14.5289 19.4421H14.5607C14.8954 18.8188 15.2461 18.2096 15.5967 17.6146C15.9473 17.0196 16.3139 16.4246 16.6805 15.8296C17.047 15.2345 17.3977 14.6254 17.7483 14.0445C17.7642 13.9879 17.7961 13.9312 17.8439 13.9029C17.9077 13.8745 17.9714 13.8604 18.0511 13.8745H21.414C21.4937 13.8604 21.5733 13.9029 21.5893 13.9737C21.6052 13.9879 21.5733 14.0445 21.5415 14.0729Z" fill="#E3E2E2"/>
<path d="M28.7059 28.7563C27.5084 28.7708 26.3109 28.5536 25.2267 28.1047C24.2072 27.6847 23.3658 26.9897 22.7832 26.1353C22.1845 25.252 21.8932 24.1515 21.8932 22.8337C21.877 21.7622 22.1845 20.7051 22.7832 19.7783C23.3981 18.8371 24.2882 18.0551 25.3562 17.5338C26.4889 16.9691 27.8482 16.694 29.4503 16.694C29.5312 16.694 29.6445 16.694 29.7901 16.7084C29.9358 16.7229 30.0976 16.7229 30.2918 16.7374V12.1615C30.2918 12.0602 30.3403 12.0023 30.4536 12.0023H33.7386C33.8195 11.9878 33.8842 12.0457 33.9004 12.1036C33.9004 12.1181 33.9004 12.1326 33.9004 12.1326V25.9181C33.9004 26.1787 33.9166 26.4684 33.9328 26.7869C33.9651 27.091 33.9813 27.3806 33.9975 27.6268C33.9975 27.7282 33.9489 27.8151 33.8357 27.8585C32.9942 28.1771 32.1042 28.4088 31.198 28.5536C30.3727 28.6839 29.5474 28.7563 28.7059 28.7563ZM30.2918 25.8602V19.4887C30.1461 19.4598 30.0005 19.4308 29.8548 19.4163C29.6768 19.4018 29.4988 19.3874 29.3208 19.3874C28.6897 19.3874 28.0586 19.5032 27.4922 19.7638C26.942 20.01 26.4728 20.372 26.1167 20.8354C25.7607 21.2988 25.5827 21.9215 25.5827 22.6744C25.5666 23.1813 25.6636 23.6881 25.8578 24.1659C26.0197 24.5569 26.2624 24.9045 26.586 25.1941C26.8935 25.4547 27.2657 25.6574 27.6864 25.7733C28.1233 25.9036 28.5764 25.9615 29.0295 25.9615C29.2723 25.9615 29.4988 25.9471 29.7092 25.9326C29.9196 25.9471 30.0976 25.9181 30.2918 25.8602Z" fill="#E3E2E2"/>
</svg>
