<svg width="40" height="40" viewBox="0 0 40 40" fill="none" xmlns="http://www.w3.org/2000/svg">
<path d="M31.1111 0H8.88889C3.97969 0 0 3.97969 0 8.88889V31.1111C0 36.0203 3.97969 40 8.88889 40H31.1111C36.0203 40 40 36.0203 40 31.1111V8.88889C40 3.97969 36.0203 0 31.1111 0Z" fill="#292929"/>
<path d="M16.065 32.5537C18.3552 32.5537 20.2139 30.695 20.2139 28.4048V24.2559H16.065C13.7747 24.2559 11.916 26.1146 11.916 28.4048C11.916 30.695 13.7747 32.5537 16.065 32.5537Z" fill="#E3E2E2"/>
<path d="M11.916 20.1079C11.916 17.8177 13.7747 15.959 16.065 15.959H20.2139V24.2569H16.065C13.7747 24.2569 11.916 22.3981 11.916 20.1079Z" fill="#E3E2E2"/>
<path d="M11.916 11.8091C11.916 9.51888 13.7747 7.66016 16.065 7.66016H20.2139V15.958H16.065C13.7747 15.958 11.916 14.0993 11.916 11.8091Z" fill="#AEAEAE"/>
<path d="M20.2139 7.66016H24.3628C26.653 7.66016 28.5117 9.51888 28.5117 11.8091C28.5117 14.0993 26.653 15.958 24.3628 15.958H20.2139V7.66016Z" fill="#E3E2E2"/>
<path d="M28.5117 20.1079C28.5117 22.3981 26.653 24.2569 24.3628 24.2569C22.0726 24.2569 20.2139 22.3981 20.2139 20.1079C20.2139 17.8177 22.0726 15.959 24.3628 15.959C26.653 15.959 28.5117 17.8177 28.5117 20.1079Z" fill="#E3E2E2"/>
</svg>
