<svg width="40" height="40" viewBox="0 0 40 40" fill="none" xmlns="http://www.w3.org/2000/svg">
<path d="M31.1111 0H8.88889C3.97969 0 0 3.97969 0 8.88889V31.1111C0 36.0203 3.97969 40 8.88889 40H31.1111C36.0203 40 40 36.0203 40 31.1111V8.88889C40 3.97969 36.0203 0 31.1111 0Z" fill="#292929"/>
<path d="M14.8356 29.0588C13.837 28.3022 12.7714 27.5771 12.0434 26.5555C10.5111 24.754 9.33161 22.6686 8.52524 20.4768C8.03762 19.0514 7.87079 17.5234 7.24188 16.1533C6.58485 15.1579 7.35504 14.0706 8.48701 13.7544C8.99058 13.6609 9.87668 13.203 8.80712 13.5306C7.84798 14.208 7.75557 12.9152 8.73888 12.8333C9.40997 12.7476 9.65704 12.2187 9.42729 11.7427C8.70665 11.2899 11.1741 10.7932 9.9324 10.1178C8.63978 8.77422 11.7413 8.51564 10.9759 10.0417C10.793 11.2151 13.1438 9.82623 12.5979 11.1814C13.1526 11.8323 14.6742 11.3299 14.636 12.2425C15.4438 12.296 15.721 12.9501 16.4785 13.0004C17.2648 13.3422 18.6888 13.6112 18.9559 14.4639C18.1765 15.058 16.372 13.2366 16.2849 14.8814C16.5207 17.3117 16.4605 19.8151 17.3835 22.1293C17.82 23.5304 18.8789 24.6333 19.8346 25.7248C20.7495 26.7934 21.9887 27.5463 23.2518 28.1797C24.3596 28.6828 25.5538 29.0162 26.7614 29.2259C27.2509 28.8653 28.1155 27.5243 28.879 28.0893C28.9159 28.7254 27.3635 29.4181 28.8062 29.3478C29.654 29.1014 30.2415 29.9785 30.9393 29.1871C31.5823 29.9206 33.6116 28.7188 33.1542 30.218C32.5354 30.6024 31.6332 30.37 31.0137 30.8991C29.9923 30.4075 29.1791 31.3383 28.048 31.2209C26.7922 31.4376 25.5142 31.5248 24.2411 31.5266C22.1521 31.3679 20.0189 31.3009 18.0317 30.6004C16.912 30.287 15.8196 29.6729 14.8356 29.0588ZM16.5997 29.7954C17.6928 30.2502 18.7618 30.73 19.96 30.8752C21.8607 31.1293 23.8238 31.5215 25.7312 31.1641C24.868 30.7888 23.9752 31.3099 23.1151 30.8958C22.0838 31.1093 20.9767 30.841 19.9277 30.7087C18.7356 30.1973 17.4484 29.8458 16.3319 29.1813C14.9361 28.6906 17.0532 29.8109 17.4303 29.9019C18.3023 30.3785 16.4711 29.6574 16.2126 29.4594C15.482 29.0646 15.3889 29.1471 16.1404 29.5477C16.2916 29.6329 16.4411 29.7226 16.5997 29.7954ZM14.5194 28.3796C15.579 28.7576 14.5148 27.6623 14.0299 27.7256C13.8149 27.3663 13.2081 27.1392 13.6361 26.9464C12.8666 27.2038 12.8297 25.9678 12.4681 26.1447C11.6537 25.897 12.1512 25.0197 11.1808 24.4805C11.0923 23.9128 10.217 23.4208 9.9384 22.5648C9.81512 22.1262 8.94909 20.8678 9.48095 22.039C9.9336 23.1665 10.73 24.1328 11.3931 25.0971C11.9074 26.0155 12.5156 26.9761 13.4526 27.5489C13.7688 27.841 14.0735 28.288 14.5194 28.3796ZM11.4682 25.1526C11.5048 24.9984 11.6617 25.486 11.4682 25.1526V25.1526ZM15.7887 28.8324C16.0231 28.7312 15.4511 28.7048 15.7887 28.8324V28.8324ZM16.3633 29.0344C16.3038 28.7556 16.1008 29.1904 16.3633 29.0344V29.0344ZM17.0834 29.3233C17.4256 29.0091 16.555 29.1252 17.0834 29.3233V29.3233ZM18.3171 29.9856C18.5254 29.6896 17.6506 29.8742 18.3171 29.9856V29.9856ZM15.9482 28.3952C16.4799 28.0636 15.2603 28.3905 15.9482 28.3952V28.3952ZM16.4879 28.6544C16.4725 28.4795 16.2957 28.733 16.4879 28.6544V28.6544ZM19.1863 30.2766C19.6203 30.5405 21.7202 30.8545 20.4054 30.3849C20.1849 30.4295 17.9674 29.7806 19.1863 30.2766ZM14.9026 27.0631C14.8605 26.8877 14.2288 26.8689 14.9026 27.0631V27.0631ZM16.1584 27.7688C16.4859 27.5489 15.4799 27.5991 16.1584 27.7688V27.7688ZM17.2153 28.3925C17.6847 28.2223 16.4545 28.2216 17.2153 28.3925V28.3925ZM14.3908 26.5271C14.8999 26.9031 16.4444 26.5755 15.1705 26.3027C14.5911 26.0053 13.2851 25.8015 14.1753 26.482L14.3908 26.5271ZM17.9313 28.608C18.1435 28.2603 17.0417 28.4092 17.9313 28.608V28.608ZM16.8555 27.7849C18.1 28.1235 15.8088 27.0263 16.5483 27.6597L16.7124 27.7314L16.8555 27.7849ZM19.0123 28.9853C20.1911 28.9962 17.9474 28.8286 19.0123 28.9853V28.9853ZM13.9375 25.8704C13.8912 25.6589 13.6469 25.8879 13.9375 25.8704V25.8704ZM21.0062 30.0624C21.0376 29.6807 20.6216 30.3469 21.0062 30.0624V30.0624ZM15.9494 27.0567C15.8777 26.8554 15.5811 27.0482 15.9494 27.0567V27.0567ZM14.0493 25.7376C14.7259 25.6983 13.1224 25.4507 14.0493 25.7376V25.7376ZM11.7982 24.3366C11.7139 24.0238 11.0621 23.7748 11.7982 24.3366V24.3366ZM17.7075 27.9482C17.5837 27.8119 17.6492 27.9777 17.7075 27.9482V27.9482ZM21.3851 30.1219C21.3738 29.9135 21.1849 30.2005 21.3851 30.1219V30.1219ZM17.3821 27.6244C17.4484 27.356 16.8048 27.5429 17.3821 27.6244V27.6244ZM14.642 25.9518C15.1458 25.9001 13.835 25.624 14.642 25.9518V25.9518ZM19.2769 28.7254C20.0618 28.426 18.512 28.5796 19.2769 28.7254V28.7254ZM16.8663 27.1496C17.7704 27.2617 15.7901 26.5568 16.6675 27.0864L16.8663 27.1496ZM20.0088 29.0104C20.8534 28.5248 20.5748 30.1489 21.4415 29.1478C22.2961 28.5467 20.7034 29.8909 21.7563 29.255C22.5185 28.764 23.6436 29.4878 24.3543 29.7233C24.8652 29.6993 25.3623 30.1489 25.8866 29.8753C26.8953 29.6134 23.9136 29.4871 24.6951 29.0233C23.7722 29.282 23.0904 28.715 22.6363 28.1455C21.6008 27.9151 20.404 27.4056 19.8869 26.5226C19.676 26.1917 20.1911 26.5697 19.7048 26.0279C19.0812 25.4938 18.7699 24.8868 18.3512 24.2373C17.8509 23.9806 17.7919 23.224 17.7416 24.2122C17.7458 23.5884 17.1376 23.1685 16.9889 23.3427C16.9862 22.7421 17.64 23.0433 17.1825 22.599C17.0841 21.9764 16.7599 21.3277 16.6627 20.6246C16.5114 20.2859 16.6412 19.5603 16.1457 20.3272C15.9655 21.1379 16.086 19.3313 16.3667 19.9266C16.735 19.3191 16.234 19.3906 16.2139 19.4745C16.4538 18.9618 16.366 18.234 16.151 18.5115C16.2789 17.9677 16.3533 16.5106 15.9602 16.7692C16.1985 16.2004 16.4123 14.1672 15.3767 14.9426C14.9575 14.9484 14.2309 15.0891 13.8879 15.2535C14.9642 15.825 13.7794 15.46 13.3406 15.369C13.2837 15.8979 12.8498 15.6695 12.3073 15.6746C13.174 15.7778 11.8853 16.528 11.3891 16.2365C10.7434 16.5333 11.9457 17.275 11.4018 17.5045C11.4688 17.8496 10.4132 17.3795 10.4956 18.1781C9.86931 17.9238 10.4099 19.1249 10.7233 18.7185C11.789 18.9966 11.4735 19.6294 11.5002 20.2311C11.3267 20.5813 10.6429 19.4074 11.3481 19.4616C10.7916 18.5914 10.7328 19.1469 10.2705 19.5512C10.1634 19.5803 11.4493 20.1265 10.6422 20.3962C11.3522 20.502 11.373 21.1006 11.5177 21.4792C11.9443 21.9074 11.8565 21.0063 12.3676 21.5212C12.0441 21.0625 10.6556 20.2291 11.7735 20.4963C11.7675 20.0351 11.5712 19.6629 11.9141 19.6718C12.2538 19.0803 11.5585 21.1308 12.3234 20.3789C12.535 20.2899 12.5879 19.7867 12.9684 20.4266C13.5209 20.9503 13.168 21.3295 12.3884 20.8496C12.5276 21.3057 13.4312 21.4682 13.2611 22.181C13.4411 22.808 13.693 22.577 13.9126 22.5408C14.0848 23.1498 14.1827 22.7022 14.1907 22.4119C14.9789 22.5745 14.7941 23.0233 15.0412 23.3369C15.5843 23.5729 14.2636 21.7365 15.196 22.7847C16.1771 23.6381 15.5643 23.9941 14.6837 23.8574C15.2409 23.8141 15.4203 24.5831 16.1176 24.556C16.7532 24.8475 17.1839 25.966 16.0881 25.5002C15.7083 25.1699 14.3627 24.7629 15.4619 25.3905C16.4759 25.8433 17.2823 26.1136 18.2608 26.682C18.9607 27.1632 19.2633 27.7145 19.5286 27.8237C18.94 28.0945 17.7552 27.6075 18.6351 27.4586C18.0859 27.3625 17.4685 27.0948 17.9942 27.7533C18.4415 28.1133 19.5781 28.0751 19.7825 28.1158C19.6097 28.4822 19.3131 28.5112 19.7892 28.5396C19.258 28.8124 19.96 28.855 20.0088 29.0104ZM18.9225 26.0557C18.5989 25.7299 18.5153 25.1204 18.8649 25.6505C19.0444 25.7201 19.4389 26.6471 18.9225 26.0557ZM22.4609 28.2203C22.6625 28.2074 22.4669 28.3679 22.4609 28.2203V28.2203ZM18.4122 25.2571C18.3994 24.7649 18.5286 25.6369 18.4122 25.2571V25.2571ZM18.0605 24.8017C17.6533 24.0451 18.5729 25.0159 18.0605 24.8017V24.8017ZM13.7981 21.9688C14.0373 21.9074 13.9161 22.3622 13.7981 21.9688V21.9688ZM17.1906 23.7393C17.3372 23.2084 17.3627 24.1845 17.1906 23.7393V23.7393ZM14.7941 22.1345C14.6254 21.8417 15.1471 22.4094 14.7941 22.1345V22.1345ZM16.8502 22.7692C16.4651 21.9385 17.1235 22.3151 16.936 22.9053L16.8502 22.7692ZM13.304 20.4916C13.1318 20.2188 12.8472 19.419 12.9389 19.1746C13.0212 19.5725 13.817 20.8864 13.3286 19.719C12.7896 18.7405 13.9737 20.0362 14.0956 20.2808C14.1525 20.5233 13.7626 20.2144 14.0265 20.7839C13.545 20.1356 13.7425 21.1419 13.304 20.4916ZM12.2082 19.7641C12.2531 19.13 12.4587 20.1989 12.2082 19.7641V19.7641ZM12.7011 19.9279C12.9362 19.4494 13.0996 20.5948 12.7011 19.9279V19.9279ZM11.515 19.0443C11.1071 18.6533 10.8116 18.2935 11.5343 18.8017C11.8123 18.812 10.9155 17.9832 11.6014 18.5385C12.322 18.665 11.957 19.6771 11.515 19.0443ZM12.1379 19.0288C12.375 18.8024 12.2637 19.2514 12.1379 19.0288V19.0288ZM12.5216 19.1469C12.1619 18.4986 12.9576 19.419 12.5216 19.1469V19.1469ZM11.7595 18.4457C10.5733 17.4284 13.2496 18.9771 11.953 18.634L11.7595 18.4457ZM15.1584 20.3471C14.6448 20.0511 15.0218 18.2606 15.1974 19.4849C15.6963 19.3293 15.1698 20.1176 15.5415 20.1099C15.4834 20.6071 15.3165 20.7859 15.1584 20.3471ZM16.4156 21.0631C16.4658 20.5233 16.5214 21.4322 16.4156 21.0631V21.0631ZM16.1973 20.8547C16.2536 20.6246 16.2026 21.1264 16.1973 20.8547V20.8547ZM11.9918 18.1115C11.2297 17.0988 14.2067 19.1358 12.4801 18.3683C12.2999 18.3226 12.0823 18.3064 11.9918 18.1115ZM14.4129 19.3475C14.3408 18.4948 14.5738 19.4887 14.4129 19.3475V19.3475ZM16.2508 20.4832C16.3928 19.9976 16.2616 20.8045 16.2508 20.4832V20.4832ZM12.1091 17.7251C12.5619 17.6317 13.9857 18.4908 12.6783 17.9703C12.5331 17.8155 12.2229 17.8858 12.1091 17.7251ZM15.9983 19.5919C16.0466 18.7198 16.269 19.0714 16.0003 19.717L15.9983 19.5919ZM12.446 17.4215C12.6308 17.1607 11.9556 16.243 12.543 17.0924C12.797 17.2866 13.2777 17.4175 12.8532 17.4994C13.5209 18.0664 12.6905 17.653 12.446 17.4215ZM15.806 19.3197C15.9334 18.3264 15.9187 19.9015 15.806 19.3197V19.3197ZM12.0602 16.5042C12.2015 16.4461 12.1351 16.6853 12.0602 16.5042V16.5042ZM12.9369 17.0067C13.1625 16.5506 13.3528 17.5149 12.9369 17.0067V17.0067ZM15.4089 18.3308C15.4069 18.1561 15.4558 18.5856 15.4089 18.3308V18.3308ZM15.2656 18.0258C14.9227 17.2104 15.585 18.4573 15.2656 18.0258V18.0258ZM15.0552 17.491C14.9978 17.1543 15.2509 17.9142 15.0552 17.491V17.491ZM15.3981 16.9543C15.1624 16.5551 15.6956 15.1934 15.7553 16.0379C15.5067 16.6957 15.6836 17.0635 15.8563 16.1811C16.1766 15.487 15.7874 17.5518 15.3981 16.9543ZM15.7505 14.9297C15.853 14.8084 15.7733 15.076 15.7505 14.9297V14.9297ZM15.1619 26.097C15.0225 25.9795 15.1799 26.1711 15.1619 26.097V26.097ZM16.3741 26.6871C17.0484 26.8542 17.0452 26.5864 16.4356 26.5065C16.1082 26.213 15.0734 25.9014 15.9996 26.4703C16.0607 26.6201 16.2542 26.6161 16.3741 26.6871ZM13.9804 25.1557C14.3514 25.4229 15.3795 25.9117 14.5095 25.2578C14.8028 24.9294 13.9481 24.7547 14.2315 24.5347C13.5102 24.1095 13.6621 24.1477 14.1679 24.1612C13.3012 23.7877 14.2931 23.8161 14.2463 23.6245C13.9121 23.5613 12.5859 23.0568 13.3662 23.6658C12.5732 23.2768 13.1772 23.811 12.9375 23.7548C12.1264 23.542 13.6596 24.3496 12.809 24.149C13.2738 24.5037 14.0608 25.0585 13.0051 24.5243C12.8666 24.7172 13.7607 25.0094 13.9804 25.1557ZM15.2481 25.8575C16.7894 26.3356 14.492 25.2725 15.2481 25.8575V25.8575ZM21.7382 29.6438C21.7582 29.3491 21.5278 29.8953 21.7382 29.6438V29.6438ZM22.4053 29.9141C22.7609 29.5826 22.42 30.443 22.9946 29.8329C23.0006 29.3961 22.9773 29.1382 22.3343 29.6689C22.1567 29.7639 22.0778 30.1656 22.4053 29.9141ZM11.8164 23.5098C11.7072 23.0963 11.0508 23.0981 11.8164 23.5098V23.5098ZM12.5283 23.9592C12.2637 23.5369 11.5846 23.5768 12.5283 23.9592V23.9592ZM16.581 26.3129C16.9769 26.6516 18.3982 26.5613 17.0613 26.3549C16.8636 26.073 15.8048 26.1407 16.581 26.3129ZM22.1514 29.6265C22.7602 29.1343 21.5614 29.8458 22.1514 29.6265V29.6265ZM23.4179 30.4643C23.4219 30.3063 23.1554 30.5334 23.4179 30.4643V30.4643ZM23.42 30.2431C24.0943 29.5555 22.7669 30.2837 23.42 30.2431V30.2431ZM10.0643 22.0971C9.4897 21.3077 9.70728 20.9528 9.15278 20.3078C9.04751 19.8145 8.2017 18.6959 8.71539 19.8808C9.18553 20.5742 9.32493 21.6475 10.0643 22.0971ZM23.2082 30.0244C24.4494 29.2523 22.6994 29.6884 23.2082 30.0244V30.0244ZM24.1554 30.3818C24.7769 29.8682 23.7622 30.2746 24.1554 30.3818V30.3818ZM11.6053 22.6369C11.783 22.3821 11.146 22.6041 11.6053 22.6369V22.6369ZM23.9577 30.1379C24.5592 29.7645 23.8191 29.8218 23.8486 30.1721L23.9577 30.1379ZM15.7947 25.1828C15.774 24.93 15.4767 25.2041 15.7947 25.1828V25.1828ZM16.299 25.4622C16.1383 25.15 16.0526 25.5113 16.299 25.4622V25.4622ZM24.9228 30.3902C25.6937 29.8547 24.4561 30.2875 24.7615 30.4921L24.9228 30.3902ZM24.6276 30.2528C25.2558 29.7464 23.9651 30.4772 24.6276 30.2528V30.2528ZM26.1357 31.2196C26.5572 30.948 25.6234 31.1319 26.1357 31.2196V31.2196ZM11.9918 22.4531C12.5564 22.575 14.2495 23.7928 13.251 22.5377C12.7393 22.3919 13.0461 21.1876 12.5243 21.4005C12.8746 21.9642 12.8122 22.2035 12.0768 21.8488C11.1534 21.414 11.5578 22.0636 11.7387 22.2429C11.4922 22.2971 12.0641 22.4487 11.9918 22.4531ZM9.41803 20.4956C9.51902 20.0924 8.48632 18.2793 8.9304 19.5867C9.09037 19.8609 9.07374 20.38 9.41803 20.4956ZM14.1424 23.3007C13.8511 23.0666 14.1283 23.2672 14.1424 23.3007V23.3007ZM14.8584 23.4614C14.8584 23.0344 14.0668 23.2879 14.8584 23.4614V23.4614ZM21.0671 27.2302C20.9486 26.9386 20.599 27.2238 21.0671 27.2302V27.2302ZM21.3651 27.4397C21.3208 27.2766 21.1929 27.4715 21.3651 27.4397V27.4397ZM23.8258 28.933C24.0623 28.7647 23.5304 28.9112 23.8258 28.933V28.933ZM10.7033 20.8116C11.3804 20.5593 9.97784 20.6317 10.7033 20.8116V20.8116ZM20.5205 26.7677C20.5126 26.3458 20.0886 26.8729 20.5205 26.7677V26.7677ZM10.436 20.2111C10.8706 20.0699 10.0334 20.1183 10.436 20.2111V20.2111ZM11.6977 20.7999C11.6904 20.6614 11.5645 20.8529 11.6977 20.7999V20.7999ZM27.0923 29.8915C27.6514 29.7825 28.926 30.1656 29.1316 29.749C28.4525 29.7328 26.7828 29.2872 26.7038 29.8547L26.8524 29.8773L27.0923 29.8915ZM12.0989 20.8973C12.1091 20.4697 11.7528 20.8813 12.0989 20.8973V20.8973ZM8.78106 18.6805C8.63035 17.8658 8.2077 18.5572 8.78106 18.6805V18.6805ZM9.572 18.8721C9.58211 18.6102 8.84793 18.6366 9.572 18.8721V18.8721ZM10.0241 19.0863C9.89348 18.9842 9.92229 19.2146 10.0241 19.0863V19.0863ZM12.8698 20.8438C13.0039 20.7251 12.5525 20.7562 12.8698 20.8438V20.8438ZM9.72339 18.6038C9.64641 17.9883 8.80644 18.5115 9.72339 18.6038V18.6038ZM8.10054 17.5897C8.07774 17.3059 7.94246 17.6967 8.10054 17.5897V17.5897ZM8.3423 17.4144C8.30286 17.0775 8.13466 17.4568 8.3423 17.4144V17.4144ZM9.67521 18.1805C10.2391 17.9677 8.64835 17.7393 9.55999 18.1406L9.67521 18.1805ZM27.5202 28.7962C27.8812 28.4777 27.0621 28.6977 27.5202 28.7962V28.7962ZM29.6762 29.8722C29.8209 29.4607 29.3118 29.9264 29.6762 29.8722V29.8722ZM9.8117 17.5078C9.87136 17.1092 9.36436 17.5871 9.8117 17.5078V17.5078ZM7.91434 16.2836C7.81249 15.7212 7.82655 14.7336 8.80112 15.0671C7.50044 15.3161 9.70196 16.6247 9.42403 15.5914C9.97115 15.6173 10.4943 15.28 10.2069 15.7914C11.2852 15.6773 12.0321 14.7768 13.0735 14.9033C13.8845 14.7995 14.7713 14.7214 15.6454 14.4066C16.364 14.3569 17.0558 13.6119 16.6621 13.17C15.6823 13.0901 14.6561 13.2081 13.5731 13.4159C12.3729 13.6558 11.2826 14.1124 10.0716 14.3085C8.89079 14.4614 10.3088 14.7291 9.97047 14.7891C9.35493 14.9948 10.7052 15.1335 9.89074 15.3508C9.38785 15.2587 8.86405 15.0922 9.07905 14.5813C7.94846 14.7233 6.95452 15.1748 7.84798 16.2829L7.91434 16.2836ZM10.6397 14.9471C10.9042 14.0067 12.0595 15.7212 11.0736 15.0722C10.9564 14.987 10.7621 14.918 10.6397 14.9471ZM10.6911 14.491C11.0736 14.2169 10.8941 14.6452 10.6911 14.491V14.491ZM11.1767 14.4988C11.2117 14.066 12.2893 14.7278 11.3543 14.6543L11.1767 14.4988ZM11.8411 14.2415C12.0842 13.9679 11.9115 14.4839 11.8411 14.2415V14.2415ZM12.0113 14.1319C12.4158 13.6642 14.2998 13.8331 12.9207 14.086C12.5511 13.8176 12.2678 14.244 12.0113 14.1319ZM14.4706 13.7668C14.4097 12.4889 15.6929 14.2202 14.4706 13.7668V13.7668ZM15.1686 13.7628C15.4237 13.1191 16.1591 13.5042 15.287 13.6332C15.3057 13.7022 15.261 13.9661 15.1686 13.7628ZM9.5365 17.1776C10.2986 16.7279 8.72739 16.7874 9.5365 17.1776V17.1776ZM10.1004 17.3278C10.3677 17.0544 9.51902 17.2169 10.1004 17.3278V17.3278ZM8.43952 16.1933C8.87485 15.8708 7.92377 16.0707 8.43952 16.1933V16.1933ZM30.9487 29.7548C30.9614 29.3806 30.6157 29.9231 30.9487 29.7548V29.7548ZM28.6615 28.2512C28.7264 27.821 28.3674 28.2887 28.6615 28.2512V28.2512ZM31.5776 29.8999C32.1865 29.9019 33.4227 29.7173 32.098 29.718C31.8897 29.749 30.8865 29.7426 31.5776 29.8999ZM10.5961 17.064C11.0891 17.0318 11.367 16.5409 10.5003 16.5686C9.15741 16.4352 11.685 17.0118 10.3281 16.8467C10.146 16.9628 10.5853 17.0963 10.5961 17.064ZM11.0301 17.2757C10.9785 16.9712 10.8773 17.4375 11.0301 17.2757V17.2757ZM11.5451 15.9533C11.7588 15.6979 11.249 15.885 11.5451 15.9533V15.9533ZM9.90548 13.3145C10.7856 13.0268 11.9885 12.703 12.4038 13.4565C11.9812 12.9669 12.233 12.4844 12.6322 13.201C13.1968 13.9255 13.4794 12.8715 13.1123 12.6282C13.531 13.1287 14.0064 13.3655 13.3923 12.6599C14.0601 11.8865 12.0561 12.7612 11.6007 12.7521C11.3817 12.8469 9.3383 13.2539 9.90548 13.3145ZM10.4212 12.3639C10.9229 11.9994 12.1566 12.5812 11.3649 12.0013C11.2873 11.9355 9.63166 12.4411 10.4212 12.3639ZM12.2503 12.4367C12.8371 12.4509 11.9973 11.6768 12.6965 12.0277C12.5819 11.6665 11.8821 11.5988 11.5398 11.4544C11.3462 11.7846 11.9335 12.4411 12.2503 12.4367ZM10.742 10.8376C10.945 10.5726 10.3857 10.9725 10.742 10.8376V10.8376ZM11.4896 11.0098C12.4359 10.8893 11.2483 10.6177 11.2986 11.0003L11.4896 11.0098ZM10.0937 9.9585C9.42729 9.12065 11.3469 10.0992 10.6697 9.22188C10.0997 8.78529 9.55262 9.71411 10.0937 9.9585ZM18.6432 14.3931C18.9487 13.8718 17.3821 13.69 18.4376 14.2085C18.5346 14.2395 18.5127 14.4291 18.6432 14.3931Z" fill="white"/>
</svg>
