<svg width="40" height="40" viewBox="0 0 40 40" fill="none" xmlns="http://www.w3.org/2000/svg">
<rect width="40" height="40" rx="8" fill="#292929"/>
<path d="M20.901 28.1365L19.3323 24.0188H13.8421L12.2735 28.1365H8.25391C8.25391 28.1365 11.3912 19.2149 12.7637 15.1953C13.2539 13.7247 13.6461 12.4502 14.0382 11.0777C14.1363 10.8816 14.2343 10.1953 14.2343 10.1953H18.0578C18.548 10.1953 18.7441 10.3914 18.8421 10.7835C20.7049 16.2737 24.9206 28.0385 24.9206 28.0385H20.901V28.1365Z" fill="#E3E2E2"/>
<path d="M16.3909 13.625L18.5477 20.5858H14.332L16.3909 13.625Z" fill="#292929"/>
<path d="M30.2177 14.707H26.4922V28.1384H30.2177V14.707Z" fill="#E3E2E2"/>
<path d="M28.3518 13.1379C29.4888 13.1379 30.4106 12.1723 30.4106 10.9811C30.4106 9.78988 29.4888 8.82422 28.3518 8.82422C27.2147 8.82422 26.293 9.78988 26.293 10.9811C26.293 12.1723 27.2147 13.1379 28.3518 13.1379Z" fill="#E3E2E2"/>
</svg>
