<svg width="40" height="40" viewBox="0 0 40 40" fill="none" xmlns="http://www.w3.org/2000/svg">
<rect width="40" height="40" rx="8" fill="#292929"/>
<path d="M13.9534 11.7548V30.0263C13.9534 30.2214 13.8648 30.3101 13.7052 30.3101H10.2305C10.0709 30.3101 10 30.2214 10 30.0263V11.7548C10 11.5951 10.0886 11.5242 10.2482 11.5242H13.7052C13.8116 11.5064 13.9179 11.5774 13.9357 11.7016C13.9534 11.7193 13.9534 11.7371 13.9534 11.7548Z" fill="#E3E2E2"/>
<path d="M24.183 30.5271C22.8711 30.5449 21.5592 30.2788 20.3714 29.7289C19.2546 29.2144 18.3327 28.3629 17.6945 27.3163C17.0385 26.2342 16.7194 24.886 16.7194 23.2718C16.7017 21.9591 17.0385 20.6641 17.6945 19.5288C18.3681 18.3757 19.3432 17.4178 20.5133 16.7792C21.7542 16.0873 23.2434 15.7503 24.9985 15.7503C25.0871 15.7503 25.2112 15.7503 25.3708 15.768C25.5303 15.7858 25.7076 15.7858 25.9204 15.8035V10.1979C25.9204 10.0737 25.9735 10.0028 26.0976 10.0028H29.6965C29.7851 9.98502 29.856 10.056 29.8738 10.1269V10.1624V27.0502C29.8738 27.3695 29.8915 27.7243 29.9092 28.1146C29.9447 28.4871 29.9624 28.8419 29.9801 29.1435C29.9801 29.2676 29.9269 29.3741 29.8028 29.4273C28.881 29.8176 27.9059 30.1014 26.9131 30.2788C26.0267 30.4384 25.1049 30.5271 24.183 30.5271ZM25.9204 26.9793V19.174C25.7608 19.1385 25.6013 19.103 25.4417 19.0853C25.2467 19.0675 25.0517 19.0498 24.8567 19.0498C24.1653 19.0498 23.4739 19.1917 22.8534 19.511C22.2506 19.8126 21.7365 20.2561 21.3465 20.8237C20.9565 21.3914 20.7614 22.1542 20.7614 23.0766C20.7437 23.6975 20.8501 24.3184 21.0628 24.9038C21.2401 25.3827 21.506 25.8085 21.8606 26.1633C22.1974 26.4826 22.6052 26.7309 23.0661 26.8728C23.5448 27.0325 24.0412 27.1035 24.5376 27.1035C24.8035 27.1035 25.0517 27.0857 25.2821 27.068C25.5126 27.0857 25.7254 27.0502 25.9204 26.9793Z" fill="#E3E2E2"/>
</svg>
