<svg width="40" height="40" viewBox="0 0 40 40" fill="none" xmlns="http://www.w3.org/2000/svg">
<path d="M31.1111 0H8.88889C3.97969 0 0 3.97969 0 8.88889V31.1111C0 36.0203 3.97969 40 8.88889 40H31.1111C36.0203 40 40 36.0203 40 31.1111V8.88889C40 3.97969 36.0203 0 31.1111 0Z" fill="#292929"/>
<path d="M5.13947 27.6652H7.62031V17.0904H5.13947V27.6652ZM6.37491 15.7036C7.15205 15.7036 7.7598 15.105 7.7598 14.3568C7.7598 13.5986 7.15205 13 6.37491 13C5.60775 13 5 13.5986 5 14.3568C5 15.105 5.60775 15.7036 6.37491 15.7036ZM15.8801 13.0299C11.6857 13.0299 9.05531 15.8931 9.05531 20.4723C9.05531 25.0515 11.6855 27.9048 15.8801 27.9048C20.0646 27.9048 22.695 25.0515 22.695 20.4723C22.695 15.8931 20.0649 13.0299 15.8801 13.0299ZM15.8801 15.2247C18.4407 15.2247 20.0746 17.2598 20.0746 20.4722C20.0746 23.6746 18.4406 25.7099 15.8801 25.7099C13.3097 25.7099 11.6857 23.6747 11.6857 20.4722C11.6857 17.2599 13.3097 15.2247 15.8801 15.2247ZM23.7415 23.6149C23.8511 26.2687 26.0231 27.9047 29.3308 27.9047C32.808 27.9047 35 26.1888 35 23.4552C35 21.3103 33.7646 20.1032 30.8454 19.4348L29.1915 19.0557C27.428 18.6367 26.7007 18.078 26.7007 17.1203C26.7007 15.9232 27.7966 15.1251 29.4206 15.1251C31.0645 15.1251 32.1903 15.9331 32.3099 17.2799H34.7609C34.7011 14.7459 32.6088 13.0299 29.4406 13.0299C26.3121 13.0299 24.0903 14.7558 24.0903 17.3098C24.0903 19.365 25.3456 20.6419 27.9957 21.2505L29.8588 21.6895C31.6721 22.1185 32.4094 22.7171 32.4094 23.7546C32.4094 24.9518 31.2039 25.8097 29.4704 25.8097C27.7169 25.8097 26.3918 24.9418 26.2324 23.6149H23.7416L23.7415 23.6149Z" fill="#E3E2E2"/>
</svg>
