<svg width="40" height="40" viewBox="0 0 40 40" fill="none" xmlns="http://www.w3.org/2000/svg">
<path d="M31.1111 0H8.88889C3.97969 0 0 3.97969 0 8.88889V31.1111C0 36.0203 3.97969 40 8.88889 40H31.1111C36.0203 40 40 36.0203 40 31.1111V8.88889C40 3.97969 36.0203 0 31.1111 0Z" fill="#292929"/>
<path d="M30.3555 19.9111C30.3555 25.6283 25.6486 30.2675 19.8393 30.2675C14.03 30.2675 9.32324 25.6283 9.32324 19.9111C9.32324 14.1938 14.0301 9.55469 19.8393 9.55469C25.6487 9.55469 30.3556 14.1938 30.3556 19.9111" fill="#292929"/>
<path d="M9.75441 22.4736C9.75441 22.4736 8.9912 11.6763 19.3292 11.3658L18.6084 10.2061L13.0025 12.0192L11.3997 13.7916L10.0004 16.3725L9.20312 19.3782L9.44068 21.3874" fill="#565656"/>
<path d="M12.6382 12.8426C10.7979 14.664 9.65298 17.1715 9.65298 19.9484C9.65298 22.7253 10.7979 25.2327 12.6382 27.054C14.487 28.8754 17.0228 29.9943 19.8383 29.9943C22.654 29.9943 25.1897 28.8754 27.0385 27.0541C28.8789 25.2327 30.0237 22.7253 30.0237 19.9484C30.0237 17.1714 28.8789 14.664 27.0385 12.8426C25.1898 11.0294 22.654 9.9024 19.8383 9.9024C17.0313 9.9024 14.4871 11.0213 12.6382 12.8426ZM12.1718 27.4869C10.2128 25.5594 9 22.8887 9 19.9484C9 17.008 10.2128 14.3372 12.1718 12.4016C14.1308 10.4741 16.8447 9.27344 19.8385 9.27344C22.8321 9.27344 25.5459 10.4741 27.505 12.4016C29.464 14.3291 30.6768 16.9998 30.6768 19.9484C30.6768 22.8886 29.464 25.5594 27.505 27.4869C25.5459 29.4226 22.8321 30.615 19.8383 30.615C16.8447 30.615 14.1308 29.4226 12.1718 27.4869Z" fill="#0F0F0F"/>
<path d="M24.2661 19.9665L22.6632 20.1952L20.5006 20.4321L19.1013 20.4648L17.736 20.4239L16.6928 20.1136L15.7684 19.1498L15.0475 17.1814L14.8864 16.7567L13.9281 16.4464L13.3683 15.5561L12.9697 14.2819L13.4108 13.1631L14.4539 12.8118L15.2935 13.1957L15.692 14.0452L16.1755 13.9716L16.3366 13.7756L16.1755 12.8853L16.133 11.7664L16.3705 10.2228L16.362 9.34068L17.0914 8.2136L18.372 7.32332L20.6109 6.40039L23.0958 6.75158L25.2583 8.25442L26.2591 9.79803L26.9035 10.917L27.0647 13.6939L26.5813 16.087L25.6993 18.2106L24.8683 19.3458" fill="#F2F2F2"/>
<path d="M22.9054 26.64L17.1809 26.8686V27.7916L17.6643 31.0341L17.4268 31.3036L13.4239 29.9887L13.1441 29.5231L12.7454 25.1616L11.8041 22.5481L11.6006 21.9273L14.8063 19.8038L15.8071 19.4199L16.689 20.4653L17.4523 21.1188L18.3343 21.3883L18.7329 21.5027L19.2163 23.5119L19.581 23.9366L20.5054 23.6262L19.8608 24.8267L23.3379 26.4112L22.9054 26.6399" fill="#5C5C5C"/>
<path d="M13.4062 13.18L14.4494 12.8289L15.289 13.2127L15.6875 14.0622L16.1709 13.9886L16.2898 13.5231L16.0522 12.6328L16.2896 10.5093L16.0861 9.34948L16.807 8.54095L18.3674 7.34847L17.9264 6.76855L15.7214 7.81394L14.7971 8.50825L14.2797 9.58633L13.4826 10.6318L13.2451 11.8651L13.4062 13.18Z" fill="#6D6B6D"/>
<path d="M15.0515 9.55352C15.0515 9.55352 15.6536 8.12425 18.0537 7.42999C20.4536 6.7358 18.1725 6.93177 18.1725 6.93177L15.5687 7.89557L14.5681 8.85926L14.1271 9.62698L15.0515 9.55352ZM13.8473 12.9104C13.8473 12.9104 13.0076 10.2069 16.2133 9.82306L16.0946 9.35754L13.8897 9.85576L13.2451 11.865L13.4062 13.1799L13.8473 12.9104Z" fill="#DCD9D8"/>
<path d="M15.1311 16.4976L15.6568 16.0075C15.6568 16.0075 15.8943 16.032 15.9367 16.3015C15.9791 16.5711 16.0978 19.005 17.8195 20.3118C17.9806 20.4343 16.5389 20.1157 16.5389 20.1157L15.2582 18.1882L15.1311 16.4976ZM22.5008 15.7625C22.5008 15.7625 22.5941 14.5945 22.9248 14.6844C23.2556 14.7742 23.2556 15.0927 23.2556 15.0927C23.2556 15.0927 22.4584 15.5828 22.5008 15.7625ZM25.8253 11.4828C25.8253 11.4828 25.1637 11.6134 25.1044 12.177C25.045 12.7405 25.8253 12.2913 25.944 12.2505L25.8253 11.4828ZM20.9828 11.5236C20.9828 11.5236 20.1007 11.6379 20.1007 12.177C20.1007 12.716 21.1015 12.6751 21.3813 12.4465L20.9828 11.5236ZM15.5381 14.031C15.5381 14.031 14.0202 13.1407 13.8591 13.9902C13.6979 14.8395 13.3417 15.452 14.0964 16.3423L13.5791 16.1872L13.0958 14.9947L12.9346 13.8349L13.8591 12.9121L14.9021 12.9856L15.5043 13.4511L15.5382 14.031H15.5381ZM16.259 11.5971C16.259 11.5971 16.9374 8.19937 20.3807 7.54599C23.2131 7.00695 24.7058 7.66039 25.2655 8.28107C25.2655 8.28107 22.7383 5.38982 20.3382 6.27188C17.9382 7.16216 16.1742 8.77929 16.2165 9.81661C16.2844 11.597 16.2589 11.597 16.2589 11.597L16.259 11.5971ZM25.5453 8.66495C25.5453 8.66495 24.3836 8.62413 24.3411 9.6287C24.3411 9.6287 24.3411 9.78391 24.4175 9.93906C24.4175 9.93906 25.3418 8.93445 25.9016 9.47354" fill="#D5D5D5"/>
<path d="M20.4679 10.0439C20.4679 10.0439 20.2644 8.50852 18.9075 9.39869C18.0254 9.97861 18.1102 10.7871 18.2629 10.9424C18.4241 11.0976 18.3816 11.4079 18.5004 11.1956C18.6191 10.9832 18.5852 10.289 19.0262 10.0929C19.4587 9.89697 20.1881 9.68464 20.4679 10.0439Z" fill="#D4D4D4"/>
<path d="M16.7019 20.4659L12.9363 22.083C12.9363 22.083 14.4968 28.0616 13.6995 29.9155L13.1399 29.7196L13.0974 27.4408L12.0543 23.1285L11.6133 21.9359L15.5398 19.3877L16.7017 20.4658L16.7019 20.4659ZM17.0834 23.7737L17.6177 24.4026V26.7139H16.9817C16.9817 26.7139 16.9054 25.0968 16.9054 24.9008C16.9054 24.7048 16.9817 24.0106 16.9817 24.0106L17.0834 23.7737ZM17.1004 27.0652L15.294 27.1386L15.8114 27.4899L17.0919 27.686" fill="#424242"/>
<path d="M23.2608 26.6814L24.7448 26.6406L25.1095 30.1852L23.5915 30.3813L23.2607 26.6814" fill="#424242"/>
<path d="M23.6611 26.6821L25.9001 26.5678C25.9001 26.5678 26.8245 24.3299 26.8245 24.2156C26.8245 24.1012 27.6217 20.9731 27.6217 20.9731L25.8152 19.1599L25.4506 18.8496L24.4922 19.7725V23.358L23.6611 26.6821Z" fill="#424242"/>
<path d="M24.66 26.4132L23.2607 26.6828L23.4643 27.7609C23.9816 27.9896 24.8636 27.377 24.8636 27.377L24.66 26.4132ZM24.7024 19.6588L27.5096 21.6679L27.5859 20.745L25.4658 18.8584L24.7025 19.6588" fill="#5C5C5C"/>
<path d="M18.4883 34.2767L17.6572 31.0342L17.2417 28.6412L17.1738 26.8688L20.9307 26.6729H23.2629L23.051 30.7239L23.4156 33.852L23.3732 34.4319L20.3286 34.6606L18.4883 34.2767Z" fill="white"/>
<path d="M22.7419 26.6418C22.7419 26.6418 22.5384 30.6521 23.1405 33.5107C23.1405 33.5107 21.9363 34.2457 20.1807 34.4336L23.5476 34.3193L23.9462 34.0906L23.4628 27.7689L23.3355 26.4131" fill="#DCD9D8"/>
<path d="M25.1732 29.8817L26.7336 29.4569L29.6934 29.3018L30.1344 27.9868L29.3372 25.7081L28.4128 25.5938L27.1322 25.9776L25.9109 26.5576L25.2579 26.4431L24.749 26.6392" fill="white"/>
<path d="M25.1436 29.1066C25.1436 29.1066 26.1867 28.641 26.3478 28.6819L25.9068 26.5584L26.4242 26.3623C26.4242 26.3623 26.7889 28.3715 26.7889 28.6002C26.7889 28.6002 29.0277 28.7146 29.2312 28.7146C29.2312 28.7146 29.7147 27.8243 29.5959 26.9013L30.037 28.1346L30.0794 28.8289L29.4348 29.7518L28.714 29.907L27.5097 29.8662L27.1111 29.3679L25.7118 29.5639L25.2708 29.7192" fill="#DCD9D8"/>
<path d="M23.572 26.3707L22.69 24.2146L21.7656 22.9404C21.7656 22.9404 21.9692 22.4014 22.2491 22.4014H23.1735L24.0555 22.7117L23.9791 24.1411L23.572 26.3707Z" fill="white"/>
<path d="M23.7441 25.6356C23.7441 25.6356 22.6246 23.553 22.6246 23.2426C22.6246 23.2426 22.8281 22.777 23.1079 22.8914C23.3879 23.0058 23.9901 23.3161 23.9901 23.3161V22.581L22.6246 22.3115L21.7002 22.4259L23.2606 25.9869L23.5828 26.0277" fill="#DCD9D8"/>
<path d="M18.8436 20.5448L17.7326 20.4304L16.6895 20.1201V20.4713L17.1982 21.0104L18.8011 21.7046" fill="white"/>
<path d="M17.0566 20.6611C17.0566 20.6611 18.2947 21.1594 18.7018 21.045L18.7442 21.5106L17.6248 21.2819L16.9463 20.8163L17.0566 20.6611Z" fill="#DCD9D8"/>
<path d="M25.1699 22.5293C24.4914 22.513 23.8722 22.4313 23.338 22.2843C23.3719 22.0719 23.304 21.8678 23.3634 21.7126C23.5161 21.6063 23.762 21.6063 23.991 21.5819C23.796 21.492 23.5161 21.4512 23.2956 21.5084C23.2871 21.3614 23.2193 21.2715 23.1768 21.1572C23.5585 21.0265 24.4575 20.169 24.9663 20.4466C25.2122 20.5854 25.3141 21.3532 25.331 21.7371C25.3479 22.0474 25.297 22.3578 25.1699 22.5293Z" fill="#D33833"/>
<path d="M25.1699 22.5293C24.4914 22.513 23.8722 22.4313 23.338 22.2843C23.3719 22.0719 23.304 21.8678 23.3634 21.7126C23.5161 21.6063 23.762 21.6063 23.991 21.5819C23.796 21.492 23.5161 21.4512 23.2956 21.5084C23.2871 21.3614 23.2193 21.2715 23.1768 21.1572C23.5585 21.0265 24.4575 20.169 24.9663 20.4466C25.2122 20.5854 25.3141 21.3532 25.331 21.7371C25.3479 22.0474 25.297 22.3578 25.1699 22.5293Z" fill="black"/>
<path fill-rule="evenodd" clip-rule="evenodd" d="M23.2953 21.2027C23.2961 21.2046 23.297 21.2064 23.2978 21.2082C23.3001 21.2131 23.3024 21.2182 23.3049 21.2233C23.315 21.2449 23.3258 21.2681 23.3358 21.2917C23.3513 21.3282 23.3656 21.3678 23.3755 21.4123C23.599 21.3801 23.852 21.4253 24.0356 21.5099L24.3054 21.6342L24.0081 21.666C23.9616 21.6709 23.917 21.6747 23.8737 21.6784C23.8033 21.6845 23.7361 21.6902 23.6694 21.7001C23.5768 21.714 23.5011 21.7344 23.4436 21.7674C23.4288 21.8223 23.4295 21.8889 23.4343 21.9749C23.4348 21.9843 23.4354 21.9939 23.4359 22.0037C23.4398 22.0709 23.4442 22.1469 23.4385 22.226C23.9359 22.3557 24.507 22.43 25.1318 22.448C25.1739 22.3779 25.2067 22.2839 25.2282 22.1725C25.2532 22.042 25.2615 21.8934 25.2533 21.7436V21.7432V21.7428C25.245 21.5543 25.2158 21.2713 25.1588 21.0197C25.1302 20.8938 25.0954 20.7786 25.0541 20.6881C25.0116 20.5947 24.9684 20.5413 24.9313 20.5201C24.8318 20.4661 24.7066 20.4633 24.5564 20.5036C24.4059 20.544 24.2417 20.6246 24.0759 20.7214C23.9478 20.7961 23.8225 20.8781 23.7039 20.9556C23.6691 20.9784 23.6349 21.0008 23.6013 21.0225C23.4921 21.0932 23.3868 21.1591 23.2953 21.2027ZM25.1776 22.5316L25.1755 22.6139C24.4915 22.5973 23.865 22.515 23.3223 22.3657L23.2498 22.3457L23.2613 22.274C23.2751 22.1872 23.2703 22.1017 23.2651 22.0118C23.2646 22.0025 23.2641 21.993 23.2635 21.9835C23.2584 21.8886 23.2544 21.7821 23.291 21.6863L23.3 21.6627L23.3211 21.648C23.3751 21.6105 23.4369 21.585 23.5013 21.5669C23.44 21.5684 23.3804 21.5759 23.3256 21.5901L23.2239 21.6165L23.218 21.5153C23.2144 21.4538 23.1986 21.4038 23.1775 21.3538C23.1688 21.3332 23.1596 21.3135 23.1496 21.2922C23.147 21.2867 23.1445 21.2811 23.1418 21.2755C23.1291 21.2483 23.1159 21.2189 23.1041 21.1872L23.0752 21.1095L23.1559 21.0818C23.2393 21.0533 23.3578 20.9818 23.5059 20.8859C23.5381 20.8651 23.5713 20.8433 23.6056 20.8209C23.7246 20.743 23.855 20.6577 23.9873 20.5806C24.1575 20.4813 24.3375 20.3915 24.5105 20.3451C24.6835 20.2986 24.8613 20.2927 25.0162 20.3772L25.0167 20.3775L25.0173 20.3778C25.103 20.4262 25.1646 20.5207 25.2107 20.622C25.2582 20.7264 25.296 20.8533 25.3257 20.9846C25.3853 21.2474 25.4155 21.5399 25.4241 21.7354C25.4328 21.8958 25.4241 22.0574 25.3962 22.2025C25.3685 22.3465 25.3208 22.48 25.2472 22.5794L25.1776 22.5316Z" fill="#A8A8A8"/>
<path d="M21.9239 21.4624C21.9239 21.5115 21.9239 21.5604 21.9154 21.6094C21.7034 21.7401 21.3641 21.7401 21.1267 21.8545C21.466 21.8708 21.7373 21.9524 21.9748 22.0586C21.9662 22.1811 21.9662 22.3119 21.9578 22.4343C21.5677 22.6875 21.2116 23.0714 20.7536 23.3164C20.5331 23.4308 19.7783 23.7249 19.5493 23.6676C19.4221 23.6349 19.4051 23.4798 19.3543 23.3328C19.244 23.0225 18.9895 22.516 18.9641 22.0423C18.9386 21.4461 18.8709 20.4414 19.5408 20.564C20.0835 20.662 20.7111 20.8989 21.1267 21.1194C21.3896 21.2664 21.5338 21.4297 21.9239 21.4624Z" fill="#D33833"/>
<path d="M21.9239 21.4624C21.9239 21.5115 21.9239 21.5604 21.9154 21.6094C21.7034 21.7401 21.3641 21.7401 21.1267 21.8545C21.466 21.8708 21.7373 21.9524 21.9748 22.0586C21.9662 22.1811 21.9662 22.3119 21.9578 22.4343C21.5677 22.6875 21.2116 23.0714 20.7536 23.3164C20.5331 23.4308 19.7783 23.7249 19.5493 23.6676C19.4221 23.6349 19.4051 23.4798 19.3543 23.3328C19.244 23.0225 18.9895 22.516 18.9641 22.0423C18.9386 21.4461 18.8709 20.4414 19.5408 20.564C20.0835 20.662 20.7111 20.8989 21.1267 21.1194C21.3896 21.2664 21.5338 21.4297 21.9239 21.4624Z" fill="black"/>
<path fill-rule="evenodd" clip-rule="evenodd" d="M19.051 22.0368C19.0631 22.262 19.13 22.4983 19.2096 22.7203C19.2493 22.8309 19.2918 22.9368 19.3315 23.0353C19.3345 23.0427 19.3375 23.0502 19.3405 23.0575C19.3766 23.147 19.4105 23.2309 19.4366 23.3044L19.4367 23.3047L19.4368 23.3051C19.4476 23.3361 19.457 23.3679 19.4656 23.3968C19.4677 23.4041 19.4698 23.4111 19.4719 23.418C19.4826 23.4536 19.4923 23.4838 19.5035 23.5098C19.5259 23.5615 19.547 23.5797 19.5725 23.5863C19.6088 23.5953 19.6813 23.5919 19.7871 23.5707C19.8888 23.5503 20.0078 23.5166 20.1284 23.4768C20.37 23.3972 20.6088 23.297 20.714 23.2425C20.9351 23.1242 21.1331 22.9715 21.3276 22.8138C21.3595 22.7878 21.3915 22.7617 21.4234 22.7356C21.5726 22.6135 21.7221 22.4911 21.8765 22.3876C21.879 22.3406 21.8806 22.2925 21.8823 22.2433L21.8823 22.2422C21.8837 22.1981 21.8853 22.1532 21.8876 22.1086C21.6711 22.0175 21.4256 21.9495 21.1239 21.935L20.7987 21.9193L21.0899 21.7791C21.2097 21.7214 21.3515 21.6909 21.48 21.6632C21.4912 21.6608 21.5023 21.6585 21.5132 21.6561C21.6397 21.6286 21.7503 21.6018 21.8373 21.5572C21.8379 21.5496 21.8384 21.5418 21.8388 21.5339C21.5686 21.4964 21.4077 21.3924 21.2475 21.2888C21.1949 21.2548 21.1424 21.2209 21.086 21.1893C20.6773 20.9726 20.0587 20.7393 19.5265 20.6431L19.5263 20.6431C19.383 20.6169 19.2919 20.6513 19.2271 20.7152C19.1569 20.7845 19.1076 20.8984 19.077 21.0479C19.0198 21.3269 19.0355 21.6846 19.0484 21.977C19.0492 21.9973 19.0501 22.0172 19.051 22.0368ZM21.9254 21.4607H22.0108V21.4634C22.0108 21.5107 22.0109 21.5655 22.0012 21.6213L21.9949 21.6573L21.9629 21.677C21.8423 21.7514 21.6895 21.7865 21.5508 21.8166C21.5431 21.8183 21.5354 21.82 21.5278 21.8216C21.707 21.8603 21.8661 21.9169 22.0123 21.9822L22.0655 22.006L22.0615 22.0624C22.0574 22.122 22.0553 22.1839 22.0532 22.2474L22.0531 22.25C22.051 22.3122 22.0488 22.376 22.0446 22.438L22.0418 22.4784L22.0071 22.5009C21.8489 22.6035 21.6967 22.728 21.5363 22.8593C21.5038 22.8859 21.4709 22.9127 21.4377 22.9397C21.2421 23.0984 21.0333 23.2601 20.7966 23.3866L20.7961 23.3869L20.7956 23.3872C20.68 23.4472 20.4316 23.551 20.1837 23.6325C20.0595 23.6735 19.9331 23.7096 19.8219 23.7318C19.7152 23.7532 19.6076 23.7651 19.5293 23.7456L19.5291 23.7456L19.5288 23.7454C19.4271 23.7194 19.3762 23.6436 19.3457 23.573C19.3304 23.5377 19.3184 23.4995 19.3077 23.4637C19.3053 23.4558 19.303 23.448 19.3007 23.4403C19.2922 23.4119 19.2841 23.3847 19.2747 23.3574C19.2499 23.2873 19.2173 23.2067 19.1807 23.1162C19.1779 23.1092 19.1751 23.1021 19.1722 23.095C19.1324 22.9964 19.089 22.8879 19.0481 22.774C18.9666 22.5468 18.8936 22.2932 18.8802 22.0448L18.8802 22.0444V22.0439C18.8793 22.0231 18.8783 22.0017 18.8773 21.9797C18.8646 21.6922 18.8479 21.3154 18.9093 21.0159C18.9423 20.855 19.0001 20.7035 19.1048 20.6002C19.2148 20.4917 19.3664 20.4463 19.5581 20.4814C20.111 20.5813 20.747 20.8215 21.1694 21.0456L21.1702 21.0461L21.1711 21.0465C21.2428 21.0867 21.3038 21.1259 21.3608 21.1627C21.5276 21.2701 21.6609 21.3559 21.9328 21.3787L21.9254 21.4607Z" fill="#A8A8A8"/>
<path d="M22.3095 22.1715C22.25 21.8448 22.1822 21.7551 22.2077 21.4691C23.1151 20.8892 23.2762 22.4656 22.3093 22.1715" fill="#D33833"/>
<path d="M22.3095 22.1715C22.25 21.8448 22.1822 21.7551 22.2077 21.4691C23.1151 20.8892 23.2762 22.4656 22.3093 22.1715H22.3095Z" fill="black"/>
<path fill-rule="evenodd" clip-rule="evenodd" d="M22.2854 21.5176C22.2786 21.6296 22.2883 21.7072 22.3061 21.7898C22.3126 21.8204 22.321 21.8545 22.3304 21.8926C22.3454 21.9532 22.3629 22.024 22.3795 22.1078C22.5714 22.1546 22.6932 22.1122 22.7658 22.0459C22.8486 21.9703 22.8862 21.8468 22.872 21.7235C22.8578 21.6 22.794 21.4961 22.6996 21.4505C22.6141 21.4092 22.4786 21.4041 22.2854 21.5176ZM22.2914 22.1752L22.2209 22.1871C22.202 22.0835 22.1835 22.0091 22.1665 21.9409C22.1566 21.901 22.1472 21.8632 22.1386 21.823C22.116 21.717 22.1046 21.6151 22.1181 21.4634L22.1216 21.4238L22.156 21.4019C22.3979 21.2473 22.6116 21.2238 22.7763 21.3033C22.937 21.381 23.0233 21.5441 23.0419 21.7054C23.0605 21.867 23.0139 22.0463 22.8834 22.1654C22.7485 22.2884 22.5424 22.3314 22.2792 22.2514L22.2914 22.1752Z" fill="#A8A8A8"/>
<path d="M23.6155 22.4338C23.6155 22.4338 23.3357 22.0499 23.5392 21.9356C23.7428 21.8213 23.9378 21.9356 24.0565 21.7396C24.1753 21.5435 24.0565 21.4292 24.0989 21.2005C24.1413 20.9718 24.3363 20.931 24.5399 20.8902C24.7434 20.8493 25.3032 20.7758 25.3795 20.9637L25.1421 20.2694L24.6587 20.1143L23.1406 20.9637L23.0643 21.3884V22.2378L23.6155 22.4338ZM19.4091 23.7079C19.3582 23.1035 19.3074 22.5073 19.2564 21.9029C19.1717 21.0045 19.477 21.1596 20.291 21.1596C20.4183 21.1596 21.0543 21.2986 21.0967 21.3884C21.3173 21.8213 20.7321 21.7232 21.3511 22.0499C21.8685 22.3195 22.7929 21.8866 22.5809 21.274C22.4621 21.1352 21.9702 21.2332 21.7922 21.1433L20.8508 20.6778C20.4523 20.4817 19.5363 20.1877 19.1122 20.4654C18.0351 21.1678 19.1801 22.932 19.5617 23.6671" fill="#B4B4B4"/>
<path d="M20.4658 10.0418C19.3718 9.7968 18.8291 10.4829 18.4983 11.1934C18.2015 11.1281 18.3202 10.7361 18.3966 10.5401C18.5916 10.0255 19.3803 9.33122 20.0248 9.42926C20.2962 9.46196 20.6693 9.70699 20.4658 10.0418ZM25.7833 11.2342H25.8341C26.0801 11.7243 26.2921 12.2471 26.6059 12.6881C26.3939 13.1618 25.0285 13.5702 25.0454 12.7371C25.3422 12.6146 25.8511 12.7126 26.114 12.5492C25.9614 12.1491 25.7493 11.806 25.7833 11.2343V11.2342ZM21.0171 11.2507C21.2546 11.6672 21.3308 12.1001 21.6615 12.4105C21.8143 12.5492 22.1026 12.7208 21.9585 13.1128C21.9246 13.2027 21.6786 13.4069 21.5344 13.4477C21.0171 13.5947 19.8043 13.4804 20.2114 12.8514C20.6438 12.8678 21.2206 13.121 21.5429 12.8187C21.2969 12.4431 20.8559 11.6916 21.0171 11.2507ZM25.5882 15.4486C24.808 15.9306 23.9344 16.4615 22.6454 16.3389C22.374 16.1103 22.2638 15.5956 22.5351 15.2609C22.6708 15.4896 22.586 15.9143 22.9761 15.9796C23.7055 16.1021 24.5535 15.5467 25.0793 15.3589C25.4015 14.828 25.054 14.6402 24.7571 14.2971C24.155 13.6028 23.3578 12.7371 23.3832 11.6999C23.6292 11.5283 23.6461 11.9612 23.68 12.0347C23.9938 12.7371 24.7826 13.6437 25.3507 14.2481C25.4949 14.3951 25.7239 14.5421 25.7493 14.6402C25.8257 14.9178 25.5543 15.2608 25.5882 15.4487V15.4486ZM15.2586 14.9424C15.0127 14.8035 14.9534 14.2154 14.665 14.1991C14.2495 14.1746 14.3257 14.9669 14.3257 15.4324C14.0459 15.1874 13.995 14.4196 14.1986 14.0276C13.9611 13.9132 13.8593 14.1501 13.7236 14.2318C13.9017 13.0475 15.5301 13.6845 15.2587 14.9424H15.2586ZM26.0801 15.9469C25.7154 16.6167 25.198 17.3517 24.1295 17.3762C24.104 17.1639 24.0871 16.829 24.1295 16.6983C24.9522 16.6167 25.4609 16.2165 26.0801 15.9469ZM20.9577 16.3797C21.6362 16.7229 22.8913 16.7637 23.8242 16.7392C23.8751 16.9352 23.8751 17.1802 23.8751 17.4171C22.6793 17.4661 21.2715 17.1802 20.9577 16.3797ZM20.8305 17.0169C21.3054 18.1603 22.9252 18.0296 24.2906 17.997C24.2313 18.144 24.104 18.3236 23.9345 18.3808C23.4934 18.5523 22.2892 18.6831 21.6786 18.3726C21.2969 18.1767 21.0425 17.7274 20.8305 17.4661C20.7372 17.3435 20.2284 17.025 20.8305 17.0169Z" fill="#231F20"/>
<path d="M25.5314 23.3162C24.9801 24.231 24.4459 25.1702 23.793 25.9707C24.0643 25.1948 24.183 23.8879 24.2255 22.8916C24.8021 22.6301 25.294 22.9487 25.5314 23.3163" fill="#BBBBBB"/>
<path d="M28.504 26.5957C27.885 26.7182 27.4524 27.2981 26.8418 27.2573C27.181 26.808 27.7577 26.612 28.504 26.5957ZM28.7754 27.5268C28.2666 27.5758 27.6729 27.6575 27.1641 27.6167C27.41 27.2573 28.3429 27.3879 28.7754 27.5268ZM28.9535 28.3354C28.3853 28.3436 27.6813 28.3354 27.1386 28.2945C27.4609 27.9596 28.5888 28.172 28.9535 28.3354Z" fill="#231F20"/>
<path d="M24.4631 30.5457C24.5479 31.2318 24.8278 31.9261 24.7938 32.6774C24.48 32.7754 24.302 32.8653 23.8779 32.8653C23.8525 32.2282 23.7592 31.2482 23.7846 30.6356C23.9881 30.6519 24.2934 30.4967 24.4631 30.5457Z" fill="#DCD9D8"/>
<path d="M23.5416 20.4161C23.2532 20.5958 23.0157 20.8162 22.7359 21.0123C22.1253 21.045 21.7945 20.9715 21.3535 20.6366C21.362 20.6121 21.4044 20.6203 21.4044 20.5876C22.0574 20.8653 22.8885 20.4732 23.5416 20.416" fill="#F2F2F2"/>
<path d="M20.1328 24.6862C20.311 23.9429 21.0149 23.5509 21.6509 23.1426C22.3038 23.943 22.7025 24.9721 23.1435 25.9685C22.1003 25.6663 21.0403 25.1845 20.1328 24.6862Z" fill="#BBBBBB"/>
<path d="M23.7829 30.6414C23.7575 31.254 23.8423 32.2259 23.8762 32.8711C24.3003 32.8711 24.4783 32.7813 24.7922 32.6833C24.8261 31.9318 24.5462 31.2376 24.4614 30.5515C24.2917 30.4944 23.9864 30.6495 23.7829 30.6414ZM17.2358 27.1784C17.5157 29.6367 17.9143 31.6949 18.652 33.8757C20.2888 34.3575 22.2564 34.3984 23.7066 33.9655C23.4437 32.7405 23.554 31.2458 23.4013 29.9308C23.2825 28.9426 23.3419 27.9543 23.1808 26.9497C21.4252 26.5985 18.9489 26.868 17.2358 27.1784ZM23.5964 26.9661C23.5793 28.0197 23.6472 29.065 23.7321 30.1186C24.156 30.0615 24.4359 30.0207 24.8261 29.9308C24.6988 28.918 24.7159 27.7665 24.453 26.868C24.1561 26.8763 23.8931 26.868 23.5964 26.966V26.9661ZM25.725 26.7945C25.5215 26.7537 25.2925 26.7945 25.1059 26.7945C25.1992 27.6521 25.4112 28.5995 25.4876 29.5061C25.7844 29.5143 25.9455 29.3754 26.1915 29.3346C26.2084 28.5423 26.1236 27.4479 25.725 26.7945ZM28.9562 29.6367C29.5838 29.4898 29.9739 28.7547 29.7958 27.9951C29.677 27.4888 29.4736 26.525 29.2445 26.1982C29.0834 25.9614 28.6339 25.6428 28.2693 25.8634C27.6841 26.2228 26.6579 26.3289 26.2339 26.7618C26.4458 27.4479 26.5137 28.379 26.5985 29.2447C27.3279 29.2856 28.2183 29.0488 28.829 29.3019C28.4049 29.4327 27.8622 29.4327 27.4975 29.6286C27.8028 29.7675 28.4982 29.743 28.9562 29.6369V29.6367ZM23.1384 25.9696C22.6974 24.9732 22.2989 23.9441 21.6458 23.1437C21.0097 23.552 20.3143 23.9441 20.1277 24.6873C21.0437 25.1856 22.1038 25.6674 23.1384 25.9696ZM24.2239 22.8905C24.1815 23.8869 24.0628 25.1937 23.7914 25.9696C24.4444 25.161 24.9788 24.2299 25.53 23.3152C25.2925 22.9476 24.8006 22.6291 24.224 22.8904L24.2239 22.8905ZM22.9942 22.474C22.7482 22.4494 22.5363 22.7517 22.214 22.6209C22.1376 22.7026 22.0698 22.7843 21.9934 22.8659C22.7058 23.699 23.0366 24.8752 23.5879 25.8471C23.8848 24.9079 23.8508 23.8869 23.9186 22.8659C23.5116 22.8822 23.2826 22.4985 22.9942 22.4739V22.474ZM22.2055 21.4693C22.18 21.7552 22.2479 21.845 22.3072 22.1717C23.274 22.4658 23.1129 20.8894 22.2055 21.4693ZM21.1284 21.1263C20.7128 20.9057 20.0853 20.6689 19.5425 20.5709C18.8726 20.4484 18.9404 21.453 18.9658 22.0492C18.9913 22.5229 19.2458 23.0211 19.356 23.3397C19.4069 23.4867 19.4238 23.6418 19.5511 23.6745C19.78 23.7236 20.5433 23.4377 20.7553 23.3233C21.2133 23.0865 21.5694 22.7027 21.9596 22.4412C21.9681 22.3187 21.9681 22.188 21.9765 22.0656C21.7391 21.9511 21.4762 21.8777 21.1284 21.8614C21.3575 21.747 21.7052 21.747 21.9172 21.6164C21.9172 21.5673 21.9172 21.5184 21.9257 21.4693C21.5355 21.4284 21.3913 21.2652 21.1284 21.1263ZM17.1425 20.4321C16.7948 20.7751 18.1178 21.2325 18.5334 21.257C18.5334 21.0446 18.6606 20.8405 18.6351 20.6853C18.1347 20.6036 17.4818 20.6607 17.1425 20.4321ZM21.4169 20.5872C21.4169 20.6199 21.3744 20.6117 21.3659 20.6363C21.8154 20.9712 22.1461 21.0446 22.7482 21.012C23.0197 20.8241 23.2656 20.5954 23.554 20.4157C22.8924 20.4729 22.0614 20.8649 21.4168 20.5872H21.4169ZM25.3349 21.7307C25.318 21.3549 25.2161 20.5791 24.9702 20.4402C24.4614 20.1543 23.5624 21.0201 23.1808 21.1508C23.2232 21.2652 23.2911 21.3549 23.2995 21.502C23.5286 21.4449 23.7999 21.4857 23.9949 21.5755C23.7659 21.6 23.52 21.6 23.3674 21.7062C23.3164 21.8613 23.3843 22.0656 23.3419 22.2779C23.8762 22.4249 24.4953 22.4985 25.1738 22.5229C25.301 22.3596 25.3518 22.0492 25.3349 21.7307ZM16.5573 20.7588C16.4471 20.6853 15.7093 19.7623 15.6075 19.8031C14.276 20.3096 13.0294 21.1835 11.9184 22.0165C12.9784 24.2136 13.411 26.9007 13.4873 29.4898C14.7001 30.037 15.7686 30.8292 17.4223 30.9109C17.2273 29.6123 17.0577 28.4443 16.9475 27.2192C16.5319 27.0477 15.9382 27.2274 15.5482 27.1702C15.5482 26.721 16.1417 26.9742 16.1926 26.672C16.2266 26.4433 15.8619 26.427 15.9806 26.0676C16.2859 26.1738 16.447 26.4106 16.7694 26.5005C17.0662 25.8798 16.7694 24.7772 16.8117 24.2544C16.8203 24.1565 16.8626 23.7154 17.0916 23.7889C17.2952 23.8542 17.0831 24.9732 17.1001 25.4632C17.117 25.9206 17.0408 26.3535 17.2358 26.6393C18.8302 26.427 20.4501 26.2963 22.18 26.2473C21.7984 26.0921 21.349 25.9451 20.857 25.6755C20.5857 25.5285 19.7461 25.2264 19.6698 24.9813C19.5425 24.5893 19.992 24.3851 20.0684 24.0502C19.2627 24.475 19.11 23.6419 18.915 23.062C18.7453 22.5311 18.6436 22.1309 18.6012 21.8287C17.8973 21.4857 17.151 21.1671 16.5573 20.7588ZM24.631 19.9093C25.742 19.3948 25.9455 21.845 25.5045 22.6373C25.5723 22.8741 25.8013 22.964 25.8947 23.1763C25.2755 24.2463 24.5887 25.2427 23.9525 26.2963C24.419 26.0104 25.0975 26.2473 25.6487 26.0349C25.8523 25.9614 25.9965 25.5122 26.1491 25.1529C26.573 24.1728 27.014 22.9312 27.2092 22.0003C27.2516 21.7879 27.3788 21.3223 27.3448 21.1344C27.294 20.7914 26.819 20.5383 26.573 20.334C26.1236 19.942 25.8437 19.6072 25.3688 19.2396C25.1907 19.5092 24.7837 19.6888 24.631 19.9094V19.9093ZM14.0216 10.4269C13.4958 10.9905 13.6061 12.0359 13.6654 12.7873C14.6238 12.2075 15.8874 12.8363 15.8789 13.8164C16.3368 13.8082 16.0485 13.2692 15.9637 12.918C15.6923 11.7827 16.4217 10.5576 15.9976 9.52037C15.175 9.58561 14.505 9.9042 14.0216 10.4269V10.4269ZM17.804 7.16812C16.6083 7.49478 15.0732 8.33602 14.5814 9.37328C14.9629 9.31617 15.2259 9.13643 15.5991 9.11191C15.7432 9.10379 15.9298 9.16913 16.0909 9.12831C16.4131 9.04667 16.693 8.34419 16.939 8.08287C17.1765 7.82968 17.4648 7.71534 17.6599 7.48666C17.7871 7.42944 17.9736 7.42944 17.9821 7.24976C17.9312 7.19254 17.8718 7.15183 17.804 7.16812ZM24.0373 7.47843C22.7907 6.80059 20.6875 6.29419 19.3645 6.93122C18.2958 7.44573 16.8542 8.29514 16.3623 9.36522C16.8202 10.4023 16.2266 11.3498 16.1842 12.4034C16.1673 12.9669 16.4556 13.4489 16.481 14.0615C16.3199 14.3147 15.8449 14.3391 15.5142 14.3228C15.404 13.7837 15.2089 13.1793 14.6322 13.114C13.8181 13.0242 13.2159 13.6775 13.182 14.3555C13.1396 15.1559 13.8181 16.479 14.7849 16.3892C15.158 16.3565 15.2513 15.9972 15.6584 15.9972C15.8789 16.4219 15.3192 16.5525 15.2598 16.8547C15.2428 16.9364 15.3022 17.2386 15.3446 17.3856C15.5227 18.0798 15.9128 18.9864 16.2944 19.5173C16.7863 20.1952 17.7447 20.2932 18.7793 20.3585C18.9658 19.9747 19.6443 20.0074 20.0853 20.1053C19.5511 19.9012 19.0592 19.4111 18.6521 18.9783C18.1856 18.48 17.7107 17.9492 17.6853 17.2958C18.5758 18.48 19.3051 19.5173 20.9165 20.0401C22.1376 20.4321 23.5624 19.8603 24.5038 19.2233C24.8939 18.9619 25.1229 18.5372 25.4028 18.1614C26.4374 16.7241 26.9208 14.6821 26.819 12.6975C26.7766 11.8807 26.7766 11.064 26.4882 10.5168C26.1915 9.94502 25.1823 9.42233 24.5886 9.94502C24.4783 9.38151 25.0805 9.03845 25.7843 9.24265C25.2841 8.61374 24.7583 7.87049 24.0373 7.47843ZM26.3611 25.9451C27.3364 25.4796 29.1512 24.6955 29.7534 25.9451C29.9825 26.4106 30.2452 27.1866 30.3555 27.6684C30.5166 28.3382 30.1774 29.7593 29.4565 29.9798C28.8205 30.1758 28.0827 30.1677 27.3195 30.0207C27.2261 29.9472 27.1329 29.8246 27.0565 29.6939C26.5138 29.6776 25.9965 29.7185 25.5723 29.939C25.6147 30.331 25.3434 30.3882 25.0805 30.4699C24.8939 31.1968 25.4621 32.1442 25.3265 32.7976C25.2331 33.2713 24.631 33.3448 24.19 33.4264C24.173 33.6879 24.207 33.9084 24.2409 34.1289C24.1392 34.4883 23.6896 34.6924 23.2571 34.7415C21.8409 34.9048 19.6953 34.9783 18.3383 34.5046C17.9566 33.6062 17.6599 32.5199 17.3461 31.499C16.0231 31.6378 14.946 30.9517 13.9368 30.4944C13.5891 30.3392 13.1057 30.2494 12.97 29.9799C12.8428 29.7185 12.8937 29.2203 12.8597 28.7547C12.7834 27.5541 12.707 26.3943 12.3848 25.1691C12.2406 24.6138 11.9777 24.1319 11.7996 23.6011C11.63 23.111 11.3417 22.4985 11.2653 22.0084C11.1551 21.2815 11.8675 21.2406 12.317 20.9221C13.0209 20.4321 13.5721 20.1625 14.3354 19.7215C14.5644 19.5908 15.2428 19.2641 15.3191 19.1089C15.4718 18.8068 15.0563 18.3821 14.946 18.1451C14.7679 17.7695 14.6746 17.451 14.6492 17.0834C14.0132 16.9854 13.5212 16.6178 13.233 16.2095C12.7495 15.5234 12.4102 14.2575 12.8343 13.3019C12.8683 13.2284 13.0294 13.0732 13.0548 12.9588C13.1057 12.7302 12.9615 12.4279 12.953 12.1829C12.9106 10.9332 13.1736 9.8551 14.0471 9.47944C14.4032 8.11552 15.6753 7.66634 16.8712 6.98844C17.3207 6.73524 17.8125 6.57191 18.3214 6.39212C20.1446 5.74698 22.9518 5.86946 24.4699 6.97204C25.1144 7.43761 26.1405 8.42583 26.5053 9.14461C27.4804 11.0313 27.4042 14.1921 26.7258 16.4954C26.6324 16.8057 26.5053 17.2549 26.3187 17.6306C26.1915 17.892 25.7929 18.4065 25.8352 18.6352C25.8862 18.872 26.7512 19.501 26.9378 19.6725C27.2686 19.9828 27.9046 20.3912 27.9554 20.7833C28.0148 21.1998 27.7689 21.7715 27.6417 22.1717C27.2346 23.5112 26.8276 24.7445 26.3611 25.9451Z" fill="#231F20"/>
<path d="M19.8744 16.6696C19.9252 16.6043 20.2135 16.4982 20.6206 16.686C20.6206 16.686 20.1372 16.7595 20.1796 17.5355L19.9761 17.4945C19.9846 17.5028 19.7726 16.8003 19.8744 16.6696Z" fill="#D5D5D5"/>
<path d="M23.3844 23.2983C23.3844 23.4127 23.2827 23.5106 23.1639 23.5106C23.0452 23.5106 22.9434 23.4127 22.9434 23.2983C22.9434 23.1839 23.0452 23.0859 23.1639 23.0859C23.2912 23.0859 23.3844 23.1839 23.3844 23.2983ZM23.6049 24.2865C23.6049 24.401 23.5032 24.4989 23.3844 24.4989C23.2657 24.4989 23.1639 24.401 23.1639 24.2865C23.1639 24.1721 23.2657 24.0742 23.3844 24.0742C23.5117 24.0742 23.6049 24.1641 23.6049 24.2865Z" fill="#1D1919"/>
</svg>
