<svg width="40" height="40" viewBox="0 0 40 40" fill="none" xmlns="http://www.w3.org/2000/svg">
<rect width="40" height="40" rx="8" fill="#292929"/>
<path d="M20.1881 29.1411H9.27754C9.08824 29.1411 9.00219 29.0378 9.00219 28.8313V11.2436C8.98498 11.1231 9.07103 11.0199 9.19149 11.0027H12.6333C12.7194 10.9854 12.8226 11.0543 12.8226 11.1403V25.6476H20.7732C20.9453 25.6476 20.997 25.7337 20.9625 25.8885L20.4635 28.8829C20.4635 28.969 20.4118 29.0378 20.3602 29.0894C20.3086 29.1239 20.257 29.1411 20.1881 29.1411Z" fill="#E3E2E2"/>
<path d="M22.9426 15.3713H25.9542C26.1263 15.3713 26.264 15.4918 26.3156 15.6466C26.3844 15.7671 26.4361 15.9048 26.4533 16.0424C26.4877 16.2145 26.5221 16.4038 26.5393 16.5759C26.5565 16.7652 26.5737 16.9717 26.5737 17.1955C27.09 16.5931 27.7095 16.0941 28.4151 15.7155C29.2067 15.2852 30.0844 15.0787 30.9793 15.0959C31.0997 15.0787 31.203 15.1648 31.2202 15.2852V18.7099C31.2202 18.8475 31.1341 18.8992 30.9448 18.8992C29.8263 18.8303 28.7077 19.0368 27.6923 19.4843C27.3481 19.6392 27.0212 19.8457 26.763 20.121V28.8977C26.763 29.0698 26.6942 29.1386 26.5393 29.1386H23.1835C23.0459 29.1558 22.9254 29.0698 22.9082 28.9321V19.3294C22.9082 18.9164 22.9082 18.4861 22.891 18.0387C22.8738 17.5913 22.8738 17.1438 22.8566 16.6964C22.8393 16.3178 22.8049 15.9392 22.7533 15.5606C22.7361 15.4745 22.7877 15.3885 22.8738 15.3713C22.891 15.3541 22.9082 15.3541 22.9426 15.3713Z" fill="#E3E2E2"/>
</svg>
