<svg width="40" height="40" viewBox="0 0 40 40" fill="none" xmlns="http://www.w3.org/2000/svg">
<rect width="40" height="40" rx="8" fill="#292929"/>
<path d="M11.5944 31.4247C13.2257 31.4247 14.5482 30.1511 14.5482 28.58C14.5482 27.0089 13.2257 25.7354 11.5944 25.7354C9.96307 25.7354 8.64062 27.0089 8.64062 28.58C8.64062 30.1511 9.96307 31.4247 11.5944 31.4247Z" fill="#E3E2E2"/>
<path d="M22.2533 30.6228C23.4072 30.6228 24.3426 29.722 24.3426 28.6107C24.3426 27.4995 23.4072 26.5986 22.2533 26.5986C21.0995 26.5986 20.1641 27.4995 20.1641 28.6107C20.1641 29.722 21.0995 30.6228 22.2533 30.6228Z" fill="#E3E2E2"/>
<path d="M31.0546 29.5282C31.5793 29.5282 32.0046 29.1185 32.0046 28.6132C32.0046 28.1079 31.5793 27.6982 31.0546 27.6982C30.5299 27.6982 30.1045 28.1079 30.1045 28.6132C30.1045 29.1185 30.5299 29.5282 31.0546 29.5282Z" fill="#E3E2E2"/>
<path d="M30.5497 21.1021C29.7212 21.1021 29.1043 20.482 29.1043 19.7101V13.7909C29.1043 11.7485 28.0912 10.1831 25.8173 10.1831C23.5435 10.1831 22.1612 11.8699 22.1612 13.8213V19.7101C22.1612 20.4776 21.6073 21.1021 20.7158 21.1021C19.8558 21.1021 19.2704 20.482 19.2704 19.7101V13.7909C19.2704 11.7485 18.1628 10.1831 15.8889 10.1831C13.552 10.1831 12.3273 11.8699 12.3273 13.8213V19.7101C12.3273 20.4776 11.7419 21.1021 10.8819 21.1021C10.0534 21.1021 9.43652 20.482 9.43652 19.7101V9.20738C9.43652 8.37913 9.99036 7.78939 10.8819 7.78939C11.8635 7.78939 12.3273 8.43984 12.3273 9.20738V10.1527C13.1558 8.58294 14.8443 7.66797 16.6589 7.66797C18.8697 7.66797 20.5312 8.73472 21.3597 10.3001C22.5574 8.52657 24.3089 7.66797 26.4882 7.66797C30.2075 7.66797 31.986 10.1224 31.986 13.5871V19.7101C31.995 20.482 31.4097 21.1021 30.5497 21.1021Z" fill="#E3E2E2"/>
</svg>
