<svg width="40" height="40" viewBox="0 0 40 40" fill="none" xmlns="http://www.w3.org/2000/svg">
<path d="M31.1111 0H8.88889C3.97969 0 0 3.97969 0 8.88889V31.1111C0 36.0203 3.97969 40 8.88889 40H31.1111C36.0203 40 40 36.0203 40 31.1111V8.88889C40 3.97969 36.0203 0 31.1111 0Z" fill="#292929"/>
<path d="M16.2658 24.1255C16.1336 24.1018 16.0818 24.0928 16.03 24.0832C14.3557 23.7733 13.2972 22.7646 12.7957 21.1788C12.483 20.1904 13.0511 19.4625 14.0925 19.4146C14.9451 19.3753 15.5287 19.8632 16.0448 20.4309C16.7101 21.1628 17.3199 21.9444 17.9734 22.6873C18.9141 23.7568 20.0226 24.4455 21.5393 24.2329C22.8992 24.0423 24.0843 23.499 25.1156 22.6047C25.2706 22.4703 25.4407 22.3532 25.6039 22.228C25.5696 22.1878 25.5354 22.1475 25.501 22.1073C24.6354 22.3749 23.7525 22.4648 22.8504 22.4197C21.4854 22.3513 20.1847 22.0676 19.0209 21.3215C17.9589 20.6406 17.1758 19.7283 16.8035 18.5097C16.5028 17.5253 17.1182 16.8366 18.1429 16.9789C18.548 17.0352 18.8891 17.2168 19.1952 17.4744C19.4444 17.684 19.6835 17.9061 19.9377 18.1093C21.1337 19.0661 22.8049 19.1193 24.323 18.0805C21.8272 18.0692 20.1291 16.7024 18.6377 14.9703C18.054 14.2923 17.4841 13.6023 16.8883 12.935C15.7355 11.6439 14.4567 10.5064 12.7055 10.1184C10.4687 9.62263 8.30914 9.94662 6.23633 10.8917C5.82301 11.0802 5.42609 11.2993 5 11.6523C5.21094 11.6523 5.32602 11.6549 5.44086 11.6519C6.48594 11.6251 7.2691 12.0875 7.83395 12.9385C8.24504 13.5579 8.43875 14.2584 8.58641 14.979C8.80555 16.0485 8.69211 17.1389 8.81867 18.2133C9.14398 20.9754 10.562 22.9028 13.2022 23.8898C14.1704 24.2518 15.1634 24.3723 16.2658 24.1255ZM9.59328 11.5258C9.17609 11.6306 8.8427 11.4629 8.4991 11.1168C9.0875 10.9708 9.60641 10.9143 10.164 10.8924C10.1184 11.2528 9.90488 11.4477 9.59328 11.5258ZM23.2641 27.6551C23.2278 27.3892 22.9996 27.2721 22.8202 27.133C22.0266 26.5181 21.0985 26.3004 20.1145 26.2823C19.5273 26.2716 18.9461 26.2279 18.3923 26.0229C18.1385 25.929 17.8545 25.8084 17.861 25.4818C17.8674 25.1505 18.157 25.0568 18.4205 24.9784C18.6363 24.9143 18.8589 24.8733 19.1046 24.8161C18.4807 24.4181 17.8712 24.3629 17.0591 24.688C15.7807 25.1997 14.5203 25.1391 13.2459 24.6809C12.5264 24.4224 11.8878 24.0165 11.223 23.6571L11.2048 23.6695C11.2135 23.6636 11.2227 23.6573 11.2221 23.6576C11.2057 23.6077 11.1759 23.6064 11.1377 23.6343C11.1552 23.6495 11.1725 23.6646 11.1898 23.6798C11.7412 24.5794 12.4861 25.3032 13.3275 25.9218C14.9479 27.113 16.7179 27.8233 18.789 27.5081C19.4579 27.4063 20.1318 27.3273 20.8065 27.2731C21.6523 27.2051 22.4582 27.4421 23.2641 27.6551ZM19.3596 14.7496C19.3148 14.7172 19.2718 14.6362 19.1804 14.72C19.9255 15.7234 20.8827 16.463 22.0352 16.9287C23.8953 17.6801 25.7832 17.8087 27.7141 17.1455C29.2132 16.6308 30.2912 17.1338 30.851 18.5828C30.932 16.9009 29.9381 15.6754 28.355 15.4352C27.4644 15.3001 26.6421 15.5942 25.8078 15.8351C23.4862 16.5053 21.3288 16.1744 19.3596 14.7496ZM30.9303 21.3095C31.2329 21.3348 31.5352 21.3621 31.8377 21.3885C31.1543 20.7908 30.3213 20.7434 29.4786 20.7911C28.1954 20.8637 27.2709 21.6005 26.4281 22.4807C25.6855 23.2565 25.0145 24.1269 23.9062 24.4386C23.9247 24.4717 23.9295 24.4883 23.9347 24.4883C24.0837 24.4905 24.2332 24.4975 24.3819 24.4908C25.9914 24.4182 27.5077 24.0802 28.7139 22.9173C29.0938 22.5511 29.4337 22.1442 29.8004 21.7641C30.1063 21.4472 30.4771 21.2715 30.9303 21.3095ZM27.1912 19.3236C25.99 19.4281 24.9466 19.9228 23.9666 20.5751C23.2122 21.0771 22.4055 21.3146 21.4989 21.1576C21.3395 21.1299 21.1788 21.1093 21.0187 21.0854C21.0168 21.1077 21.0151 21.1298 21.0132 21.1521C21.0709 21.1816 21.1265 21.2162 21.1865 21.2398C21.3376 21.2993 21.4864 21.371 21.6432 21.4081C23.3877 21.821 25.0576 21.6094 26.5632 20.6412C27.5122 20.0309 28.4946 19.9153 29.5593 20.0729C29.6669 20.0889 29.774 20.1084 29.8821 20.1184C29.9821 20.1279 30.0867 20.2269 30.2218 20.1197C29.291 19.4503 28.2883 19.2282 27.1912 19.3236ZM22.8982 15.2644C23.5283 15.2861 24.1556 15.204 24.8146 14.8142C24.6216 14.8312 24.5397 14.8309 24.4612 14.8465C23.5532 15.0266 22.7382 14.8295 22.0122 14.258C21.7459 14.0483 21.475 13.8441 21.2053 13.6387C20.1358 12.8243 18.9095 12.5519 17.568 12.575C17.5897 12.6407 17.591 12.6857 17.6143 12.7091C19.0739 14.1788 20.7631 15.1911 22.8982 15.2644ZM33.4617 22.8055C32.5584 21.9136 31.3462 21.7987 30.2245 22.5771C30.967 22.6103 31.5243 22.8461 31.9763 23.3121C32.1363 23.4769 32.3021 23.6387 32.4811 23.7825C33.1645 24.3313 34.3231 24.3576 35 23.8485C34.2049 23.5396 34.2049 23.5396 33.4617 22.8055ZM24.4655 29.6358C23.6717 28.1647 22.3375 27.8328 20.7963 27.9315C21.2519 28.0573 21.6774 28.2508 22.0679 28.5222C22.4266 28.7715 22.7285 29.0802 23.026 29.3964C23.6156 30.0227 24.5357 30.4072 25.1455 30.2772C24.8655 30.1015 24.6168 29.916 24.4655 29.6358ZM31.852 21.4188C31.8522 21.4095 31.8525 21.4 31.853 21.3902C31.853 21.3901 31.8519 21.3914 31.8507 21.3927L31.8533 21.3899C31.8481 21.3894 31.8429 21.3889 31.8377 21.3885C31.8407 21.3913 31.844 21.3935 31.8471 21.3963C31.8487 21.4038 31.8504 21.4113 31.852 21.4188ZM23.3082 27.6898C23.2978 27.6838 23.2873 27.678 23.2769 27.6721C23.2783 27.6788 23.28 27.6853 23.2835 27.6907C23.2856 27.6942 23.2996 27.6902 23.3082 27.6898ZM23.2769 27.6721C23.276 27.6674 23.2752 27.6625 23.2739 27.6577C23.2739 27.6577 23.2721 27.6599 23.2702 27.6621L23.2739 27.6578C23.2707 27.6569 23.2674 27.656 23.2641 27.6551C23.2647 27.6591 23.2661 27.6623 23.2666 27.6664C23.2701 27.6683 23.2735 27.6703 23.2769 27.6721Z" fill="#E3E2E2"/>
</svg>
