<svg width="40" height="40" viewBox="0 0 40 40" fill="none" xmlns="http://www.w3.org/2000/svg">
<rect width="40" height="40" rx="8" fill="#292929"/>
<path d="M9.01992 19.3162C9.01992 16.6691 9.01992 10.3946 9.01992 10.3946C9.01992 10.3946 13.9219 10.2966 15.9807 10.5907C19.7062 11.0809 21.5689 13.4338 21.4709 17.0613C21.3729 20.2966 19.118 22.4534 15.4905 22.7475C14.8042 22.8456 13.3336 22.7475 13.3336 22.7475H12.4513V28.5318H8.92188C9.01991 28.3358 9.01992 21.473 9.01992 19.3162Z" fill="#E3E2E2"/>
<path d="M32.1585 15.3911V18.4304C32.1585 18.4304 30.3938 17.646 28.9232 17.548C28.2369 17.548 27.0604 17.646 26.8644 18.3323C26.3742 19.7049 29.5114 20.3911 30.3938 20.7833C32.4526 21.7637 33.2369 23.0382 32.9428 24.999C32.7467 26.7637 31.2761 28.1362 29.2173 28.5284C27.5506 28.8225 25.884 28.7245 24.3154 28.2343C23.9232 28.1362 23.433 27.9402 23.335 27.8421V24.6068C24.0212 24.9009 24.7075 25.097 25.3938 25.2931C26.3742 25.4892 27.2565 25.6853 28.2369 25.4892C28.7271 25.3911 29.2173 25.2931 29.3154 24.7049C29.4134 24.1166 29.0212 23.8225 28.6291 23.6264C27.8448 23.2343 26.9624 22.9402 26.1781 22.45C24.0212 21.3715 23.0408 19.7049 23.531 17.7441C23.9232 15.8813 25.6879 14.6068 27.9428 14.5088C30.7859 14.5088 32.1585 15.3911 32.1585 15.3911Z" fill="#E3E2E2"/>
<path d="M12.6498 13.7236C12.6498 13.7236 13.5321 13.7236 14.3165 13.7236C15.0027 13.7236 15.689 13.7236 16.2772 14.0177C17.3557 14.5079 17.8459 15.2923 17.8459 16.5668C17.8459 17.8413 17.3557 18.6256 16.2772 19.1158C15.1988 19.606 12.5518 19.5079 12.5518 19.5079L12.6498 13.7236Z" fill="#292929"/>
</svg>
