<svg width="40" height="40" viewBox="0 0 40 40" fill="none" xmlns="http://www.w3.org/2000/svg">
<path d="M31.1111 0H8.88889C3.97969 0 0 3.97969 0 8.88889V31.1111C0 36.0203 3.97969 40 8.88889 40H31.1111C36.0203 40 40 36.0203 40 31.1111V8.88889C40 3.97969 36.0203 0 31.1111 0Z" fill="#292929"/>
<path d="M33.8413 23.9456C33.6735 23.4461 33.234 23.0982 32.6656 23.0147C32.3976 22.9754 32.0907 22.9922 31.7275 23.0658C31.0944 23.1942 30.6247 23.2431 30.2819 23.2525C31.5758 21.1053 32.6278 18.6567 33.2335 16.3518C34.2129 12.6249 33.6895 10.927 33.0779 10.159C31.4594 8.12629 29.0981 7.03428 26.2494 7.0008C24.7297 6.98259 23.3956 7.2775 22.6997 7.48957C22.0517 7.37721 21.355 7.31442 20.624 7.30281C19.2536 7.28137 18.0429 7.57501 17.0083 8.17846C16.4355 7.98812 15.5162 7.71972 14.4547 7.54843C11.9579 7.14559 9.94559 7.45948 8.47364 8.4816C6.69131 9.71903 5.86508 11.8692 6.0179 14.8721C6.06645 15.8255 6.60902 18.7263 7.46335 21.4775C7.95436 23.0588 8.47795 24.3719 9.01956 25.3807C9.78766 26.8113 10.6095 27.6538 11.5322 27.9563C12.0493 28.1256 12.9889 28.2442 13.9771 27.4352C14.1024 27.5844 14.2695 27.7325 14.4913 27.8702C14.7729 28.0448 15.1174 28.1874 15.4614 28.272C16.701 28.5766 17.8622 28.5004 18.8528 28.0734C18.8589 28.2466 18.8636 28.4121 18.8675 28.555C18.8741 28.7867 18.8807 29.014 18.8893 29.2265C18.948 30.6634 19.0475 31.7807 19.3421 32.5624C19.3583 32.6053 19.3801 32.6709 19.403 32.7404C19.5501 33.1828 19.7958 33.9236 20.4213 34.5036C21.069 35.1045 21.8523 35.2887 22.5698 35.2887C22.9297 35.2887 23.273 35.2423 23.5741 35.179C24.6475 34.9528 25.8666 34.6084 26.7485 33.3741C27.5823 32.2073 27.9876 30.4499 28.0609 27.6809C28.0705 27.6025 28.0791 27.5277 28.0876 27.4565L28.1051 27.3102L28.3015 27.3272L28.3521 27.3305C29.4454 27.3795 30.7822 27.1516 31.6032 26.7767C32.2519 26.4808 34.3308 25.4021 33.8413 23.9456Z" fill="black"/>
<path d="M31.97 24.2296C28.7193 24.8887 28.4958 23.8069 28.4958 23.8069C31.928 18.801 33.3628 12.4467 32.1247 10.8915C28.7467 6.64923 22.8994 8.65557 22.8018 8.70753L22.7705 8.71315C22.1282 8.58208 21.4095 8.50403 20.6016 8.49102C19.1307 8.4674 18.015 8.8701 17.1683 9.50119C17.1683 9.50119 6.7373 5.27728 7.22247 14.8135C7.32564 16.8422 10.1808 30.1637 13.586 26.14C14.8307 24.6686 16.0334 23.4245 16.0334 23.4245C16.6306 23.8146 17.3457 24.0135 18.0953 23.9421L18.1536 23.8936C18.1354 24.0762 18.1438 24.2548 18.1769 24.4664C17.2996 25.4298 17.5575 25.5989 15.8037 25.9538C14.0292 26.3133 15.0716 26.9532 15.7523 27.1206C16.5774 27.3233 18.4863 27.6106 19.7761 25.8358L19.7247 26.0383C20.0684 26.309 20.3098 27.7986 20.2693 29.1489C20.2289 30.4993 20.2019 31.4263 20.4726 32.1505C20.7436 32.8747 21.0135 34.504 23.319 34.0185C25.2453 33.6127 26.2435 32.5611 26.3825 30.8071C26.4809 29.5601 26.704 29.7445 26.718 28.6296L26.897 28.1019C27.1032 26.4115 26.9298 25.8661 28.1164 26.1198L28.4051 26.1447C29.2784 26.1837 30.4217 26.0066 31.0928 25.7001C32.5376 25.041 33.3945 23.9405 31.9698 24.2296H31.97Z" fill="#5C5C5C"/>
<path d="M17.7851 15.7197C17.4922 15.6797 17.2269 15.7167 17.0927 15.8166C17.0173 15.8728 16.9939 15.9379 16.9875 15.9827C16.9707 16.1015 17.0553 16.2328 17.1073 16.3005C17.2545 16.4921 17.4694 16.6239 17.682 16.6528C17.7129 16.6571 17.7436 16.6591 17.7741 16.6591C18.1288 16.6591 18.4513 16.3876 18.4798 16.1872C18.5153 15.9362 18.1447 15.769 17.7851 15.7198V15.7197ZM27.4897 15.7277C27.4618 15.5309 27.1056 15.4749 26.7676 15.5211C26.4301 15.5673 26.1028 15.7171 26.1301 15.9142C26.152 16.0675 26.4337 16.3292 26.7671 16.3292C26.7953 16.3292 26.8237 16.3274 26.8523 16.3234C27.0749 16.2932 27.2382 16.1542 27.3158 16.0742C27.4339 15.9521 27.5023 15.8161 27.4897 15.7277Z" fill="white"/>
<path d="M33.0517 24.1545C32.9278 23.7861 32.5288 23.6676 31.866 23.8021C29.898 24.2013 29.1932 23.9248 28.9617 23.7573C30.4915 21.4667 31.7499 18.6978 32.4288 16.1143C32.7504 14.8906 32.928 13.7541 32.9426 12.8277C32.9586 11.811 32.7824 11.0639 32.4191 10.6075C30.9542 8.76759 28.8042 7.78063 26.2015 7.75356C24.4123 7.7338 22.9007 8.18383 22.6076 8.3104C21.9905 8.15957 21.3176 8.06696 20.5852 8.05515C19.2421 8.03377 18.081 8.34984 17.1198 8.99415C16.7022 8.84136 15.6232 8.47726 14.3035 8.26828C12.0221 7.90727 10.2092 8.18087 8.91543 9.08177C7.37171 10.1568 6.65902 12.0784 6.79709 14.7932C6.84353 15.7066 7.37302 18.5163 8.20851 21.2072C9.30839 24.7488 10.5039 26.7538 11.7619 27.1662C11.9091 27.2145 12.0788 27.2482 12.2661 27.2482C12.7249 27.2482 13.2876 27.0449 13.8728 26.3532C14.5868 25.5114 15.3253 24.69 16.0875 23.8901C16.582 24.1509 17.1252 24.2966 17.6808 24.3113C17.6819 24.3255 17.6833 24.3398 17.6846 24.354C17.5891 24.4661 17.4954 24.5799 17.4038 24.6951C17.0188 25.1755 16.9387 25.2755 15.6995 25.5262C15.347 25.5978 14.4107 25.7875 14.397 26.4326C14.3821 27.1373 15.5037 27.4334 15.6315 27.4647C16.0768 27.5743 16.5058 27.6284 16.9149 27.6284C17.91 27.6284 18.7856 27.3069 19.4854 26.6849C19.4638 29.1975 19.5704 31.6734 19.8774 32.4277C20.1288 33.0453 20.7428 34.5545 22.6826 34.5544C22.9672 34.5544 23.2805 34.5218 23.6251 34.4492C25.6495 34.0227 26.5287 33.1431 26.8688 31.2042C27.0507 30.1679 27.363 27.6935 27.5099 26.3661C27.8199 26.4612 28.219 26.5048 28.6505 26.5046C29.5502 26.5046 30.5885 26.3167 31.2397 26.0197C31.9711 25.6857 33.2911 24.8664 33.0517 24.1545ZM28.2307 15.1854C28.2241 15.5772 28.1692 15.933 28.111 16.3042C28.0484 16.7036 27.9837 17.1165 27.9674 17.6178C27.9513 18.1055 28.0133 18.6126 28.0732 19.1031C28.1943 20.0937 28.3186 21.1135 27.8375 22.1198C27.7577 21.9806 27.6865 21.8367 27.6244 21.6891C27.5646 21.5466 27.4347 21.3177 27.255 21.001C26.5555 19.768 24.9176 16.8807 25.756 15.7025C26.0058 15.3518 26.6397 14.9912 28.2307 15.1854ZM26.3021 8.54701C28.634 8.59764 30.4787 9.45508 31.7846 11.0955C32.7863 12.3537 31.6834 18.0789 28.4902 23.018C28.4581 22.9778 28.4258 22.9378 28.3934 22.898L28.3529 22.8483C29.1781 21.5089 29.0167 20.1836 28.8731 19.0086C28.8141 18.5265 28.7583 18.071 28.7725 17.6432C28.7871 17.1898 28.8482 16.8009 28.9072 16.4248C28.9797 15.9615 29.0534 15.4819 29.0331 14.9167C29.0483 14.8574 29.0545 14.7873 29.0465 14.7042C28.9945 14.1621 28.3649 12.5399 27.0817 11.0717C26.3797 10.2685 25.3561 9.36978 23.9584 8.76359C24.5596 8.64109 25.3817 8.5269 26.3021 8.54701ZM13.2535 25.847C12.6085 26.6092 12.1632 26.4631 12.0168 26.4151C11.0625 26.1023 9.95521 24.1198 8.97902 20.9761C8.13433 18.256 7.64069 15.5206 7.60155 14.7536C7.47823 12.3278 8.07651 10.6372 9.37972 9.72875C11.5007 8.25035 14.9877 9.13521 16.3889 9.58404C16.3689 9.60359 16.3478 9.62187 16.328 9.6417C14.0286 11.9242 14.0832 15.8238 14.0889 16.0622C14.0887 16.1542 14.0965 16.2844 14.1072 16.4635C14.1468 17.1194 14.2204 18.3402 14.0237 19.7226C13.8409 21.0072 14.2438 22.2646 15.1289 23.1724C15.2197 23.2654 15.3152 23.3539 15.4149 23.4376C15.021 23.8522 14.1648 24.7694 13.2535 25.847ZM15.7105 22.6246C14.9972 21.8929 14.6732 20.8752 14.8215 19.8322C15.0292 18.3718 14.9526 17.0999 14.9114 16.4167C14.9056 16.3211 14.9004 16.2372 14.8975 16.1711C15.2334 15.8784 16.79 15.0586 17.9001 15.3086C18.4067 15.4226 18.7153 15.7617 18.8437 16.3449C19.5078 19.3643 18.9315 20.6227 18.4685 21.634C18.3731 21.8424 18.2829 22.0393 18.206 22.243L18.1463 22.4005C17.9952 22.7987 17.8546 23.169 17.7675 23.5205C17.0092 23.5184 16.2715 23.1999 15.7105 22.6244V22.6246ZM15.8269 26.6965C15.6054 26.6422 15.4063 26.5477 15.2894 26.4694C15.3871 26.4243 15.5608 26.3628 15.862 26.3018C17.3198 26.0069 17.545 25.7987 18.0366 25.1851C18.1493 25.0443 18.2771 24.8849 18.4541 24.6906L18.4543 24.6904C18.7179 24.4003 18.8384 24.4495 19.057 24.5387C19.2342 24.6107 19.4068 24.829 19.4768 25.0693C19.5098 25.1827 19.547 25.398 19.4254 25.5656C18.3984 26.9791 16.9017 26.9609 15.8269 26.6965ZM23.4564 33.6749C21.6729 34.0506 21.0414 33.1561 20.6253 32.1336C20.3568 31.4735 20.2247 28.4968 20.3184 25.2095C20.3196 25.1657 20.3133 25.1235 20.301 25.0837C20.2901 25.0052 20.2734 24.9276 20.2511 24.8514C20.1119 24.3731 19.7725 23.973 19.3653 23.8072C19.2036 23.7413 18.9067 23.6204 18.5499 23.7101C18.626 23.402 18.7579 23.054 18.901 22.6772L18.9611 22.5187C19.0286 22.3401 19.1134 22.1549 19.203 21.959C19.6876 20.9009 20.3512 19.4516 19.631 16.1776C19.3612 14.9513 18.4603 14.3524 17.0946 14.4916C16.2759 14.5748 15.5269 14.8995 15.1533 15.0857C15.073 15.1257 14.9995 15.1643 14.9308 15.202C15.0351 13.9664 15.429 11.6573 16.9027 10.1963C17.8306 9.27661 19.0663 8.82237 20.5719 8.84684C23.5384 8.89459 25.4408 10.391 26.5144 11.6381C27.4395 12.7126 27.9405 13.795 28.1404 14.3788C26.6369 14.2285 25.6143 14.5203 25.096 15.2487C23.9683 16.8332 25.713 19.9086 26.5515 21.3867C26.7052 21.6575 26.8379 21.8916 26.8797 21.9911C27.1527 22.6415 27.5062 23.0758 27.7643 23.3927C27.8435 23.4899 27.9202 23.5841 27.9785 23.6664C27.5231 23.7954 26.7052 24.0935 26.7798 25.5838C26.7197 26.3317 26.2922 29.8327 26.075 31.0696C25.7883 32.7038 25.1765 33.3125 23.4564 33.6751V33.6749ZM30.9005 25.3015C30.4348 25.5139 29.6556 25.6733 28.9154 25.7075C28.0978 25.7451 27.6816 25.6175 27.5836 25.539C27.5377 24.6102 27.8894 24.5132 28.2615 24.4105C28.32 24.3944 28.3771 24.3786 28.4322 24.3597C28.4664 24.3871 28.5039 24.4143 28.545 24.4409C29.2021 24.8672 30.3742 24.9132 32.0289 24.5775L32.0471 24.574C31.8239 24.7791 31.442 25.0543 30.9005 25.3015Z" fill="white"/>
</svg>
