<svg width="40" height="40" viewBox="0 0 40 40" fill="none" xmlns="http://www.w3.org/2000/svg">
<rect width="40" height="40" rx="8" fill="#292929"/>
<path d="M7 29.7538V10.321C7 10.1889 7.05666 10.1133 7.18885 10.1133C7.5099 10.1133 7.81206 10.1133 8.24642 10.0944C8.69966 10.0755 9.17179 10.0755 9.68168 10.0567C10.1916 10.0378 10.7392 10.0378 11.3247 10.0189C11.9101 10 12.4767 10 13.0432 10C14.5918 10 15.876 10.1889 16.9336 10.5854C17.8778 10.9065 18.7465 11.4353 19.4642 12.134C20.0685 12.7383 20.5406 13.4749 20.8428 14.2869C21.1261 15.0801 21.2771 15.8921 21.2771 16.742C21.2771 18.3661 20.8994 19.7069 20.144 20.7645C19.3886 21.8221 18.3311 22.6152 17.1035 23.0685C15.8193 23.5406 14.403 23.7106 12.8544 23.7106C12.4011 23.7106 12.099 23.7106 11.9101 23.6917C11.7213 23.6728 11.4569 23.6728 11.0981 23.6728V29.7349C11.117 29.8671 11.0225 29.9804 10.8903 29.9993H7.22662C7.07554 29.9993 7 29.9238 7 29.7538ZM11.117 13.7581V20.1035C11.3813 20.1224 11.6268 20.1413 11.8535 20.1413H12.8544C13.5909 20.1413 14.3274 20.028 15.0262 19.8014C15.6305 19.6314 16.1593 19.2726 16.5747 18.8005C16.9713 18.3283 17.1602 17.6862 17.1602 16.8553C17.1791 16.2699 17.028 15.6844 16.7258 15.1745C16.4048 14.6835 15.9515 14.3058 15.4039 14.0981C14.7051 13.8148 13.9497 13.7015 13.1754 13.7204C12.6844 13.7204 12.2501 13.7204 11.8912 13.7392C11.5135 13.7204 11.2491 13.7392 11.117 13.7581Z" fill="#E3E2E2"/>
<path d="M23.9268 14.8537H27.2317C27.4206 14.8537 27.5717 14.9859 27.6283 15.1559C27.685 15.307 27.7227 15.458 27.7416 15.628C27.7794 15.8169 27.8172 16.0246 27.8361 16.2135C27.8549 16.4212 27.8738 16.6478 27.8738 16.8933C28.4404 16.2323 29.1202 15.6847 29.8945 15.2692C30.7632 14.7782 31.7642 14.5327 32.7651 14.5327C32.8973 14.5138 33.0106 14.6082 33.0295 14.7404V18.4985C33.0295 18.6496 32.935 18.7063 32.7273 18.7063C32.0474 18.6874 31.3487 18.7441 30.6877 18.8951C30.14 19.0084 29.6113 19.1784 29.1014 19.405C28.7425 19.575 28.4026 19.8016 28.1382 20.1038V29.7352C28.1382 29.924 28.0627 29.9996 27.8927 29.9996H24.1723C24.0213 30.0185 23.8891 29.924 23.8702 29.7729V19.2351C23.8702 18.7818 23.8702 18.3097 23.8513 17.8187C23.8324 17.3277 23.8324 16.8367 23.8135 16.3456C23.8135 15.9113 23.7758 15.4958 23.738 15.0615C23.7191 14.967 23.7758 14.8726 23.8702 14.8537C23.8702 14.8348 23.908 14.8348 23.9268 14.8537Z" fill="#E3E2E2"/>
</svg>
