<svg width="40" height="40" viewBox="0 0 40 40" fill="none" xmlns="http://www.w3.org/2000/svg">
<rect width="40" height="40" rx="8" fill="#292929"/>
<path d="M34.4667 19.6754C34.4667 18.0875 32.1051 16.5827 28.4844 15.6495C29.3199 12.5422 28.9486 10.07 27.3123 9.27849C26.9351 9.09283 26.4941 9.00487 26.0126 9.00487V10.0944C26.2794 10.0944 26.4941 10.1384 26.674 10.2214C27.4632 10.6025 27.8055 12.0536 27.5386 13.9199C27.4747 14.3792 27.3703 14.8629 27.2427 15.3564C26.1054 15.1218 24.8637 14.9411 23.5581 14.8238C22.7748 13.9199 21.9624 13.0991 21.1443 12.3809C23.0359 10.9006 24.8115 10.0895 26.0184 10.0895V9C24.4227 9 22.3338 9.95763 20.2217 11.6187C18.1096 9.96737 16.0208 9.01954 14.4251 9.01954V10.1091C15.6262 10.1091 17.4076 10.9152 19.2992 12.3858C18.4868 13.104 17.6745 13.9199 16.9027 14.8238C15.5914 14.9411 14.3497 15.1218 13.2124 15.3612C13.079 14.8727 12.9803 14.3987 12.9107 13.9444C12.638 12.078 12.9745 10.627 13.7579 10.241C13.9319 10.153 14.1582 10.1139 14.4251 10.1139V9.02441C13.9377 9.02441 13.4967 9.11237 13.1138 9.29803C11.4833 10.0895 11.1178 12.5568 11.9591 15.6544C8.35 16.5925 6 18.0924 6 19.6754C6 21.2633 8.36161 22.7681 11.9823 23.7012C11.1467 26.8086 11.5181 29.2808 13.1544 30.0723C13.5316 30.2579 13.9725 30.3459 14.4599 30.3459C16.0556 30.3459 18.1445 29.3883 20.2566 27.7271C22.3686 29.3785 24.4575 30.3263 26.0531 30.3263C26.5406 30.3263 26.9816 30.2384 27.3645 30.0527C28.995 29.2612 29.3605 26.7939 28.5192 23.6964C32.1167 22.7632 34.4667 21.2583 34.4667 19.6754ZM26.9119 16.4166C26.6972 17.0468 26.4303 17.6966 26.1286 18.3464C25.8907 17.9556 25.6412 17.5647 25.3685 17.1739C25.1016 16.783 24.8173 16.4019 24.5329 16.0306C25.3569 16.1332 26.1518 16.2602 26.9119 16.4166ZM24.2544 21.6199C23.8018 22.2795 23.3376 22.9048 22.856 23.4863C21.9915 23.5498 21.1153 23.584 20.2333 23.584C19.3572 23.584 18.481 23.5498 17.6223 23.4912C17.1406 22.9097 16.6706 22.2893 16.218 21.6346C15.7771 20.9945 15.3767 20.3447 15.0111 19.69C15.3709 19.0353 15.7771 18.3806 16.2122 17.7406C16.6648 17.081 17.129 16.4556 17.6107 15.8743C18.4752 15.8107 19.3514 15.7766 20.2333 15.7766C21.1095 15.7766 21.9857 15.8107 22.8444 15.8694C23.326 16.4508 23.796 17.0712 24.2486 17.726C24.6896 18.366 25.09 19.0158 25.4555 19.6705C25.09 20.3252 24.6896 20.9798 24.2544 21.6199ZM26.1286 20.9848C26.4419 21.6395 26.7088 22.2941 26.9293 22.9293C26.1692 23.0856 25.3685 23.2175 24.5387 23.3202C24.823 22.9439 25.1074 22.5579 25.3743 22.1622C25.6412 21.7714 25.8907 21.3756 26.1286 20.9848ZM20.2449 26.1979C19.7053 25.7288 19.1657 25.206 18.6319 24.6344C19.1541 24.654 19.6879 24.6686 20.2275 24.6686C20.773 24.6686 21.3126 24.6589 21.8406 24.6344C21.3184 25.206 20.7788 25.7288 20.2449 26.1979ZM15.9279 23.3202C15.104 23.2175 14.3091 23.0905 13.549 22.9342C13.7637 22.3039 14.0305 21.6541 14.3322 21.0043C14.5702 21.3952 14.8197 21.786 15.0924 22.1769C15.3651 22.5677 15.6436 22.9489 15.9279 23.3202ZM20.2159 13.1529C20.7555 13.6219 21.2952 14.1447 21.829 14.7163C21.3068 14.6968 20.773 14.6822 20.2333 14.6822C19.6879 14.6822 19.1483 14.6919 18.6203 14.7163C19.1425 14.1447 19.6821 13.6219 20.2159 13.1529ZM15.9221 16.0306C15.6378 16.4068 15.3535 16.7928 15.0866 17.1885C14.8197 17.5794 14.5702 17.9702 14.3322 18.3611C14.0189 17.7064 13.752 17.0517 13.5316 16.4166C14.2917 16.2651 15.0924 16.1332 15.9221 16.0306ZM10.671 22.1475C8.61687 21.4098 7.28812 20.4424 7.28812 19.6754C7.28812 18.9083 8.61687 17.936 10.671 17.2032C11.1699 17.0224 11.7154 16.8612 12.2782 16.7097C12.609 17.6674 13.0441 18.664 13.5837 19.6851C13.0499 20.7014 12.6206 21.6932 12.2956 22.6459C11.7212 22.4945 11.1758 22.3283 10.671 22.1475ZM13.7926 29.1293C13.0036 28.7482 12.6612 27.2971 12.9281 25.4308C12.9919 24.9716 13.0964 24.4879 13.224 23.9944C14.3613 24.2289 15.603 24.4096 16.9085 24.5269C17.6919 25.4308 18.5042 26.2516 19.3223 26.9698C17.4307 28.4502 15.6553 29.2612 14.4483 29.2612C14.1872 29.2563 13.9667 29.2123 13.7926 29.1293ZM27.556 25.4064C27.8287 27.2727 27.4922 28.7238 26.7088 29.1098C26.5348 29.1977 26.3085 29.2368 26.0415 29.2368C24.8404 29.2368 23.0591 28.4306 21.1676 26.96C21.9799 26.2418 22.7922 25.4259 23.5639 24.522C24.8753 24.4048 26.117 24.224 27.2542 23.9846C27.3877 24.4781 27.4921 24.952 27.556 25.4064ZM29.7899 22.1475C29.2909 22.3283 28.7455 22.4896 28.1827 22.641C27.8519 21.6834 27.4167 20.6867 26.8771 19.6656C27.4109 18.6494 27.8403 17.6576 28.1652 16.7049C28.7397 16.8563 29.2851 17.0224 29.7957 17.2032C31.8498 17.9409 33.1786 18.9083 33.1786 19.6754C33.1727 20.4424 31.844 21.4147 29.7899 22.1475Z" fill="#E3E2E2"/>
<path d="M20.2249 21.9081C21.6894 21.9081 22.8766 20.9084 22.8766 19.6753C22.8766 18.4421 21.6894 17.4424 20.2249 17.4424C18.7604 17.4424 17.5732 18.4421 17.5732 19.6753C17.5732 20.9084 18.7604 21.9081 20.2249 21.9081Z" fill="#E3E2E2"/>
</svg>
