<svg width="40" height="40" viewBox="0 0 40 40" fill="none" xmlns="http://www.w3.org/2000/svg">
<rect width="40" height="40" rx="8" fill="#292929"/>
<path d="M25.4819 22.685C26.4662 22.5831 27.213 21.7346 27.179 20.7162C27.1451 19.6979 26.2965 18.8832 25.2782 18.8832H25.2104C24.158 18.9172 23.3434 19.7997 23.3774 20.852C23.4114 21.3612 23.615 21.8024 23.9205 22.1079C22.7664 24.3823 21.0014 26.0455 18.3538 27.4372C16.5548 28.3877 14.688 28.7271 12.8212 28.4896C11.2937 28.2859 10.1057 27.607 9.35883 26.4867C8.27272 24.8235 8.17092 23.0244 9.08741 21.2254C9.73236 19.9355 10.7505 18.985 11.3955 18.5098C11.2597 18.0686 11.056 17.3218 10.9542 16.7787C6.03246 20.3429 6.54165 25.163 8.03516 27.4372C9.15524 29.1345 11.4295 30.1868 13.9413 30.1868C14.6201 30.1868 15.2989 30.1188 15.9778 29.9492C20.3226 29.1005 23.6151 26.5207 25.4819 22.685ZM31.4559 18.4759C28.8762 15.4549 25.0746 13.7916 20.7299 13.7916H20.1868C19.8813 13.1806 19.2364 12.7732 18.5236 12.7732H18.4556C17.4035 12.8072 16.5889 13.6897 16.6228 14.7421C16.6567 15.7604 17.5053 16.575 18.5236 16.575H18.5914C19.3382 16.5411 19.9831 16.0659 20.2546 15.4209H20.8656C23.4453 15.4209 25.8892 16.1676 28.0956 17.6273C29.7927 18.7475 31.0147 20.2071 31.6935 21.9722C32.2705 23.3978 32.2366 24.7895 31.6256 25.9777C30.6752 27.7767 29.0799 28.7611 26.9754 28.7611C25.6177 28.7611 24.3279 28.3537 23.6489 28.0482C23.2756 28.3877 22.5967 28.9307 22.1215 29.2703C23.5811 29.9491 25.0746 30.3225 26.5002 30.3225C29.7587 30.3225 32.1687 28.5234 33.0852 26.7244C34.0695 24.7556 34.0016 21.3612 31.4559 18.4759ZM14.2128 23.262C14.2467 24.2804 15.0953 25.0949 16.1136 25.0949H16.1815C17.2338 25.0611 18.0483 24.1784 18.0144 23.1262C17.9805 22.1078 17.1319 21.2932 16.1136 21.2932H16.0457C15.9778 21.2932 15.8759 21.2932 15.8082 21.3271C14.4165 19.0189 13.8395 16.5071 14.0432 13.7915C14.1788 11.7549 14.8577 9.98971 16.0457 8.53007C17.0301 7.27412 18.9309 6.66313 20.2208 6.62927C23.8187 6.56134 25.346 11.042 25.4479 12.8411C25.8892 12.9429 26.636 13.1805 27.1451 13.3503C26.7378 7.85135 23.3434 5 20.085 5C17.0301 5 14.2128 7.2064 13.0926 10.465C11.5313 14.8099 12.5495 18.985 14.4503 22.2777C14.2807 22.5152 14.1788 22.8886 14.2128 23.2621V23.262Z" fill="#E3E2E2"/>
</svg>
