<svg width="40" height="40" viewBox="0 0 40 40" fill="none" xmlns="http://www.w3.org/2000/svg">
<rect width="40" height="40" rx="8" fill="#292929"/>
<path d="M13.3458 10.1058L19.996 9.42871L26.6462 10.1058L31.7948 16.762L19.996 29.994L8.19727 16.762L13.3458 10.1058Z" fill="#FDB300"/>
<path d="M12.9744 16.7666L19.9941 29.9986L8.19531 16.7666H12.9744Z" fill="#8F8F8F"/>
<path d="M27.0139 16.7666L19.9942 29.9986L31.793 16.7666H27.0139Z" fill="#8F8F8F"/>
<path d="M12.9795 16.7666H27.0188L19.9992 29.9986L12.9795 16.7666Z" fill="#ADADAD"/>
<path d="M19.9992 9.42773L13.3489 10.1048L12.9795 16.761L19.9992 9.42773Z" fill="#E3E2E2"/>
<path d="M19.9891 9.42773L26.6393 10.1048L27.0088 16.761L19.9891 9.42773Z" fill="#E3E2E2"/>
<path d="M31.793 16.7616L26.6444 10.1055L27.0139 16.7616H31.793Z" fill="#D4D4D4"/>
<path d="M8.19531 16.7616L13.3438 10.1055L12.9744 16.7616H8.19531Z" fill="#D4D4D4"/>
<path d="M19.9992 9.42773L12.9795 16.761H27.0188L19.9992 9.42773Z" fill="white"/>
</svg>
