<svg width="40" height="40" viewBox="0 0 40 40" fill="none" xmlns="http://www.w3.org/2000/svg">
<rect width="40" height="40" rx="8" fill="#292929"/>
<path d="M30.7489 23.8844C30.7481 23.8833 30.7473 23.8826 30.7464 23.8815C30.7859 23.7478 30.8268 23.6149 30.8614 23.4778C32.3458 17.6029 28.723 10.6571 22.5926 7C25.279 10.6179 26.4669 15 25.4115 18.8322C25.3174 19.174 25.2042 19.502 25.0792 19.8209C24.9434 19.7323 24.7724 19.6317 24.5428 19.5059C24.5428 19.5059 18.4446 15.7655 11.8351 9.1497C11.6617 8.97605 15.3596 14.4001 19.5562 18.8047C17.579 17.7023 12.0689 13.7197 8.58057 10.5481C9.00914 11.2581 9.51888 11.9418 10.0792 12.6C12.9922 16.2699 16.7912 20.798 21.3425 24.275C18.1447 26.2191 13.6261 26.3703 9.12722 24.2771C8.01446 23.759 6.96836 23.134 6 22.4238C7.90438 25.4498 10.8374 28.0606 14.4072 29.5848C18.6643 31.4022 22.8976 31.2789 26.0506 29.6146L26.0481 29.6181C26.0625 29.6091 26.0808 29.5992 26.0958 29.5901C26.2252 29.5209 26.3537 29.4505 26.4794 29.3762C27.9943 28.595 30.9865 27.8025 32.5926 30.9068C32.9859 31.6666 33.8218 27.6404 30.7489 23.8844Z" fill="white"/>
</svg>
