<svg width="40" height="40" viewBox="0 0 40 40" fill="none" xmlns="http://www.w3.org/2000/svg">
<path d="M31.1111 0H8.88889C3.97969 0 0 3.97969 0 8.88889V31.1111C0 36.0203 3.97969 40 8.88889 40H31.1111C36.0203 40 40 36.0203 40 31.1111V8.88889C40 3.97969 36.0203 0 31.1111 0Z" fill="#292929"/>
<path d="M22.6479 20.3006L26.9528 12.8669L29.0331 20.3006L26.9528 27.7327L22.6479 20.3006ZM20.5496 21.5078L24.8553 28.9404L17.3567 27.0194L11.9394 21.5078H20.5496ZM24.8543 11.6588L20.5496 19.0925H11.9394L17.3567 13.5806L24.8543 11.6588ZM31 17.7709L28.3736 8L18.5708 10.6186L17.1197 13.1698L14.1751 13.1487L7 20.3013L14.1751 27.4523H14.1754L17.1187 27.4305L18.5719 29.9817L28.3736 32.5999L31 22.8308L29.5085 20.3006L31 17.7709Z" fill="#E3E2E2"/>
</svg>
