<svg width="40" height="40" viewBox="0 0 40 40" fill="none" xmlns="http://www.w3.org/2000/svg">
<path d="M31.1111 0H8.88889C3.97969 0 0 3.97969 0 8.88889V31.1111C0 36.0203 3.97969 40 8.88889 40H31.1111C36.0203 40 40 36.0203 40 31.1111V8.88889C40 3.97969 36.0203 0 31.1111 0Z" fill="#292929"/>
<path d="M22.0386 15.2244C21.4305 15.5172 21.167 16.0638 21.167 17.5474C21.167 17.5474 21.471 17.2546 21.9575 17.0789C22.3123 16.952 22.5656 16.7861 22.7481 16.6592C23.2751 16.2785 23.3562 15.8198 23.3562 15.0194C23.346 15.0194 22.515 14.9706 22.0386 15.2244Z" fill="#929292"/>
<path d="M18.3208 15.5654C17.7938 15.9851 17.662 16.7074 17.662 16.7074L15.9593 22.9933L14.5607 17.8494C14.4289 17.3028 14.1654 16.6293 13.7702 16.1608C13.2837 15.5654 12.2702 15.5264 12.1486 15.5264C12.0573 15.5264 11.054 15.5654 10.527 16.1608C10.1317 16.6293 9.86818 17.3028 9.73642 17.8494L8.41887 22.9933L6.71619 16.7074C6.71619 16.7074 6.58443 16.0339 6.05741 15.5654C5.22634 14.8431 4 15.0188 4 15.0188L7.24321 26.7804C7.24321 26.7804 8.29725 26.8682 8.82427 26.6145C9.52359 26.2728 9.87831 26.0288 10.2736 24.4183C10.6688 22.9835 11.7229 18.8059 11.804 18.5131C11.8445 18.3862 11.9357 18.0056 12.1992 18.0056C12.4627 18.0056 12.554 18.3472 12.5945 18.5131C12.6857 18.8059 13.7296 22.9835 14.1249 24.4183C14.5607 26.0191 14.8647 26.2728 15.5742 26.6145C16.1012 26.8682 17.1553 26.7804 17.1553 26.7804L20.3782 15.0188C20.3782 15.0188 19.1519 14.8529 18.3208 15.5654Z" fill="white"/>
<path d="M23.3483 16.9121C23.3483 16.9121 23.1254 17.2049 22.6896 17.4587C22.3855 17.6246 22.122 17.7125 21.818 17.8784C21.2909 18.1322 21.1592 18.386 21.1592 18.7666V18.8935V19.528V19.6549V26.7411C21.1592 26.7411 21.9903 26.8289 22.5173 26.5751C23.2166 26.2335 23.3483 25.9017 23.3483 24.4668V17.3806V16.9121Z" fill="white"/>
<path d="M31.4047 20.9235L35.5195 15.0573C35.5195 15.0573 33.8168 14.7645 32.9351 15.5258C32.3675 15.9943 31.7999 16.8728 31.7999 16.8728L30.3101 18.9811C30.2189 19.108 30.1378 19.1958 30.006 19.1958C29.8743 19.1958 29.7425 19.0689 29.702 18.9811L28.2121 16.8728C28.2121 16.8728 27.604 16.0334 27.077 15.5258C26.2054 14.7645 24.4926 15.0573 24.4926 15.0573L28.4756 20.9137L24.4014 26.7701C24.4014 26.7701 26.1953 26.9848 27.077 26.2235C27.6446 25.755 28.1716 24.9546 28.1716 24.9546L29.6614 22.8463C29.7527 22.7194 29.8337 22.6316 29.9655 22.6316C30.0973 22.6316 30.229 22.7585 30.2695 22.8463L31.7594 24.9546C31.7594 24.9546 32.327 25.755 32.854 26.2235C33.7256 26.9848 35.4789 26.7701 35.4789 26.7701L31.4047 20.9235Z" fill="white"/>
</svg>
