<svg width="40" height="40" viewBox="0 0 40 40" fill="none" xmlns="http://www.w3.org/2000/svg">
<rect width="40" height="40" rx="8" fill="#292929"/>
<path d="M12.5218 6C11.6306 6.0018 10.7581 6.48424 10.3095 7.22022L3.33126 18.7798C2.88958 19.5177 2.88958 20.4823 3.33126 21.2202L10.3095 32.7798C10.7582 33.5158 11.6306 33.9983 12.5218 34H26.4782C27.3694 33.9982 28.2418 33.5158 28.6906 32.7798L35.6688 21.2202C36.1104 20.4823 36.1104 19.5177 35.6688 18.7798L28.6906 7.22022C28.2418 6.48424 27.3694 6.00167 26.4782 6H12.5218ZM12.6485 12.7625C12.6677 12.7607 12.6878 12.7607 12.707 12.7625H15.1143C15.2208 12.7646 15.3242 12.8233 15.3774 12.9115L19.461 19.851C19.4816 19.8853 19.4948 19.9235 19.4998 19.9627C19.5049 19.9235 19.5181 19.8853 19.5387 19.851L23.6125 12.9115C23.6674 12.8206 23.7756 12.7616 23.8854 12.7625H26.2927C26.5058 12.7643 26.6655 13.0203 26.5656 13.2003L22.5795 20L26.5656 26.7904C26.6749 26.9714 26.5113 27.2393 26.2927 27.2375H23.8854C23.7737 27.2366 23.6649 27.1735 23.6125 27.0792L19.5387 20.1397C19.5181 20.1054 19.5049 20.0672 19.4998 20.0279C19.4948 20.0672 19.4816 20.1054 19.461 20.1397L15.3774 27.0792C15.3266 27.1708 15.2227 27.2334 15.1143 27.2375H12.707C12.4883 27.2393 12.3248 26.9714 12.4341 26.7904L16.4202 20L12.4341 13.2003C12.3386 13.0361 12.4552 12.7975 12.6485 12.7625Z" fill="#D7D5D4"/>
</svg>
