<svg width="86" height="86" viewBox="0 0 86 86" fill="none" xmlns="http://www.w3.org/2000/svg">
<rect x="0.328125" width="85.165" height="86" rx="8" fill="#121212"/>
<rect x="0.828125" y="0.5" width="84.165" height="85" rx="7.5" stroke="#F7F7F7" stroke-opacity="0.24"/>
<path d="M23.6221 45.4479H32.723C32.508 44.7232 32.2213 43.8612 31.8988 42.9639C31.5771 42.0315 31.2538 41.0314 30.9321 39.9961C30.573 38.9256 30.2505 37.8903 29.8922 36.8212C29.5346 35.7514 29.2121 34.7506 28.9247 33.7499C28.638 32.7836 28.3872 31.8856 28.1363 31.0574H28.0647C27.7422 32.542 27.348 34.0252 26.8463 35.5099C26.3088 37.1663 25.7721 38.8918 25.198 40.6173C24.7322 42.3773 24.1596 43.9992 23.6221 45.4479ZM34.873 52.3161H21.543L18.8197 60.4596C18.748 60.7709 18.4621 60.978 18.1396 60.9435H11.4022C11.008 60.9435 10.9005 60.7364 11.008 60.3223L22.5463 28.4699C22.6538 28.1248 22.7613 27.8142 22.9047 27.4001C23.048 26.6754 23.1197 25.9162 23.1197 25.157C23.0846 24.9844 23.2272 24.8119 23.4071 24.7773H32.6879C32.938 24.7773 33.1172 24.8809 33.153 25.0527L46.2322 60.4258C46.3397 60.8047 46.2322 60.978 45.8738 60.978H38.3847C38.1338 61.0118 37.883 60.84 37.8121 60.5984" fill="#9999FF"/>
<path d="M56.1218 44.1033H63.6826C64.6143 44.1033 65.2951 44.1033 65.7251 44.0695C66.0118 44.035 66.2992 43.966 66.5493 43.7934V43.4483C66.5493 42.9997 66.4769 42.5856 66.3343 42.1715C65.6893 40.2389 63.7901 38.9269 61.6767 38.9966C59.7051 38.8931 57.8418 39.8938 56.9101 41.6193C56.4801 42.413 56.2285 43.2413 56.1218 44.1033ZM67.4817 49.1424H56.1218C56.2651 50.2122 56.6234 51.282 57.2326 52.2138C57.8776 53.1456 58.7734 53.8703 59.8492 54.2844C61.2818 54.871 62.8584 55.1816 64.4351 55.1471C65.6893 55.1126 66.9434 55.0091 68.1618 54.7675C69.2726 54.6295 70.3476 54.3534 71.3509 53.9738C71.5301 53.8358 71.6376 53.9041 71.6376 54.2499V59.5298C71.6376 59.6679 71.6018 59.8059 71.5659 59.944C71.4943 60.0475 71.4226 60.1165 71.3151 60.1855C70.1684 60.6687 68.9859 61.0138 67.7318 61.2208C66.0476 61.5314 64.3634 61.6694 62.6434 61.6349C59.9201 61.6349 57.6268 61.2208 55.7634 60.4271C54.0069 59.7024 52.4668 58.5636 51.2484 57.148C50.1018 55.8028 49.2776 54.2844 48.7767 52.6279C48.2743 51.006 48.0234 49.315 48.0234 47.5888C48.0234 45.726 48.3101 43.8962 48.9193 42.1017C49.4926 40.377 50.3884 38.7895 51.6068 37.3746C52.7893 35.9942 54.2584 34.8899 55.9426 34.0962C57.6268 33.3025 59.6342 33.0257 61.9268 33.0257C63.8259 32.9919 65.7251 33.3363 67.4817 34.0962C68.9501 34.7174 70.2401 35.6492 71.2434 36.8563C72.1751 38.0303 72.9276 39.341 73.3934 40.7911C73.8593 42.1715 74.0743 43.5864 74.0743 45.0013C74.0743 45.8295 74.0384 46.5542 74.0026 47.2099C73.9317 47.8656 73.8951 48.3487 73.8593 48.6593C73.8234 48.9009 73.6084 49.1079 73.3576 49.1079C73.1426 49.1079 72.7484 49.1424 72.1751 49.1769C71.6018 49.246 70.9209 49.2805 70.0968 49.2805C69.2726 49.2805 68.4126 49.1424 67.4817 49.1424Z" fill="#9999FF"/>
</svg>
