<svg width="86" height="86" viewBox="0 0 86 86" fill="none" xmlns="http://www.w3.org/2000/svg">
<rect x="0.492188" width="85.165" height="86" rx="8" fill="#121212"/>
<rect x="0.992188" y="0.5" width="84.165" height="85" rx="7.5" stroke="#F7F7F7" stroke-opacity="0.24"/>
<path d="M66.0893 17H56.0639C53.639 17 51.6485 18.9171 51.6485 21.2524V33.7307H37.1353C34.7828 33.7307 32.8646 35.5781 32.8646 37.8785V51.8556H19.7991C17.4104 51.8556 15.4922 53.703 15.4922 56.0035V65.7631C15.4922 68.0635 17.4104 69.9109 19.7991 69.9806H66.1255C68.5503 69.9806 70.5409 68.0635 70.5409 65.7282V21.2524C70.5047 18.9171 68.5142 17 66.0893 17Z" fill="url(#paint0_linear_2_3)"/>
<path d="M66.0893 17H56.0639C53.639 17 51.6485 18.9171 51.6485 21.2524V33.7307H37.1353C34.7828 33.7307 32.8646 35.5781 32.8646 37.8785V51.8556H19.7991C17.4104 51.8556 15.4922 53.703 15.4922 56.0035V65.7631C15.4922 68.0635 17.4104 69.9109 19.7991 69.9806H66.1255C68.5503 69.9806 70.5409 68.0635 70.5409 65.7282V21.2524C70.5047 18.9171 68.5142 17 66.0893 17Z" fill="url(#paint1_linear_2_3)"/>
<path d="M66.0871 17H56.1342C53.7093 17 51.7188 18.9171 51.7188 21.2524V69.9806H66.0871C68.512 69.9806 70.5026 68.0635 70.5026 65.7282V21.2524C70.5026 18.9171 68.512 17 66.0871 17Z" fill="#F57C00"/>
<path d="M32.8646 37.9131V51.8553H19.8353C17.4466 51.8553 15.4922 53.7375 15.4922 56.038V65.7976C15.4922 68.098 17.4466 69.9802 19.8353 69.9802H51.6847V33.7305H37.2077C34.819 33.7305 32.8646 35.6127 32.8646 37.9131Z" fill="#FFC107"/>
<path d="M51.6875 33.7305V69.9803H66.056C68.4809 69.9803 70.4714 68.0633 70.4714 65.728V51.8554L51.6875 33.7305Z" fill="url(#paint2_linear_2_3)"/>
<path opacity="0.2" d="M37.2025 34.079H51.6795V33.7305H37.2025C34.8138 33.7305 32.8594 35.6127 32.8594 37.9132V38.2617C32.8594 35.9612 34.8138 34.079 37.2025 34.079Z" fill="white"/>
<path opacity="0.2" d="M19.8353 52.2079H32.8646V51.8594H19.8353C17.4466 51.8594 15.4922 53.7416 15.4922 56.0421V56.3906C15.4922 54.0901 17.4466 52.2079 19.8353 52.2079Z" fill="white"/>
<path opacity="0.2" d="M66.0872 17H56.1342C53.7093 17 51.7188 18.917 51.7188 21.2524V21.6009C51.7188 19.2656 53.7093 17.3486 56.1342 17.3486H66.0872C68.5121 17.3486 70.5027 19.2656 70.5027 21.6009V21.2524C70.5027 18.917 68.5121 17 66.0872 17Z" fill="white"/>
<path opacity="0.2" d="M66.0894 69.6313H19.8353C17.4466 69.6313 15.4922 67.7491 15.4922 65.4486V65.7972C15.4922 68.0977 17.4466 69.9799 19.8353 69.9799H66.0532C68.4781 69.9799 70.4687 68.0628 70.4687 65.7275V65.3789C70.5049 67.7143 68.5143 69.6313 66.0894 69.6313Z" fill="#BF360C"/>
<path d="M66.0893 17H56.1363C53.7115 17 51.7209 18.9171 51.7209 21.2524V33.7307H37.2439C34.8552 33.7307 32.9008 35.6129 32.9008 37.9134V51.8556H19.8353C17.4466 51.8556 15.4922 53.7379 15.4922 56.0383V65.7979C15.4922 68.0984 17.4466 69.9806 19.8353 69.9806H66.0893C68.5142 69.9806 70.5048 68.0635 70.5048 65.7282V21.2524C70.5048 18.9171 68.5142 17 66.0893 17Z" fill="url(#paint3_linear_2_3)"/>
<defs>
<linearGradient id="paint0_linear_2_3" x1="15.4922" y1="43.4903" x2="70.5409" y2="43.4903" gradientUnits="userSpaceOnUse">
<stop stop-color="white" stop-opacity="0.1"/>
<stop offset="1" stop-color="white" stop-opacity="0"/>
</linearGradient>
<linearGradient id="paint1_linear_2_3" x1="15.4922" y1="43.4903" x2="70.5409" y2="43.4903" gradientUnits="userSpaceOnUse">
<stop stop-color="white" stop-opacity="0.1"/>
<stop offset="1" stop-color="white" stop-opacity="0"/>
</linearGradient>
<linearGradient id="paint2_linear_2_3" x1="42.3679" y1="42.8801" x2="68.1811" y2="69.6834" gradientUnits="userSpaceOnUse">
<stop stop-color="#BF360C" stop-opacity="0.2"/>
<stop offset="1" stop-color="#BF360C" stop-opacity="0.02"/>
</linearGradient>
<linearGradient id="paint3_linear_2_3" x1="33.9391" y1="34.7872" x2="68.187" y2="70.3486" gradientUnits="userSpaceOnUse">
<stop stop-color="white" stop-opacity="0.1"/>
<stop offset="1" stop-color="white" stop-opacity="0"/>
</linearGradient>
</defs>
</svg>
