<svg width="86" height="86" viewBox="0 0 86 86" fill="none" xmlns="http://www.w3.org/2000/svg">
<rect width="85.165" height="86" rx="8" fill="#121212"/>
<rect x="0.5" y="0.5" width="84.165" height="85" rx="7.5" stroke="#F7F7F7" stroke-opacity="0.24"/>
<path d="M56.0232 50.3522C54.7331 50.3522 53.6837 49.3152 53.6837 48.0414C53.6837 46.7676 54.7331 45.7313 56.0232 45.7313C57.3134 45.7313 58.3628 46.7673 58.3628 48.0414C58.3628 49.3154 57.3134 50.3522 56.0232 50.3522ZM30.1632 50.3522C28.8732 50.3522 27.8238 49.3152 27.8238 48.0414C27.8238 46.7676 28.873 45.7313 30.1632 45.7313C31.4533 45.7313 32.5027 46.7673 32.5027 48.0414C32.5027 49.3154 31.4535 50.3522 30.1632 50.3522ZM56.8624 36.4366L61.5382 28.4403C61.667 28.2197 61.7018 27.9575 61.635 27.7115C61.5683 27.4656 61.4054 27.2558 61.1822 27.1282C60.9587 27.0012 60.6933 26.9669 60.4442 27.0328C60.1951 27.0987 59.9825 27.2594 59.8534 27.4798L55.1189 35.5771C51.4982 33.9458 47.4321 33.037 43.0932 33.037C38.7543 33.037 34.6882 33.9458 31.0677 35.5771L26.3331 27.4798C26.2039 27.2594 25.9913 27.0987 25.7422 27.0328C25.4931 26.9669 25.2277 27.0012 25.0042 27.1282C24.781 27.2556 24.6179 27.4654 24.5512 27.7115C24.4845 27.9575 24.5193 28.2197 24.6482 28.4403L29.3242 36.4366C21.2949 40.7484 15.8033 48.7746 15 58.257H71.1864C70.3824 48.7747 64.8909 40.7484 56.8624 36.4363" fill="#3DDB85"/>
</svg>
