<svg width="87" height="86" viewBox="0 0 87 86" fill="none" xmlns="http://www.w3.org/2000/svg">
<rect x="0.984375" width="85.165" height="86" rx="8" fill="#121212"/>
<rect x="1.48438" y="0.5" width="84.165" height="85" rx="7.5" stroke="#F7F7F7" stroke-opacity="0.24"/>
<mask id="mask0_2610_39557" style="mask-type:alpha" maskUnits="userSpaceOnUse" x="1" y="1" width="84" height="84">
<rect x="1.98438" y="1" width="83" height="84" rx="7" fill="#121212"/>
</mask>
<g mask="url(#mask0_2610_39557)">
<path d="M43.4488 17L18.9844 25.6097L22.8504 57.662L43.4747 68.9974L64.2055 57.5083L68.07 25.4572L43.4488 17Z" fill="#B3B3B3"/>
<path d="M65.6288 27.31L43.3906 19.7266V66.2896L62.0271 55.9753L65.6286 27.31H65.6288Z" fill="#A6120D"/>
<path d="M21.7344 27.4474L25.0473 56.1131L43.396 66.2904V19.7266L21.7346 27.4472L21.7344 27.4474Z" fill="#DD1B16"/>
<path d="M49.5129 44.5148L43.3914 47.3774H36.9395L33.9067 54.9634L28.2656 55.0676L43.3914 21.418L49.5129 44.515V44.5148ZM48.9211 43.0736L43.4322 32.207L38.9296 42.8866H43.3912L48.9211 43.0738V43.0736Z" fill="#F2F2F2"/>
<path d="M43.3906 21.418L43.4312 32.2072L48.5399 42.8951H43.4022L43.3906 47.3706L50.495 47.3774L53.8155 55.0689L59.2132 55.1689L43.3906 21.418V21.418Z" fill="#B3B3B3"/>
</g>
</svg>
