<svg width="86" height="86" viewBox="0 0 86 86" fill="none" xmlns="http://www.w3.org/2000/svg">
<rect x="0.164062" width="85.165" height="86" rx="8" fill="#121212"/>
<rect x="0.664062" y="0.5" width="84.165" height="85" rx="7.5" stroke="#F7F7F7" stroke-opacity="0.24"/>
<mask id="mask0_2610_39668" style="mask-type:alpha" maskUnits="userSpaceOnUse" x="1" y="1" width="84" height="84">
<rect x="1.16406" y="1" width="83" height="84" rx="7" fill="#121212"/>
</mask>
<g mask="url(#mask0_2610_39668)">
<path d="M27.7619 58.764L22.3281 59.958V26.0674L27.7619 27.2636V58.764Z" fill="#F68536"/>
<path d="M34.5452 60.7659L27.7656 62.6214V23.4534L34.5452 25.3066V60.7659V60.7659ZM43.2421 62.8211L34.5452 65.8863V20.1885L43.2421 23.2523V62.8211ZM66.496 58.8677L43.2421 70.0652V16L66.496 27.1975V58.8677Z" fill="#F68536"/>
<path d="M38.6062 18.2324L43.2415 16V70.0652L38.6062 67.8334V18.2324V18.2324ZM30.9564 21.9156L34.5447 20.1878V65.8774L30.9564 64.1496V21.9156ZM24.9067 24.8291L27.7651 23.4527V62.6124L24.9067 61.2352V24.8291ZM22.3313 26.0689L20 27.1915V58.8744L22.3313 59.9962V26.0689Z" fill="#9D5025"/>
</g>
</svg>
