<svg width="86" height="86" viewBox="0 0 86 86" fill="none" xmlns="http://www.w3.org/2000/svg">
<rect x="0.65625" width="85.165" height="86" rx="8" fill="#121212"/>
<rect x="1.15625" y="0.5" width="84.165" height="85" rx="7.5" stroke="#F7F7F7" stroke-opacity="0.24"/>
<path d="M34.1413 46.6387C34.3986 42.0509 36.6415 37.9972 40.0398 35.1329C43.3653 32.3172 47.8317 30.5938 52.735 30.5938C57.614 30.5938 62.0804 32.3147 65.4059 35.1329C68.8043 37.9972 71.0374 42.0509 71.3044 46.6387C71.5617 51.3478 69.6659 55.7413 66.3526 58.994C62.9542 62.2953 58.1481 64.3828 52.735 64.3828C47.322 64.3828 42.4915 62.3098 39.1174 58.994C35.7919 55.7413 33.8985 51.3721 34.1656 46.663L34.1413 46.6387Z" fill="white"/>
<path d="M44.3128 46.0773C44.4451 43.7198 45.5977 41.6366 47.344 40.1647C49.053 38.7177 51.3482 37.832 53.8679 37.832C56.3752 37.832 58.6704 38.7164 60.3794 40.1647C62.1258 41.6366 63.2734 43.7198 63.4106 46.0773C63.5428 48.4973 62.5686 50.7551 60.8659 52.4266C59.1195 54.1231 56.6497 55.1958 53.8679 55.1958C51.0862 55.1958 48.6039 54.1306 46.87 52.4266C45.1611 50.7551 44.1881 48.5098 44.3253 46.0898L44.3128 46.0773Z" fill="#2B103A"/>
<path d="M29.3432 51.0681C29.3594 51.9912 29.6538 53.7875 30.0954 55.1845C31.0235 58.1534 32.6027 60.8977 34.7857 63.3051C37.031 65.7875 39.8002 67.7833 42.9935 69.2054C46.3491 70.6898 49.9915 71.4507 53.7711 71.4507C57.5507 71.4457 61.1931 70.6723 64.5487 69.168C67.742 67.7334 70.5113 65.7376 72.7566 63.2428C74.952 60.8104 76.5237 58.0661 77.4468 55.0973C77.9146 53.6004 78.2102 52.0785 78.3287 50.5567C78.4447 49.0598 78.3961 47.5505 78.1828 46.0411C77.7662 43.1097 76.7483 40.353 75.189 37.8581C73.767 35.5505 71.9208 33.5421 69.7254 31.8457L69.7304 31.8419L47.6514 14.8773C47.6314 14.8623 47.6152 14.8461 47.594 14.8323C46.147 13.7196 43.7021 13.7234 42.1179 14.8386C40.5087 15.9662 40.3216 17.8323 41.7561 19.0049L41.7499 19.0111L50.9682 26.508L22.9016 26.538H22.8642C20.5441 26.5405 18.3112 28.0598 17.8746 29.9933C17.4206 31.9517 18.9973 33.5858 21.4172 33.5858L21.4135 33.5945L35.6339 33.5671L10.1869 53.0266C10.1544 53.0503 10.1195 53.0752 10.0896 53.0989C7.69457 54.9326 6.92117 57.9887 8.43053 59.9097C9.96484 61.8682 13.2206 61.8806 15.6405 59.9209L29.4867 48.5696C29.4867 48.5696 29.2846 50.1039 29.3008 51.0145L29.3432 51.0681ZM65.0189 56.1949C62.1624 59.1014 58.1582 60.7604 53.8422 60.7604C49.5137 60.7679 45.5096 59.1388 42.653 56.2324C41.2559 54.8104 40.2331 53.1887 39.5969 51.4548C38.9769 49.7459 38.7362 47.9372 38.8958 46.1159C39.0468 44.3322 39.5782 42.6232 40.4301 41.0889C41.2634 39.5796 42.4135 38.2074 43.8231 37.0473C46.6048 34.7895 50.1349 33.5546 53.8273 33.5546C57.532 33.5496 61.0622 34.7633 63.8439 37.0224C65.2534 38.175 66.401 39.5421 67.2368 41.0515C68.0888 42.5858 68.6214 44.2823 68.7711 46.0785C68.9283 47.8997 68.6876 49.7085 68.0676 51.4174C67.4339 53.1638 66.4085 54.7854 65.0114 56.2074L65.0189 56.1949Z" fill="#EA7600"/>
</svg>
