<svg width="86" height="86" viewBox="0 0 86 86" fill="none" xmlns="http://www.w3.org/2000/svg">
<rect x="0.328125" width="85.165" height="86" rx="8" fill="#121212"/>
<rect x="0.828125" y="0.5" width="84.165" height="85" rx="7.5" stroke="#F7F7F7" stroke-opacity="0.24"/>
<mask id="mask0_2610_39698" style="mask-type:alpha" maskUnits="userSpaceOnUse" x="1" y="1" width="84" height="84">
<rect x="1.32812" y="1" width="83" height="84" rx="7" fill="#121212"/>
</mask>
<g mask="url(#mask0_2610_39698)">
<path d="M68.9882 31.1989C68.9878 30.2724 68.7818 29.4538 68.365 28.7512C67.9556 28.0603 67.3425 27.4812 66.5201 27.0233C59.7318 23.2602 52.937 19.5086 46.1509 15.7416C44.3214 14.7262 42.5476 14.7632 40.7316 15.7932C38.0297 17.3252 24.502 24.7765 20.4709 27.0212C18.8108 27.9452 18.003 29.3592 18.0026 31.1971C18 38.765 18.0026 46.3327 18 53.9008C18 54.8069 18.1977 55.6096 18.5961 56.3017C19.0057 57.0135 19.6274 57.6085 20.4687 58.0767C24.5 60.3215 38.0295 67.7722 40.7308 69.3045C42.5476 70.3351 44.3214 70.372 46.1515 69.3561C52.9378 65.589 59.733 61.8375 66.5223 58.0744C67.3636 57.6064 67.9853 57.011 68.3949 56.2998C68.7927 55.6077 68.9908 54.805 68.9908 53.8987C68.9908 53.8987 68.9908 38.7669 68.9882 31.1989Z" fill="#A179DC"/>
<path d="M43.5769 42.4736L18.5996 56.3001C19.0092 57.0119 19.6309 57.6069 20.4722 58.0751C24.5035 60.3199 38.033 67.7706 40.7343 69.3029C42.551 70.3335 44.3249 70.3704 46.155 69.3545C52.9413 65.5874 59.7365 61.836 66.5258 58.0728C67.3671 57.6048 67.9888 57.0094 68.3984 56.2982L43.5769 42.4736Z" fill="#280068"/>
<path d="M68.992 31.1987C68.9916 30.2722 68.7855 29.4536 68.3687 28.751L43.5771 42.475L68.3986 56.2996C68.7964 55.6075 68.9942 54.8048 68.9946 53.8985C68.9946 53.8985 68.9946 38.7667 68.992 31.1987Z" fill="#390091"/>
<path d="M58.2792 37.3066V39.891H60.9674V37.3066H62.3114V39.891H64.9995V41.1832H62.3114V43.7676H64.9995V45.0598H62.3114V47.6442H60.9674V45.0598H58.2792V47.6442H56.9352V45.0598H54.2471V43.7676H56.9352V41.1832H54.2471V39.891H56.9352V37.3066H58.2792ZM60.9674 41.1832H58.2792V43.7676H60.9674V41.1832Z" fill="white"/>
<path d="M43.6292 24.3291C50.6407 24.3291 56.7623 27.9901 60.0412 33.4317L60.0092 33.3793L51.7598 37.946C50.1344 35.3002 47.1548 33.5148 43.7369 33.478L43.6292 33.4774C38.4169 33.4774 34.1912 37.5398 34.1912 42.551C34.1912 44.1898 34.6457 45.7259 35.436 47.0527C37.0628 49.7832 40.121 51.6248 43.6292 51.6248C47.1591 51.6248 50.2347 49.7598 51.8533 47.0001L51.814 47.0663L60.051 51.6541C56.8081 57.0496 50.7703 60.6993 43.8403 60.772L43.6292 60.7731C36.5956 60.7731 30.4566 57.0896 27.186 51.6192C25.5893 48.9487 24.6758 45.8526 24.6758 42.551C24.6758 32.4875 33.1613 24.3291 43.6292 24.3291Z" fill="white"/>
</g>
</svg>
