<svg width="86" height="86" viewBox="0 0 86 86" fill="none" xmlns="http://www.w3.org/2000/svg">
<rect width="85.165" height="86" rx="8" fill="#121212"/>
<rect x="0.5" y="0.5" width="84.165" height="85" rx="7.5" stroke="#F7F7F7" stroke-opacity="0.24"/>
<path d="M75.4869 38.3639C75.3141 38.224 73.759 37.0772 70.4185 37.0772C69.5546 37.0772 68.6619 37.1611 67.7979 37.3009C67.1644 33.0212 63.507 30.9514 63.363 30.8395L62.4703 30.3359L61.8944 31.1472C61.1744 32.238 60.6272 33.4688 60.3105 34.7275C59.7058 37.1611 60.0801 39.4548 61.3472 41.4128C59.8209 42.2519 57.3443 42.4478 56.826 42.4757H15.9332C14.8676 42.4757 14.0038 43.3148 14.0038 44.3499C13.9462 47.8183 14.5509 51.2868 15.7892 54.5595C17.2003 58.1399 19.3025 60.7972 22.0096 62.4196C25.0621 64.2378 30.0441 65.2727 35.6597 65.2727C38.1939 65.2727 40.7281 65.0489 43.2334 64.6014C46.718 63.986 50.0585 62.8112 53.1399 61.1049C55.6741 59.6783 57.9491 57.8602 59.8785 55.7344C63.1327 52.1819 65.0621 48.21 66.4732 44.6855H67.0491C70.5914 44.6855 72.78 43.3148 73.9895 42.1401C74.7958 41.4128 75.4005 40.5177 75.8325 39.5107L76.0917 38.7834L75.4869 38.3639Z" fill="#0091E2"/>
<path d="M19.724 41.3285H25.1955C25.4547 41.3285 25.6851 41.1327 25.6851 40.853V36.0978C25.6851 35.846 25.4835 35.6223 25.1955 35.6223H19.724C19.4648 35.6223 19.2344 35.818 19.2344 36.0978V40.853C19.2632 41.1327 19.4648 41.3285 19.724 41.3285ZM27.2689 41.3285H32.7405C32.9998 41.3285 33.2301 41.1327 33.2301 40.853V36.0978C33.2301 35.846 33.0285 35.6223 32.7405 35.6223H27.2689C27.0097 35.6223 26.7794 35.818 26.7794 36.0978V40.853C26.8082 41.1327 27.0097 41.3285 27.2689 41.3285ZM34.958 41.3285H40.4296C40.6887 41.3285 40.9191 41.1327 40.9191 40.853V36.0978C40.9191 35.846 40.7176 35.6223 40.4296 35.6223H34.958C34.6988 35.6223 34.4684 35.818 34.4684 36.0978V40.853C34.4684 41.1327 34.67 41.3285 34.958 41.3285ZM42.5318 41.3285H48.0033C48.2625 41.3285 48.4929 41.1327 48.4929 40.853V36.0978C48.4929 35.846 48.2913 35.6223 48.0033 35.6223H42.5318C42.2726 35.6223 42.0422 35.818 42.0422 36.0978V40.853C42.0422 41.1327 42.2726 41.3285 42.5318 41.3285ZM27.2689 34.5313H32.7405C32.9998 34.5313 33.2301 34.3076 33.2301 34.0558V29.3007C33.2301 29.0488 33.0285 28.8252 32.7405 28.8252H27.2689C27.0097 28.8252 26.7794 29.0209 26.7794 29.3007V34.0558C26.8082 34.3076 27.0097 34.5313 27.2689 34.5313ZM34.958 34.5313H40.4296C40.6887 34.5313 40.9191 34.3076 40.9191 34.0558V29.3007C40.9191 29.0488 40.7176 28.8252 40.4296 28.8252H34.958C34.6988 28.8252 34.4684 29.0209 34.4684 29.3007V34.0558C34.4684 34.3076 34.67 34.5313 34.958 34.5313ZM42.5318 34.5313H48.0033C48.2625 34.5313 48.4929 34.3076 48.4929 34.0558V29.3007C48.4929 29.0488 48.2625 28.8252 48.0033 28.8252H42.5318C42.2726 28.8252 42.0422 29.0209 42.0422 29.3007V34.0558C42.0422 34.3076 42.2726 34.5313 42.5318 34.5313ZM42.5318 27.7063H48.0033C48.2625 27.7063 48.4929 27.5105 48.4929 27.2307V22.4755C48.4929 22.2238 48.2625 22 48.0033 22H42.5318C42.2726 22 42.0422 22.1958 42.0422 22.4755V27.2307C42.0422 27.4825 42.2726 27.7063 42.5318 27.7063ZM50.1631 41.3285H55.6347C55.894 41.3285 56.1243 41.1327 56.1243 40.853V36.0978C56.1243 35.846 55.9227 35.6223 55.6347 35.6223H50.1631C49.904 35.6223 49.6737 35.818 49.6737 36.0978V40.853C49.7024 41.1327 49.904 41.3285 50.1631 41.3285Z" fill="#0091E2"/>
</svg>
