<svg width="86" height="86" viewBox="0 0 86 86" fill="none" xmlns="http://www.w3.org/2000/svg">
<rect x="0.820312" width="85.165" height="86" rx="8" fill="#121212"/>
<rect x="1.32031" y="0.5" width="84.165" height="85" rx="7.5" stroke="#F7F7F7" stroke-opacity="0.24"/>
<mask id="mask0_2610_39982" style="mask-type:alpha" maskUnits="userSpaceOnUse" x="1" y="1" width="84" height="84">
<rect x="1.82031" y="1" width="83" height="84" rx="7" fill="#121212"/>
</mask>
<g mask="url(#mask0_2610_39982)">
<path d="M42.4903 20.9805C42.6624 22.1854 42.6624 23.3904 42.9206 24.5093C43.5231 27.6938 45.0723 30.448 47.224 32.858C48.5151 34.3211 50.0643 35.6982 51.4414 37.1614C51.6136 37.3335 51.7857 37.5918 51.7857 37.7639C51.8718 40.7763 52.3882 43.7887 52.8185 46.8011C52.9046 47.4036 52.9907 48.0921 53.0767 48.6946C53.0767 48.8668 52.9907 49.125 52.8185 49.211C50.4947 50.5021 47.9126 51.2767 45.2445 51.4488C45.0723 51.4488 44.8141 51.3628 44.7281 51.2767C40.855 46.629 37.6704 41.637 36.0351 35.7843C35.5187 34.0629 35.6048 32.3416 36.2933 30.5341C37.154 28.4685 37.9286 26.4028 39.1336 24.5093C40.0803 23.1322 41.3714 22.1854 42.4903 20.9805Z" fill="#9B87D7"/>
<path d="M33.625 57.3867C34.0553 57.4728 34.3996 57.6449 34.6578 57.6449C36.7235 57.9031 38.7891 58.2474 40.8548 58.5056C41.3712 58.5917 41.8015 58.5917 42.3179 58.6778C42.5762 58.6778 42.7483 58.8499 42.9204 59.022C44.3836 60.4852 45.9328 61.8623 47.6542 62.9812C48.2567 63.4115 48.9452 63.7558 49.6338 64.1001C48.3428 65.4772 46.8796 66.424 44.8139 66.5961C39.3916 67.0264 35.8628 63.4976 34.3996 59.7966C34.1414 59.022 33.9693 58.2474 33.625 57.3867Z" fill="#9B87D7"/>
<path d="M43.855 51.6191C40.1541 51.3609 36.9695 50.1559 34.9899 46.8853C34.3875 45.9386 33.9571 44.9057 33.5268 43.7868C33.3546 43.3565 33.5268 42.6679 33.6129 42.1515C34.0432 39.8277 34.4735 37.5899 34.9039 35.266C34.9039 35.1799 34.9899 35.0939 34.9899 35.0078C36.5392 41.2908 39.8959 46.541 43.855 51.6191Z" fill="#9B87D7"/>
<path d="M32.0699 36.4727C31.8978 38.6244 31.8978 40.69 32.4142 42.5835C32.7585 43.8746 32.5863 45.0795 32.5003 46.2845C32.2421 49.5551 32.156 52.7397 32.6724 56.0963C31.7256 55.666 30.865 55.1496 30.0903 54.461C29.4018 53.7725 28.9714 52.9979 28.8854 51.965C28.5411 46.6288 29.5739 41.5507 31.7256 36.7309C31.8978 36.7309 31.9839 36.6448 32.0699 36.4727Z" fill="#9B87D7"/>
<path d="M55.8231 42.3242C57.8026 44.9063 59.438 47.5744 59.524 50.9311C59.524 52.05 59.438 53.1689 59.3519 54.2017C59.3519 54.4599 59.0937 54.7181 58.9215 54.8903C57.5444 55.9231 55.9091 56.5256 54.1017 57.042C54.1017 56.6116 54.1878 56.2674 54.1878 55.837C54.1017 53.9435 54.1017 52.05 54.0156 50.1565C54.0156 49.7261 54.1017 49.4679 54.446 49.2097C55.6509 48.5212 56.5116 47.4884 56.5977 46.0252C56.6838 44.9924 56.4255 43.9595 56.0813 42.9267C55.9952 42.7546 55.9091 42.5824 55.8231 42.3242Z" fill="#9B87D7"/>
<path d="M41.6303 57.8157C40.7696 57.7296 39.9089 57.6435 39.0483 57.5574C37.4129 57.2992 35.7776 56.955 34.1423 56.6968C33.6259 56.6107 33.3677 56.3525 33.3677 55.75C33.2817 54.1147 33.1095 52.4794 33.0234 50.8441C33.0234 49.2948 33.1095 47.7456 33.1956 46.2824C33.1956 46.1103 33.2816 45.9382 33.2816 45.5078C35.6916 49.8973 38.3597 54.0286 41.6303 57.8157Z" fill="#9B87D7"/>
<path d="M36.8906 50.0742C39.1284 51.6235 41.6244 52.3981 44.2925 52.312C44.4647 52.312 44.6368 52.3981 44.7229 52.4841C46.5303 54.2055 48.3378 56.013 50.1452 57.7343C49.3706 57.8204 48.596 57.9065 47.7353 57.9065C46.2721 57.9065 44.809 57.9065 43.3458 57.9065C43.1736 57.9065 42.8294 57.8204 42.7433 57.6483C40.5055 55.4105 38.5259 52.8284 36.8906 50.0742Z" fill="#9B87D7"/>
<path d="M53.16 49.8984C53.4182 51.792 53.5043 53.5994 53.4182 55.4068C53.4182 55.4929 53.4182 55.579 53.4182 55.665C53.2461 57.3004 53.2461 57.3004 51.6108 57.4725C51.5247 57.4725 51.3526 57.4725 51.2665 57.3864C49.1148 56.0093 47.3934 54.2019 45.5859 52.2223C48.2541 52.0502 50.7501 51.1895 53.16 49.8984Z" fill="#9B87D7"/>
<path d="M43.7812 58.7622C45.8469 58.6761 47.9126 58.5901 49.8921 58.504H49.9782C51.3553 58.3319 51.3553 58.3319 52.7324 59.1926C52.4742 60.2254 52.0439 61.1721 51.3553 62.0328C50.0643 63.7542 50.6668 63.6681 48.6872 62.7214C46.7937 61.6886 45.2444 60.3115 43.7812 58.7622Z" fill="#9B87D7"/>
<path d="M51.3558 35.9556C47.827 32.771 44.7285 29.3283 43.7818 24.5084C43.5236 23.3034 43.5236 22.0124 43.4375 20.7214C43.4375 20.5492 43.4375 20.3771 43.6096 20.291C44.2121 19.8607 44.8146 19.5164 45.5892 19C45.1589 25.5412 47.1385 31.1357 51.3558 35.9556Z" fill="#9B87D7"/>
<path d="M52.6488 38.7109C54.112 40.7766 55.6612 42.7562 55.8334 45.3382C56.0055 46.8014 55.1448 48.0924 53.7677 48.6089C53.3374 45.3382 52.907 42.0676 52.3906 38.7109C52.4767 38.797 52.5628 38.797 52.6488 38.7109Z" fill="#9B87D7"/>
<path d="M36.886 64.6159C34.0458 63.5831 29.9145 58.0746 29.6562 55.2344C30.5169 55.7508 31.2916 56.2672 32.2383 56.6975C32.7547 56.9558 33.0129 57.214 33.099 57.7304C33.7015 60.3985 34.8204 62.6363 36.886 64.6159Z" fill="#9B87D7"/>
<path d="M36.9753 27.2656C35.0818 31.8273 33.7047 36.5611 32.9301 41.467C32.844 40.8645 32.7579 40.3481 32.7579 39.7456C32.5858 37.5939 32.844 35.5282 33.1883 33.4626C33.1883 33.3765 33.1883 33.2904 33.2743 33.2904C34.2211 31.2248 35.5121 29.1591 36.9753 27.2656Z" fill="#9B87D7"/>
<path d="M58.8393 56.0117C58.4951 57.3888 57.8065 58.5938 56.9458 59.7987C56.8597 59.8848 56.6876 59.9709 56.5155 59.9709C55.6548 59.7127 54.7941 59.4545 53.8473 59.1102C53.7613 59.1102 53.6752 58.9381 53.6752 58.9381C53.5891 58.5077 54.0195 57.9052 54.3638 57.7331C55.913 57.1306 57.3762 56.5281 58.8393 56.0117Z" fill="#9B87D7"/>
<path d="M51.0938 63.8425C51.6102 63.0679 52.0405 62.4654 52.4709 61.6908C52.8151 61.0022 53.1594 60.3137 53.4176 59.5391C54.2783 59.8833 55.2251 60.1415 56.1718 60.4858C55.0529 61.8629 53.7619 62.9818 52.2987 63.8425C52.0405 64.1007 51.6102 63.9286 51.0938 63.8425Z" fill="#9B87D7"/>
</g>
</svg>
