<svg width="86" height="86" viewBox="0 0 86 86" fill="none" xmlns="http://www.w3.org/2000/svg">
<rect x="0.65625" width="85.165" height="86" rx="8" fill="#121212"/>
<rect x="1.15625" y="0.5" width="84.165" height="85" rx="7.5" stroke="#F7F7F7" stroke-opacity="0.24"/>
<mask id="mask0_2610_39962" style="mask-type:alpha" maskUnits="userSpaceOnUse" x="1" y="1" width="84" height="84">
<rect x="1.65625" y="1" width="83" height="84" rx="7" fill="#121212"/>
</mask>
<g mask="url(#mask0_2610_39962)">
<path d="M53.8448 60.2723C53.8448 62.1247 53.8448 63.977 53.8448 65.8294C53.2521 65.8294 52.7334 65.8294 52.1406 65.8294C52.1406 63.0138 52.1406 60.1241 52.1406 57.2344C52.3629 57.2344 52.5111 57.2344 52.6593 57.2344C52.8075 57.2344 52.9557 57.2344 53.178 57.2344C53.3261 57.2344 53.4002 57.2344 53.4743 57.3826C53.993 58.0494 54.5117 58.7163 55.0303 59.3831C55.9195 60.5687 56.8086 61.6801 57.6237 62.8656C57.6978 62.9397 57.6978 63.0138 57.7719 63.0138C57.7719 61.1614 57.7719 59.309 57.7719 57.4567C58.3646 57.4567 58.8833 57.4567 59.4761 57.4567C59.5501 57.6049 59.5501 65.6812 59.4761 66.0517C59.402 66.0517 59.3279 66.0517 59.3279 66.0517C59.1056 66.0517 58.8092 66.0517 58.5869 66.0517C58.4387 66.0517 58.2905 65.9776 58.2164 65.8294C57.4014 64.718 56.5863 63.6807 55.7713 62.5692C55.2526 61.8283 54.6599 61.1614 54.1412 60.4205C53.993 60.4205 53.993 60.3464 53.8448 60.2723C53.8448 60.2723 53.9189 60.2723 53.8448 60.2723Z" fill="white"/>
<path d="M69.8612 59.3089C69.4166 59.5312 68.8979 59.7535 68.4534 59.9758C68.3793 59.9017 68.3793 59.8276 68.3052 59.7535C68.157 59.5312 67.9347 59.3089 67.7124 59.0866C66.8974 58.4198 65.7859 58.4198 65.045 59.1607C64.6004 59.6053 64.304 60.124 64.1558 60.7167C63.9335 61.5318 64.0076 62.4209 64.3781 63.1619C64.6745 63.7546 65.045 64.1992 65.7118 64.4215C66.8974 64.8661 68.157 64.1251 68.3793 62.8655C68.3793 62.7914 68.3793 62.7173 68.3793 62.6432C68.157 62.5691 68.0088 62.6432 67.7865 62.6432C67.5642 62.6432 67.416 62.6432 67.1937 62.6432C66.9714 62.6432 66.8233 62.6432 66.601 62.6432C66.5269 62.495 66.5269 61.6059 66.601 61.3836C67.7865 61.3836 68.972 61.3836 70.1575 61.3836V61.4577C70.1575 62.3468 70.0834 63.1619 69.713 63.9769C68.972 65.6811 67.416 66.2739 65.9341 66.0516C64.3781 65.8293 63.3408 65.0142 62.748 63.5323C62.0812 61.8282 62.2294 60.1981 63.2667 58.7162C64.0076 57.6788 65.045 57.1602 66.3787 57.1602C67.2678 57.1602 68.157 57.3824 68.8238 57.9752C69.2684 58.3457 69.6389 58.8643 69.8612 59.3089Z" fill="white"/>
<path d="M28.7405 62.3474C29.4815 63.533 30.2965 64.6444 31.0375 65.8299C30.3706 65.8299 29.7038 65.8299 29.0369 65.8299C28.3701 64.7926 27.7032 63.6812 27.1104 62.6438C27.0363 62.9402 27.0363 63.1625 27.0363 63.4589C27.0363 63.7552 27.0363 63.9775 27.0363 64.2739C27.0363 64.5703 27.0363 64.7926 27.0363 65.089C27.0363 65.3853 27.0363 65.6076 27.0363 65.904C26.5177 65.904 25.999 65.904 25.4062 65.904C25.4062 63.0884 25.4062 60.3469 25.4062 57.5312C25.4803 57.5312 25.5544 57.5312 25.6285 57.5312C26.2954 57.5312 26.9622 57.5312 27.7032 57.5312C28.0737 57.5312 28.5182 57.6053 28.8887 57.6794C29.7038 57.9758 30.2224 58.4945 30.4447 59.3836C30.5929 60.0505 30.5188 60.6432 30.2224 61.236C29.852 61.7547 29.4074 62.1992 28.7405 62.3474ZM27.0363 58.7909C27.0363 59.6059 27.0363 60.4951 27.0363 61.3101C27.3327 61.3101 27.6291 61.3101 27.9255 61.236C28.3701 61.1619 28.6664 60.8655 28.6664 60.3469C28.6664 60.1246 28.6664 59.8282 28.6664 59.6059C28.5923 59.2354 28.3701 59.0132 28.0737 58.9391C27.7032 58.7909 27.4068 58.7909 27.0363 58.7909Z" fill="white"/>
<path d="M44.6664 57.3086C45.111 57.3086 45.5556 57.3086 46.0002 57.3086C47.0375 60.1242 48.0748 63.0139 49.1122 65.8295C48.964 65.9036 47.8525 65.9036 47.408 65.8295C47.1857 65.3109 46.9634 64.7181 46.7411 64.1254C45.7779 64.1254 44.8146 64.1254 43.7773 64.1254C43.555 64.644 43.3327 65.2368 43.1104 65.8295C42.5177 65.8295 41.999 65.8295 41.4062 65.8295C42.4436 63.0139 43.555 60.1242 44.6664 57.3086ZM46.2965 62.7916C45.9261 61.7543 45.5556 60.7911 45.1851 59.7537C45.1851 59.7537 45.1851 59.7537 45.111 59.7537C44.8146 60.7911 44.5182 61.7543 44.2219 62.7916C44.9628 62.7916 45.6297 62.7916 46.2965 62.7916Z" fill="white"/>
<path d="M16.9531 57.457C18.435 57.457 19.8428 57.457 21.2506 57.457C21.3247 57.6052 21.3247 58.4944 21.2506 58.8648C20.3615 58.8648 19.4724 58.8648 18.5832 58.8648C18.5832 59.5317 18.5832 60.1245 18.5832 60.7913C19.4724 60.7913 20.2874 60.7913 21.1766 60.7913C21.1766 61.2359 21.1766 61.7546 21.1766 62.1991C20.2874 62.1991 19.4724 62.1991 18.5832 62.1991C18.5832 62.9401 18.5832 63.681 18.5832 64.422C19.4724 64.422 20.3615 64.422 21.2506 64.422C21.2506 64.8666 21.2506 65.3852 21.2506 65.8298C19.8428 65.8298 18.3609 65.8298 16.9531 65.8298C16.9531 63.0883 16.9531 60.2726 16.9531 57.457Z" fill="white"/>
<path d="M34.4335 57.457C34.9521 57.457 35.4708 57.457 35.9895 57.457C35.9895 59.754 35.9895 62.0509 35.9895 64.422C36.8045 64.422 37.5455 64.422 38.2864 64.422C38.2864 64.8666 38.2864 65.3111 38.2864 65.7557C38.1382 65.8298 34.6558 65.8298 34.3594 65.7557C34.4335 63.0883 34.4335 60.2726 34.4335 57.457Z" fill="white"/>
<path d="M27.0312 58.7891C27.4017 58.7891 27.7722 58.7891 28.0686 58.9373C28.365 59.0854 28.5873 59.3077 28.6613 59.6041C28.7354 59.8264 28.7354 60.1228 28.6613 60.3451C28.5873 60.7896 28.365 61.086 27.9204 61.2342C27.624 61.3083 27.3276 61.3083 27.0312 61.3083C27.0312 60.4933 27.0312 59.6782 27.0312 58.7891Z" fill="#F43658"/>
<path d="M46.2974 62.7879C45.6306 62.7879 44.9637 62.7879 44.2969 62.7879C44.5933 61.7506 44.8896 60.7873 45.186 59.75C45.186 59.75 45.186 59.75 45.2601 59.75C45.5565 60.7873 45.927 61.7506 46.2974 62.7879Z" fill="#F43658"/>
<path d="M69.7825 53.0838C67.782 53.0838 65.8555 53.0838 63.8549 53.0838C65.7814 51.0091 67.3374 48.7863 68.6711 46.3411C65.9296 45.0074 63.2621 43.6737 60.5947 42.2659C60.5206 42.34 60.4465 42.4141 60.4465 42.4882C59.4833 43.9701 58.446 45.3779 57.2604 46.6375C56.2231 47.7489 55.0376 48.7122 53.7039 49.4531C52.2961 50.2682 50.74 50.8609 49.11 51.0091C46.9612 51.2314 44.8124 51.0091 42.886 50.0459C41.2559 49.2309 39.9962 48.0453 39.033 46.5634C38.1439 45.1556 37.477 43.6737 37.1065 42.1177C36.7361 40.784 36.5138 39.4503 36.3656 38.1166C36.2915 37.0792 36.2174 36.116 36.2174 35.0787C36.2174 35.0046 36.2174 34.9305 36.2174 34.7823C41.4041 34.7823 46.6648 34.7823 51.8515 34.7823C57.0381 34.7823 62.2248 34.7823 67.4856 34.7823C67.4856 34.7082 67.4856 34.56 67.4856 34.4859C67.4856 33.8931 67.4856 33.3745 67.4856 32.7817C67.4856 32.6335 67.4856 32.4853 67.4856 32.3371C67.5597 29.7438 67.2633 27.2246 66.4482 24.7053C65.8555 22.7789 64.9663 20.9265 63.7067 19.2964C63.7067 19.2223 63.4844 19 63.4844 19H24.214C24.214 19 24.0658 19.2223 23.9917 19.2964C21.6206 22.2602 20.0646 25.6686 19.2496 29.3733C18.9532 30.7811 18.7309 32.1889 18.6568 33.6709C18.5827 34.9305 18.5827 36.116 18.6568 37.3756C18.8791 41.1545 19.8423 44.7851 21.6206 48.1935C22.5098 49.8977 23.6212 51.4537 24.9549 52.9356C25.029 53.0097 25.029 53.0838 25.1031 53.1579C22.2875 53.1579 19.546 53.1579 16.7303 53.1579H16.6562C16.6562 57.5295 16.6562 61.9752 16.6562 66.3468C34.5873 66.3468 52.5924 66.3468 70.5235 66.3468C70.5235 61.9752 70.5235 57.5295 70.5235 53.1579H69.7825V53.0838ZM36.8102 26.1131C37.3288 23.668 38.6625 21.8156 40.8854 20.7783C41.9968 20.2596 43.2564 19.9632 44.5161 20.0373C46.3684 20.1114 47.9985 20.8524 49.2581 22.2602C50.0732 23.1493 50.5178 24.2608 50.7401 25.4463C50.8141 25.8909 50.8141 26.3354 50.8882 26.78C50.8882 26.8541 50.8882 26.9282 50.8882 27.0023C46.1461 27.0023 41.4041 27.0023 36.662 27.0023C36.7361 26.6318 36.7361 26.3354 36.8102 26.1131ZM21.1761 60.7897C21.1761 61.2343 21.1761 61.7529 21.1761 62.1975C20.2869 62.1975 19.4719 62.1975 18.5827 62.1975C18.5827 62.9385 18.5827 63.6794 18.5827 64.4204C19.4719 64.4204 20.361 64.4204 21.2502 64.4204C21.2502 64.8649 21.2502 65.3836 21.2502 65.8282C19.8423 65.8282 18.3604 65.8282 16.9526 65.8282C16.9526 63.0126 16.9526 60.271 16.9526 57.4554C18.4345 57.4554 19.8423 57.4554 21.2502 57.4554C21.3242 57.6036 21.3242 58.4928 21.2502 58.8632C20.361 58.8632 19.4719 58.8632 18.5827 58.8632C18.5827 59.5301 18.5827 60.1229 18.5827 60.7897C19.4719 60.7897 20.361 60.7897 21.1761 60.7897ZM28.9561 65.8282C28.2892 64.7908 27.6223 63.6794 27.0296 62.6421C26.9555 62.9385 26.9555 63.1607 26.9555 63.4571C26.9555 63.7535 26.9555 63.9758 26.9555 64.2722C26.9555 64.5686 26.9555 64.7908 26.9555 65.0872C26.9555 65.3836 26.9555 65.6059 26.9555 65.9023C26.4368 65.9023 25.9182 65.9023 25.3254 65.9023C25.3254 63.0867 25.3254 60.3451 25.3254 57.5295C25.3995 57.5295 25.4736 57.5295 25.5477 57.5295C26.2145 57.5295 26.8814 57.5295 27.6223 57.5295C27.9928 57.5295 28.4374 57.6036 28.8079 57.6777C29.6229 57.9741 30.1416 58.4928 30.3639 59.3819C30.5121 60.0488 30.438 60.6415 30.1416 61.2343C29.8452 61.827 29.4006 62.2716 28.7338 62.4198C29.4747 63.6053 30.2898 64.7168 31.0307 65.9023C30.2898 65.8282 29.6229 65.8282 28.9561 65.8282ZM38.3661 65.8282C38.218 65.9023 34.7355 65.9023 34.4391 65.8282C34.4391 63.0867 34.4391 60.271 34.4391 57.4554C34.9578 57.4554 35.4764 57.4554 36.0692 57.4554C36.0692 59.7524 36.0692 62.0493 36.0692 64.4204C36.8842 64.4204 37.6252 64.4204 38.3661 64.4204C38.3661 64.939 38.3661 65.3836 38.3661 65.8282ZM47.4058 65.8282C47.1835 65.3095 46.9612 64.7168 46.7389 64.124C45.7757 64.124 44.8124 64.124 43.7751 64.124C43.5528 64.6427 43.3305 65.2354 43.1082 65.8282C42.5155 65.8282 41.9968 65.8282 41.4041 65.8282C42.5155 62.9385 43.6269 60.1228 44.7383 57.2331C45.1829 57.2331 45.6275 57.2331 46.0721 57.2331C47.1094 60.0488 48.1467 62.9385 49.1841 65.7541C48.8877 65.9023 47.8503 65.9023 47.4058 65.8282ZM59.4833 66.0505C59.4092 66.0505 59.3351 66.0505 59.3351 66.0505C59.1128 66.0505 58.8164 66.0505 58.5941 66.0505C58.446 66.0505 58.2978 65.9764 58.2237 65.8282C57.4086 64.7167 56.5936 63.6794 55.7785 62.568C55.2599 61.827 54.6671 61.1602 54.1484 60.4192C54.0743 60.3451 54.0743 60.271 54.0002 60.1969C54.0002 60.1969 54.0002 60.1969 53.9261 60.1969C53.9261 62.0493 53.9261 63.9017 53.9261 65.7541C53.3334 65.7541 52.8147 65.7541 52.222 65.7541C52.222 62.9385 52.222 60.0488 52.222 57.159C52.4442 57.159 52.5924 57.159 52.7406 57.159C52.8888 57.159 53.037 57.159 53.2593 57.159C53.4075 57.159 53.4816 57.159 53.5557 57.3072C54.0743 57.9741 54.593 58.6409 55.1117 59.3078C56.0008 60.4933 56.89 61.6048 57.705 62.7903C57.7791 62.8644 57.7791 62.9385 57.8532 62.9385C57.8532 61.0861 57.8532 59.2337 57.8532 57.3813C58.446 57.3813 58.9646 57.3813 59.5574 57.3813C59.5574 57.6777 59.5574 65.68 59.4833 66.0505ZM69.7825 64.0499C69.0416 65.7541 67.4856 66.3468 66.0037 66.1246C64.4477 65.9023 63.4103 65.0872 62.8176 63.6053C62.1507 61.9011 62.2989 60.271 63.3362 58.7891C64.0772 57.7518 65.1145 57.2331 66.4482 57.2331C67.3374 57.2331 68.2265 57.4554 68.8934 58.0482C69.338 58.3446 69.6343 58.8632 69.8566 59.3078C69.412 59.5301 68.8934 59.7524 68.4488 59.9747C68.3747 59.9006 68.3747 59.8265 68.3006 59.7524C68.1524 59.5301 67.9301 59.3078 67.7079 59.0855C66.8928 58.4187 65.7814 58.4187 65.0404 59.1596C64.5959 59.6042 64.2995 60.1228 64.1513 60.7156C63.929 61.5307 64.0031 62.4198 64.3736 63.1607C64.6699 63.7535 65.0404 64.1981 65.7073 64.4204C66.8928 64.8649 68.1524 64.124 68.3747 62.8644C68.3747 62.7903 68.3747 62.7162 68.3747 62.6421C68.1524 62.568 68.0042 62.6421 67.782 62.6421C67.5597 62.6421 67.4115 62.6421 67.1892 62.6421C66.9669 62.6421 66.8187 62.6421 66.5964 62.6421C66.5223 62.4939 66.5223 61.6047 66.5964 61.3825C67.7819 61.3825 68.9675 61.3825 70.153 61.3825V61.4566C70.3012 62.3457 70.153 63.2348 69.7825 64.0499Z" fill="#E13767"/>
</g>
</svg>
