<svg width="86" height="86" viewBox="0 0 86 86" fill="none" xmlns="http://www.w3.org/2000/svg">
<rect x="0.65625" width="85.165" height="86" rx="8" fill="#121212"/>
<rect x="1.15625" y="0.5" width="84.165" height="85" rx="7.5" stroke="#F7F7F7" stroke-opacity="0.24"/>
<path d="M65.8418 48.5119L66.0891 53.7746H71.7464L71.9965 48.5119L68.9192 46.5586L65.8418 48.5119Z" fill="white"/>
<path d="M43.0686 32.9688L37.9828 50.6007H37.8973L32.8178 32.9688H29.2109L35.6274 53.7728H40.1881L46.7396 32.9688H43.062" fill="white"/>
<path d="M17.4937 37.1565C18.1331 35.9255 19.1395 35.3805 21.0361 35.3805C22.9327 35.3805 23.9373 35.9255 24.5767 37.1565C25.2303 38.4146 25.2194 40.9192 25.2194 41.5955H16.8776C16.8776 40.9192 16.84 38.4146 17.4937 37.1565ZM25.2683 46.9961C25.2225 47.7853 25.2459 48.737 24.4195 49.8834C23.7961 50.7484 22.9026 51.3589 21.0604 51.3589C19.2182 51.3589 18.4898 50.5588 17.9773 49.8978C17.0791 48.7398 16.8904 46.8743 16.8904 44.485H28.6794L28.681 44.4851C28.6321 40.7507 28.8646 37.2344 27.1143 34.9588C25.6899 33.1067 23.6944 32.5215 21.0604 32.5215C18.4265 32.5215 16.6777 33.0343 15.1029 34.9823C13.2966 37.2167 13.4119 40.9542 13.4119 41.6153C13.4119 42.1439 13.4072 44.3194 13.4072 45.5589C13.4072 48.9834 13.9142 50.4959 15.0049 51.8195C16.563 53.7101 18.7827 54.2224 21.0604 54.2224C23.3382 54.2224 25.8063 53.7055 27.196 51.8289C28.1492 50.5417 28.657 49.0094 28.6943 46.9961H25.2683V46.9961Z" fill="white"/>
<path d="M51.2622 37.1565C51.9016 35.9255 52.9081 35.3805 54.8047 35.3805C56.7013 35.3805 57.7058 35.9255 58.3453 37.1565C58.9988 38.4146 58.988 40.9192 58.988 41.5955H50.6461C50.6461 40.9192 50.6085 38.4146 51.2622 37.1565H51.2622ZM59.0369 46.9961C58.991 47.7853 59.0145 48.737 58.1881 49.8834C57.5646 50.7484 56.6712 51.3589 54.829 51.3589C52.9868 51.3589 52.2584 50.5588 51.7458 49.8978C50.8477 48.7398 50.659 46.8743 50.659 44.485H62.4479L62.4496 44.4851C62.4007 40.7507 62.6332 37.2344 60.8828 34.9588C59.4584 33.1067 57.4629 32.5215 54.829 32.5215C52.1951 32.5215 50.4463 33.0343 48.8715 34.9823C47.0651 37.2167 47.1805 40.9542 47.1805 41.6153C47.1805 42.1439 47.1758 44.3194 47.1758 45.5589C47.1758 48.9834 47.6827 50.4959 48.7734 51.8195C50.3315 53.7101 52.5512 54.2224 54.829 54.2224C57.1068 54.2224 59.5749 53.7055 60.9646 51.8289C61.9178 50.5417 62.4255 49.0094 62.4629 46.9961H59.0369V46.9961Z" fill="white"/>
</svg>
