<svg width="86" height="86" viewBox="0 0 86 86" fill="none" xmlns="http://www.w3.org/2000/svg">
<rect x="0.820312" width="85.165" height="86" rx="8" fill="#121212"/>
<rect x="1.32031" y="0.5" width="84.165" height="85" rx="7.5" stroke="#F7F7F7" stroke-opacity="0.24"/>
<path d="M45.5003 26.4841L34.8782 43.3631L46.2084 61.2651C46.2792 61.4015 46.3147 61.5379 46.2792 61.6743C46.2438 61.8107 46.1022 61.7084 45.8898 61.7425H37.7816C37.2151 61.7425 36.8256 61.7084 36.5778 61.3674C35.8342 59.9353 35.0553 58.5372 34.3117 57.105C33.5682 55.707 32.7538 54.2748 31.904 52.8086C31.0543 51.3423 30.2045 49.8761 29.3547 48.3757H29.2839C28.5404 49.842 27.726 51.3082 26.9117 52.7745C26.0973 54.2407 25.283 55.707 24.504 57.1391C23.6896 58.5713 22.8753 60.0376 22.0609 61.4356C21.9193 61.7766 21.636 61.8107 21.2466 61.8107H13.4571C13.3154 61.8107 13.2092 61.8789 13.2092 61.7084C13.1738 61.572 13.2092 61.4356 13.28 61.3333L24.2916 43.9428L13.5633 26.45C13.4571 26.3136 13.4216 26.1773 13.4925 26.1091C13.5633 26.0068 13.7049 25.9727 13.8465 25.9727H21.8839C22.0609 25.9727 22.238 26.0068 22.3796 26.0409C22.5212 26.1091 22.6274 26.2113 22.7337 26.3477C23.4064 27.814 24.1853 29.2803 24.9997 30.7465C25.8495 32.2128 26.6638 33.6449 27.549 35.0771C28.3988 36.5092 29.1777 37.9414 29.9213 39.4077H29.9921C30.7356 37.9073 31.5146 36.441 32.2935 35.0089C33.0725 33.5767 33.8868 32.1446 34.7012 30.7124C35.5156 29.2803 36.2945 27.814 37.0735 26.4159C37.1089 26.2795 37.1797 26.1432 37.2859 26.075C37.4275 26.0068 37.5692 25.9727 37.7462 26.0068H45.217C45.3941 25.9727 45.5711 26.075 45.6065 26.2454C45.6419 26.2795 45.5711 26.4159 45.5003 26.4841Z" fill="#FF61F6"/>
<path d="M61.8608 62.4578C59.2406 62.4919 56.6205 61.9804 54.2483 60.9234C52.0176 59.9345 50.1765 58.2978 48.9018 56.2859C47.5918 54.2059 46.9545 51.6144 46.9545 48.5113C46.919 45.988 47.5918 43.4988 48.9018 41.3165C50.2473 39.1 52.1947 37.2587 54.5315 36.0311C57.01 34.7013 59.9842 34.0534 63.4895 34.0534C63.6665 34.0534 63.9144 34.0534 64.233 34.0875C64.5517 34.1216 64.9058 34.1216 65.3306 34.1557V23.3804C65.3306 23.1417 65.4369 23.0053 65.6847 23.0053H72.8723C73.0493 22.9712 73.191 23.1076 73.2264 23.244C73.2264 23.2781 73.2264 23.3122 73.2264 23.3122V55.7744C73.2264 56.3882 73.2618 57.0702 73.2972 57.8204C73.368 58.5364 73.4034 59.2184 73.4388 59.7981C73.4388 60.0368 73.3326 60.2414 73.0847 60.3437C71.2436 61.0939 69.2962 61.6395 67.3134 61.9804C65.5077 62.2873 63.7019 62.4578 61.8608 62.4578ZM65.3306 55.638V40.6345C65.012 40.5663 64.6933 40.4981 64.3746 40.464C63.9852 40.4299 63.5957 40.3958 63.2062 40.3958C61.8254 40.3958 60.4445 40.6686 59.2052 41.2824C58.0014 41.862 56.9746 42.7145 56.1957 43.8057C55.4167 44.8969 55.0272 46.3631 55.0272 48.1363C54.9918 49.3297 55.2043 50.5232 55.6291 51.6485C55.9832 52.5691 56.5143 53.3875 57.2225 54.0695C57.8952 54.6833 58.7095 55.1606 59.6301 55.4334C60.5861 55.7403 61.5775 55.8767 62.5689 55.8767C63.1 55.8767 63.5957 55.8426 64.056 55.8085C64.5163 55.8426 64.9058 55.7744 65.3306 55.638Z" fill="#FF61F6"/>
</svg>
