<svg width="86" height="86" viewBox="0 0 86 86" fill="none" xmlns="http://www.w3.org/2000/svg">
<rect x="0.328125" width="85.165" height="86" rx="8" fill="#121212"/>
<rect x="0.828125" y="0.5" width="84.165" height="85" rx="7.5" stroke="#F7F7F7" stroke-opacity="0.24"/>
<path d="M34.2483 69.5201C39.1723 69.5201 43.1686 65.5239 43.1686 60.5999V51.6797H34.2483C29.3244 51.6797 25.3281 55.6759 25.3281 60.5999C25.3281 65.5239 29.3244 69.5201 34.2483 69.5201Z" fill="#0ACF83"/>
<path d="M25.3281 42.7601C25.3281 37.8361 29.3244 33.8398 34.2483 33.8398H43.1686V51.6803H34.2483C29.3244 51.6803 25.3281 47.684 25.3281 42.7601Z" fill="#A259FF"/>
<path d="M25.3281 24.9202C25.3281 19.9963 29.3244 16 34.2483 16H43.1686V33.8404H34.2483C29.3244 33.8404 25.3281 29.8442 25.3281 24.9202Z" fill="#F24E1E"/>
<path d="M43.1719 16H52.0921C57.016 16 61.0123 19.9963 61.0123 24.9202C61.0123 29.8442 57.016 33.8404 52.0921 33.8404H43.1719V16Z" fill="#FF7262"/>
<path d="M61.0123 42.7601C61.0123 47.684 57.016 51.6803 52.0921 51.6803C47.1681 51.6803 43.1719 47.684 43.1719 42.7601C43.1719 37.8361 47.1681 33.8398 52.0921 33.8398C57.016 33.8398 61.0123 37.8361 61.0123 42.7601Z" fill="#1ABCFE"/>
</svg>
