<svg width="86" height="86" viewBox="0 0 86 86" fill="none" xmlns="http://www.w3.org/2000/svg">
<rect x="0.164062" width="85.165" height="86" rx="8" fill="#121212"/>
<rect x="0.664062" y="0.5" width="84.165" height="85" rx="7.5" stroke="#F7F7F7" stroke-opacity="0.24"/>
<mask id="mask0_2610_39585" style="mask-type:alpha" maskUnits="userSpaceOnUse" x="1" y="1" width="84" height="84">
<rect x="1.16406" y="1" width="83" height="84" rx="7" fill="#121212"/>
</mask>
<g mask="url(#mask0_2610_39585)">
<path d="M34.513 60.2727C32.4086 58.6782 30.1629 57.1502 28.6287 54.9972C25.3994 51.2006 22.9137 46.8058 21.2144 42.1866C20.1867 39.1828 19.8351 35.9625 18.5097 33.0752C17.1251 30.9775 18.7482 28.686 21.1338 28.0196C22.195 27.8226 24.0624 26.8576 21.8084 27.548C19.7871 28.9755 19.5923 26.2511 21.6646 26.0785C23.0789 25.8979 23.5996 24.7833 23.1154 23.78C21.5967 22.8258 26.7967 21.7791 24.1799 20.3558C21.4557 17.5242 27.992 16.9792 26.379 20.1954C25.9934 22.6682 30.9477 19.7412 29.7972 22.5972C30.9661 23.969 34.173 22.91 34.0924 24.8334C35.7947 24.9461 36.379 26.3245 37.9754 26.4307C39.6325 27.151 42.6334 27.7179 43.1964 29.5149C41.5537 30.767 37.751 26.9283 37.5674 30.3946C38.0643 35.5163 37.9374 40.7922 39.8825 45.6693C40.8025 48.622 43.0341 50.9462 45.0482 53.2464C46.9763 55.4986 49.5877 57.0851 52.2497 58.42C54.5843 59.4803 57.101 60.1829 59.6459 60.6249C60.6775 59.8649 62.4997 57.0388 64.1088 58.2297C64.1865 59.5701 60.9149 61.0299 63.9552 60.8817C65.742 60.3625 66.98 62.211 68.4506 60.5431C69.8056 62.0889 74.0824 59.5562 73.1184 62.7156C71.8143 63.5257 69.913 63.0361 68.6074 64.1511C66.4549 63.1151 64.7411 65.0767 62.3574 64.8293C59.7109 65.2859 57.0175 65.4696 54.3346 65.4734C49.9321 65.139 45.4366 64.9977 41.2487 63.5215C38.8888 62.8611 36.5868 61.5669 34.513 60.2727ZM38.2308 61.8251C40.5344 62.7835 42.7873 63.7947 45.3123 64.1006C49.3181 64.6362 53.4551 65.4626 57.475 64.7096C55.6556 63.9186 53.7742 65.0169 51.9617 64.1441C49.7882 64.594 47.4551 64.0286 45.2444 63.7498C42.732 62.6721 40.0195 61.9312 37.6664 60.5309C34.7248 59.4967 39.1866 61.8578 39.9812 62.0495C41.8189 63.0538 37.9598 61.5342 37.4149 61.1169C35.8753 60.2849 35.6791 60.4589 37.2628 61.3031C37.5815 61.4827 37.8966 61.6716 38.2308 61.8251ZM33.8467 58.8414C36.0798 59.638 33.837 57.3298 32.8151 57.463C32.362 56.7058 31.0832 56.2273 31.9851 55.8209C30.3634 56.3634 30.2857 53.7587 29.5237 54.1314C27.8073 53.6094 28.8559 51.7605 26.8108 50.6243C26.6243 49.4279 24.7797 48.3909 24.1925 46.5869C23.9327 45.6627 22.1076 43.0106 23.2285 45.4789C24.1824 47.855 25.8608 49.8915 27.2581 51.9237C28.3421 53.8592 29.6238 55.8835 31.5985 57.0907C32.2648 57.7063 32.9069 58.6483 33.8467 58.8414ZM27.4164 52.0406C27.4937 51.7156 27.8243 52.7432 27.4164 52.0406V52.0406ZM36.5217 59.7956C37.0157 59.5823 35.8102 59.5266 36.5217 59.7956V59.7956ZM37.7326 60.2212C37.6072 59.6338 37.1794 60.5501 37.7326 60.2212V60.2212ZM39.2502 60.8302C39.9714 60.168 38.1365 60.4126 39.2502 60.8302V60.8302ZM41.85 62.226C42.289 61.602 40.4455 61.9911 41.85 62.226V62.226ZM36.8578 58.8741C37.9783 58.1754 35.4081 58.8644 36.8578 58.8741V58.8741ZM37.9953 59.4205C37.9627 59.052 37.5902 59.5861 37.9953 59.4205V59.4205ZM43.682 62.8391C44.5965 63.3952 49.0218 64.0571 46.2511 63.0674C45.7864 63.1614 41.1132 61.7938 43.682 62.8391ZM34.6543 56.0669C34.5654 55.6973 33.2343 55.6577 34.6543 56.0669V56.0669ZM37.3008 57.5542C37.9909 57.0907 35.8709 57.1965 37.3008 57.5542V57.5542ZM39.528 58.8686C40.5174 58.5098 37.9248 58.5084 39.528 58.8686V58.8686ZM33.5757 54.9373C34.6485 55.7297 37.9035 55.0393 35.2187 54.4644C33.9978 53.8377 31.2455 53.4082 33.1215 54.8423L33.5757 54.9373ZM41.037 59.3227C41.4843 58.5898 39.1624 58.9037 41.037 59.3227V59.3227ZM38.77 57.588C41.3926 58.3017 36.564 55.9893 38.1224 57.3242L38.4682 57.4752L38.77 57.588ZM43.3152 60.1178C45.7994 60.1408 41.071 59.7876 43.3152 60.1178V60.1178ZM32.6204 53.5534C32.5228 53.1076 32.0079 53.5902 32.6204 53.5534V53.5534ZM47.5172 62.3878C47.5834 61.5832 46.7067 62.9874 47.5172 62.3878V62.3878ZM36.8603 56.0533C36.7093 55.6291 36.0841 56.0356 36.8603 56.0533V56.0533ZM32.8559 53.2736C34.2818 53.1908 30.9026 52.6688 32.8559 53.2736V53.2736ZM28.1119 50.3209C27.9342 49.6618 26.5607 49.137 28.1119 50.3209V50.3209ZM40.5655 57.9321C40.3046 57.645 40.4426 57.9944 40.5655 57.9321V57.9321ZM48.3158 62.5131C48.2919 62.0739 47.8937 62.6787 48.3158 62.5131V62.5131ZM39.8796 57.2497C40.0195 56.6842 38.663 57.0782 39.8796 57.2497V57.2497ZM34.1051 53.7249C35.1667 53.616 32.4043 53.0342 34.1051 53.7249V53.7249ZM43.8728 59.5701C45.527 58.9392 42.2608 59.2628 43.8728 59.5701V59.5701ZM38.7927 56.2492C40.6981 56.4855 36.5246 55 38.3736 56.116L38.7927 56.2492ZM45.4153 60.1707C47.1953 59.1473 46.6081 62.5701 48.4347 60.4603C50.2356 59.1936 46.8791 62.0262 49.0981 60.6861C50.7042 59.6515 53.0753 61.1768 54.5731 61.673C55.6499 61.6226 56.6974 62.5701 57.8024 61.9935C59.9281 61.4416 53.6444 61.1754 55.2914 60.1979C53.3463 60.7432 51.9097 59.5482 50.9525 58.348C48.7703 57.8625 46.2482 56.7886 45.1584 54.9279C44.714 54.2306 45.7994 55.0271 44.7747 53.8853C43.4605 52.7596 42.8043 51.4804 41.9219 50.1117C40.8675 49.5706 40.7432 47.9761 40.6374 50.0588C40.646 48.7441 39.3644 47.8592 39.0511 48.2263C39.0453 46.9607 40.4231 47.5954 39.459 46.659C39.2516 45.3471 38.5683 43.9798 38.3635 42.4981C38.0448 41.7843 38.3183 40.2553 37.274 41.8713C36.8943 43.58 37.1483 39.7726 37.7398 41.0271C38.5159 39.7468 37.4601 39.8975 37.4178 40.0743C37.9233 38.9938 37.7383 37.4602 37.2852 38.0448C37.5548 36.8989 37.7116 33.8282 36.8831 34.3732C37.3853 33.1744 37.8359 28.8896 35.6534 30.5237C34.77 30.5359 33.2386 30.8324 32.5159 31.179C34.784 32.3834 32.2872 31.614 31.3625 31.4222C31.2426 32.5368 30.328 32.0556 29.1848 32.0664C31.0113 32.2838 28.2955 33.8648 27.2498 33.2506C25.889 33.8759 28.4227 35.4391 27.2765 35.9228C27.4178 36.6501 25.1931 35.6594 25.3669 37.3422C24.0469 36.8063 25.1862 39.3376 25.8467 38.4812C28.0924 39.0672 27.4276 40.4007 27.4839 41.6688C27.1183 42.4069 25.6772 39.933 27.1634 40.0472C25.9905 38.2133 25.8666 39.3839 24.8924 40.2361C24.6666 40.2974 27.3766 41.4485 25.6758 42.0168C27.1721 42.2398 27.2158 43.5013 27.5208 44.2993C28.4198 45.2016 28.2348 43.3026 29.3119 44.3876C28.6301 43.4209 25.704 41.6646 28.0599 42.2277C28.0473 41.2557 27.6335 40.4714 28.3562 40.4902C29.072 39.2437 27.6068 43.565 29.2187 41.9802C29.6646 41.7927 29.7763 40.7324 30.5781 42.0808C31.7423 43.1846 30.9987 43.9836 29.3557 42.9724C29.6491 43.9335 31.5533 44.2759 31.1949 45.7782C31.5743 47.0995 32.1051 46.6127 32.568 46.5365C32.9307 47.8199 33.1371 46.8765 33.154 46.2647C34.8151 46.6075 34.4256 47.5533 34.9463 48.2141C36.091 48.7114 33.3076 44.8414 35.2726 47.0505C37.3401 48.8489 36.0487 49.5991 34.1929 49.311C35.3672 49.2198 35.7452 50.8404 37.2148 50.7834C38.5542 51.3976 39.4619 53.7548 37.1526 52.7732C36.3523 52.0772 33.5165 51.2194 35.833 52.5421C37.97 53.4963 39.6693 54.066 41.7315 55.2637C43.2065 56.2778 43.8442 57.4397 44.4032 57.6697C43.1627 58.2404 40.6659 57.2142 42.5203 56.9003C41.3629 56.6978 40.0617 56.1337 41.1696 57.5215C42.1123 58.2801 44.5076 58.1997 44.9384 58.2853C44.5741 59.0575 43.949 59.1188 44.9525 59.1786C43.833 59.7535 45.3123 59.8433 45.4153 60.1707ZM43.1259 53.9438C42.444 53.2572 42.2677 51.9728 43.0045 53.0898C43.3828 53.2367 44.2142 55.1903 43.1259 53.9438ZM50.5828 58.5056C51.0078 58.4785 50.5955 58.8167 50.5828 58.5056V58.5056ZM42.0505 52.2609C42.0234 51.2236 42.2959 53.0613 42.0505 52.2609V52.2609ZM41.3094 51.3012C40.4513 49.7067 42.3891 51.7525 41.3094 51.3012V51.3012ZM32.3266 45.331C32.8307 45.2016 32.5752 46.16 32.3266 45.331V45.331ZM39.476 49.0622C39.785 47.9434 39.8388 50.0004 39.476 49.0622V49.0622ZM34.4256 45.6801C34.07 45.0631 35.1696 46.2595 34.4256 45.6801V45.6801ZM38.7588 47.0178C37.9472 45.267 39.3347 46.0608 38.9394 47.3045L38.7588 47.0178ZM31.2852 42.2179C30.9224 41.643 30.3226 39.9574 30.5159 39.4424C30.6894 40.281 32.3663 43.05 31.3372 40.5897C30.2012 38.5275 32.6966 41.2582 32.9535 41.7735C33.0735 42.2847 32.2518 41.6337 32.8079 42.8339C31.7933 41.4677 32.2095 43.5883 31.2852 42.2179ZM28.9759 40.6847C29.0706 39.3484 29.5038 41.6009 28.9759 40.6847V40.6847ZM30.0147 41.0299C30.5101 40.0214 30.8545 42.4354 30.0147 41.0299V41.0299ZM27.515 39.1678C26.6554 38.3438 26.0328 37.5855 27.5558 38.6566C28.1416 38.6782 26.2518 36.9316 27.6971 38.1019C29.2158 38.3685 28.4465 40.5013 27.515 39.1678ZM28.8278 39.1351C29.3275 38.658 29.093 39.6042 28.8278 39.1351V39.1351ZM29.6364 39.3839C28.8783 38.0177 30.5553 39.9574 29.6364 39.3839V39.3839ZM28.0303 37.9063C25.5305 35.7624 31.1707 39.0262 28.4382 38.303L28.0303 37.9063ZM35.1934 41.9134C34.1109 41.2895 34.9055 37.5162 35.2755 40.0962C36.327 39.7684 35.2173 41.4297 36.0007 41.4134C35.8782 42.4612 35.5266 42.838 35.1934 41.9134ZM37.8428 43.4223C37.9486 42.2847 38.0657 44.2001 37.8428 43.4223V43.4223ZM37.3828 42.9832C37.5013 42.4981 37.394 43.5556 37.3828 42.9832V42.9832ZM28.5199 37.202C26.9137 35.0678 33.1877 39.3606 29.549 37.7431C29.1692 37.6467 28.7107 37.6126 28.5199 37.202ZM33.6223 39.8067C33.4702 38.0097 33.9613 40.1042 33.6223 39.8067V39.8067ZM37.4955 42.2002C37.7947 41.1767 37.5183 42.8774 37.4955 42.2002V42.2002ZM28.767 36.3877C29.7213 36.1907 32.7219 38.0013 29.9667 36.9045C29.6606 36.578 29.007 36.7263 28.767 36.3877ZM36.9633 40.3217C37.0652 38.484 37.5338 39.2249 36.9676 40.5855L36.9633 40.3217ZM29.4771 35.7477C29.8666 35.1983 28.4436 33.2641 29.6816 35.0542C30.2167 35.4634 31.2299 35.7394 30.3353 35.912C31.7423 37.107 29.9923 36.2356 29.4771 35.7477ZM36.5582 39.7482C36.8267 37.6547 36.7956 40.9742 36.5582 39.7482V39.7482ZM28.6641 33.8147C28.9618 33.6922 28.822 34.1964 28.6641 33.8147V33.8147ZM30.5116 34.8736C30.9871 33.9124 31.3882 35.9447 30.5116 34.8736V34.8736ZM35.7214 37.6641C35.717 37.296 35.82 38.2011 35.7214 37.6641V37.6641ZM35.4193 37.0214C34.6966 35.303 36.0924 37.9307 35.4193 37.0214V37.0214ZM34.9759 35.8942C34.8549 35.1847 35.3882 36.7861 34.9759 35.8942V35.8942ZM35.6986 34.7633C35.2018 33.9218 36.3255 31.0523 36.4513 32.8319C35.9273 34.2183 36.3002 34.9933 36.6641 33.1336C37.3391 31.671 36.5188 36.0223 35.6986 34.7633ZM36.4411 30.4966C36.6572 30.2408 36.4892 30.8049 36.4411 30.4966V30.4966ZM35.2007 54.0308C34.9069 53.7834 35.2386 54.1871 35.2007 54.0308V54.0308ZM37.7553 55.2745C39.1765 55.6267 39.1696 55.0622 37.885 54.8938C37.1949 54.2754 35.0142 53.6188 36.9662 54.8176C37.0948 55.1332 37.5027 55.1249 37.7553 55.2745ZM32.7107 52.0473C33.4926 52.6103 35.6592 53.6404 33.8258 52.2623C34.444 51.5702 32.6428 51.202 33.24 50.7385C31.7199 49.8424 32.04 49.9228 33.106 49.9513C31.2794 49.1642 33.3698 49.224 33.2711 48.8203C32.5669 48.6871 29.7719 47.624 31.4164 48.9073C29.7452 48.0875 31.0182 49.2132 30.513 49.0949C28.8035 48.6463 32.0346 50.3484 30.242 49.9256C31.2216 50.673 32.8802 51.8423 30.6554 50.7165C30.3634 51.123 32.2478 51.7389 32.7107 52.0473ZM35.3824 53.5262C38.6305 54.5336 33.7889 52.2933 35.3824 53.5262V53.5262ZM49.0598 61.5056C49.1021 60.8845 48.6164 62.0356 49.0598 61.5056V61.5056ZM50.4657 62.0753C51.2152 61.3765 50.4968 63.1899 51.7077 61.9041C51.7203 60.9837 51.6712 60.4401 50.3162 61.5585C49.9418 61.7586 49.7756 62.6053 50.4657 62.0753ZM28.1502 48.5785C27.9201 47.7071 26.5369 47.711 28.1502 48.5785V48.5785ZM29.6505 49.5257C29.093 48.6356 27.6617 48.7198 29.6505 49.5257V49.5257ZM38.1915 54.486C39.0258 55.1997 42.0209 55.0094 39.2036 54.5744C38.7869 53.9803 36.5557 54.123 38.1915 54.486ZM49.9306 61.4691C51.2137 60.4317 48.6872 61.9312 49.9306 61.4691V61.4691ZM52.5998 63.2348C52.6081 62.9018 52.0466 63.3803 52.5998 63.2348V63.2348ZM52.6041 62.7685C54.0253 61.3195 51.2278 62.8541 52.6041 62.7685V62.7685ZM24.4577 45.6014C23.2469 43.9377 23.7054 43.1899 22.5369 41.8306C22.315 40.7908 20.5325 38.4335 21.6151 40.9307C22.6059 42.3919 22.8996 44.6539 24.4577 45.6014ZM52.1579 62.3078C54.7736 60.6806 51.0854 61.5996 52.1579 62.3078V62.3078ZM54.1539 63.0608C55.4638 61.9786 53.3254 62.835 54.1539 63.0608V63.0608ZM27.7054 46.739C28.0798 46.2021 26.7374 46.6698 27.7054 46.739V46.739ZM53.7373 62.5468C55.0049 61.76 53.4453 61.8808 53.5075 62.6189L53.7373 62.5468ZM36.5344 52.1043C36.4906 51.5716 35.8641 52.1492 36.5344 52.1043V52.1043ZM37.5971 52.6931C37.2585 52.0351 37.0778 52.7965 37.5971 52.6931V52.6931ZM55.7713 63.0785C57.3958 61.95 54.7877 62.8621 55.4313 63.2933L55.7713 63.0785ZM55.149 62.789C56.473 61.7217 53.7528 63.2619 55.149 62.789V62.789ZM58.3274 64.8265C59.2155 64.2541 57.2477 64.6417 58.3274 64.8265V64.8265ZM28.5199 46.3517C29.7098 46.6085 33.278 49.1749 31.1736 46.5299C30.0953 46.2226 30.7418 43.6847 29.6422 44.1333C30.3804 45.3213 30.2489 45.8255 28.6991 45.0781C26.7529 44.1618 27.6053 45.5308 27.9866 45.9087C27.467 46.0229 28.6724 46.3423 28.5199 46.3517ZM23.0958 42.2263C23.3087 41.3765 21.1323 37.5556 22.0682 40.3109C22.4053 40.8886 22.3703 41.9827 23.0958 42.2263ZM33.0522 48.1379C32.4382 47.6445 33.0225 48.0673 33.0522 48.1379V48.1379ZM34.5611 48.4765C34.5611 47.5766 32.8928 48.1108 34.5611 48.4765V48.4765ZM47.6455 56.4191C47.3958 55.8045 46.6591 56.4055 47.6455 56.4191V56.4191ZM48.2735 56.8607C48.1803 56.5168 47.9107 56.9275 48.2735 56.8607V56.8607ZM53.4594 60.0075C53.9577 59.6529 52.8368 59.9616 53.4594 60.0075V60.0075ZM25.8044 42.8923C27.2314 42.3606 24.2756 42.513 25.8044 42.8923V42.8923ZM46.4936 55.4443C46.4769 54.5552 45.5834 55.666 46.4936 55.4443V55.4443ZM25.2411 41.6267C26.1571 41.3292 24.3927 41.4311 25.2411 41.6267V41.6267ZM27.9002 42.8676C27.8847 42.5757 27.6194 42.9793 27.9002 42.8676V42.8676ZM60.3433 62.0276C61.5216 61.7979 64.2078 62.6053 64.641 61.7273C63.2098 61.6932 59.6911 60.754 59.5245 61.95L59.8378 61.9977L60.3433 62.0276ZM28.7457 43.0729C28.767 42.1716 28.0162 43.0392 28.7457 43.0729V43.0729ZM21.7535 38.4012C21.4359 36.6842 20.5452 38.1412 21.7535 38.4012V38.4012ZM23.4203 38.8048C23.4416 38.2529 21.8944 38.3086 23.4203 38.8048V38.8048ZM24.3732 39.2562C24.0978 39.0411 24.1585 39.5266 24.3732 39.2562V39.2562ZM30.3703 42.9602C30.6529 42.71 29.7015 42.7754 30.3703 42.9602V42.9602ZM23.7394 38.2394C23.5771 36.9424 21.807 38.0448 23.7394 38.2394V38.2394ZM20.3193 36.1023C20.2713 35.5041 19.9862 36.3278 20.3193 36.1023V36.1023ZM20.8288 35.7328C20.7457 35.0229 20.3912 35.8222 20.8288 35.7328V35.7328ZM23.6379 37.3475C24.8263 36.8989 21.4738 36.4176 23.395 37.2632L23.6379 37.3475ZM61.2452 59.7194C62.0058 59.0481 60.2797 59.5116 61.2452 59.7194V59.7194ZM65.7886 61.9869C66.0936 61.1197 65.0208 62.101 65.7886 61.9869V61.9869ZM23.9255 35.9297C24.0512 35.0897 22.9827 36.0968 23.9255 35.9297V35.9297ZM19.9269 33.3497C19.7123 32.1645 19.7419 30.0832 21.7958 30.7861C19.0546 31.3109 23.6942 34.0687 23.1085 31.891C24.2615 31.9456 25.364 31.2347 24.7584 32.3124C27.0308 32.0719 28.6048 30.1743 30.7996 30.4409C32.5087 30.222 34.3775 30.0574 36.2196 29.3941C37.734 29.2894 39.192 27.7193 38.3624 26.788C36.2973 26.6196 34.1347 26.8684 31.8525 27.3062C29.3231 27.8118 27.0254 28.774 24.4733 29.1874C21.9847 29.5097 24.973 30.0738 24.2601 30.2001C22.9629 30.6337 25.8084 30.926 24.0921 31.3839C23.0323 31.1898 21.9284 30.839 22.3815 29.7623C19.9988 30.0616 17.9041 31.013 19.7871 33.3483L19.9269 33.3497ZM25.6704 30.5331C26.2279 28.5513 28.6626 32.1645 26.5849 30.7969C26.3378 30.6173 25.9284 30.4719 25.6704 30.5331ZM25.7788 29.572C26.5849 28.9943 26.2066 29.897 25.7788 29.572V29.572ZM26.8021 29.5883C26.8758 28.6762 29.1468 30.071 27.1764 29.9161L26.8021 29.5883ZM28.2023 29.0461C28.7147 28.4695 28.3508 29.557 28.2023 29.0461V29.0461ZM28.5611 28.8151C29.4135 27.8296 33.3839 28.1856 30.4776 28.7183C29.6986 28.1529 29.1016 29.0514 28.5611 28.8151ZM33.7438 28.0457C33.6155 25.3526 36.3197 29.0013 33.7438 28.0457V28.0457ZM35.2148 28.0373C35.7524 26.6809 37.3022 27.4924 35.4644 27.7641C35.5038 27.9096 35.4095 28.4657 35.2148 28.0373ZM23.3455 35.2338C24.9517 34.2862 21.6404 34.4115 23.3455 35.2338V35.2338ZM24.534 35.5504C25.0973 34.9742 23.3087 35.3166 24.534 35.5504V35.5504ZM21.0337 33.1594C21.9511 32.4798 19.9468 32.9012 21.0337 33.1594V33.1594ZM68.4705 61.7395C68.4972 60.9509 67.7688 62.0941 68.4705 61.7395V61.7395ZM63.6502 58.5707C63.7872 57.6642 63.0305 58.6497 63.6502 58.5707V58.5707ZM69.7959 62.0454C71.079 62.0495 73.6842 61.6605 70.8925 61.6619C70.4535 61.7273 68.3393 61.7137 69.7959 62.0454ZM25.5786 34.9943C26.6174 34.9265 27.2032 33.8919 25.3766 33.9504C22.5466 33.6692 27.8735 34.8844 25.0138 34.5364C24.6301 34.781 25.5558 35.0626 25.5786 34.9943ZM26.4931 35.4405C26.3844 34.7988 26.1712 35.7815 26.4931 35.4405V35.4405ZM27.5786 32.6538C28.0288 32.1154 26.9546 32.5097 27.5786 32.6538V32.6538ZM24.1231 27.0925C25.9779 26.4863 28.513 25.8039 29.3882 27.3918C28.4975 26.36 29.0283 25.3432 29.8695 26.8535C31.0594 28.3801 31.6549 26.1589 30.8812 25.6463C31.7636 26.701 32.7656 27.2001 31.4713 25.7131C32.8787 24.0831 28.6554 25.9264 27.6957 25.9073C27.2343 26.107 22.9278 26.9648 24.1231 27.0925ZM25.21 25.0891C26.2673 24.3211 28.8671 25.5471 27.1988 24.325C27.0352 24.1865 23.5461 25.252 25.21 25.0891ZM29.0648 25.2426C30.3013 25.2725 28.5315 23.6412 30.005 24.3806C29.7636 23.6196 28.2886 23.4769 27.5674 23.1724C27.1595 23.8684 28.397 25.252 29.0648 25.2426ZM25.8861 21.8727C26.3139 21.3142 25.1352 22.157 25.8861 21.8727V21.8727ZM27.4615 22.2356C29.4558 21.9816 26.9531 21.4092 27.059 22.2154L27.4615 22.2356ZM24.5199 20.02C23.1154 18.2543 27.1609 20.3165 25.7336 18.4676C24.5325 17.5475 23.3795 19.5049 24.5199 20.02ZM42.5373 29.3656C43.1812 28.267 39.8796 27.8839 42.104 28.9765C42.3085 29.042 42.2623 29.4415 42.5373 29.3656Z" fill="white"/>
</g>
</svg>
