<svg width="86" height="86" viewBox="0 0 86 86" fill="none" xmlns="http://www.w3.org/2000/svg">
<path d="M75.4608 86H10.5392C4.63726 86 0 81.3627 0 75.4608V10.5392C0 4.63726 4.63726 0 10.5392 0H75.4608C81.3627 0 86 4.63726 86 10.5392V75.25C86 81.152 81.3627 86 75.4608 86Z" fill="#121212"/>
<path d="M75.4608 85.5H10.5392C4.9134 85.5 0.5 81.0866 0.5 75.4608V10.5392C0.5 4.9134 4.9134 0.5 10.5392 0.5H75.4608C81.0866 0.5 85.5 4.9134 85.5 10.5392V75.25C85.5 80.8888 81.0738 85.5 75.4608 85.5Z" stroke="#F7F7F7" stroke-opacity="0.24"/>
<path d="M42.7849 60.4915L39.4124 51.6386H27.6085L24.2359 60.4915H15.5938C15.5938 60.4915 22.3388 41.3101 25.2898 32.668C26.3438 29.5062 27.1869 26.766 28.03 23.815C28.2408 23.3935 28.4516 21.918 28.4516 21.918H36.6722C37.7261 21.918 38.1477 22.3395 38.3585 23.1827C42.3634 34.9866 51.4271 60.2807 51.4271 60.2807H42.7849V60.4915Z" fill="#FE9900"/>
<path d="M33.0983 29.2969L37.7356 44.2626H28.6719L33.0983 29.2969Z" fill="#340100"/>
<path d="M62.8145 31.6172H54.8047V60.4946H62.8145V31.6172Z" fill="#FD9900"/>
<path d="M58.8093 28.2472C61.254 28.2472 63.2358 26.171 63.2358 23.6099C63.2358 21.0488 61.254 18.9727 58.8093 18.9727C56.3646 18.9727 54.3828 21.0488 54.3828 23.6099C54.3828 26.171 56.3646 28.2472 58.8093 28.2472Z" fill="#FD9900"/>
</svg>
