<svg width="86" height="86" viewBox="0 0 86 86" fill="none" xmlns="http://www.w3.org/2000/svg">
<path d="M75.4608 86H10.5392C4.63726 86 0 81.3627 0 75.4608V10.5392C0 4.63726 4.63726 0 10.5392 0H75.4608C81.3627 0 86 4.63726 86 10.5392V75.25C86 81.152 81.3627 86 75.4608 86Z" fill="#121212"/>
<path d="M75.4608 85.5H10.5392C4.9134 85.5 0.5 81.0866 0.5 75.4608V10.5392C0.5 4.9134 4.9134 0.5 10.5392 0.5H75.4608C81.0866 0.5 85.5 4.9134 85.5 10.5392V75.25C85.5 80.8888 81.0738 85.5 75.4608 85.5Z" stroke="#F7F7F7" stroke-opacity="0.24"/>
<path d="M31.2486 22.9442V59.8756C31.2486 60.2701 31.0695 60.4493 30.747 60.4493H23.7236C23.4011 60.4493 23.2578 60.2701 23.2578 59.8756V22.9442C23.2578 22.6215 23.437 22.4781 23.7595 22.4781H30.747C30.962 22.4423 31.177 22.5857 31.2128 22.8367C31.2486 22.8725 31.2486 22.9084 31.2486 22.9442Z" fill="#FF3366"/>
<path d="M51.9622 60.8813C49.3105 60.9171 46.6588 60.3793 44.258 59.2678C42.0005 58.228 40.1372 56.5069 38.8472 54.3914C37.5213 52.2042 36.8763 49.4792 36.8763 46.2163C36.8405 43.563 37.5213 40.9455 38.8472 38.6507C40.2088 36.3201 42.1797 34.3839 44.5447 33.0931C47.053 31.6947 50.063 31.0135 53.6105 31.0135C53.7897 31.0135 54.0405 31.0135 54.363 31.0493C54.6855 31.0852 55.0438 31.0852 55.4738 31.121V19.7906C55.4738 19.5396 55.5813 19.3962 55.8322 19.3962H63.1063C63.2855 19.3603 63.4288 19.5038 63.4647 19.6472V19.7189V53.8536C63.4647 54.499 63.5005 55.2161 63.5363 56.0049C63.608 56.7579 63.6438 57.475 63.6797 58.0845C63.6797 58.3355 63.5722 58.5507 63.3213 58.6582C61.458 59.4471 59.4872 60.0208 57.4805 60.3793C55.6888 60.702 53.8255 60.8813 51.9622 60.8813ZM55.4738 53.7101V37.9336C55.1513 37.8619 54.8288 37.7902 54.5063 37.7543C54.1122 37.7185 53.718 37.6826 53.3238 37.6826C51.9263 37.6826 50.5288 37.9695 49.2747 38.6149C48.0563 39.2244 47.0172 40.1208 46.2288 41.2682C45.4405 42.4156 45.0463 43.9574 45.0463 45.8219C45.0105 47.0768 45.2255 48.3318 45.6555 49.515C46.0138 50.4831 46.5513 51.3437 47.268 52.0608C47.9488 52.7062 48.773 53.2082 49.7047 53.495C50.6722 53.8177 51.6755 53.9611 52.6788 53.9611C53.2163 53.9611 53.718 53.9253 54.1838 53.8894C54.6497 53.9253 55.0797 53.8536 55.4738 53.7101Z" fill="#FF3366"/>
</svg>
