<svg width="86" height="86" viewBox="0 0 86 86" fill="none" xmlns="http://www.w3.org/2000/svg">
<rect width="85.165" height="86" rx="8" fill="#121212"/>
<rect x="0.5" y="0.5" width="84.165" height="85" rx="7.5" stroke="#F7F7F7" stroke-opacity="0.24"/>
<mask id="mask0_2610_40027" style="mask-type:alpha" maskUnits="userSpaceOnUse" x="1" y="1" width="83" height="84">
<rect x="1" y="1" width="83" height="84" rx="7" fill="#121212"/>
</mask>
<g mask="url(#mask0_2610_40027)">
<path d="M15.2603 56.375H19.8912V36.6353H15.2603V56.375ZM17.5665 34.0467C19.0172 34.0467 20.1516 32.9293 20.1516 31.5327C20.1516 30.1173 19.0172 29 17.5665 29C16.1345 29 15 30.1174 15 31.5327C15 32.9293 16.1345 34.0467 17.5665 34.0467V34.0467ZM35.3096 29.0557C27.48 29.0557 22.5699 34.4004 22.5699 42.9483C22.5699 51.4961 27.4795 56.8222 35.3096 56.8222C43.1206 56.8222 48.0307 51.4961 48.0307 42.9483C48.0307 34.4004 43.1211 29.0557 35.3096 29.0557ZM35.3096 33.1527C40.0892 33.1527 43.1392 36.9517 43.1392 42.9482C43.1392 48.926 40.0891 52.7251 35.3096 52.7251C30.5114 52.7251 27.48 48.9261 27.48 42.9482C27.48 36.9518 30.5115 33.1527 35.3096 33.1527V33.1527ZM49.9842 48.8144C50.1887 53.7682 54.2431 56.8221 60.4176 56.8221C66.9083 56.8221 71 53.619 71 48.5164C71 44.5126 68.6938 42.2593 63.2447 41.0117L60.1574 40.304C56.8656 39.5219 55.508 38.479 55.508 36.6913C55.508 34.4566 57.5537 32.9668 60.5852 32.9668C63.6538 32.9668 65.7552 34.4752 65.9785 36.9892H70.5536C70.442 32.2591 66.5364 29.0559 60.6225 29.0559C54.7826 29.0559 50.6352 32.2776 50.6352 37.045C50.6352 40.8812 52.9785 43.265 57.9253 44.401L61.4032 45.2204C64.788 46.0212 66.1642 47.1385 66.1642 49.0753C66.1642 51.31 63.9139 52.9115 60.678 52.9115C57.4048 52.9115 54.9314 51.2914 54.6339 48.8145H49.9844L49.9842 48.8144Z" fill="white"/>
</g>
</svg>
