<svg width="86" height="86" viewBox="0 0 86 86" fill="none" xmlns="http://www.w3.org/2000/svg">
<rect width="85.165" height="86" rx="8" fill="#121212"/>
<rect x="0.5" y="0.5" width="84.165" height="85" rx="7.5" stroke="#F7F7F7" stroke-opacity="0.24"/>
<path d="M64.6372 41.9925C64.6372 53.8459 54.8786 63.4643 42.8342 63.4643C30.7897 63.4643 21.0312 53.8459 21.0312 41.9925C21.0312 30.1389 30.79 20.5205 42.8342 20.5205C54.8787 20.5205 64.6375 30.1389 64.6375 41.9925" fill="#D33833"/>
<path d="M21.934 47.3083C21.934 47.3083 20.3516 24.9223 41.7853 24.2786L40.2909 21.874L28.6683 25.6332L25.3452 29.3079L22.444 34.6588L20.791 40.8905L21.2835 45.0563" fill="#EF3D3A"/>
<path d="M27.9102 27.3414C24.0948 31.1176 21.721 36.3164 21.721 42.0737C21.721 47.8311 24.0948 53.0297 27.9102 56.8058C31.7433 60.582 37.0008 62.9019 42.8383 62.9019C48.6759 62.9019 53.9332 60.582 57.7663 56.8059C61.582 53.0297 63.9556 47.8311 63.9556 42.0737C63.9556 36.3162 61.582 31.1176 57.7663 27.3414C53.9335 23.5821 48.6759 21.2454 42.8383 21.2454C37.0184 21.2454 31.7436 23.5653 27.9102 27.3414ZM26.9432 57.7033C22.8817 53.7069 20.3672 48.1698 20.3672 42.0737C20.3672 35.9775 22.8817 30.4402 26.9432 26.427C31.0049 22.4307 36.6316 19.9414 42.8385 19.9414C49.0452 19.9414 54.6718 22.4307 58.7336 26.427C62.7951 30.4233 65.3096 35.9605 65.3096 42.0737C65.3096 48.1696 62.7951 53.7069 58.7336 57.7033C54.6718 61.7165 49.0452 64.1889 42.8383 64.1889C36.6316 64.1889 31.0049 61.7165 26.9432 57.7033Z" fill="#231F20"/>
<path d="M52.0154 42.109L48.6922 42.5831L44.2085 43.0743L41.3073 43.1421L38.4765 43.0574L36.3138 42.414L34.3971 40.4156L32.9025 36.3346L32.5685 35.4541L30.5817 34.8107L29.421 32.965L28.5947 30.3232L29.5092 28.0035L31.6719 27.2752L33.4125 28.0711L34.2389 29.8323L35.2412 29.6798L35.5752 29.2735L35.2412 27.4277L35.1532 25.1077L35.6455 21.9074L35.628 20.0785L37.1401 17.7417L39.7951 15.8959L44.4372 13.9824L49.5891 14.7105L54.0726 17.8264L56.1475 21.0267L57.4836 23.3467L57.8179 29.104L56.8156 34.0655L54.9868 38.4685L53.2639 40.8222" fill="#F0D6B7"/>
<path d="M49.2059 55.945L37.3372 56.419V58.3325L38.3395 65.0552L37.8471 65.6139L29.5479 62.8877L28.9677 61.9224L28.1412 52.8799L26.1895 47.4612L25.7676 46.1742L32.414 41.7715L34.4889 40.9756L36.3174 43.143L37.8999 44.4979L39.7286 45.0566L40.555 45.2938L41.5571 49.4594L42.3133 50.3399L44.2298 49.6965L42.8935 52.1855L50.1025 55.4706L49.2059 55.9447" fill="#335061"/>
<path d="M29.5079 28.0389L31.6706 27.3109L33.4114 28.1067L34.2377 29.8679L35.2399 29.7155L35.4863 28.7502L34.9937 26.9044L35.486 22.5017L35.0641 20.0971L36.5586 18.4208L39.7938 15.9484L38.8795 14.7461L34.308 16.9135L32.3915 18.353L31.3189 20.5882L29.6661 22.7557L29.1738 25.3127L29.5079 28.0389Z" fill="#6D6B6D"/>
<path d="M32.9191 20.5208C32.9191 20.5208 34.1673 17.5575 39.1434 16.1181C44.1192 14.6788 39.3897 15.0851 39.3897 15.0851L33.9913 17.0834L31.9168 19.0814L31.0025 20.6731L32.9191 20.5208ZM30.4223 27.4806C30.4223 27.4806 28.6814 21.8754 35.3277 21.0796L35.0816 20.1145L30.5102 21.1474L29.1738 25.3132L29.5079 28.0393L30.4223 27.4806Z" fill="#DCD9D8"/>
<path d="M33.0775 34.9161L34.1675 33.9C34.1675 33.9 34.6599 33.9509 34.7478 34.5096C34.8356 35.0686 35.0818 40.1147 38.6513 42.8242C38.9853 43.078 35.9962 42.4176 35.9962 42.4176L33.3409 38.4213L33.0775 34.9161ZM48.3571 33.392C48.3571 33.392 48.5504 30.9705 49.2362 31.1568C49.922 31.343 49.922 32.0034 49.922 32.0034C49.922 32.0034 48.2692 33.0195 48.3571 33.392ZM55.2497 24.5189C55.2497 24.5189 53.878 24.7898 53.7551 25.9582C53.6319 27.1266 55.2497 26.1953 55.4958 26.1106L55.2497 24.5189ZM45.2097 24.6036C45.2097 24.6036 43.381 24.8406 43.381 25.9582C43.381 27.0757 45.4559 26.9911 46.036 26.517L45.2097 24.6036ZM33.9213 29.8022C33.9213 29.8022 30.7742 27.9564 30.4402 29.7175C30.1061 31.4785 29.3675 32.7484 30.9323 34.5942L29.8598 34.2725L28.8577 31.8002L28.5234 29.3956L30.4402 27.4822L32.6027 27.6347L33.8512 28.5998L33.9214 29.8022H33.9213ZM35.416 24.756C35.416 24.756 36.8225 17.7115 43.9614 16.3568C49.834 15.2392 52.9286 16.594 54.0891 17.8808C54.0891 17.8808 48.8494 11.8864 43.8733 13.7152C38.8974 15.561 35.24 18.9138 35.3279 21.0645C35.4687 24.7558 35.4158 24.7558 35.4158 24.7558L35.416 24.756ZM54.6693 18.6768C54.6693 18.6768 52.2606 18.5921 52.1725 20.6749C52.1725 20.6749 52.1725 20.9967 52.3309 21.3184C52.3309 21.3184 54.2474 19.2355 55.4078 20.3532" fill="#F7E4CD"/>
<path d="M44.1387 21.5364C44.1387 21.5364 43.7168 18.353 40.9034 20.1986C39.0747 21.4009 39.2505 23.0773 39.5671 23.3992C39.9013 23.7209 39.8133 24.3642 40.0594 23.9241C40.3056 23.4838 40.2353 22.0445 41.1496 21.638C42.0463 21.2317 43.5585 20.7915 44.1387 21.5364Z" fill="#F7E4CD"/>
<path d="M36.3315 43.1436L28.5242 46.4963C28.5242 46.4963 31.7595 58.8917 30.1065 62.7356L28.9463 62.3292L28.8583 57.6048L26.6956 48.6639L25.7812 46.1914L33.9222 40.9082L36.3311 43.1435L36.3315 43.1436ZM37.1225 50.0016L38.2302 51.3056V56.0977H36.9116C36.9116 56.0977 36.7534 52.7449 36.7534 52.3386C36.7534 51.932 36.9116 50.4928 36.9116 50.4928L37.1225 50.0016ZM37.1578 56.8259L33.4125 56.9782L34.4851 57.7064L37.1401 58.113" fill="#49728B"/>
<path d="M49.9396 56.0299L53.0164 55.9453L53.7725 63.2944L50.6252 63.7009L49.9395 56.0298" fill="#335061"/>
<path d="M50.7666 56.0302L55.4086 55.793C55.4086 55.793 57.3252 51.1533 57.3252 50.9163C57.3252 50.679 58.9779 44.1937 58.9779 44.1937L55.2327 40.4344L54.4766 39.791L52.4898 41.7044V49.1383L50.7666 56.0302Z" fill="#335061"/>
<path d="M52.8405 55.472L49.9395 56.0309L50.3615 58.2661C51.4339 58.7402 53.2627 57.4702 53.2627 57.4702L52.8405 55.472ZM52.9285 41.4681L58.7485 45.6336L58.9068 43.7201L54.5111 39.8086L52.9287 41.4681" fill="#49728B"/>
<path d="M40.0417 71.7777L38.3186 65.0551L37.4571 60.0936L37.3164 56.419L45.1056 56.0127H49.9409L49.5015 64.4116L50.2574 70.8972L50.1696 72.0994L43.8571 72.5737L40.0417 71.7777Z" fill="white"/>
<path d="M48.8668 55.9459C48.8668 55.9459 48.4449 64.2605 49.6933 70.1871C49.6933 70.1871 47.1965 71.7111 43.5566 72.1006L50.5373 71.8635L51.3637 71.3894L50.3615 58.2828L50.0976 55.4717" fill="#DCD9D8"/>
<path d="M53.9008 62.6655L57.1361 61.7849L63.2726 61.4632L64.1869 58.7369L62.5341 54.0124L60.6176 53.7754L57.9625 54.5713L55.4304 55.7736L54.0766 55.5364L53.0215 55.9429" fill="white"/>
<path d="M53.8408 61.0589C53.8408 61.0589 56.0036 60.0936 56.3376 60.1783L55.4233 55.7757L56.4959 55.3691C56.4959 55.3691 57.252 59.5349 57.252 60.009C57.252 60.009 61.8939 60.2461 62.3158 60.2461C62.3158 60.2461 63.3181 58.4002 63.0719 56.4867L63.9864 59.0437L64.0742 60.4831L62.7379 62.3965L61.2434 62.7184L58.7465 62.6338L57.9201 61.6007L55.0189 62.007L54.1046 62.3289" fill="#DCD9D8"/>
<path d="M50.5743 55.3859L48.7456 50.9156L46.8291 48.2737C46.8291 48.2737 47.2512 47.1562 47.8314 47.1562H49.748L51.5768 47.7996L51.4184 50.7631L50.5743 55.3859Z" fill="white"/>
<path d="M50.9397 53.8606C50.9397 53.8606 48.6186 49.5427 48.6186 48.8991C48.6186 48.8991 49.0407 47.9338 49.6208 48.1711C50.2012 48.4081 51.4497 49.0516 51.4497 49.0516V47.5275L48.6186 46.9688L46.7021 47.2058L49.9374 54.5889L50.6054 54.6735" fill="#DCD9D8"/>
<path d="M40.7786 43.3122L38.4753 43.075L36.3125 42.4316V43.1598L37.3674 44.2775L40.6906 45.7167" fill="white"/>
<path d="M37.0714 43.5479C37.0714 43.5479 39.6384 44.5808 40.4825 44.3438L40.5703 45.309L38.2495 44.8348L36.8428 43.8695L37.0714 43.5479Z" fill="#DCD9D8"/>
<path d="M53.895 47.4253C52.4883 47.3914 51.2046 47.222 50.097 46.9173C50.1674 46.477 50.0266 46.0537 50.1498 45.7319C50.4663 45.5117 50.9761 45.5117 51.4508 45.4611C51.0465 45.2746 50.4663 45.19 50.0091 45.3087C49.9914 45.0038 49.8508 44.8175 49.7627 44.5804C50.5542 44.3095 52.418 42.5316 53.4729 43.1071C53.9829 43.395 54.1939 44.9867 54.229 45.7828C54.2641 46.4261 54.1586 47.0697 53.895 47.4253Z" fill="#D33833"/>
<path d="M53.895 47.4253C52.4883 47.3914 51.2046 47.222 50.097 46.9173C50.1674 46.477 50.0266 46.0537 50.1498 45.7319C50.4663 45.5117 50.9761 45.5117 51.4508 45.4611C51.0465 45.2746 50.4663 45.19 50.0091 45.3087C49.9914 45.0038 49.8508 44.8175 49.7627 44.5804C50.5542 44.3095 52.418 42.5316 53.4729 43.1071C53.9829 43.395 54.1939 44.9867 54.229 45.7828C54.2641 46.4261 54.1586 47.0697 53.895 47.4253Z" fill="black"/>
<path fill-rule="evenodd" clip-rule="evenodd" d="M50.0002 44.671C50.002 44.6748 50.0038 44.6785 50.0055 44.6824C50.0103 44.6925 50.0151 44.703 50.0202 44.7137C50.0411 44.7584 50.0635 44.8065 50.0843 44.8555C50.1163 44.9312 50.146 45.0132 50.1666 45.1055C50.63 45.0388 51.1544 45.1324 51.5352 45.3078L52.0945 45.5655L51.4782 45.6314C51.3818 45.6416 51.2893 45.6496 51.1995 45.6572C51.0534 45.6697 50.9142 45.6816 50.776 45.7023C50.5839 45.7311 50.427 45.7733 50.3078 45.8416C50.2771 45.9556 50.2786 46.0937 50.2884 46.2719C50.2895 46.2914 50.2907 46.3113 50.2918 46.3315C50.2999 46.4709 50.309 46.6285 50.2973 46.7924C51.3284 47.0615 52.5125 47.2155 53.8079 47.2528C53.8951 47.1075 53.9633 46.9126 54.0077 46.6815C54.0596 46.411 54.0769 46.1029 54.0599 45.7924V45.7916V45.7907C54.0426 45.3999 53.982 44.8131 53.8638 44.2915C53.8046 44.0304 53.7323 43.7917 53.6468 43.604C53.5587 43.4104 53.4691 43.2996 53.3922 43.2556C53.186 43.1437 52.9263 43.138 52.6149 43.2215C52.3028 43.3052 51.9625 43.4724 51.6187 43.673C51.3531 43.8279 51.0932 43.9978 50.8474 44.1587C50.7753 44.2059 50.7043 44.2523 50.6347 44.2973C50.4084 44.4439 50.1899 44.5805 50.0002 44.671ZM53.9029 47.426L53.8984 47.5967C52.4803 47.5624 51.1813 47.3917 50.0562 47.0821L49.906 47.0408L49.9297 46.892C49.9584 46.712 49.9484 46.5348 49.9377 46.3485C49.9367 46.329 49.9356 46.3095 49.9344 46.2898C49.9237 46.0929 49.9154 45.8722 49.9914 45.6736L50.01 45.6247L50.0538 45.5942C50.1658 45.5164 50.2938 45.4635 50.4274 45.426C50.3002 45.4292 50.1768 45.4446 50.0631 45.4741L49.8522 45.5288L49.8401 45.3189C49.8326 45.1915 49.7999 45.0879 49.7561 44.9843C49.738 44.9415 49.7189 44.9006 49.6982 44.8564C49.6929 44.8451 49.6876 44.8336 49.682 44.8218C49.6558 44.7654 49.6283 44.7045 49.6038 44.6387L49.5439 44.4776L49.7113 44.4203C49.8841 44.3612 50.1298 44.2129 50.437 44.014C50.5036 43.9709 50.5726 43.9258 50.6436 43.8794C50.8904 43.7179 51.1608 43.541 51.4351 43.3811C51.788 43.1752 52.161 42.989 52.5198 42.8928C52.8785 42.7965 53.247 42.7841 53.5682 42.9594L53.5692 42.96L53.5704 42.9607C53.7482 43.061 53.8759 43.257 53.9714 43.4669C54.07 43.6834 54.1483 43.9464 54.21 44.2187C54.3335 44.7636 54.396 45.3701 54.4139 45.7753C54.4319 46.1079 54.414 46.443 54.3561 46.7438C54.2987 47.0424 54.1998 47.3192 54.0471 47.5252L53.9029 47.426Z" fill="#D33833"/>
<path d="M47.1587 45.2092C47.1587 45.3109 47.1587 45.4123 47.141 45.5139C46.7015 45.785 45.998 45.785 45.5057 46.0221C46.2092 46.0559 46.7718 46.2251 47.2641 46.4452C47.2463 46.6993 47.2463 46.9704 47.229 47.2243C46.42 47.7492 45.6817 48.5452 44.7322 49.053C44.275 49.2903 42.7101 49.8999 42.2354 49.7813C41.9715 49.7135 41.9365 49.3918 41.831 49.0871C41.6024 48.4437 41.0748 47.3935 41.022 46.4114C40.9692 45.1754 40.8288 43.0924 42.2177 43.3464C43.3429 43.5497 44.6441 44.0409 45.5057 44.498C46.0508 44.8028 46.3497 45.1414 47.1587 45.2092Z" fill="#D33833"/>
<path d="M47.1587 45.2092C47.1587 45.3109 47.1587 45.4123 47.141 45.5139C46.7015 45.785 45.998 45.785 45.5057 46.0221C46.2092 46.0559 46.7718 46.2251 47.2641 46.4452C47.2463 46.6993 47.2463 46.9704 47.229 47.2243C46.42 47.7492 45.6817 48.5452 44.7322 49.053C44.275 49.2903 42.7101 49.8999 42.2354 49.7813C41.9715 49.7135 41.9365 49.3918 41.831 49.0871C41.6024 48.4437 41.0748 47.3935 41.022 46.4114C40.9692 45.1754 40.8288 43.0924 42.2177 43.3464C43.3429 43.5497 44.6441 44.0409 45.5057 44.498C46.0508 44.8028 46.3497 45.1414 47.1587 45.2092Z" fill="black"/>
<path fill-rule="evenodd" clip-rule="evenodd" d="M41.2074 46.4013C41.2325 46.8683 41.3713 47.3582 41.5363 47.8184C41.6186 48.0478 41.7066 48.2673 41.7889 48.4716C41.7952 48.487 41.8014 48.5023 41.8076 48.5176C41.8825 48.7031 41.9528 48.8771 42.0069 49.0296L42.0071 49.0301L42.0073 49.0308C42.0297 49.0952 42.0492 49.1611 42.067 49.2211C42.0714 49.2361 42.0757 49.2507 42.08 49.2649C42.1022 49.3387 42.1224 49.4014 42.1455 49.4552C42.1921 49.5625 42.2358 49.6002 42.2887 49.614C42.3639 49.6325 42.5143 49.6255 42.7336 49.5816C42.9443 49.5394 43.1911 49.4693 43.4412 49.3868C43.9421 49.2219 44.4373 49.0141 44.6553 48.9011C45.1137 48.6558 45.5243 48.3393 45.9274 48.0123C45.9936 47.9585 46.0599 47.9043 46.1262 47.8501C46.4354 47.597 46.7454 47.3433 47.0654 47.1286C47.0707 47.0313 47.074 46.9314 47.0775 46.8294L47.0776 46.8271C47.0805 46.7357 47.0837 46.6426 47.0884 46.5503C46.6396 46.3613 46.1307 46.2203 45.5051 46.1902L44.8309 46.1578L45.4346 45.8671C45.683 45.7475 45.9771 45.6842 46.2435 45.6268C46.2666 45.6218 46.2896 45.6169 46.3123 45.6119C46.5745 45.5551 46.8038 45.4996 46.9841 45.407C46.9856 45.3912 46.9865 45.3751 46.9873 45.3587C46.4271 45.2809 46.0935 45.0653 45.7614 44.8506C45.6523 44.7801 45.5434 44.7097 45.4266 44.6443C44.5791 44.1948 43.2967 43.7112 42.1932 43.5119L42.1928 43.5118C41.8958 43.4575 41.7069 43.5287 41.5724 43.6614C41.4269 43.805 41.3248 44.0412 41.2613 44.351C41.1428 44.9294 41.1752 45.6711 41.2019 46.2774C41.2037 46.3194 41.2056 46.3606 41.2074 46.4013ZM47.1669 45.2069H47.344V45.2125C47.344 45.3106 47.3442 45.4241 47.324 45.5399L47.311 45.6146L47.2447 45.6554C46.9945 45.8096 46.6779 45.8824 46.3903 45.9449C46.3743 45.9484 46.3584 45.9518 46.3426 45.9552C46.714 46.0354 47.0439 46.1527 47.347 46.2882L47.4573 46.3376L47.4492 46.4544C47.4405 46.578 47.4362 46.7063 47.4318 46.8381L47.4316 46.8433C47.4273 46.9723 47.4228 47.1047 47.4141 47.2332L47.4083 47.3168L47.3362 47.3636C47.0084 47.5763 46.6928 47.8345 46.3602 48.1066C46.2927 48.1618 46.2247 48.2174 46.1557 48.2733C45.7502 48.6023 45.3172 48.9375 44.8265 49.2L44.8255 49.2005L44.8244 49.2011C44.5848 49.3254 44.0697 49.5406 43.5559 49.7098C43.2984 49.7946 43.0363 49.8696 42.8058 49.9157C42.5846 49.96 42.3614 49.9847 42.1992 49.9442L42.1986 49.9441L42.198 49.9439C41.9873 49.8898 41.8817 49.7328 41.8185 49.5864C41.7867 49.5132 41.7619 49.4341 41.7396 49.3597C41.7346 49.3434 41.7299 49.3272 41.7252 49.3113C41.7076 49.2523 41.6908 49.1959 41.6713 49.1393C41.6197 48.9941 41.5521 48.8269 41.4764 48.6393C41.4705 48.6247 41.4646 48.61 41.4587 48.5953C41.3763 48.391 41.2861 48.166 41.2013 47.9297C41.0324 47.4588 40.881 46.9329 40.8534 46.418L40.8533 46.4171V46.4162C40.8514 46.373 40.8494 46.3286 40.8474 46.2831C40.821 45.6868 40.7864 44.9057 40.9136 44.2848C40.982 43.9512 41.1019 43.637 41.3189 43.4229C41.5471 43.1978 41.8614 43.1039 42.2587 43.1764C43.4051 43.3836 44.7238 43.8817 45.5994 44.3462L45.6012 44.3473L45.6029 44.3482C45.7518 44.4314 45.8781 44.5128 45.9964 44.589C46.3422 44.8117 46.6185 44.9896 47.1822 45.0369L47.1669 45.2069Z" fill="#D33833"/>
<path d="M47.9569 46.6824C47.8337 46.0049 47.693 45.8189 47.7458 45.226C49.6272 44.0237 49.9612 47.292 47.9566 46.6824" fill="#D33833"/>
<path d="M47.9569 46.6824C47.8337 46.0049 47.693 45.8189 47.7458 45.226C49.6272 44.0237 49.9612 47.292 47.9566 46.6824H47.9569Z" fill="black"/>
<path fill-rule="evenodd" clip-rule="evenodd" d="M47.9096 45.3248C47.8956 45.5568 47.9157 45.7178 47.9525 45.889C47.9661 45.9525 47.9835 46.0232 48.003 46.1022C48.0341 46.2278 48.0704 46.3747 48.1048 46.5484C48.5025 46.6453 48.7552 46.5574 48.9057 46.4201C49.0774 46.2632 49.1553 46.0073 49.1259 45.7517C49.0964 45.4956 48.9642 45.2802 48.7684 45.1855C48.5912 45.0999 48.3101 45.0894 47.9096 45.3248ZM47.9221 46.6881L47.7759 46.7127C47.7368 46.4979 47.6984 46.3436 47.6632 46.2022C47.6427 46.1195 47.6232 46.0413 47.6053 45.9579C47.5583 45.7381 47.5348 45.5269 47.5628 45.2124L47.5702 45.1303L47.6414 45.0848C48.1429 44.7643 48.5859 44.7155 48.9274 44.8805C49.2607 45.0415 49.4395 45.3796 49.4781 45.714C49.5168 46.0491 49.42 46.4207 49.1494 46.6677C48.8699 46.9228 48.4425 47.012 47.8969 46.8461L47.9221 46.6881Z" fill="#D33833"/>
<path d="M50.6673 47.2222C50.6673 47.2222 50.0871 46.4263 50.509 46.1892C50.9312 45.9522 51.3355 46.1892 51.5816 45.7829C51.828 45.3764 51.5816 45.1394 51.6695 44.6652C51.7575 44.1911 52.1618 44.1065 52.5839 44.0218C53.0058 43.937 54.1664 43.7847 54.3246 44.1743L53.8324 42.7348L52.8301 42.4131L49.6827 44.1743L49.5244 45.0548V46.8159L50.6673 47.2222ZM41.9462 49.8638C41.8407 48.6106 41.7353 47.3746 41.6297 46.1214C41.4539 44.2589 42.0869 44.5804 43.7747 44.5804C44.0386 44.5804 45.3572 44.8685 45.4452 45.0548C45.9024 45.9522 44.6891 45.7489 45.9726 46.4263C47.0453 46.9851 48.9619 46.0877 48.5223 44.8176C48.2759 44.5297 47.2562 44.733 46.887 44.5466L44.9353 43.5815C44.109 43.175 42.2098 42.5654 41.3307 43.1412C39.0976 44.5974 41.4714 48.2552 42.2626 49.7792" fill="#EF3D3A"/>
<path d="M44.1416 21.5345C41.8734 21.0265 40.7482 22.4489 40.0624 23.9221C39.447 23.7868 39.6931 22.9739 39.8515 22.5676C40.2557 21.5007 41.8911 20.0612 43.2273 20.2645C43.7899 20.3323 44.5635 20.8403 44.1416 21.5345ZM55.1663 24.0067H55.2716C55.7817 25.0229 56.2212 26.1067 56.8718 27.021C56.4323 28.0032 53.6014 28.8499 53.6365 27.1226C54.2519 26.8687 55.307 27.0717 55.8521 26.7331C55.5355 25.9034 55.0959 25.1921 55.1663 24.0069V24.0067ZM45.2846 24.0409C45.7769 24.9043 45.9349 25.8018 46.6207 26.4454C46.9374 26.7331 47.5351 27.0888 47.2363 27.9015C47.166 28.0879 46.656 28.5112 46.3571 28.5959C45.2846 28.9007 42.7701 28.6637 43.6141 27.3596C44.5107 27.3937 45.7065 27.9186 46.3748 27.2918C45.8648 26.513 44.9505 24.9551 45.2846 24.0409ZM54.7619 32.7444C53.1442 33.7436 51.3329 34.8444 48.6605 34.5903C48.0979 34.1162 47.8694 33.0492 48.432 32.3552C48.7132 32.8293 48.5374 33.7098 49.3463 33.8452C50.8585 34.0993 52.6166 32.9477 53.7068 32.5585C54.3748 31.4577 53.6542 31.0682 53.0387 30.3569C51.7904 28.9176 50.1375 27.1226 50.1902 24.9721C50.7002 24.6164 50.7353 25.5139 50.8056 25.6664C51.4561 27.1226 53.0915 29.0022 54.2695 30.2554C54.5684 30.5602 55.0431 30.865 55.0959 31.0682C55.2542 31.6439 54.6915 32.355 54.7619 32.7446V32.7444ZM33.3455 31.6948C32.8356 31.4069 32.7127 30.1876 32.1148 30.1537C31.2533 30.1029 31.4114 31.7456 31.4114 32.7107C30.8313 32.2028 30.7257 30.6108 31.1478 29.7982C30.6555 29.5609 30.4443 30.0521 30.1631 30.2215C30.5323 27.7662 33.9083 29.0869 33.3456 31.6948H33.3455ZM55.7817 33.7774C55.0255 35.1661 53.9529 36.6901 51.7376 36.7409C51.6847 36.3006 51.6496 35.6064 51.7376 35.3353C53.4431 35.1661 54.498 34.3364 55.7817 33.7774ZM45.1614 34.6749C46.5681 35.3863 49.1704 35.4709 51.1045 35.4201C51.21 35.8265 51.21 36.3344 51.21 36.8256C48.7309 36.9271 45.812 36.3344 45.1614 34.6749ZM44.8978 35.9959C45.8824 38.3664 49.2407 38.0956 52.0716 38.0279C51.9485 38.3326 51.6847 38.7052 51.3332 38.8237C50.4187 39.1793 47.922 39.4503 46.656 38.8067C45.8648 38.4004 45.3373 37.4689 44.8978 36.9271C44.7043 36.6731 43.6493 36.0127 44.8978 35.9959Z" fill="#231F20"/>
<path d="M54.6327 49.0514C53.4897 50.948 52.3821 52.8954 51.0283 54.5549C51.5908 52.9462 51.8369 50.2368 51.925 48.171C53.1206 47.629 54.1404 48.2894 54.6327 49.0516" fill="#81B0C4"/>
<path d="M60.8067 55.8564C59.5231 56.1104 58.6263 57.3127 57.3604 57.228C58.0637 56.2967 59.2593 55.8902 60.8067 55.8564ZM61.3692 57.7868C60.3144 57.8885 59.0835 58.0578 58.0286 57.9732C58.5384 57.228 60.4726 57.4989 61.3692 57.7868ZM61.7386 59.4633C60.5605 59.4803 59.101 59.4633 57.9757 59.3785C58.6439 58.6843 60.9824 59.1246 61.7386 59.4633Z" fill="#231F20"/>
<path d="M52.4225 64.0404C52.5984 65.4629 53.1786 66.9024 53.1082 68.4601C52.4576 68.6632 52.0885 68.8495 51.2092 68.8495C51.1565 67.5287 50.9631 65.4968 51.0159 64.2267C51.4378 64.2605 52.0707 63.9388 52.4225 64.0404Z" fill="#DCD9D8"/>
<path d="M50.5179 43.0432C49.92 43.4156 49.4277 43.8728 48.8475 44.2793C47.5815 44.347 46.8956 44.1946 45.9814 43.5004C45.999 43.4495 46.0869 43.4665 46.0869 43.3987C47.4407 43.9745 49.1639 43.1616 50.5179 43.043" fill="#F0D6B7"/>
<path d="M43.4512 51.8976C43.8205 50.3567 45.2799 49.5439 46.5985 48.6973C47.9523 50.3568 48.7789 52.4904 49.6932 54.5562C47.5304 53.9297 45.3326 52.9307 43.4512 51.8976Z" fill="#81B0C4"/>
<path d="M51.0155 64.2412C50.9627 65.5113 51.1384 67.5264 51.2088 68.8641C52.0881 68.8641 52.4572 68.6779 53.108 68.4746C53.1782 66.9167 52.598 65.4773 52.4221 64.0549C52.0703 63.9364 51.4374 64.2581 51.0155 64.2412ZM37.4412 57.0614C38.0216 62.1583 38.848 66.4255 40.3775 70.947C43.7711 71.9459 47.8504 72.0307 50.8572 71.1331C50.3121 68.5933 50.5408 65.4944 50.2242 62.7679C49.978 60.719 50.101 58.6701 49.767 56.5872C46.1273 55.8592 40.9931 56.4179 37.4412 57.0614ZM50.6287 56.6212C50.5933 58.8056 50.7341 60.9729 50.91 63.1574C51.789 63.039 52.3693 62.9543 53.1782 62.7679C52.9144 60.6682 52.9497 58.2807 52.4046 56.4179C51.7891 56.435 51.2439 56.4179 50.6287 56.621V56.6212ZM55.0419 56.2655C54.62 56.1809 54.1452 56.2655 53.7584 56.2655C53.9518 58.0436 54.3914 60.0079 54.5496 61.8875C55.165 61.9044 55.4992 61.6165 56.0091 61.5319C56.0441 59.8892 55.8684 57.6201 55.0419 56.2655ZM61.7412 62.1583C63.0423 61.8536 63.8512 60.3296 63.4818 58.7547C63.2357 57.7049 62.8138 55.7068 62.3388 55.0293C62.0048 54.5383 61.0729 53.8778 60.317 54.335C59.1036 55.0801 56.9762 55.3002 56.097 56.1977C56.5364 57.6201 56.6772 59.5507 56.853 61.3455C58.3652 61.4303 60.2113 60.9394 61.4774 61.4641C60.5982 61.7352 59.4729 61.7352 58.7168 62.1415C59.3498 62.4294 60.7917 62.3786 61.7412 62.1585V62.1583ZM49.6791 54.5552C48.7648 52.4893 47.9385 50.3557 46.5845 48.6962C45.2657 49.5428 43.8239 50.3557 43.4371 51.8966C45.3361 52.9297 47.5341 53.9287 49.6791 54.5552ZM51.9297 48.1713C51.8418 50.2372 51.5956 52.9465 51.0331 54.5552C52.3869 52.8788 53.4948 50.9483 54.6375 49.0518C54.1452 48.2898 53.1254 47.6294 51.9299 48.1712L51.9297 48.1713ZM49.3802 47.3078C48.8702 47.2567 48.4308 47.8835 47.7625 47.6124C47.6043 47.7817 47.4636 47.9512 47.3053 48.1204C48.7823 49.8475 49.4681 52.2863 50.6111 54.3013C51.2265 52.354 51.1561 50.2372 51.2968 48.1204C50.4529 48.1542 49.9781 47.3585 49.3802 47.3076V47.3078ZM47.745 45.2247C47.6921 45.8175 47.8329 46.0038 47.9559 46.6812C49.9604 47.2907 49.6263 44.0225 47.745 45.2247ZM45.5119 44.5137C44.6502 44.0563 43.3492 43.5652 42.2239 43.3622C40.8349 43.108 40.9754 45.1909 41.0282 46.4272C41.081 47.4092 41.6086 48.4421 41.8372 49.1027C41.9426 49.4074 41.9777 49.7291 42.2416 49.7969C42.7163 49.8986 44.2987 49.3058 44.7384 49.0687C45.6879 48.5777 46.4262 47.7819 47.2351 47.2399C47.2527 46.9859 47.2527 46.7149 47.2702 46.4611C46.7779 46.2238 46.2328 46.0716 45.5119 46.0378C45.9868 45.8005 46.7077 45.8005 47.1472 45.5297C47.1472 45.428 47.1472 45.3265 47.1649 45.2247C46.3559 45.1401 46.057 44.8016 45.5119 44.5137ZM37.2479 43.0743C36.527 43.7854 39.2699 44.7338 40.1316 44.7846C40.1316 44.3443 40.3952 43.9211 40.3424 43.5992C39.305 43.43 37.9512 43.5484 37.2479 43.0743ZM46.1099 43.3959C46.1099 43.4637 46.0219 43.4468 46.0043 43.4976C46.9362 44.192 47.6219 44.3442 48.8702 44.2766C49.433 43.8871 49.9429 43.413 50.5408 43.0404C49.1691 43.1589 47.4461 43.9717 46.1098 43.3959H46.1099ZM54.2331 45.7667C54.198 44.9877 53.9868 43.3791 53.4771 43.0912C52.4221 42.4985 50.5583 44.2934 49.767 44.5645C49.855 44.8016 49.9957 44.9877 50.0132 45.2925C50.4881 45.1741 51.0506 45.2587 51.455 45.4449C50.9802 45.4958 50.4704 45.4958 50.154 45.7159C50.0482 46.0376 50.189 46.4611 50.101 46.9013C51.2088 47.2061 52.4925 47.3585 53.8991 47.4092C54.1628 47.0706 54.2682 46.427 54.2331 45.7667ZM36.0346 43.7516C35.8061 43.5992 34.2764 41.6856 34.0653 41.7702C31.3048 42.8204 28.7201 44.6322 26.4167 46.3592C28.6145 50.9145 29.5114 56.4856 29.6696 61.8536C32.1841 62.9881 34.3993 64.6307 37.828 64.7999C37.4237 62.1077 37.0721 59.6861 36.8436 57.1459C35.9819 56.7905 34.7511 57.163 33.9424 57.0443C33.9424 56.1131 35.173 56.638 35.2785 56.0116C35.349 55.5373 34.5927 55.5035 34.839 54.7584C35.4719 54.9785 35.806 55.4696 36.4742 55.6559C37.0897 54.3689 36.4742 52.083 36.5621 50.9991C36.5798 50.7961 36.6676 49.8815 37.1423 50.0339C37.5644 50.1694 37.1248 52.4893 37.16 53.5052C37.1951 54.4536 37.0369 55.3512 37.4412 55.9438C40.747 55.5035 44.1054 55.2325 47.6921 55.131C46.901 54.8093 45.9691 54.5044 44.9492 53.9456C44.3866 53.6407 42.6459 53.0143 42.4877 52.5063C42.2239 51.6934 43.1558 51.2702 43.314 50.5757C41.6437 51.4564 41.3271 49.7293 40.9228 48.5269C40.571 47.4261 40.3602 46.5965 40.2723 45.9699C38.8129 45.2587 37.2655 44.5983 36.0346 43.7516ZM52.7737 41.9905C55.0771 40.9238 55.4992 46.0038 54.5847 47.6464C54.7254 48.1374 55.2002 48.3237 55.3937 48.7639C54.11 50.9823 52.6859 53.0481 51.3671 55.2325C52.3342 54.6398 53.7409 55.131 54.8837 54.6906C55.3058 54.5383 55.6047 53.6069 55.9212 52.8619C56.8002 50.8298 57.7145 48.2558 58.119 46.3257C58.207 45.8854 58.4706 44.92 58.4002 44.5305C58.2949 43.8193 57.3102 43.2945 56.8002 42.871C55.8684 42.0581 55.2881 41.3641 54.3034 40.6019C53.9342 41.1609 53.0902 41.5332 52.7737 41.9906V41.9905ZM30.7773 22.3306C29.6871 23.499 29.9158 25.6665 30.0389 27.2244C32.0258 26.0222 34.6457 27.326 34.628 29.3581C35.5774 29.341 34.9798 28.2235 34.8039 27.4954C34.2411 25.1416 35.7534 22.6016 34.874 20.4511C33.1687 20.5864 31.7796 21.2469 30.7773 22.3307V22.3306ZM38.6193 15.5742C36.1402 16.2515 32.9577 17.9956 31.9379 20.1462C32.729 20.0277 33.2741 19.6551 34.0478 19.6042C34.3468 19.5874 34.7336 19.7229 35.0676 19.6383C35.7357 19.469 36.316 18.0125 36.8259 17.4708C37.3183 16.9458 37.916 16.7087 38.3206 16.2346C38.5842 16.116 38.9709 16.116 38.9886 15.7435C38.8832 15.6248 38.76 15.5404 38.6193 15.5742ZM51.5428 16.2176C48.9583 14.8122 44.5977 13.7623 41.8548 15.083C39.6391 16.1498 36.6502 17.9109 35.6302 20.1294C36.5797 22.2796 35.349 24.244 35.261 26.4284C35.2259 27.5969 35.8238 28.5961 35.8764 29.8662C35.5423 30.3912 34.5576 30.4418 33.872 30.408C33.6434 29.2902 33.239 28.0372 32.0432 27.9017C30.3554 27.7155 29.1069 29.0702 29.0367 30.4758C28.9487 32.1353 30.3554 34.8784 32.3598 34.6923C33.1334 34.6245 33.3269 33.8794 34.1708 33.8794C34.628 34.7599 33.4677 35.0308 33.3445 35.6573C33.3092 35.8268 33.4324 36.4532 33.5202 36.7581C33.8896 38.1974 34.6983 40.077 35.4895 41.1777C36.5093 42.5831 38.4963 42.7864 40.6414 42.9218C41.0282 42.1259 42.4349 42.1937 43.3491 42.3969C42.2416 41.9737 41.2218 40.9576 40.3778 40.0601C39.4105 39.0272 38.4259 37.9265 38.3731 36.5719C40.2195 39.0272 41.7316 41.1777 45.0724 42.2616C47.6043 43.0743 50.5583 41.8889 52.5101 40.5681C53.3188 40.0261 53.7935 39.1457 54.3739 38.3666C56.5189 35.3865 57.5211 31.1529 57.3102 27.0381C57.2222 25.3449 57.2222 23.6515 56.6243 22.5169C56.0091 21.3315 53.9167 20.2478 52.6858 21.3315C52.4572 20.1632 53.7056 19.4519 55.1649 19.8753C54.1277 18.5714 53.0376 17.0304 51.5428 16.2176ZM56.3607 54.5044C58.3828 53.5393 62.1455 51.9135 63.3939 54.5044C63.8689 55.4696 64.4137 57.0784 64.6423 58.0774C64.9763 59.4661 64.2731 62.4124 62.7785 62.8695C61.4597 63.276 59.93 63.2591 58.3477 62.9543C58.1541 62.8019 57.9609 62.5478 57.8026 62.2768C56.6773 62.2431 55.6048 62.3278 54.7254 62.785C54.8133 63.5977 54.2507 63.7163 53.7056 63.8857C53.3188 65.3927 54.4968 67.3569 54.2156 68.7117C54.0222 69.6938 52.7737 69.8462 51.8595 70.0155C51.8242 70.5575 51.8946 71.0146 51.965 71.4719C51.754 72.217 50.822 72.6402 49.9253 72.7419C46.989 73.0805 42.5405 73.2329 39.7272 72.2508C38.9358 70.3882 38.3206 68.136 37.6699 66.0193C34.927 66.3071 32.6939 64.8847 30.6015 63.9364C29.8807 63.6148 28.8784 63.4284 28.5969 62.8697C28.3333 62.3278 28.4388 61.2948 28.3684 60.3296C28.2101 57.8404 28.0518 55.4358 27.3838 52.8957C27.0849 51.7443 26.5398 50.7452 26.1705 49.6447C25.8189 48.6286 25.221 47.3585 25.0628 46.3424C24.8342 44.8355 26.3112 44.7507 27.2431 44.0902C28.7026 43.0743 29.8454 42.5154 31.4279 41.601C31.9027 41.3301 33.3092 40.6528 33.4674 40.331C33.7841 39.7047 32.9226 38.824 32.6939 38.3328C32.3247 37.554 32.1311 36.8936 32.0785 36.1314C30.7598 35.9283 29.7399 35.1663 29.1423 34.3196C28.1398 32.8972 27.4365 30.2725 28.3157 28.2913C28.3861 28.1389 28.7201 27.8171 28.7729 27.5801C28.8784 27.1059 28.5795 26.4793 28.5619 25.9714C28.474 23.3804 29.0191 21.1451 30.8301 20.3663C31.5685 17.5384 34.2059 16.6072 36.6853 15.2017C37.6172 14.6767 38.637 14.3381 39.692 13.9653C43.4722 12.6278 49.2923 12.8817 52.4397 15.1677C53.776 16.1329 55.9035 18.1818 56.6596 19.672C58.6815 23.5837 58.5234 30.137 57.1168 34.9124C56.9232 35.5557 56.6596 36.487 56.2728 37.2661C56.009 37.8079 55.1826 38.8747 55.2705 39.3488C55.3761 39.8399 57.1696 41.1438 57.5564 41.4994C58.2422 42.1428 59.5608 42.9896 59.6663 43.8025C59.7894 44.666 59.2796 45.8514 59.0159 46.6812C58.1717 49.4582 57.3279 52.0152 56.3607 54.5044Z" fill="#231F20"/>
<path d="M42.9081 35.2696C43.0134 35.1341 43.6112 34.9141 44.4552 35.3036C44.4552 35.3036 43.4529 35.456 43.5408 37.0648L43.1189 36.9799C43.1366 36.997 42.697 35.5407 42.9081 35.2696Z" fill="#F7E4CD"/>
<path d="M50.1898 49.0175C50.1898 49.2545 49.979 49.4577 49.7326 49.4577C49.4865 49.4577 49.2754 49.2545 49.2754 49.0175C49.2754 48.7802 49.4865 48.5771 49.7326 48.5771C49.9965 48.5771 50.1898 48.7802 50.1898 49.0175ZM50.647 51.0663C50.647 51.3036 50.4361 51.5067 50.1898 51.5067C49.9437 51.5067 49.7326 51.3036 49.7326 51.0663C49.7326 50.8292 49.9437 50.626 50.1898 50.626C50.4537 50.626 50.647 50.8124 50.647 51.0663Z" fill="#1D1919"/>
</svg>
