<svg width="86" height="86" viewBox="0 0 86 86" fill="none" xmlns="http://www.w3.org/2000/svg">
<rect x="0.164062" width="85.165" height="86" rx="8" fill="#121212"/>
<rect x="0.664062" y="0.5" width="84.165" height="85" rx="7.5" stroke="#F7F7F7" stroke-opacity="0.24"/>
<path d="M43.0576 61.7424H19.7568C19.3525 61.7424 19.1687 61.5219 19.1687 61.0809V23.5202C19.132 23.2629 19.3158 23.0424 19.573 23.0057H26.9234C27.1072 22.9689 27.3277 23.1159 27.3277 23.2997V54.2817H44.3072C44.6747 54.2817 44.785 54.4655 44.7115 54.7963L43.6457 61.1911C43.6457 61.3749 43.5354 61.5219 43.4252 61.6322C43.3149 61.7057 43.2046 61.7424 43.0576 61.7424Z" fill="#31A8FF"/>
<path d="M48.9348 32.3388H55.3664C55.7339 32.3388 56.0279 32.5961 56.1382 32.9268C56.2852 33.1841 56.3954 33.4781 56.4322 33.7721C56.5057 34.1397 56.5792 34.5439 56.6159 34.9115C56.6527 35.3157 56.6895 35.7568 56.6895 36.2345C57.792 34.9482 59.1151 33.8824 60.6219 33.0739C62.3125 32.155 64.1869 31.714 66.098 31.7508C66.3553 31.714 66.5758 31.8978 66.6125 32.155V39.4687C66.6125 39.7627 66.4288 39.873 66.0245 39.873C63.6356 39.726 61.2467 40.167 59.0783 41.1226C58.3433 41.4533 57.645 41.8944 57.0937 42.4824V61.226C57.0937 61.5935 56.9467 61.7405 56.6159 61.7405H49.4493C49.1553 61.7773 48.898 61.5935 48.8613 61.2995V40.7918C48.8613 39.9097 48.8612 38.9909 48.8245 38.0354C48.7877 37.0798 48.7877 36.1243 48.751 35.1687C48.7142 34.3602 48.6407 33.5516 48.5305 32.7431C48.4937 32.5593 48.604 32.3756 48.7877 32.3388C48.8245 32.3021 48.8613 32.3021 48.9348 32.3388Z" fill="#31A8FF"/>
</svg>
