<svg width="86" height="86" viewBox="0 0 86 86" fill="none" xmlns="http://www.w3.org/2000/svg">
<rect x="0.164062" width="85.165" height="86" rx="8" fill="#121212"/>
<rect x="0.664062" y="0.5" width="84.165" height="85" rx="7.5" stroke="#F7F7F7" stroke-opacity="0.24"/>
<path d="M26.8085 65.3993C29.9259 65.3993 32.453 62.9655 32.453 59.9633C32.453 56.9611 29.9259 54.5273 26.8085 54.5273C23.6912 54.5273 21.1641 56.9611 21.1641 59.9633C21.1641 62.9655 23.6912 65.3993 26.8085 65.3993Z" fill="#4687F7"/>
<path d="M47.1799 63.8657C49.3849 63.8657 51.1724 62.1442 51.1724 60.0207C51.1724 57.8972 49.3849 56.1758 47.1799 56.1758C44.975 56.1758 43.1875 57.8972 43.1875 60.0207C43.1875 62.1442 44.975 63.8657 47.1799 63.8657Z" fill="#4687F7"/>
<path d="M63.9874 61.7704C64.9901 61.7704 65.8029 60.9875 65.8029 60.0219C65.8029 59.0562 64.9901 58.2734 63.9874 58.2734C62.9847 58.2734 62.1719 59.0562 62.1719 60.0219C62.1719 60.9875 62.9847 61.7704 63.9874 61.7704Z" fill="#4687F7"/>
<path d="M63.0334 45.6717C61.4502 45.6717 60.2714 44.4867 60.2714 43.0117V31.7006C60.2714 27.7976 58.3354 24.8062 53.9902 24.8062C49.645 24.8062 47.0035 28.0297 47.0035 31.7586V43.0117C47.0035 44.4784 45.9451 45.6717 44.2415 45.6717C42.598 45.6717 41.4795 44.4867 41.4795 43.0117V31.7006C41.4795 27.7976 39.3628 24.8062 35.0176 24.8062C30.5519 24.8062 28.2115 28.0297 28.2115 31.7586V43.0117C28.2115 44.4784 27.0929 45.6717 25.4495 45.6717C23.8663 45.6717 22.6875 44.4867 22.6875 43.0117V22.9417C22.6875 21.359 23.7458 20.232 25.4495 20.232C27.3253 20.232 28.2115 21.475 28.2115 22.9417V24.7482C29.7947 21.7485 33.0214 20 36.4889 20C40.7137 20 43.8887 22.0385 45.4719 25.0299C47.7606 21.6407 51.1077 20 55.2723 20C62.3795 20 65.7782 24.6902 65.7782 31.3111V43.0117C65.7954 44.4867 64.6768 45.6717 63.0334 45.6717Z" fill="#4687F7"/>
</svg>
