<svg width="86" height="86" viewBox="0 0 86 86" fill="none" xmlns="http://www.w3.org/2000/svg">
<rect width="85.165" height="86" rx="8" fill="#121212"/>
<rect x="0.5" y="0.5" width="84.165" height="85" rx="7.5" stroke="#F7F7F7" stroke-opacity="0.24"/>
<path d="M35.2827 56.4247C35.0095 56.3758 34.9025 56.3572 34.7954 56.3375C31.335 55.6968 29.1476 53.6122 28.111 50.335C27.4649 48.2923 28.639 46.788 30.7911 46.6889C32.5532 46.6077 33.7593 47.616 34.8259 48.7892C36.2008 50.302 37.4612 51.9172 38.8116 53.4526C40.7559 55.6628 43.0467 57.0861 46.1811 56.6468C48.9917 56.2528 51.441 55.13 53.5722 53.2818C53.8926 53.0041 54.244 52.762 54.5814 52.5033C54.5104 52.4201 54.4397 52.3369 54.3688 52.2538C52.5797 52.8069 50.7551 52.9928 48.8907 52.8994C46.0697 52.7582 43.3817 52.1718 40.9765 50.6299C38.7818 49.2227 37.1633 47.3373 36.3939 44.8188C35.7724 42.7844 37.0444 41.3611 39.1621 41.6552C39.9993 41.7714 40.7041 42.1469 41.3367 42.6792C41.8518 43.1123 42.3459 43.5713 42.8712 43.9914C45.3429 45.9687 48.7968 46.0787 51.9343 43.9318C46.7762 43.9084 43.2669 41.0838 40.1846 37.504C38.9782 36.1029 37.8005 34.6767 36.5692 33.2978C34.1868 30.6295 31.5438 28.2786 27.9248 27.4767C23.3019 26.4522 18.8389 27.1218 14.5551 29.075C13.7009 29.4644 12.8806 29.9172 12 30.6468C12.4359 30.6468 12.6738 30.6521 12.9111 30.6461C15.0709 30.5906 16.6895 31.5462 17.8568 33.3051C18.7064 34.5851 19.1068 36.0328 19.4119 37.5221C19.8648 39.7324 19.6304 41.9858 19.8919 44.2062C20.5642 49.9145 23.4947 53.8979 28.9512 55.9377C30.9521 56.6859 33.0044 56.9349 35.2827 56.4247ZM21.4928 30.3855C20.6306 30.602 19.9416 30.2555 19.2315 29.5401C20.4475 29.2385 21.5199 29.1215 22.6722 29.0765C22.578 29.8213 22.1368 30.2239 21.4928 30.3855ZM49.7459 63.7193C49.6708 63.1698 49.1993 62.9277 48.8285 62.6403C47.1884 61.3694 45.2703 60.9195 43.2366 60.8822C42.023 60.86 40.822 60.7698 39.6774 60.3462C39.1529 60.1521 38.566 59.9028 38.5794 59.2279C38.5927 58.5431 39.1911 58.3495 39.7358 58.1875C40.1817 58.0549 40.6418 57.9703 41.1494 57.8521C39.86 57.0294 38.6004 56.9154 36.9221 57.5874C34.28 58.6449 31.6753 58.5195 29.0415 57.5727C27.5545 57.0384 26.2348 56.1995 24.8609 55.4567L24.8233 55.4825C24.8413 55.4702 24.8602 55.4572 24.8589 55.4579C24.825 55.3547 24.7635 55.352 24.6846 55.4097C24.7207 55.441 24.7565 55.4723 24.7923 55.5037C25.9318 57.3629 27.4712 58.8587 29.2101 60.1371C32.5591 62.5989 36.2171 64.067 40.4972 63.4155C41.8796 63.205 43.2725 63.0418 44.6667 62.9299C46.4148 62.7893 48.0804 63.279 49.7459 63.7193ZM41.6764 37.0478C41.5839 36.981 41.495 36.8135 41.3061 36.9868C42.846 39.0604 44.8242 40.589 47.2061 41.5513C51.0503 43.1043 54.952 43.37 58.9425 41.9995C62.0405 40.9358 64.2684 41.9752 65.4254 44.9698C65.5927 41.4939 63.5387 38.9613 60.267 38.4648C58.4264 38.1856 56.7269 38.7935 55.0028 39.2914C50.2048 40.6763 45.7462 39.9925 41.6764 37.0478ZM65.5893 50.605C66.2146 50.6574 66.8395 50.7138 67.4646 50.7683C66.0521 49.5331 64.3307 49.4352 62.5891 49.5338C59.9371 49.6837 58.0265 51.2064 56.2847 53.0255C54.75 54.6289 53.3632 56.4276 51.0728 57.0719C51.1111 57.1404 51.121 57.1746 51.1317 57.1746C51.4398 57.1792 51.7485 57.1936 52.0559 57.1797C55.3823 57.0297 58.516 56.3312 61.0088 53.9278C61.7937 53.1709 62.4963 52.3302 63.2541 51.5446C63.8863 50.8895 64.6528 50.5264 65.5893 50.605ZM57.8618 46.5008C55.3794 46.7169 53.223 47.7392 51.1976 49.0872C49.6386 50.1247 47.9714 50.6156 46.0978 50.2911C45.7682 50.234 45.4362 50.1913 45.1053 50.1419C45.1015 50.1879 45.0978 50.2337 45.094 50.2798C45.2131 50.3408 45.3281 50.4121 45.4521 50.4611C45.7643 50.5841 46.0719 50.7321 46.396 50.8088C50.0012 51.6621 53.4523 51.2249 56.564 49.2239C58.5252 47.9627 60.5554 47.7238 62.756 48.0495C62.9783 48.0825 63.1996 48.1228 63.4229 48.1435C63.6298 48.1631 63.8458 48.3678 64.125 48.1462C62.2014 46.7627 60.1292 46.3036 57.8618 46.5008ZM48.9895 38.1119C50.2918 38.1567 51.5882 37.987 52.9503 37.1814C52.5514 37.2166 52.3821 37.2159 52.2198 37.2482C50.3434 37.6205 48.659 37.213 47.1586 36.032C46.6081 35.5985 46.0484 35.1766 45.4909 34.752C43.2807 33.069 40.7462 32.506 37.9739 32.5538C38.0187 32.6895 38.0214 32.7826 38.0695 32.8308C41.086 35.8683 44.5771 37.9604 48.9895 38.1119ZM70.8208 53.6968C68.954 51.8535 66.4488 51.616 64.1306 53.2247C65.6651 53.2934 66.817 53.7807 67.7511 54.7437C68.0817 55.0844 68.4244 55.4188 68.7942 55.7159C70.2066 56.8501 72.6011 56.9045 74 55.8523C72.3568 55.2139 72.3568 55.2139 70.8208 53.6968ZM52.2288 67.8127C50.5882 64.7725 47.8309 64.0865 44.6457 64.2905C45.5873 64.5504 46.4667 64.9504 47.2736 65.5112C48.015 66.0265 48.6389 66.6645 49.2538 67.3179C50.4722 68.6124 52.3739 69.4069 53.634 69.1383C53.0554 68.7752 52.5415 68.3918 52.2288 67.8127ZM67.4941 50.831C67.4946 50.8117 67.4951 50.7921 67.4963 50.7719C67.4963 50.7716 67.4939 50.7743 67.4915 50.7769L67.4968 50.7712C67.4861 50.7702 67.4752 50.7692 67.4646 50.7683C67.4709 50.7741 67.4776 50.7786 67.4839 50.7844C67.4873 50.7999 67.4907 50.8155 67.4941 50.831ZM49.837 63.7909C49.8154 63.7786 49.7938 63.7666 49.7723 63.7545C49.7752 63.7683 49.7786 63.7818 49.7859 63.7928C49.7902 63.8001 49.8193 63.7919 49.837 63.7909ZM49.7723 63.7545C49.7704 63.7446 49.7687 63.7345 49.766 63.7246C49.766 63.7246 49.7624 63.7292 49.7585 63.7338L49.766 63.7249C49.7595 63.7229 49.7527 63.7212 49.7459 63.7193C49.7471 63.7275 49.75 63.7343 49.751 63.7427C49.7582 63.7466 49.7653 63.7507 49.7723 63.7545Z" fill="#FD4F00"/>
</svg>
