<svg width="86" height="86" viewBox="0 0 86 86" fill="none" xmlns="http://www.w3.org/2000/svg">
<path d="M75.4608 86H10.5392C4.63726 86 0 81.3627 0 75.4608V10.5392C0 4.63726 4.63726 0 10.5392 0H75.4608C81.3627 0 86 4.63726 86 10.5392V75.25C86 81.152 81.3627 86 75.4608 86Z" fill="#121212"/>
<path d="M75.4608 85.5H10.5392C4.9134 85.5 0.5 81.0866 0.5 75.4608V10.5392C0.5 4.9134 4.9134 0.5 10.5392 0.5H75.4608C81.0866 0.5 85.5 4.9134 85.5 10.5392V75.25C85.5 80.8888 81.0738 85.5 75.4608 85.5Z" stroke="#F7F7F7" stroke-opacity="0.24"/>
<path d="M33.0983 29.2969L37.7356 44.2626H28.6719L33.0983 29.2969Z" fill="#340100"/>
<path d="M19.3905 41.5315C19.3905 35.8403 19.3905 22.3501 19.3905 22.3501C19.3905 22.3501 29.9297 22.1393 34.3562 22.7717C42.366 23.8256 46.3709 28.8844 46.1601 36.6835C45.9493 43.6393 41.1013 48.2766 33.3022 48.909C31.8268 49.1197 28.665 48.909 28.665 48.909H26.7679V61.3452H19.1797C19.3905 60.9237 19.3905 46.1688 19.3905 41.5315Z" fill="#00A9FE"/>
<path d="M69.1425 33.0963V39.6306C69.1425 39.6306 65.3483 37.9443 62.1866 37.7335C60.7111 37.7335 58.1817 37.9443 57.7601 39.4198C56.7062 42.3708 63.4513 43.8463 65.3483 44.6894C69.7748 46.7973 71.4611 49.5375 70.8287 53.7531C70.4072 57.5473 67.2454 60.4982 62.8189 61.3414C59.2356 61.9737 55.6523 61.7629 52.2797 60.709C51.4366 60.4982 50.3827 60.0767 50.1719 59.8659V52.91C51.6474 53.5424 53.1229 53.9639 54.5983 54.3855C56.7062 54.8071 58.6032 55.2286 60.7111 54.8071C61.765 54.5963 62.8189 54.3855 63.0297 53.1208C63.2405 51.8561 62.3974 51.2237 61.5542 50.8022C59.8679 49.959 57.9709 49.3267 56.2846 48.2728C51.6474 45.9541 49.5395 42.3708 50.5934 38.1551C51.4366 34.1502 55.2307 31.41 60.0787 31.1992C66.1915 31.1992 69.1425 33.0963 69.1425 33.0963Z" fill="#00A9FE"/>
<path d="M27.1952 29.5117C27.1952 29.5117 29.0922 29.5117 30.7785 29.5117C32.254 29.5117 33.7295 29.5117 34.9942 30.1441C37.3128 31.198 38.3667 32.8843 38.3667 35.6245C38.3667 38.3647 37.3128 40.0509 34.9942 41.1049C32.6755 42.1588 26.9844 41.948 26.9844 41.948L27.1952 29.5117Z" fill="#121212"/>
</svg>
