<svg width="86" height="86" viewBox="0 0 86 86" fill="none" xmlns="http://www.w3.org/2000/svg">
<rect width="85.165" height="86" rx="8" fill="#121212"/>
<rect x="0.5" y="0.5" width="84.165" height="85" rx="7.5" stroke="#F7F7F7" stroke-opacity="0.24"/>
<mask id="mask0_2610_39572" style="mask-type:alpha" maskUnits="userSpaceOnUse" x="1" y="1" width="83" height="84">
<rect x="1" y="1" width="83" height="84" rx="7" fill="#121212"/>
</mask>
<g mask="url(#mask0_2610_39572)">
<path d="M66.9576 48.1893C66.6685 47.329 65.9115 46.7297 64.9324 46.5859C64.4707 46.5182 63.9421 46.547 63.3164 46.6738C62.2259 46.895 61.4168 46.9792 60.8264 46.9954C63.0551 43.2968 64.8673 39.0791 65.9105 35.1088C67.5976 28.689 66.6961 25.7644 65.6426 24.4415C62.8547 20.9401 58.7873 19.059 53.8803 19.0014C51.2626 18.97 48.9645 19.478 47.7657 19.8433C46.6496 19.6498 45.4496 19.5416 44.1903 19.5216C41.8298 19.4847 39.7442 19.9905 37.9621 21.0299C36.9754 20.7021 35.392 20.2397 33.5635 19.9447C29.2627 19.2508 25.7964 19.7915 23.2609 21.5521C20.1908 23.6836 18.7676 27.3873 19.0308 32.5599C19.1145 34.2022 20.0491 39.199 21.5207 43.9379C22.3665 46.6617 23.2683 48.9237 24.2013 50.6614C25.5244 53.1257 26.94 54.5768 28.5293 55.0979C29.42 55.3896 31.0385 55.5939 32.7408 54.2004C32.9566 54.4573 33.2445 54.7125 33.6265 54.9495C34.1117 55.2503 34.7049 55.496 35.2976 55.6417C37.4329 56.1663 39.4329 56.0352 41.1394 55.2997C41.1499 55.598 41.158 55.883 41.1648 56.1291C41.1761 56.5284 41.1874 56.9198 41.2023 57.2859C41.3034 59.761 41.4747 61.6855 41.9823 63.032C42.0102 63.106 42.0477 63.2189 42.0872 63.3387C42.3405 64.1008 42.7638 65.3767 43.8412 66.3759C44.9568 67.411 46.3062 67.7283 47.5421 67.7283C48.1619 67.7283 48.7534 67.6484 49.272 67.5392C51.121 67.1496 53.2209 66.5563 54.7399 64.4303C56.1762 62.4204 56.8743 59.3933 57.0006 54.6235C57.0171 54.4885 57.0321 54.3597 57.0466 54.237L57.0767 53.9849L57.415 54.0142L57.5023 54.0199C59.3854 54.1043 61.6881 53.7118 63.1024 53.0661C64.2198 52.5564 67.8007 50.6981 66.9576 48.1893Z" fill="black"/>
<path d="M63.7339 48.6782C58.1345 49.8136 57.7494 47.9502 57.7494 47.9502C63.6615 39.3272 66.1331 28.3818 64.0004 25.7029C58.1816 18.3955 48.1095 21.8515 47.9413 21.941L47.8874 21.9507C46.781 21.7249 45.5431 21.5904 44.1514 21.568C41.6178 21.5273 39.6958 22.221 38.2374 23.3081C38.2374 23.3081 20.2697 16.0322 21.1054 32.4586C21.2831 35.9531 26.2012 58.9 32.0669 51.969C34.2108 49.4344 36.2825 47.2915 36.2825 47.2915C37.3113 47.9634 38.5431 48.306 39.8343 48.183L39.9347 48.0994C39.9034 48.414 39.9177 48.7217 39.9748 49.0862C38.4636 50.7457 38.9078 51.037 35.887 51.6483C32.8302 52.2675 34.6259 53.3698 35.7983 53.6581C37.2196 54.0073 40.5078 54.5022 42.7295 51.445L42.641 51.7939C43.2329 52.2601 43.6487 54.8259 43.5791 57.152C43.5094 59.478 43.4629 61.0749 43.9292 62.3223C44.3961 63.5696 44.8609 66.3762 48.8321 65.5399C52.1503 64.8409 53.8698 63.0295 54.1091 60.0081C54.2788 57.8603 54.663 58.1779 54.6872 56.2573L54.9954 55.3483C55.3507 52.4367 55.0519 51.4972 57.096 51.9341L57.5932 51.9771C59.0975 52.0442 61.0669 51.7391 62.2228 51.2111C64.7115 50.0759 66.1876 48.1802 63.7335 48.6782H63.7339Z" fill="#336791"/>
<path d="M39.2986 34.0217C38.794 33.9527 38.3369 34.0165 38.1058 34.1886C37.9758 34.2854 37.9356 34.3976 37.9247 34.4747C37.8956 34.6793 38.0414 34.9054 38.1309 35.0221C38.3845 35.3521 38.7546 35.5791 39.121 35.629C39.174 35.6364 39.227 35.6398 39.2796 35.6398C39.8905 35.6398 40.4461 35.1722 40.4951 34.827C40.5562 34.3947 39.9178 34.1065 39.2986 34.0219V34.0217ZM56.015 34.0354C55.9669 33.6965 55.3534 33.6 54.7712 33.6796C54.1898 33.7591 53.6261 34.0171 53.6731 34.3568C53.7108 34.6208 54.196 35.0716 54.7703 35.0716C54.8188 35.0716 54.8678 35.0685 54.9171 35.0616C55.3005 35.0095 55.5818 34.7702 55.7154 34.6323C55.9188 34.422 56.0367 34.1877 56.015 34.0354Z" fill="white"/>
<path d="M65.6001 48.5501C65.3867 47.9154 64.6994 47.7114 63.5576 47.9431C60.1677 48.6308 58.9536 48.1544 58.555 47.8659C61.1901 43.9202 63.3577 39.1507 64.5272 34.7006C65.0811 32.5927 65.3871 30.635 65.4121 29.0394C65.4398 27.2881 65.1363 26.0011 64.5103 25.2149C61.987 22.0456 58.2836 20.3456 53.8004 20.2989C50.7185 20.2649 48.1146 21.0401 47.6097 21.2581C46.5467 20.9983 45.3878 20.8388 44.1261 20.8184C41.8126 20.7816 39.8126 21.3261 38.1569 22.4359C37.4376 22.1727 35.5789 21.5455 33.3057 21.1856C29.3759 20.5637 26.253 21.035 24.0246 22.5868C21.3654 24.4385 20.1378 27.7487 20.3756 32.425C20.4556 33.9982 21.3677 38.8382 22.8069 43.4733C24.7014 49.5739 26.7608 53.0274 28.9276 53.7379C29.1812 53.821 29.4736 53.8791 29.7962 53.8791C30.5865 53.8791 31.5557 53.529 32.5638 52.3375C33.7937 50.8874 35.0657 49.4725 36.3786 48.0946C37.2305 48.5439 38.1662 48.7949 39.1233 48.8201C39.1252 48.8447 39.1276 48.8693 39.1298 48.8937C38.9652 49.0868 38.8038 49.2828 38.646 49.4813C37.9828 50.3088 37.8448 50.4811 35.7103 50.913C35.1031 51.0363 33.4904 51.3629 33.4667 52.4741C33.4411 53.6881 35.3731 54.1981 35.5932 54.2521C36.3603 54.4408 37.0993 54.5339 37.804 54.5339C39.5179 54.5339 41.0263 53.9802 42.2316 52.9088C42.1945 57.2369 42.3782 61.5016 42.9069 62.8009C43.3399 63.8647 44.3976 66.4644 47.7389 66.4642C48.2291 66.4642 48.7688 66.4082 49.3624 66.283C52.8496 65.5483 54.364 64.0333 54.9498 60.6934C55.2632 58.9084 55.8011 54.6461 56.0542 52.3597C56.5882 52.5235 57.2756 52.5985 58.0188 52.5983C59.5687 52.5983 61.3572 52.2746 62.4788 51.7629C63.7387 51.1877 66.0125 49.7764 65.6001 48.5501ZM57.2958 33.1005C57.2843 33.7755 57.1897 34.3883 57.0896 35.0278C56.9817 35.7158 56.8703 36.427 56.8422 37.2903C56.8145 38.1305 56.9212 39.004 57.0245 39.8489C57.233 41.5552 57.4472 43.3119 56.6185 45.0452C56.4809 44.8055 56.3583 44.5577 56.2514 44.3033C56.1484 44.0579 55.9246 43.6637 55.615 43.1181C54.4101 40.9943 51.5888 36.0207 53.033 33.9912C53.4632 33.3872 54.5552 32.7661 57.2958 33.1005ZM53.9737 21.6657C57.9905 21.7529 61.168 23.2299 63.4175 26.0555C65.1429 28.2229 63.2431 38.0847 57.7427 46.5924C57.6874 46.5233 57.6318 46.4543 57.576 46.3857L57.5063 46.3002C58.9276 43.9929 58.6497 41.7101 58.4023 39.6861C58.3007 38.8556 58.2046 38.0711 58.2291 37.3342C58.2542 36.5532 58.3594 35.8833 58.461 35.2355C58.5859 34.4373 58.7129 33.6113 58.678 32.6377C58.7041 32.5356 58.7147 32.4148 58.701 32.2716C58.6114 31.3379 57.5269 28.5436 55.3166 26.0145C54.1074 24.631 52.3442 23.0829 49.9366 22.0387C50.9721 21.8277 52.3882 21.631 53.9737 21.6657ZM31.4969 51.4654C30.386 52.7784 29.619 52.5267 29.3667 52.4441C27.7229 51.9052 25.8156 48.4903 24.1341 43.0752C22.6791 38.3897 21.8288 33.678 21.7614 32.3568C21.5489 28.1782 22.5795 25.2662 24.8243 23.7013C28.4778 21.1547 34.4843 22.6789 36.8979 23.452C36.8633 23.4857 36.8271 23.5172 36.7929 23.5513C32.8322 27.4829 32.9262 34.2002 32.936 34.6109C32.9356 34.7693 32.9491 34.9936 32.9676 35.3021C33.0357 36.432 33.1626 38.5348 32.8237 40.916C32.5089 43.1288 33.2029 45.2947 34.7274 46.8584C34.8839 47.0185 35.0484 47.171 35.2202 47.3152C34.5417 48.0294 33.0668 49.6092 31.4969 51.4654ZM35.7293 45.9147C34.5005 44.6543 33.9425 42.9015 34.1979 41.1047C34.5558 38.5893 34.4237 36.3984 34.3528 35.2215C34.3428 35.0567 34.3339 34.9124 34.3289 34.7985C34.9074 34.2943 37.5888 32.8821 39.501 33.3128C40.3735 33.5092 40.9052 34.0932 41.1263 35.0978C42.2702 40.2988 41.2776 42.4665 40.4801 44.2085C40.3157 44.5674 40.1604 44.9066 40.0278 45.2575L39.925 45.5288C39.6648 46.2146 39.4226 46.8525 39.2726 47.458C37.9663 47.4543 36.6956 46.9058 35.7293 45.9145V45.9147ZM35.9298 52.9288C35.5483 52.8352 35.2053 52.6725 35.004 52.5376C35.1721 52.4598 35.4713 52.354 35.9903 52.2488C38.5014 51.7409 38.8892 51.3822 39.7361 50.3253C39.9302 50.0828 40.1504 49.8082 40.4552 49.4736L40.4555 49.4732C40.9096 48.9736 41.1172 49.0582 41.4938 49.2119C41.799 49.3358 42.0963 49.7119 42.2168 50.1258C42.2738 50.3212 42.3378 50.6921 42.1283 50.9808C40.3592 53.4155 37.7812 53.3842 35.9298 52.9288ZM49.0718 64.9494C45.9998 65.5964 44.912 64.0557 44.1953 62.2944C43.7327 61.1574 43.5052 56.0298 43.6665 50.3673C43.6687 50.292 43.6577 50.2192 43.6366 50.1508C43.6177 50.0155 43.5891 49.8819 43.5507 49.7506C43.3109 48.9267 42.7263 48.2375 42.0249 47.9518C41.7463 47.8383 41.2349 47.6301 40.6203 47.7846C40.7513 47.2539 40.9786 46.6544 41.2251 46.0053L41.3285 45.7325C41.4448 45.4247 41.591 45.1058 41.7453 44.7682C42.58 42.9457 43.723 40.4492 42.4824 34.8096C42.0177 32.6973 40.466 31.6657 38.1135 31.9054C36.7032 32.0488 35.413 32.608 34.7694 32.9287C34.6311 32.9976 34.5046 33.0643 34.3862 33.1291C34.5659 31.0007 35.2445 27.0233 37.7828 24.5066C39.3812 22.9224 41.5097 22.14 44.1032 22.1821C49.2132 22.2644 52.49 24.842 54.3393 26.9901C55.9329 28.841 56.7958 30.7055 57.1402 31.7112C54.5504 31.4523 52.789 31.9548 51.8962 33.2095C49.9537 35.939 52.9589 41.2364 54.4032 43.7824C54.6681 44.2489 54.8966 44.6522 54.9686 44.8236C55.4389 45.9439 56.0478 46.692 56.4924 47.2379C56.6287 47.4053 56.7609 47.5676 56.8614 47.7093C56.077 47.9316 54.6681 48.4451 54.7965 51.0122C54.693 52.3003 53.9566 58.331 53.5825 60.4617C53.0886 63.2765 52.0348 64.325 49.0718 64.9496V64.9494ZM61.8946 50.5259C61.0925 50.8918 59.7503 51.1662 58.4752 51.2252C57.0669 51.29 56.3499 51.0702 56.1811 50.9349C56.1021 49.3351 56.7078 49.168 57.3488 48.9911C57.4496 48.9634 57.5479 48.9361 57.6428 48.9036C57.7018 48.9508 57.7663 48.9975 57.8371 49.0435C58.969 49.7778 60.9879 49.857 63.8384 49.2787L63.8697 49.2726C63.4852 49.6259 62.8273 50.1 61.8946 50.5259Z" fill="white"/>
</g>
</svg>
