<svg width="86" height="86" viewBox="0 0 86 86" fill="none" xmlns="http://www.w3.org/2000/svg">
<rect x="0.492188" width="85.165" height="86" rx="8" fill="#121212"/>
<rect x="0.992188" y="0.5" width="84.165" height="85" rx="7.5" stroke="#F7F7F7" stroke-opacity="0.24"/>
<path d="M18.4922 62.4427V24.6248C18.4922 24.3675 18.6024 24.2205 18.8597 24.2205C19.4845 24.2205 20.0725 24.2205 20.9178 24.1838C21.7999 24.147 22.7187 24.147 23.711 24.1103C24.7033 24.0735 25.7691 24.0735 26.9084 24.0368C28.0477 24 29.1503 24 30.2529 24C33.2665 24 35.7657 24.3675 37.8238 25.1393C39.6614 25.7641 41.352 26.7932 42.7486 28.153C43.9247 29.3291 44.8435 30.7624 45.4315 32.3427C45.9828 33.8863 46.2768 35.4667 46.2768 37.1205C46.2768 40.2812 45.5418 42.8906 44.0717 44.9487C42.6016 47.0068 40.5435 48.5504 38.1546 49.4325C35.6554 50.3513 32.899 50.6821 29.8853 50.6821C29.0033 50.6821 28.4153 50.6821 28.0477 50.6453C27.6802 50.6085 27.1657 50.6085 26.4674 50.6085V62.406C26.5042 62.6632 26.3204 62.8838 26.0631 62.9205H18.9332C18.6392 62.9205 18.4922 62.7735 18.4922 62.4427ZM26.5042 31.3137V43.6624C27.0187 43.6991 27.4965 43.7359 27.9375 43.7359H29.8853C31.3187 43.7359 32.752 43.5154 34.1118 43.0744C35.2879 42.7436 36.317 42.0453 37.1255 41.1265C37.8973 40.2077 38.2648 38.9581 38.2648 37.341C38.3016 36.2017 38.0076 35.0624 37.4195 34.0701C36.7948 33.1145 35.9127 32.3795 34.8469 31.9752C33.4871 31.4239 32.017 31.2034 30.5101 31.2402C29.5546 31.2402 28.7093 31.2402 28.011 31.2769C27.2759 31.2402 26.7614 31.2769 26.5042 31.3137Z" fill="#9999FF"/>
<path d="M51.4214 33.4459H57.8531C58.2206 33.4459 58.5146 33.7031 58.6249 34.0339C58.7351 34.3279 58.8086 34.6219 58.8454 34.9527C58.9189 35.3202 58.9924 35.7245 59.0291 36.092C59.0659 36.4963 59.1026 36.9373 59.1026 37.4151C60.2052 36.1288 61.5283 35.063 63.0351 34.2544C64.7257 33.2989 66.6736 32.8211 68.6214 32.8211C68.8787 32.7843 69.0992 32.9681 69.136 33.2254V40.539C69.136 40.8331 68.9522 40.9433 68.5479 40.9433C67.2249 40.9066 65.865 41.0168 64.5787 41.3108C63.5129 41.5313 62.4838 41.8621 61.4915 42.3031C60.7932 42.6339 60.1317 43.0749 59.6172 43.663V62.4066C59.6172 62.7741 59.4702 62.9211 59.1394 62.9211H51.8992C51.6052 62.9578 51.3479 62.7741 51.3112 62.4801V41.9724C51.3112 41.0903 51.3112 40.1715 51.2744 39.216C51.2377 38.2604 51.2377 37.3048 51.2009 36.3493C51.2009 35.504 51.1274 34.6954 51.0539 33.8502C51.0172 33.6664 51.1274 33.4826 51.3112 33.4459C51.3112 33.4091 51.3847 33.4091 51.4214 33.4459Z" fill="#9999FF"/>
</svg>
