<svg width="86" height="86" viewBox="0 0 86 86" fill="none" xmlns="http://www.w3.org/2000/svg">
<rect x="0.164062" width="85.165" height="86" rx="8" fill="#121212"/>
<rect x="0.664062" y="0.5" width="84.165" height="85" rx="7.5" stroke="#F7F7F7" stroke-opacity="0.24"/>
<path d="M72.5333 43.6109C72.5333 40.2901 67.5945 37.1431 60.0223 35.1915C61.7698 28.693 60.9931 23.5229 57.5711 21.8676C56.7823 21.4793 55.8601 21.2953 54.853 21.2953V23.5739C55.4111 23.5739 55.8601 23.6658 56.2363 23.8396C57.8867 24.6365 58.6025 27.6713 58.0444 31.5744C57.9108 32.5349 57.6924 33.5464 57.4256 34.5785C55.0471 34.088 52.4502 33.71 49.7199 33.4647C48.0817 31.5744 46.3828 29.8578 44.6719 28.3558C48.6278 25.2599 52.3411 23.5637 54.8651 23.5637V21.2852C51.528 21.2852 47.1595 23.2879 42.7424 26.7618C38.3253 23.3082 33.9568 21.326 30.6198 21.326V23.6046C33.1317 23.6046 36.8571 25.2905 40.813 28.3661C39.1141 29.868 37.4152 31.5744 35.8013 33.4647C33.0588 33.71 30.4619 34.088 28.0836 34.5886C27.8045 33.5669 27.5982 32.5757 27.4525 31.6255C26.8822 27.7223 27.5861 24.6877 29.2243 23.8805C29.5883 23.6965 30.0615 23.6148 30.6198 23.6148V21.3362C29.6004 21.3362 28.6782 21.5202 27.8773 21.9084C24.4673 23.5637 23.7029 28.7237 25.4624 35.2017C17.9146 37.1636 13 40.3004 13 43.6109C13 46.9318 17.9389 50.0788 25.511 52.0303C23.7635 58.5289 24.5402 63.699 27.9622 65.3543C28.751 65.7426 29.6732 65.9265 30.6925 65.9265C34.0296 65.9265 38.3981 63.9238 42.8152 60.4497C47.2323 63.9033 51.6008 65.8857 54.9378 65.8857C55.9572 65.8857 56.8795 65.7017 57.6803 65.3135C61.0903 63.6581 61.8547 58.4982 60.0952 52.0202C67.6187 50.0686 72.5333 46.9214 72.5333 43.6109ZM56.7338 36.7957C56.2848 38.1138 55.7267 39.4727 55.0957 40.8317C54.5981 40.0143 54.0763 39.1969 53.506 38.3794C52.9478 37.562 52.3532 36.765 51.7585 35.9885C53.4818 36.2031 55.1441 36.4688 56.7338 36.7957ZM51.1761 47.6776C50.2296 49.0569 49.2588 50.3648 48.2516 51.5808C46.4435 51.7136 44.6112 51.7852 42.7667 51.7852C40.9343 51.7852 39.102 51.7136 37.306 51.591C36.2988 50.375 35.3159 49.0774 34.3693 47.7083C33.4471 46.3697 32.6098 45.0108 31.8453 43.6416C32.5977 42.2724 33.4471 40.9032 34.3572 39.5648C35.3037 38.1853 36.2745 36.8774 37.2818 35.6615C39.0898 35.5286 40.9222 35.4572 42.7667 35.4572C44.599 35.4572 46.4314 35.5286 48.2273 35.6514C49.2345 36.8672 50.2175 38.1648 51.164 39.5341C52.0862 40.8725 52.9235 42.2315 53.688 43.6008C52.9235 44.9699 52.0862 46.339 51.1761 47.6776ZM55.0957 46.3493C55.7509 47.7185 56.3091 49.0876 56.7702 50.4159C55.1805 50.7429 53.506 51.0188 51.7707 51.2334C52.3652 50.4466 52.9599 49.6393 53.518 48.8118C54.0763 47.9943 54.5981 47.1668 55.0957 46.3493ZM42.7909 57.2516C41.6624 56.2707 40.5339 55.1774 39.4175 53.9819C40.5096 54.0229 41.626 54.0534 42.7545 54.0534C43.8952 54.0534 45.0237 54.0331 46.1279 53.9819C45.0358 55.1774 43.9073 56.2707 42.7909 57.2516ZM33.7626 51.2334C32.0396 51.0188 30.3771 50.7531 28.7874 50.4262C29.2364 49.1081 29.7945 47.7492 30.4255 46.3902C30.9231 47.2076 31.4449 48.025 32.0153 48.8424C32.5856 49.6598 33.1681 50.4569 33.7626 51.2334ZM42.7302 29.9702C43.8588 30.9511 44.9873 32.0445 46.1038 33.2399C45.0116 33.199 43.8952 33.1685 42.7667 33.1685C41.626 33.1685 40.4975 33.1888 39.3932 33.2399C40.4853 32.0445 41.6139 30.9511 42.7302 29.9702ZM33.7505 35.9885C33.1559 36.7753 32.5613 37.5824 32.0031 38.4101C31.4449 39.2275 30.9231 40.0449 30.4255 40.8624C29.7703 39.4932 29.2121 38.124 28.751 36.7957C30.3406 36.479 32.0153 36.2031 33.7505 35.9885ZM22.7686 48.7811C18.4728 47.2383 15.6939 45.2151 15.6939 43.6109C15.6939 42.0068 18.4728 39.9734 22.7686 38.4408C23.8121 38.0627 24.9528 37.7255 26.1298 37.4088C26.8215 39.4115 27.7316 41.4958 28.8601 43.6313C27.7438 45.7566 26.8458 47.8309 26.1663 49.8233C24.9649 49.5066 23.8242 49.1592 22.7686 48.7811ZM29.297 63.3823C27.6468 62.5852 26.9308 59.5506 27.4889 55.6474C27.6225 54.687 27.8409 53.6755 28.1079 52.6434C30.4862 53.1339 33.0831 53.5119 35.8134 53.7572C37.4516 55.6474 39.1505 57.3641 40.8615 58.866C36.9055 61.962 33.1924 63.6581 30.6682 63.6581C30.1222 63.648 29.6611 63.5559 29.297 63.3823ZM58.0808 55.5963C58.6511 59.4996 57.9473 62.5342 56.3091 63.3414C55.9451 63.5254 55.4718 63.6071 54.9136 63.6071C52.4017 63.6071 48.6763 61.9211 44.7204 58.8456C46.4192 57.3436 48.1181 55.6372 49.7321 53.7469C52.4745 53.5017 55.0714 53.1236 57.4497 52.6229C57.7289 53.655 57.9473 54.6461 58.0808 55.5963ZM62.7526 48.7811C61.7091 49.1592 60.5684 49.4964 59.3913 49.8131C58.6997 47.8104 57.7896 45.7259 56.661 43.5904C57.7774 41.4653 58.6754 39.391 59.3549 37.3986C60.5563 37.7153 61.697 38.0627 62.7648 38.4408C67.0606 39.9836 69.8394 42.0068 69.8394 43.6109C69.8273 45.2151 67.0484 47.2485 62.7526 48.7811Z" fill="#61DAFB"/>
<path d="M42.7486 48.2807C45.8114 48.2807 48.2942 46.1901 48.2942 43.6111C48.2942 41.0321 45.8114 38.9414 42.7486 38.9414C39.6859 38.9414 37.2031 41.0321 37.2031 43.6111C37.2031 46.1901 39.6859 48.2807 42.7486 48.2807Z" fill="#61DAFB"/>
</svg>
