<svg width="86" height="86" viewBox="0 0 86 86" fill="none" xmlns="http://www.w3.org/2000/svg">
<rect x="0.328125" width="85.165" height="86" rx="8" fill="#121212"/>
<rect x="0.828125" y="0.5" width="84.165" height="85" rx="7.5" stroke="#F7F7F7" stroke-opacity="0.24"/>
<mask id="mask0_2610_39942" style="mask-type:alpha" maskUnits="userSpaceOnUse" x="1" y="1" width="84" height="84">
<rect x="1.32812" y="1" width="83" height="84" rx="7" fill="#121212"/>
</mask>
<g mask="url(#mask0_2610_39942)">
<path d="M53.8231 52.9214C55.7667 52.7202 57.2413 51.0446 57.1742 49.0337C57.1073 47.023 55.4316 45.4143 53.4208 45.4143H53.2869C51.2089 45.4813 49.6004 47.224 49.6675 49.3018C49.7345 50.3072 50.1365 51.1786 50.7398 51.7818C48.461 56.2728 44.9757 59.557 39.7478 62.3052C36.1954 64.1819 32.5091 64.8523 28.8228 64.3832C25.8066 63.9809 23.4607 62.6405 21.9859 60.4284C19.8413 57.1441 19.6403 53.5915 21.45 50.0392C22.7235 47.4921 24.7341 45.6153 26.0076 44.6769C25.7395 43.8056 25.3373 42.331 25.1363 41.2587C15.4176 48.2965 16.4231 57.8144 19.3722 62.3052C21.5839 65.6567 26.0747 67.7345 31.0345 67.7345C32.3749 67.7345 33.7154 67.6004 35.056 67.2654C43.6353 65.5896 50.1368 60.4954 53.8231 52.9214V52.9214ZM65.6195 44.61C60.5255 38.6445 53.0188 35.3602 44.4395 35.3602H43.3672C42.7639 34.1537 41.4904 33.3493 40.0829 33.3493H39.9488C37.8712 33.4163 36.2627 35.159 36.3295 37.237C36.3966 39.2477 38.0722 40.8564 40.0829 40.8564H40.2168C41.6914 40.7894 42.965 39.851 43.5011 38.5774H44.7076C49.8016 38.5774 54.6273 40.052 58.9841 42.9342C62.3353 45.1462 64.7482 48.0284 66.0886 51.5137C67.228 54.3289 67.161 57.077 65.9545 59.4231C64.0779 62.9755 60.9278 64.9193 56.7722 64.9193C54.0911 64.9193 51.5442 64.1149 50.2036 63.5116C49.4664 64.1819 48.1258 65.2543 47.1874 65.9248C50.0697 67.2652 53.0188 68.0026 55.8338 68.0026C62.2682 68.0026 67.027 64.45 68.8368 60.8977C70.7804 57.0099 70.6463 50.3072 65.6195 44.61V44.61ZM31.5707 54.0606C31.6378 56.0716 33.3133 57.6801 35.3241 57.6801H35.4582C37.536 57.6132 39.1445 55.8703 39.0774 53.7925C39.0106 51.7816 37.3348 50.1731 35.3241 50.1731H35.1901C35.056 50.1731 34.8548 50.1731 34.721 50.24C31.9729 45.6821 30.8335 40.7223 31.2357 35.36C31.5036 31.3383 32.8442 27.8528 35.1901 24.9706C37.1338 22.4906 40.8872 21.2841 43.4343 21.2172C50.5388 21.0831 53.5548 29.9306 53.756 33.4832C54.6273 33.6842 56.1019 34.1535 57.1073 34.4887C56.3029 23.6304 49.6004 18 43.1662 18C37.1338 18 31.5707 22.3568 29.3587 28.7914C26.2757 37.3709 28.2864 45.6153 32.0398 52.117C31.7048 52.5861 31.5036 53.3234 31.5707 54.0608V54.0606Z" fill="#764ABC"/>
</g>
</svg>
