<svg width="86" height="86" viewBox="0 0 86 86" fill="none" xmlns="http://www.w3.org/2000/svg">
<rect width="85.165" height="86" rx="8" fill="#121212"/>
<rect x="0.5" y="0.5" width="84.165" height="85" rx="7.5" stroke="#F7F7F7" stroke-opacity="0.24"/>
<path d="M28.6909 23.406L42.5 22L56.309 23.406L66.9999 37.2274L42.5 64.7035L18 37.2274L28.6909 23.406Z" fill="#FDB300"/>
<path d="M27.9237 37.2305L42.5 64.7065L18 37.2305H27.9237Z" fill="#EA6C00"/>
<path d="M57.0763 37.2305L42.5 64.7065L67 37.2305H57.0763Z" fill="#EA6C00"/>
<path d="M27.9219 37.2305H57.0744L42.4981 64.7065L27.9219 37.2305Z" fill="#FDAD00"/>
<path d="M42.4981 22L28.689 23.406L27.9219 37.2274L42.4981 22Z" fill="#FDD231"/>
<path d="M42.5019 22L56.311 23.406L57.0781 37.2274L42.5019 22Z" fill="#FDD231"/>
<path d="M67 37.2277L56.309 23.4062L57.0763 37.2277H67Z" fill="#FDAD00"/>
<path d="M18 37.2277L28.6908 23.4062L27.9237 37.2277H18Z" fill="#FDAD00"/>
<path d="M42.4981 22L27.9219 37.2274H57.0744L42.4981 22Z" fill="#FEEEB7"/>
</svg>
