<svg width="86" height="86" viewBox="0 0 86 86" fill="none" xmlns="http://www.w3.org/2000/svg">
<rect x="0.65625" width="85.165" height="86" rx="8" fill="#121212"/>
<rect x="1.15625" y="0.5" width="84.165" height="85" rx="7.5" stroke="#F7F7F7" stroke-opacity="0.24"/>
<path d="M57.1546 47.7337C57.1532 47.732 57.152 47.7307 57.1506 47.7291C57.2122 47.5173 57.2757 47.3069 57.3295 47.0898C59.6385 37.7879 54.0032 26.7904 44.4669 21C48.6459 26.7283 50.4936 33.6666 48.852 39.7343C48.7055 40.2755 48.5295 40.7949 48.335 41.2997C48.1238 41.1595 47.8578 41.0002 47.5005 40.801C47.5005 40.801 38.0145 34.8788 27.7331 24.4037C27.4634 24.1287 33.2156 32.7169 39.7437 39.6907C36.668 37.9454 28.0967 31.6395 22.6705 26.6178C23.3371 27.7419 24.1301 28.8245 25.0017 29.8666C29.5331 35.6773 35.4425 42.8468 42.5223 48.3522C37.548 51.4302 30.5191 51.6696 23.5208 48.3554C21.7899 47.5351 20.1626 46.5455 18.6562 45.421C21.6186 50.2122 26.1811 54.3459 31.7341 56.7592C38.3562 59.6368 44.9414 59.4416 49.8461 56.8064L49.8422 56.8121C49.8646 56.7978 49.8931 56.7821 49.9163 56.7676C50.1177 56.6581 50.3176 56.5467 50.5131 56.4289C52.8696 55.1921 57.5242 53.9373 60.0225 58.8525C60.6344 60.0554 61.9345 53.6807 57.1546 47.7337Z" fill="white"/>
</svg>
