<svg width="86" height="86" viewBox="0 0 86 86" fill="none" xmlns="http://www.w3.org/2000/svg">
<rect x="0.492188" width="85.165" height="86" rx="8" fill="#121212"/>
<rect x="0.992188" y="0.5" width="84.165" height="85" rx="7.5" stroke="#F7F7F7" stroke-opacity="0.24"/>
<path d="M51.352 43.189L61.2175 26.1534L65.9848 43.189L61.2175 60.2207L51.352 43.189ZM46.5434 45.9554L56.4105 62.9885L39.2262 58.586L26.8117 45.9554H46.5434ZM56.4082 23.3846L46.5434 40.4202H26.8117L39.2262 27.7889L56.4082 23.3846ZM70.4922 37.3916L64.4734 15L42.0085 21.0009L38.6831 26.8475L31.9351 26.7992L15.4922 43.1906L31.9351 59.5781H31.9358L38.6808 59.5281L42.011 65.3748L64.4734 71.3747L70.4922 48.9873L67.0742 43.189L70.4922 37.3916Z" fill="white"/>
</svg>
