<svg width="86" height="86" viewBox="0 0 86 86" fill="none" xmlns="http://www.w3.org/2000/svg">
<rect x="0.3125" width="85.165" height="86" rx="8" fill="#121212"/>
<rect x="0.8125" y="0.5" width="84.165" height="85" rx="7.5" stroke="#F7F7F7" stroke-opacity="0.24"/>
<path d="M47.7339 31.8881C46.5351 32.4653 46.0156 33.5429 46.0156 36.4677C46.0156 36.4677 46.615 35.8904 47.5741 35.5441C48.2734 35.2939 48.7729 34.9668 49.1325 34.7167C50.1715 33.9662 50.3314 33.0618 50.3314 31.484C50.3114 31.484 48.673 31.3878 47.7339 31.8881Z" fill="#FBBD71"/>
<path d="M40.4039 32.56C39.365 33.3874 39.1052 34.8113 39.1052 34.8113L35.7485 47.2033L32.9913 37.0626C32.7315 35.9851 32.212 34.6574 31.4328 33.7337C30.4738 32.56 28.4757 32.483 28.236 32.483C28.0562 32.483 26.0781 32.56 25.0391 33.7337C24.2599 34.6574 23.7404 35.9851 23.4807 37.0626L20.8833 47.2033L17.5266 34.8113C17.5266 34.8113 17.2668 33.4836 16.2279 32.56C14.5895 31.1361 12.1719 31.4824 12.1719 31.4824L18.5655 54.6692C18.5655 54.6692 20.6435 54.8424 21.6825 54.3421C23.0611 53.6686 23.7604 53.1876 24.5396 50.0126C25.3189 47.184 27.3968 38.9484 27.5567 38.3711C27.6366 38.121 27.8164 37.3705 28.3359 37.3705C28.8554 37.3705 29.0352 38.044 29.1151 38.3711C29.2949 38.9484 31.3529 47.184 32.1321 50.0126C32.9913 53.1683 33.5907 53.6686 34.9893 54.3421C36.0283 54.8424 38.1062 54.6692 38.1062 54.6692L44.4599 31.4824C44.4599 31.4824 42.0423 31.1553 40.4039 32.56Z" fill="white"/>
<path d="M50.3157 35.2148C50.3157 35.2148 49.8762 35.7921 49.017 36.2924C48.4176 36.6195 47.8981 36.7927 47.2987 37.1198C46.2597 37.6201 46 38.1204 46 38.8709V39.121V40.3717V40.6219V54.5917C46 54.5917 47.6384 54.7649 48.6773 54.2646C50.056 53.5911 50.3157 52.9369 50.3157 50.1083V36.1385V35.2148Z" fill="white"/>
<path d="M66.197 43.1229L74.3089 31.5583C74.3089 31.5583 70.9523 30.9811 69.214 32.482C68.0951 33.4056 66.9762 35.1374 66.9762 35.1374L64.0391 39.2937C63.8593 39.5438 63.6994 39.717 63.4397 39.717C63.18 39.717 62.9202 39.4669 62.8403 39.2937L59.9032 35.1374C59.9032 35.1374 58.7044 33.4826 57.6654 32.482C55.9471 30.9811 52.5704 31.5583 52.5704 31.5583L60.4227 43.1036L52.3906 54.6489C52.3906 54.6489 55.9271 55.0723 57.6654 53.5714C58.7843 52.6478 59.8233 51.0699 59.8233 51.0699L62.7604 46.9136C62.9402 46.6634 63.1 46.4903 63.3598 46.4903C63.6195 46.4903 63.8793 46.7404 63.9592 46.9136L66.8963 51.0699C66.8963 51.0699 68.0152 52.6478 69.0541 53.5714C70.7724 55.0723 74.229 54.6489 74.229 54.6489L66.197 43.1229Z" fill="white"/>
</svg>
