<svg width="86" height="86" viewBox="0 0 86 86" fill="none" xmlns="http://www.w3.org/2000/svg">
<rect x="0.65625" width="85.165" height="86" rx="8" fill="#121212"/>
<rect x="1.15625" y="0.5" width="84.165" height="85" rx="7.5" stroke="#F7F7F7" stroke-opacity="0.24"/>
<path d="M30.7156 21C29.3382 21.0028 27.9898 21.761 27.2964 22.9175L16.5119 41.0825C15.8294 42.2421 15.8294 43.7579 16.5119 44.9175L27.2964 63.0825C27.9899 64.2391 29.3382 64.9974 30.7156 65H52.2845C53.6619 64.9972 55.0101 64.2391 55.7036 63.0825L66.4881 44.9175C67.1707 43.7579 67.1706 42.2421 66.4881 41.0825L55.7036 22.9175C55.0101 21.761 53.6619 21.0026 52.2845 21H30.7156ZM30.9113 31.6267C30.9409 31.6239 30.972 31.6239 31.0017 31.6267H34.722C34.8867 31.6301 35.0465 31.7223 35.1287 31.8609L41.4398 42.7658C41.4715 42.8197 41.492 42.8798 41.4998 42.9414C41.5075 42.8798 41.528 42.8197 41.5598 42.7658L47.8557 31.8609C47.9406 31.7181 48.1078 31.6253 48.2774 31.6267H51.9977C52.3272 31.6296 52.5739 32.0319 52.4195 32.3147L46.2592 43L52.4195 53.6707C52.5885 53.9551 52.3357 54.3761 51.9977 54.3733H48.2774C48.1048 54.3718 47.9366 54.2726 47.8557 54.1244L41.5598 43.2196C41.528 43.1656 41.5075 43.1056 41.4998 43.0439C41.492 43.1056 41.4715 43.1657 41.4398 43.2196L35.1287 54.1244C35.0502 54.2684 34.8896 54.3667 34.722 54.3733H31.0017C30.6637 54.3761 30.411 53.9551 30.58 53.6707L36.7404 43L30.58 32.3147C30.4324 32.0567 30.6125 31.6818 30.9113 31.6267Z" fill="#3498DB"/>
</svg>
