<svg width="615" height="431" viewBox="0 0 615 431" fill="none" xmlns="http://www.w3.org/2000/svg">
<g clip-path="url(#clip0_3103_44266)">
<path d="M306.404 353.163V300.264L323.777 288.929L322.266 288.173L327.302 249.38L328.812 200.26L327.805 149.88L316.979 150.132L300.866 149.628L283.997 150.132L279.717 147.361L276.444 148.117L274.178 152.147L269.646 155.926L259.071 163.986L249.252 171.292L247.994 172.047L247.742 178.093L246.483 229.48L242.706 287.669L241.699 333.263L247.994 344.598L250.511 367.521L250.763 413.367V419.413L259.323 419.916L263.352 420.42H263.603L284.5 418.909H305.397L306.656 405.054L306.404 353.163Z" fill="#E36F27"/>
<path d="M250.512 367.521L247.995 344.598L241.7 333.263L242.707 287.669L246.484 229.48L247.743 178.093L247.995 172.047L244.47 174.062L241.449 173.559L240.19 174.818L238.427 180.36L235.406 184.894L225.083 192.703L214.509 200.512L205.193 208.824L201.165 211.343L197.137 212.603L194.116 221.419L188.325 225.45L184.296 228.724L185.807 232.503L185.304 238.045L183.793 244.09L184.045 250.64L183.793 264.998L183.289 271.799L181.023 276.837L183.038 277.593L184.548 280.112L187.066 285.402L187.821 293.463V301.523L188.828 310.088L188.577 318.149L187.569 322.683L183.793 326.965L187.821 333.515L189.332 341.575L190.339 350.644L190.591 360.468L191.346 369.536L189.584 377.093L186.814 379.612L185.807 381.627L186.562 383.895L188.828 385.658L192.605 400.268L194.116 408.329L193.36 415.886L193.108 419.916L197.389 419.664L207.459 419.16L238.679 418.153L250.764 419.412V413.367L250.512 367.521Z" fill="#DB6821"/>
<path d="M377.405 358.957L371.614 344.095L381.937 184.894L376.146 176.581L375.894 172.299L372.37 172.803H370.104L368.341 171.543L363.809 168.772L353.487 162.223L343.919 154.666L341.15 149.88L341.905 145.094L340.898 144.842L336.618 148.872L331.079 149.628L327.806 149.88L328.813 200.26L327.303 249.38L322.267 288.173L323.778 288.929L306.406 300.264V353.163L306.657 405.054L305.398 418.909H339.136L355.249 419.161H359.278L382.692 419.412L380.93 381.879L377.405 358.957Z" fill="#DB6821"/>
<path d="M435.815 327.973L435.563 325.958L432.29 322.935L432.038 319.156V309.584L432.794 290.944L431.787 283.135L431.535 280.112L434.053 277.593L435.563 276.082V274.822L433.046 272.555L433.297 269.028V264.998V255.426L432.038 245.854L431.787 235.274L432.794 232.503L435.06 230.236L431.283 229.228L427.507 228.976L423.226 222.931L421.212 220.16L421.464 216.885L421.968 213.359L421.212 211.343L419.45 211.595L416.68 212.099L410.386 210.336L406.358 205.55L401.322 201.268L396.539 196.985L392.259 193.962L382.943 186.405L381.936 184.894L371.613 344.095L377.404 358.957L380.929 381.879L382.691 419.412L391 419.664L414.666 421.176L423.478 420.924L426.751 420.672L426.248 418.405L425.996 408.833L428.514 389.436L431.787 381.376L432.29 380.116L432.038 378.353L430.528 376.086L429.269 373.063L429.017 369.284V360.216L430.528 349.888L431.283 345.606L431.031 341.324L434.304 332.003L435.815 327.973Z" fill="#E36F27"/>
<path d="M251.016 421.176C251.267 408.077 250.26 373.567 250.26 373.567C250.26 373.567 248.498 408.077 248.246 421.176H251.016Z" fill="#A84A21"/>
<path d="M245.226 169.276C244.471 194.466 244.219 260.212 244.219 260.212C244.219 260.212 247.24 194.466 247.995 169.528L245.226 169.276Z" fill="#A84A21"/>
<path d="M327.555 147.865C327.303 171.039 327.807 231.747 327.807 231.747C327.807 231.747 330.073 171.039 330.324 147.865H327.555Z" fill="#A84A21"/>
<path d="M306.406 421.68C306.406 412.107 305.147 387.169 305.147 387.169C305.147 387.169 303.888 412.107 303.637 421.68H306.406Z" fill="#A84A21"/>
<path d="M381.938 423.443C380.428 405.558 375.141 359.208 375.141 359.208C375.141 359.208 377.658 405.81 379.169 423.695L381.938 423.443Z" fill="#A84A21"/>
<path d="M379.922 181.619C379.418 190.184 379.418 212.351 379.418 212.351C379.418 212.351 381.936 190.184 382.439 181.619H379.922Z" fill="#A84A21"/>
<path d="M405.101 345.354C405.101 345.354 404.346 326.713 405.101 303.539C405.857 280.616 407.619 261.723 407.619 261.723C407.619 261.723 408.374 280.364 407.619 303.539C406.864 326.713 405.101 345.354 405.101 345.354Z" fill="#A84A21"/>
<path d="M371.864 318.905C371.864 318.905 371.613 303.791 372.871 285.15C374.13 266.51 376.648 251.647 376.648 251.647C376.648 251.647 376.9 266.761 375.641 285.402C374.382 304.043 371.864 318.905 371.864 318.905Z" fill="#A84A21"/>
<path d="M308.419 333.011C308.419 333.011 308.167 329.988 307.915 324.698C307.664 319.408 307.412 311.851 307.16 302.531C307.412 301.775 307.664 300.516 307.915 299.004C308.419 298.249 309.678 296.989 310.685 295.73C311.189 295.478 312.196 294.722 313.203 294.218C315.217 292.959 317.231 291.699 318.993 290.692C320 290.188 320.756 289.684 321.511 289.18C322.015 288.928 322.266 288.677 322.518 288.425L323.022 288.173C323.274 288.173 323.022 288.173 323.274 288.173C323.525 287.417 323.525 286.913 323.777 286.409C324.532 278.852 325.288 272.555 325.791 268.021C326.295 263.738 326.798 261.219 326.798 261.219C326.798 261.219 326.798 263.738 326.798 268.021C326.798 272.555 326.547 278.601 326.295 286.661C326.043 287.417 326.043 288.173 325.539 289.432C324.784 289.936 324.029 290.692 323.022 291.196C322.266 291.699 321.259 292.203 320.504 292.707C318.742 293.715 316.727 294.974 314.713 296.234C313.958 296.737 312.951 297.241 312.699 297.493C311.692 298.501 310.937 299.508 310.433 300.012C310.181 301.02 309.93 302.027 309.678 302.531C309.426 311.347 309.174 319.156 308.923 324.446C308.671 329.988 308.419 333.011 308.419 333.011Z" fill="#A84A21"/>
<path d="M279.971 280.364C279.971 280.364 278.964 259.456 279.216 233.763C279.468 208.069 281.23 187.161 281.23 187.161C281.23 187.161 282.237 208.069 281.986 233.763C281.482 259.456 279.971 280.364 279.971 280.364Z" fill="#A84A21"/>
<path d="M206.202 337.293C206.202 337.293 204.691 317.393 204.44 292.707C204.188 268.021 205.447 248.121 205.447 248.121C205.447 248.121 206.957 268.021 207.209 292.707C207.209 317.393 206.202 337.293 206.202 337.293Z" fill="#A84A21"/>
<path d="M240.946 306.058C240.946 306.058 241.198 308.829 241.702 313.363C241.953 317.897 242.457 324.446 242.457 330.996C242.709 331.751 242.709 332.507 242.709 333.263C243.212 334.018 243.968 334.522 244.471 335.026C244.975 336.286 245.226 337.293 245.478 338.301C245.73 339.308 245.982 340.316 246.485 341.324C246.989 343.339 247.492 344.85 247.996 346.362C248.248 349.132 248.248 351.148 248.248 352.407C248.248 353.918 248.248 354.674 248.248 354.674C248.248 354.674 247.996 353.918 247.744 352.407C247.492 351.148 246.989 349.132 246.485 346.613C245.982 345.102 245.226 343.591 244.471 341.827C243.716 340.064 242.961 338.301 242.205 336.286C241.702 335.782 240.946 335.026 240.191 334.27C239.939 333.263 239.939 332.255 239.688 330.996C239.688 330.996 239.688 330.996 239.688 330.744C239.688 323.439 239.939 317.393 240.443 312.859C240.695 308.829 240.946 306.058 240.946 306.058Z" fill="#A84A21"/>
<path d="M281.731 394.474C281.731 394.474 279.969 386.414 279.465 376.338C278.962 366.262 279.969 358.201 279.969 358.201C279.969 358.201 281.731 366.262 282.235 376.338C282.738 386.414 281.731 394.474 281.731 394.474Z" fill="#A84A21"/>
<path d="M346.184 402.787C346.184 402.787 345.68 400.016 344.925 394.978C344.673 392.459 344.17 389.436 343.666 385.91C343.163 382.383 342.911 378.605 342.407 374.574C342.407 374.574 342.156 374.322 341.904 373.819C341.652 373.567 341.4 373.063 341.148 372.559C340.393 371.552 339.638 370.544 339.134 369.284C339.134 368.529 338.882 367.017 338.882 365.506C338.631 363.743 338.631 361.979 338.379 360.972C339.134 351.148 340.141 342.835 340.897 336.538C341.652 330.492 342.155 326.965 342.155 326.965C342.155 326.965 342.155 330.492 342.155 336.789C342.155 342.835 341.652 351.4 341.148 360.972C341.148 361.979 341.4 363.491 341.652 365.254C341.652 366.514 341.904 367.521 341.904 368.277C343.163 370.292 344.421 372.307 345.177 373.567C345.429 375.834 345.429 378.101 345.68 380.116C345.68 382.131 345.932 383.895 345.932 385.658C346.184 389.185 346.184 392.207 346.436 394.726C346.184 399.764 346.184 402.787 346.184 402.787Z" fill="#A84A21"/>
<path d="M458.226 292.959C458.226 293.211 458.226 293.211 458.226 293.463C442.112 293.211 425.999 292.707 409.886 292.455C391.506 291.951 373.127 291.951 354.748 293.463C336.117 294.974 317.485 297.241 298.854 297.997C297.344 297.997 295.833 297.997 294.323 298.249C267.131 299.005 240.192 295.226 213 295.478C195.88 295.73 178.508 297.493 161.387 296.234C161.135 286.661 161.135 277.089 160.884 267.769C160.884 265.25 159.373 256.182 161.387 254.67C162.394 253.915 166.926 254.67 168.185 254.67C170.703 254.67 173.22 254.67 175.738 254.67C194.873 254.418 213.756 254.166 232.89 253.663C270.908 252.907 309.177 251.899 347.195 250.892C383.953 249.884 420.712 248.625 457.47 247.113C457.722 262.227 457.974 277.593 458.226 292.959Z" fill="#A84A21"/>
<path d="M458.226 286.158C458.226 286.41 458.226 286.41 458.226 286.662C442.112 286.41 425.999 285.906 409.886 285.654C391.506 285.15 373.127 285.15 354.748 286.662C336.117 288.173 317.485 290.44 298.854 291.196C297.344 291.196 295.833 291.196 294.323 291.448C267.131 292.203 240.192 288.425 213 288.677C195.88 288.929 178.508 290.692 161.387 289.432C161.135 279.86 161.135 270.288 160.884 260.968C160.884 258.449 159.373 249.38 161.387 247.869C162.394 247.113 166.926 247.869 168.185 247.869C170.703 247.869 173.22 247.869 175.738 247.869C194.873 247.617 213.756 247.365 232.89 246.861C270.908 246.106 309.177 245.098 347.195 244.091C383.953 243.083 420.712 241.823 457.47 240.312C457.722 255.426 457.974 270.792 458.226 286.158Z" fill="#E87B38"/>
<path d="M325.792 363.743C324.533 363.743 323.526 363.491 322.268 363.491C300.112 361.979 278.208 361.476 256.052 361.476C243.967 361.476 231.882 362.987 219.545 362.987C206.453 362.735 193.361 361.979 180.52 361.476C174.226 361.224 167.932 361.224 161.889 361.727C161.637 371.3 161.386 380.872 161.134 390.192C161.134 392.711 159.623 401.779 161.386 403.291C162.393 404.047 166.925 403.291 168.183 403.543C170.701 403.543 173.219 403.543 175.737 403.795C194.871 404.298 213.754 404.802 232.889 405.306C270.906 406.314 309.175 407.573 347.193 408.833C383.952 410.092 420.71 411.604 457.469 413.367C457.721 398.001 458.224 382.635 458.476 367.269C458.476 367.017 458.476 367.017 458.476 366.765C458.476 367.773 426.249 366.765 423.228 366.765C407.115 367.017 391.505 369.032 375.391 368.277C359.026 367.017 342.409 365.002 325.792 363.743Z" fill="#A84A21"/>
<path d="M325.792 358.705C324.533 358.705 323.526 358.453 322.268 358.453C300.112 356.941 278.208 356.437 256.052 356.437C243.967 356.437 231.882 357.949 219.545 357.949C206.453 357.697 193.361 356.941 180.52 356.437C174.226 356.186 167.932 356.186 161.889 356.689C161.637 366.262 161.386 375.834 161.134 385.154C161.134 387.673 159.623 396.741 161.386 398.253C162.393 399.008 166.925 398.253 168.183 398.505C170.701 398.505 173.219 398.505 175.737 398.757C194.871 399.26 213.754 399.764 232.889 400.268C270.906 401.276 309.175 402.535 347.193 403.795C383.952 405.054 420.71 406.565 457.469 408.329C457.721 392.963 458.224 377.597 458.476 362.231C458.476 361.979 458.476 361.979 458.476 361.727C458.476 362.735 426.249 361.727 423.228 361.727C407.115 361.979 391.505 363.994 375.391 363.239C358.774 361.727 342.409 359.964 325.792 358.705Z" fill="#E87B38"/>
<path d="M429.773 426.214L428.766 425.962L427.003 421.428L426.751 420.672L426.248 418.405L425.996 408.833L428.514 389.436L431.787 381.376L432.29 380.116L432.039 378.353L430.528 376.086L433.549 375.078L441.102 378.605L444.124 377.849L453.187 377.597H466.28L478.616 377.345L487.68 370.544V370.796L485.414 374.826L482.141 377.345L487.177 379.109L495.233 382.383L496.492 384.902L487.932 384.65L477.861 384.902L454.698 385.154L438.836 384.902L431.283 394.978L431.787 408.833V417.901L434.053 421.428L437.578 421.68L445.382 423.191L453.943 425.206L475.343 420.42L490.45 420.924L497.751 421.428L500.772 421.68L505.052 417.397L507.822 412.359L508.577 415.13L506.815 419.161L499.765 425.206L482.141 427.977L463.258 428.229L452.936 428.733H442.109L433.046 427.473L429.773 426.214Z" fill="#A3868B"/>
<path d="M506.817 275.578L506.565 276.837L504.551 281.12L501.026 282.631L497.753 283.639L496.494 282.379L497.753 287.921L491.711 285.15L484.913 285.654L476.101 285.906L448.658 284.394L442.867 283.639L441.608 282.379L437.328 285.402L437.076 288.173L435.817 297.997L438.083 314.622L437.832 321.927L440.349 322.683L443.119 322.179L456.211 322.935L469.303 323.439L478.367 323.691L486.172 325.958L495.991 319.66L497.501 318.653L496.494 322.431L492.214 327.217L489.193 328.225L487.682 328.981L486.675 328.477L488.438 330.996L483.906 329.736L476.353 329.233L446.895 328.981L441.105 329.233L438.587 334.271L433.048 358.705L434.055 367.773L433.551 375.078L430.53 376.086L429.271 373.063L429.02 369.285V360.216L430.53 349.888L431.285 345.606L431.034 341.324L434.307 332.003L435.817 327.973L435.566 325.958L432.293 322.935L432.041 319.157V309.584L432.796 290.944L431.789 283.135L431.537 280.112L434.055 277.593L435.566 276.082V274.822L433.048 272.555L433.3 269.029V264.998V255.426L432.041 245.854L431.789 235.274L432.796 232.503L435.062 230.236L437.832 230.488V241.32V246.861L436.573 247.617L438.587 266.258L440.097 271.044L448.154 273.563L453.19 274.57L471.065 275.83L484.913 276.586H491.459L494.228 275.326L499.264 277.341L506.817 275.578Z" fill="#A3868B"/>
<path d="M504.299 222.427L498.76 223.435L490.2 224.19L477.108 225.954L463.008 225.702L437.831 230.488L435.062 230.236L431.285 229.228L427.509 228.977L423.228 222.931L421.214 220.16L421.466 216.885L421.97 213.359L421.214 211.344L419.452 211.595L416.682 212.099L410.388 210.336L406.36 205.55L401.324 201.268L396.541 196.985L392.261 193.962L382.945 186.405L376.147 176.581L375.895 172.299L372.371 172.803H370.105L368.342 171.543L363.81 168.773L353.488 162.223L343.92 154.666L341.151 149.88L341.906 145.094L340.899 144.842L336.619 148.872L331.08 149.628L316.981 150.132L300.868 149.628L283.999 150.132L279.719 147.361L276.446 148.117L274.18 152.147L269.648 155.926L259.073 163.986L249.254 171.292L244.471 174.062L241.449 173.559L240.191 174.818L238.428 180.36L235.407 184.894L225.084 192.703L214.51 200.512L205.194 208.825L201.166 211.344L197.138 212.603L194.116 221.42L188.326 225.45L184.297 228.725L185.808 232.503L185.304 238.045L183.794 244.09L180.773 243.587L181.024 242.075L180.521 235.526L178.255 228.977L161.638 227.213L152.071 226.458L141.748 224.946L133.44 224.19L127.145 222.427L125.383 221.42L127.649 221.168L129.159 216.885L128.152 210.084L132.684 214.87L141.496 216.633L159.624 221.923L172.716 226.206L180.521 226.458L193.109 209.832L187.822 205.046L180.521 198.497L174.478 190.688L164.156 180.36L159.12 177.841L165.918 176.581L165.666 171.795L167.68 175.322L174.73 181.871L182.031 190.436L192.354 198.749L203.936 201.268L218.286 190.94L230.372 180.108L230.623 169.276L220.049 156.933L208.971 146.102L198.9 138.545L200.159 138.796L204.943 139.3L206.705 130.232L207.712 135.018L209.726 140.308L243.715 166.254L256.304 159.452L271.662 144.338L260.332 123.683L247.996 104.538L245.73 101.515L245.981 101.767L250.01 102.271L247.492 92.9508L248.751 83.8824L253.534 74.814L255.297 72.7988L252.276 81.6153L251.017 87.9128L264.864 118.645L275.942 134.262L280.978 133.758L285.006 138.293L292.559 141.315L313.96 141.567L333.346 139.804L343.417 136.026L359.53 111.843L367.335 96.7293L370.105 87.9128L370.608 88.9204L369.349 95.9736L366.832 102.271L369.349 102.019L361.293 114.866L354.495 128.217L349.963 137.285L347.445 143.079L348.201 147.613L353.991 155.422L368.594 164.994L373.629 167.261L376.902 165.498L386.47 158.193L396.289 149.124L404.849 143.079L408.122 141.064V139.3L408.374 133.255V126.202L410.136 127.461L411.395 141.064H413.158L404.346 151.643L395.534 159.2L387.225 166.757L381.938 172.551L383.7 176.833L389.239 186.154L397.8 192.703L412.402 202.527L417.689 206.557L434.055 194.718L437.579 192.451L434.81 185.65L440.097 187.665L446.643 181.116L446.391 175.826L448.909 162.979L449.413 163.483L450.672 169.024L451.175 174.062L454.7 177.085L458.225 177.337H458.476L448.154 188.673L443.874 192.955L443.622 194.466L439.845 196.23L434.558 201.519L426.501 211.344L434.81 224.694L440.601 224.946L448.406 222.427L456.966 222.679L476.856 218.901L487.178 217.137L489.948 212.099L491.962 217.641L493.473 219.404L498.256 220.16L502.788 220.916L504.299 222.427Z" fill="#A3868B"/>
<path d="M429.773 426.214L427.759 428.985L424.234 429.489L413.66 430.244L365.32 428.733L312.699 428.481L283.997 427.725L253.533 427.473L221.81 428.985L191.094 427.473L191.346 426.718L192.604 423.695L193.108 419.916L197.388 419.664V425.206L206.452 426.466L217.278 426.214L229.867 426.466L250.512 425.71H257.058L259.072 424.702L259.324 419.916L263.352 420.42H263.604L264.359 425.458L272.164 425.206L281.48 425.458L307.664 424.954L338.128 424.451L354.242 424.702L355.249 419.161H359.277V425.71L376.146 425.206L396.539 425.71L415.17 426.718L423.731 426.97L423.479 420.924L426.752 420.672L427.004 421.428L428.766 425.962L429.773 426.214Z" fill="#A3868B"/>
<path d="M193.109 419.916L192.606 423.695L191.347 426.717L191.095 427.473V427.725L185.304 429.992L176.996 430.496L160.883 431L151.819 430.748L144.014 429.488L135.202 428.733L130.922 428.985L126.894 428.481L119.089 427.977L115.564 427.725L114.053 425.962L110.277 419.664L109.27 413.619L110.025 412.107L115.06 421.176L121.606 422.687L151.315 425.962L170.702 425.206L183.794 424.45L189.836 413.871L187.067 402.535L185.304 395.986L184.549 392.207L181.528 389.688L178.255 385.658L170.702 382.131L148.546 380.872L130.418 381.376V387.421L126.642 385.91L125.131 390.444L120.851 385.406L121.103 384.65L122.362 381.124L124.879 380.116L131.425 378.353L133.44 376.841L131.677 374.071L127.145 369.788L126.894 366.262L127.649 364.75L130.67 369.284L138.223 375.834L159.372 378.353H185.304L186.815 379.612L185.808 381.627L186.563 383.895L188.829 385.658L192.606 400.268L194.116 408.329L193.361 415.886L193.109 419.916Z" fill="#A3868B"/>
<path d="M190.59 360.468L191.346 369.536L189.583 377.093L186.814 379.612L185.303 378.353L187.066 370.04L187.821 354.674L184.8 338.301L179.764 332.003L174.225 328.729L155.846 330.492L139.481 332.759L136.711 342.331L132.683 334.27H127.648L129.41 332.255L130.921 330.744L128.151 329.484L125.633 327.973L121.857 323.691L121.102 316.637L124.878 322.431L141.999 321.675L154.587 321.423L167.931 322.683L185.052 319.408L185.807 307.317L185.555 301.523H187.821L188.828 310.088L188.576 318.149L187.569 322.683L183.793 326.965L187.821 333.515L189.332 341.575L190.339 350.644L190.59 360.468Z" fill="#A3868B"/>
<path d="M187.823 293.463V301.524H185.557L185.306 299.005L182.788 286.661L165.667 281.623L142.253 284.898L130.671 285.15L121.859 286.661L122.866 284.142L116.068 282.127L111.285 275.83L110.781 274.822L113.299 276.082L120.6 276.334L133.944 277.593L147.54 277.845L167.682 274.822L176.997 273.311L180.018 266.258L180.27 260.968V247.113L180.774 243.587L183.795 244.09L184.047 250.64L183.795 264.998L183.291 271.799L181.025 276.837L183.04 277.593L184.55 280.112L187.068 285.402L187.823 293.463Z" fill="#A3868B"/>
<path d="M508.83 227.465L510.844 230.74L510.593 236.03L509.585 242.075L508.83 252.907L506.564 275.326L499.011 277.089L493.976 275.074L490.954 276.334H484.408L470.561 275.578L453.189 274.57L448.153 273.815L440.096 271.296L438.586 266.509L436.572 247.869L437.831 247.113L437.579 241.823V230.992L462.756 226.206L477.107 226.457L489.947 224.694L498.759 223.687L504.046 222.679L505.305 224.19L508.83 227.465ZM507.319 409.588L502.536 400.52L499.515 390.948L496.493 384.902L488.185 384.65L478.114 384.902L454.951 385.154L439.089 384.902L431.536 394.978L432.04 408.581L431.788 417.649L434.054 421.428L437.579 421.68L445.384 423.191L454.196 425.206L475.596 420.42L490.703 420.924L498.004 421.428L501.025 421.931L505.305 417.649L508.075 412.611L507.319 409.588ZM497.752 287.921L491.71 285.15L485.164 285.906H476.1L448.908 284.394L443.118 283.639L441.859 282.379L437.579 285.402L437.327 288.173L436.068 297.997L438.334 314.874V322.179L440.6 322.935L443.37 322.431L456.713 322.935L469.806 323.439L479.121 323.691L486.926 326.21L496.745 319.912L498.004 318.905L498.507 316.889L500.522 308.829L501.529 295.478L498.759 288.929L497.752 287.921ZM488.94 331.751L488.688 331.248L484.157 329.988L476.352 329.232L446.894 328.981H441.355L438.838 334.019L433.299 358.453L434.306 367.521L433.802 375.078L441.355 378.605L444.377 377.597L453.44 377.345L466.532 377.597L478.869 377.345L487.933 370.544L489.947 357.697L491.206 345.606L491.71 339.56L490.451 334.522L488.94 331.751ZM488.185 207.313L480.38 198.497L472.827 189.932L469.554 185.902L466.029 182.627L463.008 179.604L458.224 177.589L447.901 188.924L443.621 193.207L443.37 194.718L439.341 196.23L434.054 201.519L425.997 211.344L434.306 224.694L439.845 224.946L447.65 222.427L456.21 222.679L476.1 218.9L486.674 217.137L489.192 211.847L488.185 207.313ZM440.852 156.681L436.068 153.407L432.292 149.124L427.004 145.346L422.221 141.567L412.905 141.315L404.093 151.895L395.281 159.2L386.973 167.009L381.686 172.803L383.448 176.833L388.987 186.405L397.547 192.703L412.15 202.527L417.689 206.557L434.054 194.718L437.327 192.451L434.558 185.65L439.845 187.665L446.391 180.864L446.139 175.574L448.657 162.727L440.852 156.681ZM414.668 421.176L391.253 419.664L359.278 419.412L359.53 425.962L376.398 425.458L396.792 425.962L415.171 426.969L423.731 427.473L423.48 421.176H414.668ZM395.785 117.133L388.735 111.843L381.686 106.05L374.132 103.027L370.104 102.271H369.349L361.292 114.866L354.494 128.217L349.962 137.285L347.445 143.079L348.2 147.865L353.991 155.674L368.845 165.246L373.881 167.513L377.154 165.75L386.721 158.445L396.54 149.376L405.352 143.331L408.625 141.315V139.552L408.877 133.507L408.625 126.453L395.785 117.133ZM367.335 81.3634L363.054 73.5545L358.019 68.5165L349.962 65.9975L341.654 65.2418L331.583 63.4785L312.197 61.2114L292.307 61.9671L283.243 62.4709L274.934 64.2342L266.878 66.5013L258.569 69.0203L255.296 73.0507L252.275 81.8672L251.016 88.1647L265.115 118.896L276.193 134.514L281.229 134.01L285.257 138.545L293.062 141.567H314.211L333.597 139.804L343.668 136.026L360.033 111.843L367.838 96.7293L370.608 87.9128L369.6 85.1419L367.335 81.3634ZM339.136 418.909H284.502L263.856 420.168L264.36 425.206L272.165 424.954L281.48 425.206L307.665 424.702L338.129 424.199L354.242 424.45L355.25 418.909H339.136ZM247.995 104.538L245.729 101.767L243.211 100.76L235.91 103.279L228.105 107.813L220.552 112.347L213.502 118.393L207.963 123.431L206.704 130.484L207.711 135.27L209.726 140.308L243.715 166.254L256.303 159.452L271.661 144.338L260.332 123.682L247.995 104.538ZM238.679 418.153L207.46 418.909L197.389 419.412V424.954L206.453 425.962H217.279H229.867L250.513 425.206H257.31L259.325 424.199L259.576 419.412L238.679 418.153ZM208.97 146.102L198.899 138.545L196.885 138.041L193.864 136.781H192.605L190.843 137.789L174.226 150.888L167.932 157.941L164.91 166.002L165.162 172.047L167.428 175.574L174.226 182.123L181.527 190.688L192.102 199L203.431 201.519L218.034 190.94L229.867 180.108L230.371 169.024L219.796 156.681L208.97 146.102ZM187.821 205.046L180.772 198.497L174.478 190.688L164.407 180.612L159.371 177.841L152.07 179.1L140.237 189.932L131.425 202.779L127.9 209.076L128.152 210.084L132.684 214.87L141.747 216.381L159.623 221.671L172.715 225.954L180.772 226.206L193.109 209.58L187.821 205.046ZM185.304 395.986L184.548 392.207L181.275 389.94L178.002 385.658L170.449 382.131L148.293 380.872L130.166 381.376V387.421L126.389 385.91L124.879 390.696L120.599 385.658L115.311 399.764L109.772 412.611L114.808 421.68L121.606 423.191L151.315 426.214L170.701 425.458L183.541 424.702L189.584 414.123L186.814 402.787L185.304 395.986ZM179.765 332.003L174.226 328.729L155.847 330.492L139.481 332.759L136.964 342.331L132.935 334.27H127.9L127.145 342.079L128.152 349.636L127.9 357.949L128.152 363.491L127.648 364.75L130.669 369.284L138.223 375.834L159.371 378.353H185.556L187.066 370.04L187.821 354.674L184.8 338.301L179.765 332.003ZM185.304 299.004L182.534 286.661L165.666 281.623L142.251 285.15L130.669 285.402L121.857 286.913L118.081 295.982L120.095 309.584L120.85 316.386V316.889L124.627 322.683L141.747 321.675L154.336 321.424L167.428 322.683L184.548 319.408L185.556 307.317L185.304 301.523V299.004ZM178.254 228.976L161.637 227.213L152.07 226.457L141.747 224.946L133.439 224.19L127.145 222.427L125.634 221.419L120.599 221.671L114.556 222.427L111.283 228.221L108.765 234.77L108.262 242.579L109.521 260.212V268.777L110.276 272.807L110.528 274.57L110.779 274.822L113.297 276.082L120.599 276.334L133.942 277.341L147.538 277.593L167.68 274.57L177.247 272.807L180.268 266.006L180.52 260.464L180.268 246.861L180.772 243.083L181.024 241.571L180.52 235.022L178.254 228.976Z" fill="#E3CDC2"/>
<path d="M150.057 302.279L165.667 301.02L168.185 300.768L182.536 300.516L182.787 300.768V299.508L180.27 288.928L165.415 284.394L142.504 287.669L130.922 287.921L123.873 289.18L120.852 295.982L122.362 305.05L150.057 302.279Z" fill="#F0E0D8"/>
<path d="M126.894 400.268L133.44 403.795L136.965 403.291L142.756 401.78L147.288 397.245H163.401L163.905 397.749L183.543 399.512L182.788 396.49L182.284 393.719L179.515 391.704L176.493 387.673L169.947 384.902L148.547 383.643L133.189 384.147V391.452L128.405 389.437L126.391 395.986L121.859 390.696L118.586 398.757L126.894 400.268Z" fill="#F0E0D8"/>
<path d="M130.671 353.667L132.937 353.919L140.238 355.934L142.253 355.43L146.785 354.674L167.178 350.644L184.298 355.178L184.802 356.689L185.054 354.674L182.284 339.308L178.004 334.019L173.472 331.5L156.1 333.263L141.497 335.278L137.469 349.888L131.175 337.041H130.168L129.664 342.079L130.671 349.636V353.667Z" fill="#F0E0D8"/>
<path d="M171.203 174.818L176.49 172.299L195.121 171.292H196.38L216.773 167.513L222.816 167.009H224.83H225.334L218.284 158.697L207.206 148.117L197.639 141.064L195.876 140.56L193.359 139.3L192.352 140.056L176.238 152.651L170.447 159.2L167.93 166.002L168.181 171.04L169.944 173.559L171.203 174.818Z" fill="#F0E0D8"/>
<path d="M185.808 207.061L178.758 200.26L172.464 192.451L162.645 182.627L158.617 180.612L153.078 181.619L142.252 191.695L133.691 204.29L130.922 209.328L131.929 210.336L136.209 210.588L137.468 210.84L140.993 208.825L144.769 207.061L147.035 205.802L149.553 205.298L154.337 204.542L157.106 203.031L168.184 201.771L188.829 210.084L189.333 210.336V210.084L185.808 207.061Z" fill="#F0E0D8"/>
<path d="M112.04 252.151L129.412 251.647L132.434 252.151L146.533 250.64L177.501 251.396V247.113L178.004 243.083L178.256 242.075L177.752 236.03L176.242 231.495L161.387 229.732L151.568 228.976L141.497 227.717L132.937 226.709L125.888 224.946L124.629 223.938L120.852 224.19L116.32 224.694L113.803 229.48L111.537 235.274L110.781 242.579L111.537 252.151H112.04Z" fill="#F0E0D8"/>
<path d="M445.889 163.986L439.343 158.697L434.307 155.17L430.531 151.14L425.495 147.361L421.215 144.086L414.417 143.834L408.375 150.384L400.822 158.948L394.527 165.75L411.9 168.269L427.258 172.299L434.811 173.055L444.378 171.795L445.889 163.986Z" fill="#F0E0D8"/>
<path d="M259.324 96.4774L271.157 102.019L283.242 105.798L312.196 105.546L341.653 103.279L344.675 102.775L350.969 101.515L363.809 97.485L364.816 95.7217L367.334 88.1647L364.816 82.371L360.788 75.0659L356.508 70.7837L349.207 68.5166L340.898 67.7609L331.079 65.9976L311.944 63.7305L292.306 64.4862L283.242 64.99L275.186 66.5014L267.381 68.7685L260.079 71.2875L257.562 74.0583L254.792 82.371L253.785 87.6609L257.562 96.2255L259.324 96.4774Z" fill="#F0E0D8"/>
<path d="M440.348 347.621L452.433 347.873L457.468 348.881H458.224H458.979L466.029 345.606L476.603 343.339L488.185 346.11V345.102L488.94 339.56L487.681 335.278L486.674 333.263L483.653 332.507L476.1 331.751H446.894H442.866L441.103 335.278L438.082 348.377L440.348 347.621Z" fill="#F0E0D8"/>
<path d="M485.416 208.825L478.367 200.26L470.814 191.444L467.541 187.665L464.016 184.138L461.498 181.619L459.232 180.612L450.168 190.688L446.392 194.214L446.14 196.481L434.559 203.283L450.168 204.542L456.211 205.802L460.995 205.55L476.604 210.084L484.409 211.847L485.416 208.825Z" fill="#F0E0D8"/>
<path d="M207.462 420.42L200.16 421.176V422.183L206.706 423.443H217.281H229.869L250.514 422.435L256.557 422.183V421.428L238.681 419.161L207.462 420.42Z" fill="#F0E0D8"/>
<path d="M454.448 400.016L467.289 400.268L473.331 401.024L482.395 399.764L498.508 397.749H498.76L496.998 391.955L494.732 387.421H487.934L478.115 387.673L454.7 387.925L440.097 387.673L434.055 395.734L434.306 401.024L454.448 400.016Z" fill="#F0E0D8"/>
<path d="M444.88 239.556L451.677 240.06L468.043 242.327L472.071 242.579L482.142 245.854L489.443 253.411L497.5 256.182L502.787 255.426L506.06 255.678L506.312 252.907L507.067 241.823L508.074 235.778V231.495L506.564 228.976L503.542 225.702L503.291 225.198L499.01 225.954L490.45 226.961L477.358 228.725L463.259 228.473L440.599 232.755L440.348 239.556H444.88Z" fill="#F0E0D8"/>
<path d="M438.588 298.249H438.839L440.854 298.501L456.967 303.035H457.219L462.254 302.027L473.836 297.745L496.495 297.997L497.754 298.249L498.006 295.73L495.488 289.936L491.208 287.921L484.914 288.425H475.85L448.407 286.913L441.861 286.158L441.357 285.654L439.847 286.913L439.595 288.425L438.336 297.997L438.588 298.249Z" fill="#F0E0D8"/>
<path d="M224.075 147.109L225.334 145.346L241.196 138.545L250.511 137.033L253.281 136.277H253.533L256.302 134.766L262.345 132.751L258.065 124.942L245.98 106.05L244.217 103.782L243.21 103.531L236.916 105.546L229.614 110.08L222.061 114.362L215.263 120.156L210.48 124.438L209.473 130.232L210.228 134.262L211.99 138.545L222.817 147.109H224.075Z" fill="#F0E0D8"/>
<path d="M284.755 420.42L269.648 421.68H272.166L281.482 421.932L307.666 421.428L338.382 420.42L351.978 420.924V420.42L339.137 420.168L284.755 420.42Z" fill="#F0E0D8"/>
<path d="M405.603 127.713L394.022 119.148L386.72 113.858L380.174 108.065L373.376 105.294L370.607 104.79L365.572 113.103L363.557 118.393L359.026 124.186L356.508 130.232L368.089 134.262L376.65 137.789L381.937 140.308L393.266 146.605L394.022 147.613L394.525 147.109L403.589 140.812L405.603 139.552V139.048L405.855 133.255L405.603 127.713Z" fill="#F0E0D8"/>
<path d="M414.667 423.695L391.001 421.176L362.047 420.672V422.183L376.146 421.679L396.791 422.183L415.171 423.695L420.961 424.198V423.191L414.667 423.695Z" fill="#F0E0D8"/>
<g style="mix-blend-mode:multiply">
<path d="M432.291 322.935L432.04 319.157V309.584L432.795 290.944L431.788 283.387L431.536 280.364L433.802 277.845L435.564 276.334V275.074L433.047 272.807L433.298 269.28V265.25V255.678L432.04 246.106L431.788 235.526L432.795 232.755L435.313 230.236L431.284 229.48L427.759 228.977L423.479 222.931L421.465 220.16L421.717 216.885L421.969 213.359L421.213 211.344L419.451 211.595L416.43 212.099L410.387 210.336L406.359 205.55L401.323 201.016L396.54 196.985L392.26 193.962L382.944 186.406L381.937 184.894L376.146 176.581L375.895 172.299L372.622 172.803L370.356 173.055L368.593 171.795L363.81 169.024L353.487 162.475L343.92 154.918L341.15 150.132L341.905 145.094H340.898L336.618 148.872L331.079 149.628L327.806 149.88L316.98 150.384L300.615 149.628L283.746 150.132L279.466 147.361L276.445 148.117L273.927 152.147L269.395 155.926L258.821 163.986L249.253 171.292L247.995 172.047L244.47 174.062L241.449 173.559L240.19 174.818L238.427 180.36L235.406 185.146L225.083 192.955L214.509 200.764L205.193 209.076L201.165 211.847L197.137 212.855L194.116 221.671L188.325 225.702L184.296 228.977L185.807 232.755L185.304 238.045L183.793 244.09L184.296 250.64L183.793 264.998L183.289 271.799L181.023 276.837L182.786 277.593L184.548 280.112L187.066 285.402L187.569 293.463V301.524L188.577 310.088L188.325 318.401L187.318 322.935L183.541 326.965L187.569 333.767L189.08 341.827L190.087 350.896L190.339 360.72L191.094 369.788L189.332 377.345L186.562 379.864L185.555 381.88L186.311 383.895L188.577 385.658L192.353 400.268L193.612 408.329L193.108 415.886L192.857 419.916L197.137 419.664L207.208 419.161L212.747 418.909C206.452 367.017 204.438 314.119 211.236 261.975C216.02 224.946 262.094 204.038 292.558 189.932C300.363 186.406 310.182 181.116 318.994 181.116C334.1 180.864 352.228 191.192 364.313 199.252C379.923 209.58 398.554 224.442 407.366 241.571C414.667 255.93 411.646 278.853 413.408 294.722C415.423 311.6 412.653 328.225 412.15 345.102C411.646 361.728 412.15 377.849 410.387 394.223C409.38 403.039 409.128 411.856 409.128 420.42L414.667 420.672L423.479 420.42H427.004L426.249 418.153L425.997 408.581L428.515 389.185L431.788 381.124L432.291 379.612V378.101L430.781 375.834L429.522 372.811L429.27 369.033L429.522 359.964L430.781 349.384L431.536 345.102L431.284 340.82L434.557 331.248L436.068 327.217L435.816 325.202L432.291 322.935Z" fill="#C7919A"/>
</g>
<path d="M301.621 268.021C301.621 268.021 296.333 268.273 288.025 268.777C279.717 269.28 268.135 269.532 255.295 269.784C229.866 270.288 208.969 270.288 208.969 270.288C208.969 270.288 229.614 267.517 255.295 267.013C268.135 266.761 279.717 267.013 288.025 267.265C296.585 267.769 301.621 268.021 301.621 268.021Z" fill="#A84A21"/>
<path d="M414.164 256.182C414.164 256.182 396.54 258.197 374.887 258.952C352.983 259.708 335.359 258.952 335.359 258.952C335.359 258.952 352.983 256.937 374.636 256.182C396.54 255.426 414.164 256.182 414.164 256.182Z" fill="#A84A21"/>
<path d="M418.694 267.517C418.694 267.517 415.421 269.028 411.393 269.028C407.365 269.028 403.84 267.769 403.84 267.769C403.84 267.769 407.113 266.258 411.141 266.258C415.421 266.258 418.694 267.517 418.694 267.517Z" fill="#A84A21"/>
<path d="M227.099 256.937C227.099 256.937 218.539 258.701 207.965 258.953C197.39 259.204 188.578 257.693 188.578 257.693C188.578 257.693 197.138 256.434 207.713 256.182C218.539 256.182 227.099 256.937 227.099 256.937Z" fill="#A84A21"/>
<path d="M332.338 279.608C332.338 279.608 328.814 280.112 323.023 280.868C320.253 281.12 316.729 281.372 313.204 282.127C309.679 282.883 305.902 284.394 301.874 285.906C293.817 288.929 286.013 291.196 280.222 291.7C277.452 291.951 274.935 291.951 273.424 291.951C271.913 291.951 270.906 291.7 270.906 291.7C270.906 291.7 271.913 291.699 273.424 291.448C274.935 291.196 277.201 290.944 279.97 290.188C285.509 288.929 292.81 286.158 301.119 283.135C305.147 281.624 309.176 280.112 313.204 279.608C317.232 279.105 320.505 279.356 323.275 279.356C328.814 279.356 332.338 279.608 332.338 279.608Z" fill="#A84A21"/>
<path d="M263.355 370.292C263.355 370.292 259.83 371.048 253.787 371.803C247.745 372.559 239.436 372.811 230.373 372.559C212.245 372.055 197.391 370.292 197.391 370.292C197.391 370.292 212.245 369.284 230.373 369.788C239.436 370.04 247.745 370.292 253.536 370.292C259.578 370.292 263.355 370.292 263.355 370.292Z" fill="#A84A21"/>
<path d="M374.131 370.04C374.131 370.04 372.621 370.04 369.851 370.04C367.082 370.04 363.305 370.04 358.522 370.544C356.256 370.796 353.486 371.3 350.968 371.804C348.199 372.559 345.43 373.567 342.66 374.574C336.618 376.842 329.82 378.857 322.518 379.864C307.664 381.88 294.32 380.872 284.753 379.864C279.969 379.361 276.192 378.605 273.423 378.353C270.653 377.849 269.395 377.597 269.395 377.597C269.395 377.597 270.905 377.597 273.675 377.849C276.444 378.101 280.221 378.353 285.004 378.605C294.572 379.109 307.916 379.361 322.267 377.345C329.568 376.338 336.114 374.574 342.156 372.559C345.178 371.552 348.199 370.544 350.968 370.04C353.738 369.536 356.507 369.285 358.773 369.033C363.557 368.781 367.585 369.285 370.103 369.285C372.621 370.04 374.131 370.04 374.131 370.04Z" fill="#A84A21"/>
<path d="M322.266 390.192C322.266 390.192 323.524 389.94 326.042 389.688C328.56 389.436 332.085 388.933 336.365 387.925C338.631 387.421 340.897 386.917 343.414 386.414C345.932 385.658 348.45 384.65 351.219 383.643C353.989 382.635 356.758 381.628 360.031 380.62C363.053 379.612 366.577 379.109 369.85 378.605C383.446 376.59 395.783 377.345 404.595 377.597C413.407 377.849 418.946 377.597 418.946 377.597C418.946 377.597 413.407 378.353 404.595 378.857C395.783 379.36 383.446 379.36 370.102 381.376C363.556 382.383 357.514 384.146 351.723 385.91C348.953 386.665 346.184 387.673 343.666 388.177C341.148 388.681 338.631 389.185 336.365 389.436C331.833 389.94 328.308 390.192 325.79 390.192C323.524 390.192 322.266 390.192 322.266 390.192Z" fill="#A84A21"/>
<path d="M252.779 392.711C252.779 392.711 252.024 392.711 250.765 392.459C249.506 392.459 247.744 392.459 245.478 392.711C240.946 393.467 235.407 395.734 228.609 397.497C221.811 399.261 215.517 399.764 210.985 399.764C206.453 399.764 203.684 399.512 203.684 399.512C203.684 399.512 206.453 399.261 210.985 398.505C215.517 397.749 221.559 396.49 228.105 394.978C234.651 393.215 240.946 391.452 245.478 391.452C247.744 391.452 249.758 391.704 251.017 391.955C252.024 392.459 252.779 392.711 252.779 392.711Z" fill="#A84A21"/>
<path d="M398.805 241.572C398.805 241.572 389.238 242.075 373.88 243.083C358.522 243.839 337.121 245.602 313.706 244.846C301.873 244.846 290.795 244.846 280.724 245.602C270.653 246.358 261.338 247.113 253.785 247.365C245.98 247.617 239.937 247.365 235.657 247.113C233.391 246.861 231.881 246.861 230.622 246.61C229.615 246.358 228.859 246.358 228.859 246.358C228.859 246.358 229.363 246.358 230.622 246.358C231.629 246.358 233.391 246.61 235.657 246.61C239.937 246.861 246.232 246.61 253.785 246.106C261.338 245.602 270.653 244.594 280.724 243.587C290.795 242.579 302.125 242.327 313.958 242.327C337.373 242.831 358.522 241.823 374.131 241.572C389.238 241.823 398.805 241.572 398.805 241.572Z" fill="#E89F72"/>
<path d="M398.301 362.987C398.301 362.987 395.783 362.231 390.999 362.483C386.215 362.735 379.166 362.987 370.606 362.735C353.485 362.483 329.567 359.964 303.634 358.957C290.542 358.453 277.954 357.949 266.624 357.697C255.294 357.445 244.972 357.193 236.411 357.193C219.291 356.689 208.465 356.438 208.465 356.438C208.465 356.438 219.039 355.934 236.411 355.682C244.972 355.682 255.294 355.43 266.624 355.43C277.954 355.43 290.542 355.682 303.634 356.186C329.819 357.193 353.485 360.468 370.606 361.224C379.166 361.727 386.215 361.979 390.999 361.979C395.783 362.231 398.301 362.987 398.301 362.987Z" fill="#E89F72"/>
<path d="M162.645 277.845C162.645 277.845 162.645 276.334 161.638 274.57C160.631 272.555 159.12 269.532 158.616 266.258C158.113 262.731 158.113 259.708 158.365 257.441C158.616 255.174 158.868 253.663 158.868 253.663C158.868 253.663 159.372 254.922 159.623 257.189C160.127 259.456 160.631 262.479 161.134 265.754C161.638 269.028 162.141 271.799 162.645 274.318C162.896 275.578 162.896 276.585 162.645 277.089C162.896 277.593 162.645 277.845 162.645 277.845Z" fill="#A3868B"/>
<path d="M168.686 323.187C168.686 321.172 168.686 317.645 168.686 314.622C168.686 311.6 168.937 308.829 168.937 308.829C168.937 308.829 168.182 311.348 167.427 314.37C166.672 317.393 166.168 320.92 166.168 322.935L168.686 323.187Z" fill="#A3868B"/>
<path d="M187.823 376.59C186.816 375.078 184.298 372.307 182.032 370.544C179.766 368.529 177.5 367.269 177.5 367.269C177.5 367.269 179.262 369.033 181.025 371.3C182.787 373.567 184.55 376.338 185.557 377.849L187.823 376.59Z" fill="#A3868B"/>
<path d="M153.078 380.116C153.33 378.353 153.33 375.33 152.826 372.559C152.575 369.788 151.819 367.773 151.819 367.773C151.819 367.773 151.819 370.04 151.316 372.559C151.064 375.078 150.56 378.101 150.309 379.612L153.078 380.116Z" fill="#A3868B"/>
<path d="M169.442 380.62C168.184 384.147 166.421 390.444 164.91 396.238C163.652 401.78 162.645 406.566 162.645 406.566C162.645 406.566 164.155 402.032 166.169 396.49C168.184 391.2 170.449 384.902 171.96 381.628L169.442 380.62Z" fill="#A3868B"/>
<path d="M141.495 426.718C142.502 425.206 143.509 421.931 144.516 419.161C145.271 416.39 146.027 414.123 146.027 414.123C146.027 414.123 144.768 416.138 143.509 418.657C141.998 421.176 140.236 423.947 139.48 425.458L141.495 426.718Z" fill="#A3868B"/>
<path d="M452.434 426.214C452.434 423.443 451.93 418.405 451.678 414.123C451.426 409.84 451.678 406.062 451.678 406.062C451.678 406.062 450.671 409.588 450.168 414.123C449.664 418.405 449.664 423.695 449.664 426.466L452.434 426.214Z" fill="#A3868B"/>
<path d="M474.086 382.887C474.086 385.91 474.589 391.703 475.093 396.49C475.848 401.276 476.604 405.306 476.604 405.306C476.604 405.306 476.352 401.276 476.352 396.49C476.352 391.703 476.604 386.162 476.604 383.139L474.086 382.887Z" fill="#A3868B"/>
<path d="M454.949 377.849C455.453 374.322 455.201 364.498 455.201 364.498C455.201 364.498 452.683 373.819 452.18 377.345L454.949 377.849Z" fill="#A3868B"/>
<path d="M467.287 323.439C467.287 320.668 467.287 315.63 467.035 311.348C466.784 307.065 466.784 303.287 466.28 303.539C466.784 303.539 466.28 307.065 465.777 311.348C465.273 315.63 464.77 320.668 464.77 323.439H467.287Z" fill="#A3868B"/>
<path d="M465.023 224.442C465.779 230.74 469.304 246.861 469.304 246.861C469.304 246.861 468.548 230.488 467.793 224.19L465.023 224.442Z" fill="#A3868B"/>
<path d="M461.246 277.593C461.75 275.074 462.001 268.273 462.001 268.273C462.001 268.273 459.232 274.57 458.477 276.837L461.246 277.593Z" fill="#A3868B"/>
<path d="M496.493 276.333C496.241 274.57 495.234 271.799 494.227 269.28C493.22 266.761 492.465 264.746 492.465 264.746C492.465 264.746 492.717 267.013 492.717 269.532C492.968 272.051 493.22 275.074 493.472 276.837L496.493 276.333Z" fill="#A3868B"/>
<path d="M435.566 200.008C437.077 202.023 439.847 205.55 442.364 208.824C444.882 212.099 446.644 214.618 446.644 214.618C446.644 214.618 445.386 211.595 443.371 208.069C441.609 204.542 439.091 200.512 437.581 198.497L435.566 200.008Z" fill="#A3868B"/>
<path d="M478.114 219.404C477.611 218.145 476.604 215.626 475.848 213.611C474.841 211.595 474.086 209.832 474.086 209.832C474.086 209.832 474.338 211.595 474.589 213.862C474.841 216.13 475.093 218.649 475.597 219.908L478.114 219.404Z" fill="#A3868B"/>
<path d="M427.509 200.26C425.495 196.733 421.718 190.436 418.445 184.894C416.683 182.123 415.172 179.604 414.165 177.841C413.662 176.833 413.158 176.078 412.906 175.574C412.655 175.07 413.158 174.818 413.158 174.818C413.158 174.818 412.655 175.07 412.906 175.574C413.158 176.078 413.41 176.833 413.914 177.841C414.921 179.856 415.928 182.375 417.438 185.398C420.208 191.192 423.229 197.741 425.243 201.268L427.509 200.26Z" fill="#A3868B"/>
<path d="M397.547 155.674C399.813 158.193 406.611 163.735 406.611 163.735C406.611 163.735 401.575 156.429 399.561 154.162L397.547 155.674Z" fill="#A3868B"/>
<path d="M349.207 134.01C350.969 135.774 354.242 138.544 357.264 140.56C360.285 142.827 363.054 144.338 363.054 144.338C363.054 144.338 360.789 142.071 358.271 139.552C355.753 136.781 352.732 133.758 351.221 131.995L349.207 134.01Z" fill="#A3868B"/>
<path d="M405.605 143.583C404.598 141.567 402.584 138.545 400.57 135.774C398.555 133.255 396.793 131.24 396.793 131.24C396.793 131.24 398.052 133.759 399.562 136.529C401.073 139.552 402.584 142.827 403.339 144.842L405.605 143.583Z" fill="#A3868B"/>
<path d="M266.88 124.438C270.656 121.667 276.95 116.629 282.741 112.347C288.532 108.065 293.567 104.538 293.567 104.538C293.567 104.538 288.28 107.309 281.986 111.087C275.692 114.866 268.894 119.4 265.117 122.171L266.88 124.438Z" fill="#A3868B"/>
<path d="M304.141 142.071C304.141 139.048 302.63 130.988 302.63 130.988C302.63 130.988 301.371 139.048 301.623 142.071H304.141Z" fill="#A3868B"/>
<path d="M363.306 105.546C361.543 104.538 358.522 102.775 355.752 101.264C352.983 99.7521 350.969 98.2407 350.969 98.2407C350.969 98.2407 352.731 100.256 354.997 102.271C357.263 104.538 360.033 106.805 361.795 107.813L363.306 105.546Z" fill="#A3868B"/>
<path d="M334.351 121.919C334.351 121.919 330.574 115.37 327.301 106.805C324.028 98.2406 322.77 90.6836 322.77 90.6836C322.77 90.6836 326.546 97.233 329.819 105.798C333.092 114.362 334.351 121.919 334.351 121.919Z" fill="#A3868B"/>
<path d="M245.981 139.048C245.981 139.048 243.212 144.59 238.932 150.888C234.903 157.185 230.875 161.971 230.875 161.971C230.875 161.971 232.637 155.926 236.918 149.376C240.946 143.079 245.981 139.048 245.981 139.048Z" fill="#A3868B"/>
<path d="M270.653 137.285C268.135 136.278 263.855 134.514 259.827 133.255C257.812 132.751 256.05 132.247 254.539 131.995C253.029 131.743 252.273 131.995 252.273 131.995C252.273 131.995 253.029 131.995 254.539 132.499C255.798 132.751 257.561 133.507 259.323 134.514C262.848 136.278 267.128 138.545 269.646 139.804L270.653 137.285Z" fill="#A3868B"/>
<path d="M193.611 202.779C193.863 198.749 194.619 191.443 195.374 185.146C196.129 178.848 197.136 173.559 197.136 173.559C197.136 173.559 195.626 178.597 194.115 184.894C192.604 191.192 191.346 198.245 191.094 202.527L193.611 202.779Z" fill="#A3868B"/>
<path d="M223.574 157.689C222.063 158.948 219.294 161.216 216.776 162.979C214.258 164.742 211.992 166.254 211.992 166.254C211.992 166.254 214.51 165.498 217.279 164.238C220.049 162.979 223.322 161.216 225.084 159.956L223.574 157.689Z" fill="#A3868B"/>
<path d="M172.465 182.123C173.22 180.864 174.479 178.596 175.738 176.581C176.997 174.566 178.256 173.055 178.256 173.055C178.256 173.055 176.494 174.062 174.731 175.826C172.969 177.337 170.955 179.604 170.199 180.864L172.465 182.123Z" fill="#A3868B"/>
<path d="M165.412 225.198C165.916 223.686 166.419 220.916 167.175 218.649C167.93 216.381 168.685 214.366 168.685 214.366C168.685 214.366 167.426 215.878 165.916 218.145C164.657 220.16 163.146 222.931 162.895 224.442L165.412 225.198Z" fill="#A3868B"/>
<path d="M147.286 224.694C146.279 227.213 145.02 231.999 144.265 236.03C143.51 240.06 143.258 243.587 143.258 243.587C143.258 243.587 144.265 240.312 145.524 236.281C146.783 232.251 148.797 227.969 149.552 225.45L147.286 224.694Z" fill="#A3868B"/>
<path d="M142.504 282.883C142.504 284.898 143.007 288.425 143.763 291.448C144.518 294.47 145.273 296.989 145.273 296.989C145.273 296.989 145.022 294.47 145.022 291.196C145.022 288.173 145.022 284.646 145.022 282.631L142.504 282.883Z" fill="#A3868B"/>
<path d="M357.516 74.8141L352.229 67.2571L344.172 64.4862L337.122 64.2343L330.828 64.4862L312.7 63.2267L300.112 61.7153L272.417 64.7381L266.626 66.7533L263.605 68.0128L260.332 72.0432L262.094 74.8141L266.878 79.0964L268.892 78.8445L272.165 79.6002L277.201 82.3711L282.74 87.661L287.523 92.4471L291.803 103.531L296.839 110.584L309.679 112.347L320.757 111.34L323.778 110.08L326.548 104.79L333.598 87.1572L337.122 80.8597L347.445 78.8445H353.991L357.516 74.8141Z" fill="#A3868B"/>
<path d="M357.012 0.251709L361.544 2.5188C358.271 9.82389 356.76 17.6328 357.012 25.6936L356.256 25.4417L353.487 25.6936C351.976 17.6328 351.976 9.32009 353.235 1.51121L357.012 0.251709Z" fill="#735C6F"/>
<path d="M378.413 11.3354L382.693 13.6025C377.91 18.6405 374.385 24.938 371.867 31.4874H371.615L369.098 30.4798C370.86 23.6785 373.881 17.1291 378.413 11.3354Z" fill="#735C6F"/>
<path d="M392.008 28.4646L392.512 29.9759C387.225 30.9835 382.189 33.7544 378.161 37.5329L377.406 36.5253L376.398 35.2658C379.671 30.4797 384.959 27.2051 390.498 25.9456L392.008 28.4646Z" fill="#735C6F"/>
<path d="M397.294 42.067L398.301 45.8455C393.518 44.3341 388.482 44.586 383.95 46.6012L382.691 44.0822C387.223 41.8151 392.259 41.0594 397.294 42.067Z" fill="#735C6F"/>
<path d="M353.236 25.6935L356.006 25.4416L356.761 25.6935L363.559 28.7163L369.098 30.7315L371.616 31.4872V31.7391L375.896 34.0062L376.651 35.0138L377.658 36.2733L378.413 37.2809L381.938 42.8227L382.694 44.0822L383.952 46.6012L386.974 52.143L387.981 55.6696L387.225 56.4253L385.715 58.4405L383.449 60.9595L385.715 57.4329L384.204 53.9063L380.176 46.0974L377.155 40.5556L374.889 37.2809L369.853 35.0138L361.041 32.4948L356.509 30.9834L351.726 34.0062L348.704 26.4492V26.1973L342.914 23.4264L339.641 21.915L352.985 25.9454L353.236 25.6935Z" fill="#735C6F"/>
<path d="M395.784 61.9671L394.525 63.7304L392.511 64.9899C391 61.9671 388.482 59.7 385.461 58.4405L386.972 56.6772C390.496 57.4329 393.518 59.4481 395.784 61.9671Z" fill="#735C6F"/>
<path d="M392.764 64.9899L394.527 63.7304L395.785 61.9671L400.317 55.4177L400.569 56.1734L394.275 67.7608L389.995 73.0507L388.484 75.0659L378.413 73.0507L372.622 71.2874L370.357 66.5013L369.098 63.9823L373.881 67.7608L382.19 71.2874L392.764 64.9899Z" fill="#735C6F"/>
<path d="M227.098 64.9899L237.672 71.2874L245.981 67.7608L250.764 63.9823L249.506 66.5013L247.24 71.2874L241.449 73.0507L231.378 75.0659L229.867 73.0507L225.587 67.7608L219.293 56.1734L219.545 55.4177L224.077 61.9671L225.335 63.7304L227.098 64.9899Z" fill="#735C6F"/>
<path d="M232.638 56.4253L234.149 58.1886C231.128 59.4481 228.61 61.9671 227.099 64.738L225.085 63.4785L224.078 61.9671C226.344 59.4481 229.365 57.4329 232.638 56.4253Z" fill="#735C6F"/>
<path d="M237.168 44.0822L235.91 46.6012C231.378 44.586 226.09 44.3341 221.559 45.8455L222.566 42.067V41.8151C227.601 41.0594 232.637 41.8151 237.168 44.0822Z" fill="#735C6F"/>
<path d="M243.211 35.0138L242.204 36.2733L241.449 37.2809C237.42 33.5024 232.385 30.9834 227.098 29.7239L227.601 28.2125L228.86 25.4417C234.651 26.953 239.938 30.2277 243.211 35.0138Z" fill="#735C6F"/>
<path d="M399.311 49.3722L400.318 55.4178L395.786 61.9671C393.52 59.1963 390.499 57.433 387.226 56.4254L387.981 55.4178L386.974 51.8912L383.953 46.3494C388.485 44.3342 393.772 44.0823 398.304 45.5937L399.311 49.3722Z" fill="#877083"/>
<path d="M392.763 29.7241L397.547 41.8153C392.511 41.0596 387.224 41.8153 382.944 44.0824L382.441 43.0748L378.664 37.2811C382.189 33.5026 387.224 30.7317 392.763 29.7241Z" fill="#877083"/>
<path d="M392.765 64.9898L382.191 71.2873L373.882 67.5088L369.099 63.9822L366.581 58.1885L365.07 51.6392L368.847 55.4177L375.645 59.9518L382.191 62.9746L383.45 60.9594L385.716 58.4404C388.737 59.6999 391.255 61.967 392.765 64.9898Z" fill="#877083"/>
<path d="M385.712 15.6175L390.748 25.6935C385.209 26.953 379.922 30.2277 376.649 35.0138L375.893 34.0062L371.613 31.7391C373.879 25.1897 377.656 19.1441 382.439 13.8542L385.712 15.6175Z" fill="#877083"/>
<path d="M375.139 9.57204L378.16 11.3353C373.88 17.129 370.607 23.6784 369.096 30.7316L363.557 28.7164L356.507 25.9455C356.256 17.8847 357.766 10.0758 361.039 2.77075L363.305 4.03025L375.139 9.57204Z" fill="#877083"/>
<path d="M354.745 62.2189L351.724 61.4632L345.933 64.2341L340.646 62.7227L338.883 61.7151L341.401 62.2189L344.674 62.9746L345.429 62.2189L346.94 57.9367L346.185 55.6696L344.674 51.6392L344.17 49.1202L344.674 38.7923L340.142 35.7695L333.344 38.5404L326.798 42.3189L324.532 45.8455L327.05 50.6316L327.554 53.4025V54.9139L326.043 53.1506L324.029 49.3721L321.511 45.5936L320.504 44.0822L321.007 42.3189L327.302 35.5176L335.107 33.5024L343.919 30.4796L347.192 29.2201L348.199 28.9682L348.702 26.953V26.4492L351.724 34.0062L349.458 39.548L350.716 53.4025L360.032 63.9822L354.745 76.0734L351.22 76.5772L340.646 74.8139L336.366 75.3177L332.589 81.8671L327.554 91.9431L325.791 97.9887V98.4925L325.539 97.9887V90.6836L327.554 85.1418L329.064 78.8443L330.827 72.2949V69.2721L338.631 70.7835L343.415 72.043L348.954 72.7987L353.486 71.7911L355.5 66.7531L354.745 62.2189Z" fill="#E8A699"/>
<path d="M281.986 21.4113L288.784 18.3886L291.805 19.3962L295.833 19.9H301.876L300.113 18.6405L297.596 15.3658L295.582 13.8544L293.819 11.5873L297.344 5.54168L304.897 1.00749L308.925 -0.503906L316.479 1.25939L323.025 5.54168L327.053 12.343L325.794 13.8544L323.78 15.3658L321.262 18.6405L319.752 20.1519H325.794L329.822 19.6481L332.592 18.8924L339.893 21.9151L342.915 23.1746L348.705 25.9455L348.957 26.1974V26.7012L348.705 28.4645L347.446 28.7164L344.173 29.9759L335.613 32.7468L327.808 34.762L321.514 41.5633L321.01 43.3266L322.018 44.838L324.283 48.6165L326.549 52.395L328.06 54.1583L328.312 58.4406L330.578 58.6925L336.872 60.2039L339.39 60.7077L341.152 61.7153L346.691 63.4786L352.23 60.7077L355.251 61.2115L356.007 65.9976L353.993 70.7836L349.461 72.0431L343.922 71.2874L339.138 70.0279L331.081 68.5166V71.5393L329.319 78.0887L327.808 84.3862L325.794 89.928V97.2331L326.046 97.7369L325.291 98.9964L322.018 95.7217L320.507 96.9812L317.234 100.76L316.479 98.9964L313.961 94.966L312.45 96.2255L309.932 99.2483L308.674 97.2331L306.408 94.7141L302.883 100.76L301.624 99.2483L299.358 97.485L299.106 97.2331L297.092 99.2483L295.833 102.019L295.582 99.7521L295.078 98.7445L295.582 97.9888V90.6837L293.567 85.1419L292.057 78.8444L290.294 72.295V69.2723L282.238 70.7836L277.454 72.0431L271.915 72.7988L266.124 72.295L265.117 70.2798L265.872 64.2343L268.39 61.7153L273.677 64.4862L278.713 62.7229L279.72 62.2191L284 61.2115L290.294 59.7001L292.56 59.4482L292.812 56.1735L294.826 53.4026L297.092 49.6241L299.358 45.8456L300.365 44.3342L299.862 42.5709L293.567 35.7696L285.762 33.7544L277.202 30.9835L273.677 29.724L272.67 29.4721L272.419 27.7088L272.167 26.7012L277.706 23.9303L281.986 21.4113ZM318.996 74.814L317.989 69.5242L314.464 61.9672L313.961 58.4406L311.947 55.6697L311.191 49.3722L308.925 46.6013L307.415 55.6697L306.659 58.4406L306.156 61.9672L302.631 69.7761L301.624 74.814L303.89 81.6153L305.904 78.5925L306.911 77.333L308.17 76.0735L309.429 72.7988L310.436 68.0128L310.688 65.4938L311.191 66.7533L312.45 70.0279L313.206 73.3026L313.709 76.0735L314.968 78.0887L316.982 81.1115L318.996 74.814Z" fill="#FFF7CC"/>
<path d="M332.589 18.8922L330.323 17.8846L328.812 15.6175L334.351 11.0834L345.933 4.03017L352.731 1.25928H352.983C351.724 9.32006 351.724 17.6327 353.234 25.4416H352.983L339.639 21.6631L332.589 18.8922Z" fill="#877083"/>
<path d="M338.886 61.7152L336.368 61.2114L330.074 59.4481L327.808 59.1962L327.556 54.9139V53.4025L327.053 50.6316L324.535 45.8455L326.801 42.3189L333.347 38.5404L340.145 35.7695L344.677 38.7923L344.173 49.1202L344.677 51.6392L346.188 55.6696L346.943 57.9367L345.432 62.219L344.677 62.9747L341.404 62.219L338.886 61.7152Z" fill="#735C6F"/>
<path d="M328.814 15.6176L330.324 17.8847L332.59 18.8923L329.821 19.648L325.541 20.1518H319.75L321.512 19.1442L324.03 15.8695L325.792 14.3581L327.051 12.8467L328.058 14.61L328.814 15.6176Z" fill="#E8A699"/>
<path d="M299.357 100.004L298.35 100.76L295.832 104.538V102.019L297.091 99.2483L299.105 97.233H299.357L301.623 99.2483L302.882 100.508L306.406 94.4622L308.672 97.233L310.183 99.2483V99.5001V99.2483L312.449 96.2255L313.96 94.966L316.477 98.9963L317.233 100.76L320.254 97.7368L321.765 96.4774L325.038 99.752L324.786 102.775L324.282 102.019L322.016 98.4925L321.009 98.9963L318.24 101.767L317.988 104.538V109.576L316.729 111.088V110.332L316.226 104.034L315.722 101.515L313.708 97.485L311.19 100.256V105.042V109.324L310.938 111.339H310.183L309.679 111.088V105.042L309.176 99.752L306.406 96.9812L305.399 98.4925L304.14 102.775V111.088H303.889L303.133 110.332L302.63 102.523L299.357 100.004Z" fill="#E8A699"/>
<path d="M324.786 102.775L324.534 105.798L323.275 108.569L318.492 109.072L317.988 109.576V104.538L318.24 101.767L321.01 98.9965L322.017 98.4927L324.283 102.019L324.786 102.775Z" fill="#FFFBE8"/>
<path d="M318.24 69.5242L318.995 74.8141L316.981 81.6154L314.967 78.5926L313.708 76.5774L312.953 73.8065L312.197 70.2799L310.938 67.0052L310.435 65.7457L309.931 68.0128L308.924 72.7989L307.665 76.0736L306.407 77.3331L305.651 78.5926L303.637 81.6154L301.371 74.8141L302.378 69.7761L305.903 61.9672L306.407 58.4406L307.162 55.6697L308.924 46.6013L311.19 49.3722L311.946 55.6697L313.96 58.4406L314.463 61.9672L318.24 69.5242Z" fill="#735C6F"/>
<path d="M316.728 110.332V111.087H316.476L312.952 111.339L311.189 111.087L310.938 111.339L311.189 109.324V105.042V100.256L313.707 97.4849L315.721 101.515L316.225 104.034L316.728 110.332Z" fill="#FFFBE8"/>
<path d="M309.68 111.088L307.917 111.339L304.141 111.088V102.775L305.399 98.4926L306.407 96.9812L309.176 99.7521L309.68 105.042V111.088Z" fill="#FFFBE8"/>
<path d="M303.133 110.332L302.126 109.072L297.091 108.568L296.084 105.798L295.832 104.538L298.35 100.76L299.357 100.004L302.63 102.523L303.133 110.332Z" fill="#FFFBE8"/>
<path d="M291.299 16.1215L292.306 14.6101L293.817 12.0911L295.579 14.3582L297.593 15.8696L300.111 19.1442L301.873 20.1518H296.083L291.803 19.648L288.781 18.3886L290.292 17.8848L291.299 16.1215Z" fill="#E8A699"/>
<path d="M269.142 34.5102L268.89 34.0064L271.912 26.1975H272.164V26.9532L272.667 28.9684L273.674 29.2203L277.199 30.4798L285.759 33.5026L293.564 35.5178L299.858 42.3191L300.362 44.0824L299.355 45.5938L296.837 49.3723L294.823 53.1508L292.557 55.9216L292.809 53.4027L293.312 50.6318L295.578 45.8457L293.312 42.3191L287.018 38.5406L280.22 35.7697L275.437 38.7925L275.94 49.1204L275.437 51.6394L273.926 55.6697L273.171 57.9368L274.681 62.2191L275.688 62.9748L278.961 62.2191L279.717 61.9672L278.71 62.7229L273.674 64.2343L268.639 61.4634L265.869 64.2343L265.114 70.2799L266.121 72.2951L271.912 72.7989L277.451 72.0432L282.234 70.7837L290.039 69.2723L290.291 72.2951L291.802 78.8445L293.312 85.142L295.578 90.6838L295.326 97.9889L295.075 98.7445L294.571 97.9889L293.061 91.9433L288.025 81.8673L283.997 75.3179L279.717 74.8141L269.394 76.5774L265.869 76.0736L260.582 63.9824L269.646 53.4027L271.156 39.5482L269.142 34.5102Z" fill="#E8A699"/>
<path d="M292.558 55.9215V59.1962L290.292 59.4481L283.998 61.2114L279.718 61.9671L278.963 62.219L275.69 62.9747L274.682 62.219L273.172 57.9367L273.927 55.6696L275.438 51.6392L275.941 49.1202L275.438 38.7923L280.221 35.7695L287.019 38.5404L293.314 42.3189L295.58 45.8455L293.314 50.6316L292.81 53.4025L292.558 55.9215Z" fill="#735C6F"/>
<path d="M288.781 18.3885L281.983 21.4113L266.877 25.6936H266.625C268.136 17.6328 268.136 9.32011 266.877 1.51123H267.129L273.926 4.28212L285.508 11.3353L291.299 16.1214L290.04 17.8847L288.781 18.3885Z" fill="#877083"/>
<path d="M272.166 26.1975H271.914L268.893 34.0063L269.145 34.5101L263.354 30.9836L258.822 32.495L250.01 35.0139L244.975 37.281L242.709 40.5557L239.688 46.0975L235.659 53.9064L234.149 57.433L236.415 60.9596L234.149 58.4406L232.638 56.4254L231.883 55.6697L232.89 52.1431L235.911 46.6013L237.17 44.0823L237.925 42.8228L241.45 37.281L242.205 36.2734L243.213 35.0139L243.968 34.0063L248.248 31.7393L248.5 31.4874L250.766 30.7317L256.305 28.7165L263.102 25.6937L263.858 25.4418L266.627 25.6937L266.879 25.9456L281.985 21.4114L277.705 23.4266L272.166 26.1975Z" fill="#735C6F"/>
<path d="M266.879 1.51121C268.138 9.57199 268.138 17.8847 266.627 25.6936L263.858 25.4417L263.102 25.6936C263.354 17.6328 261.843 9.82389 258.57 2.5188L262.85 0.251709L266.879 1.51121Z" fill="#735C6F"/>
<path d="M258.57 2.5188C261.843 9.82388 263.353 17.8847 263.102 25.6936L256.052 28.4644L250.513 30.4796C248.751 23.4265 245.729 16.8771 241.449 11.0834L244.47 9.32008L256.052 3.5264L258.57 2.5188Z" fill="#877083"/>
<path d="M254.793 51.6392L253.282 58.1885L250.764 63.9822L245.981 67.5088L237.672 71.2873L227.098 64.9898C228.608 61.967 231.126 59.6999 234.147 58.4404L236.413 60.9594L237.672 62.9746L244.218 59.9518L251.016 55.4177L254.793 51.6392Z" fill="#877083"/>
<path d="M250.764 30.7317L248.246 31.7393H247.994C245.728 25.1899 241.952 19.1443 237.168 13.8544L241.7 11.3354C245.98 17.1291 249.001 23.6785 250.764 30.7317Z" fill="#735C6F"/>
<path d="M248.248 31.7391L243.968 34.0062L243.212 35.0138C239.939 30.2277 234.652 26.953 229.113 25.6935L234.149 15.6175L237.422 13.8542C242.205 18.8922 245.982 24.9378 248.248 31.7391Z" fill="#877083"/>
<path d="M241.447 37.2811L237.923 42.8228L237.419 43.8304C232.887 41.5633 227.6 40.8076 222.816 41.5633L227.6 29.4722C232.635 30.7317 237.671 33.5026 241.447 37.2811Z" fill="#877083"/>
<path d="M235.908 46.6013L232.887 52.1431L231.88 55.6697L232.635 56.6773C229.362 57.6849 226.341 59.7001 224.075 62.2191L219.543 55.4178L220.55 49.3722L221.557 45.8456C226.089 44.3342 231.376 44.5861 235.908 46.6013Z" fill="#877083"/>
<path d="M224.832 57.6849L233.392 35.7696L238.679 25.6936L250.261 19.1442L261.591 13.8544L272.165 14.6101L290.041 16.1215L285.257 12.0911L273.172 5.03788L263.101 1.76318L235.155 16.6253L225.839 37.5329L222.062 50.8836V54.6621L224.832 57.6849Z" fill="url(#paint0_linear_3103_44266)"/>
<path d="M395.531 57.6849L387.223 35.7696L381.684 25.6936L370.102 19.1442L359.024 13.8544L348.45 14.6101L330.574 16.1215L335.106 12.0911L347.443 5.03788L357.262 1.76318L385.209 16.6253L394.524 37.5329L398.301 50.8836V54.6621L395.531 57.6849Z" fill="url(#paint1_linear_3103_44266)"/>
<path d="M415.173 322.683C419.705 308.073 410.893 295.478 396.542 290.188C382.191 284.898 367.336 288.929 361.294 303.035L343.418 351.904L352.734 355.178L367.085 315.378C374.134 296.234 383.45 295.478 393.017 299.005C402.584 302.531 409.13 309.836 402.332 328.225L387.982 368.025L397.297 371.3L415.173 322.683Z" fill="#E0E0E0"/>
<path d="M389.49 297.745C379.923 294.219 370.608 294.974 363.558 314.119L349.207 353.919L352.984 355.178L367.335 315.378C373.881 297.493 382.441 295.73 391.253 298.249C390.749 298.249 389.994 297.997 389.49 297.745Z" fill="#B2B2B2"/>
<path d="M415.17 322.683C419.702 308.073 410.89 295.478 396.539 290.188C395.784 289.936 395.28 289.684 394.525 289.432C407.869 294.974 415.674 307.317 411.394 321.172L393.77 370.04L397.546 371.3L415.17 322.683Z" fill="#B2B2B2"/>
<path opacity="0.32" d="M366.58 301.02C367.083 301.272 367.838 300.768 368.342 300.264C370.608 297.997 372.874 295.478 375.895 294.219C377.406 293.463 378.916 293.211 380.427 292.959C381.182 292.707 381.938 292.707 382.189 291.952C382.441 291.196 381.938 290.692 381.182 290.44C380.679 290.188 379.923 290.188 379.168 290.44C375.643 290.944 372.37 292.455 369.601 294.471C368.342 295.226 363.055 300.264 366.58 301.02Z" fill="white"/>
<path opacity="0.32" d="M384.204 291.951C384.708 292.455 385.715 292.455 386.47 292.707C387.225 292.707 387.981 292.959 388.988 292.959C389.491 292.959 389.995 293.211 390.498 292.959C391.002 292.959 391.505 292.707 391.505 292.203C391.757 291.7 391.505 291.448 391.254 290.944C391.002 290.692 390.498 290.44 389.995 290.188C388.736 289.684 386.722 289.181 385.463 289.432C384.204 289.936 383.197 290.944 384.204 291.951Z" fill="white"/>
<path d="M409.886 342.583L394.779 337.041C394.779 337.041 392.01 342.835 388.737 344.095C382.946 346.362 370.861 341.072 368.343 336.79C366.581 333.515 368.092 327.469 368.092 327.469L352.23 321.676C352.23 321.676 342.159 344.85 342.411 358.705C342.663 378.101 353.992 383.643 362.049 386.414C370.106 389.185 382.443 392.207 394.779 377.597C403.591 367.269 409.886 342.583 409.886 342.583Z" fill="#E0E0E0"/>
<g opacity="0.6">
<path opacity="0.6" d="M395.031 337.042C395.031 337.042 392.262 342.835 388.989 344.095C387.226 344.85 384.96 344.85 382.443 344.347C374.889 351.904 357.769 369.537 348.957 378.353C352.985 382.635 357.769 384.902 362.049 386.414C363.056 386.666 364.063 387.17 365.322 387.421C375.393 376.338 395.535 354.423 407.368 341.324L395.031 337.042Z" fill="white"/>
<path opacity="0.6" d="M342.41 358.705C342.41 359.964 342.41 360.972 342.662 361.98L370.105 338.805C369.35 338.049 368.846 337.545 368.343 336.79C367.839 336.034 367.587 334.774 367.587 333.767C361.041 337.797 350.467 344.095 343.669 348.377C342.914 352.156 342.41 355.682 342.41 358.705Z" fill="white"/>
</g>
<path d="M366.58 336.034C367.587 337.797 369.853 339.561 372.874 341.072C370.608 339.812 368.846 338.301 368.09 336.79C366.328 333.515 367.838 327.469 367.838 327.469L366.328 326.966C366.076 327.973 365.069 333.263 366.58 336.034Z" fill="#B2B2B2"/>
<path d="M409.634 342.583L408.124 342.08C407.368 344.599 401.326 367.018 393.018 377.094C380.429 391.704 368.092 388.681 360.287 385.91C358.525 385.406 356.762 384.651 355 383.643C357.266 384.902 359.532 385.91 361.546 386.666C369.603 389.437 381.94 392.459 394.276 377.849C403.34 367.018 409.634 342.583 409.634 342.583Z" fill="#B2B2B2"/>
<path d="M371.615 368.277C373.377 367.773 374.888 366.514 375.643 364.75C376.65 361.728 375.14 358.453 372.118 357.445C369.097 356.438 365.824 357.949 364.817 360.972C364.062 362.735 364.565 364.75 365.572 366.262L360.537 374.071C360.033 374.826 360.285 375.834 361.292 376.338L365.069 377.597L368.845 378.857C369.601 379.109 370.608 378.605 370.86 377.597L371.615 368.277Z" fill="#848484"/>
<path d="M370.357 365.758C372.304 365.758 373.882 364.179 373.882 362.231C373.882 360.284 372.304 358.705 370.357 358.705C368.41 358.705 366.832 360.284 366.832 362.231C366.832 364.179 368.41 365.758 370.357 365.758Z" fill="#515151"/>
<path d="M357.017 328.729C356.514 330.24 355.003 330.996 353.492 330.492C351.982 329.988 351.478 328.477 351.982 326.966C352.485 325.454 353.996 324.699 355.507 325.202C356.765 325.706 357.521 327.469 357.017 328.729Z" fill="#868989"/>
<path d="M356.512 328.225C356.008 329.484 354.498 330.24 353.239 329.736C351.98 329.233 351.224 327.721 351.728 326.462C352.232 325.202 353.742 324.446 355.001 324.95C356.26 325.454 357.015 326.965 356.512 328.225Z" fill="#C2C4C4"/>
<path d="M356.007 325.454C356.258 325.958 356.258 326.714 356.007 327.217C355.503 328.477 353.993 329.233 352.734 328.729C352.482 328.477 351.978 328.477 351.727 328.225C351.978 328.981 352.482 329.484 353.237 329.736C354.496 330.24 356.007 329.485 356.51 328.225C356.762 327.217 356.51 326.21 356.007 325.454Z" fill="#ACAFAF"/>
<path opacity="0.48" d="M352.23 326.462C352.23 326.714 352.23 326.714 352.23 326.965C352.23 327.217 352.482 327.217 352.734 327.217C352.986 327.217 352.986 327.217 353.238 327.217C353.489 327.217 353.489 326.965 353.489 326.714C353.741 326.462 353.993 326.21 354.245 326.21C354.496 326.21 354.748 326.21 355 325.958C355.504 325.454 354.245 325.202 353.993 325.202C353.238 325.454 352.482 325.958 352.23 326.462Z" fill="white"/>
<path d="M365.534 331.951C366.056 330.512 365.313 328.923 363.875 328.401C362.437 327.879 360.849 328.622 360.327 330.061C359.806 331.5 360.548 333.089 361.986 333.611C363.424 334.133 365.013 333.389 365.534 331.951Z" fill="#868989"/>
<path d="M362.553 332.759C363.943 332.759 365.071 331.631 365.071 330.24C365.071 328.849 363.943 327.721 362.553 327.721C361.162 327.721 360.035 328.849 360.035 330.24C360.035 331.631 361.162 332.759 362.553 332.759Z" fill="#C2C4C4"/>
<path d="M364.315 328.729C364.567 329.233 364.567 329.988 364.315 330.492C363.812 331.752 362.301 332.507 361.042 332.003C360.79 331.752 360.287 331.752 360.035 331.5C360.287 332.255 360.79 332.759 361.546 333.011C362.805 333.515 364.315 332.759 364.819 331.5C365.071 330.24 364.819 329.233 364.315 328.729Z" fill="#ACAFAF"/>
<path opacity="0.48" d="M360.789 329.484C360.789 329.736 360.789 329.736 360.789 329.988C360.789 330.24 361.041 330.24 361.293 330.24C361.544 330.24 361.544 330.24 361.796 330.24C362.048 330.24 362.048 329.988 362.048 329.736C362.3 329.484 362.551 329.232 362.803 329.232C363.055 329.232 363.307 329.232 363.559 328.981C364.062 328.477 362.803 328.225 362.551 328.225C361.544 328.477 361.041 328.981 360.789 329.484Z" fill="white"/>
<path d="M399.31 343.339C398.807 344.85 397.296 345.606 395.785 345.102C394.275 344.599 393.771 343.087 394.275 341.576C394.778 340.064 396.289 339.309 397.8 339.812C399.058 340.316 399.814 342.08 399.31 343.339Z" fill="#868989"/>
<path d="M396.541 344.347C397.932 344.347 399.059 343.219 399.059 341.828C399.059 340.436 397.932 339.309 396.541 339.309C395.151 339.309 394.023 340.436 394.023 341.828C394.023 343.219 395.151 344.347 396.541 344.347Z" fill="#C2C4C4"/>
<path d="M398.304 340.316C398.555 340.82 398.555 341.576 398.304 342.079C397.8 343.339 396.289 344.095 395.031 343.591C394.779 343.339 394.275 343.339 394.023 343.087C394.275 343.843 394.779 344.347 395.534 344.598C396.793 345.102 398.304 344.347 398.807 343.087C399.059 341.828 398.807 340.82 398.304 340.316Z" fill="#ACAFAF"/>
<path opacity="0.48" d="M394.527 341.072C394.527 341.324 394.527 341.324 394.527 341.576C394.527 341.828 394.779 341.828 395.031 341.828C395.283 341.828 395.283 341.828 395.534 341.828C395.786 341.828 395.786 341.576 395.786 341.324C396.038 341.072 396.29 340.82 396.542 340.82C396.793 340.82 397.045 340.82 397.297 340.568C397.8 340.064 396.542 339.812 396.29 339.812C395.534 340.064 394.779 340.568 394.527 341.072Z" fill="white"/>
<path d="M407.873 346.362C407.369 347.873 405.859 348.629 404.348 348.125C402.837 347.621 402.334 346.11 402.837 344.599C403.341 343.087 404.851 342.332 406.362 342.835C407.621 343.591 408.376 345.102 407.873 346.362Z" fill="#868989"/>
<path d="M407.117 345.858C406.614 347.118 405.103 347.873 403.844 347.369C402.585 346.866 401.83 345.354 402.334 344.095C402.837 342.835 404.348 342.08 405.607 342.583C406.865 343.087 407.621 344.599 407.117 345.858Z" fill="#C2C4C4"/>
<path d="M406.612 343.339C406.864 343.843 406.864 344.599 406.612 345.102C406.109 346.362 404.598 347.118 403.339 346.614C403.087 346.362 402.584 346.362 402.332 346.11C402.584 346.866 403.087 347.369 403.843 347.621C405.101 348.125 406.612 347.369 407.116 346.11C407.619 344.85 407.367 343.843 406.612 343.339Z" fill="#ACAFAF"/>
<path opacity="0.48" d="M403.09 344.095C403.09 344.347 403.09 344.347 403.09 344.598C403.09 344.85 403.342 344.85 403.593 344.85C403.845 344.85 403.845 344.85 404.097 344.85C404.349 344.85 404.349 344.598 404.349 344.347C404.6 344.095 404.852 343.843 405.104 343.843C405.356 343.843 405.608 343.843 405.859 343.591C406.363 343.087 405.104 342.835 404.852 342.835C403.845 343.087 403.342 343.591 403.09 344.095Z" fill="white"/>
<path d="M387.727 330.492C396.626 330.492 403.84 324.176 403.84 316.386C403.84 308.595 396.626 302.279 387.727 302.279C378.827 302.279 371.613 308.595 371.613 316.386C371.613 324.176 378.827 330.492 387.727 330.492Z" fill="#7F2A0D"/>
<path d="M387.729 302.531C380.68 302.531 374.637 306.562 372.371 311.852C372.623 319.409 379.924 325.202 388.484 325.202C395.534 325.202 401.577 321.172 403.843 315.882C403.339 308.325 396.289 302.531 387.729 302.531Z" fill="#9E3E1D"/>
<g opacity="0.2">
<path d="M159.726 55.862C159.726 55.862 159.726 39.217 159.726 21.9388C159.726 4.66061 164.636 10.2449 132.873 9.70518C101.11 9.16547 67.7183 -2.37733 71.3186 12.814C74.9189 28.0053 62.5905 46.8163 73.8861 52.3934C85.1816 57.9705 156.679 64.3896 159.726 55.862Z" fill="#9F93AE" fill-opacity="0.5"/>
<path d="M89.4737 69.7193C89.4737 69.7193 74.0902 61.0045 62.293 60.0603C50.4959 59.1162 15.1044 69.407 18.1898 79.8939C21.2752 90.3807 30.5314 100.134 47.425 101.158C64.3185 102.182 95.1146 103.86 99.6955 95.0722C104.276 86.2847 95.8115 72.9147 89.4737 69.7193Z" fill="#9F90B0" fill-opacity="0.75"/>
<path d="M13.3259 9.70215C13.3259 9.70215 25.677 1.45222 33.727 4.79896C41.7771 8.1457 59.5191 5.05471 62.9847 9.70215C66.4502 14.3496 59.9986 31.6241 59.1849 37.1265C58.3712 42.6289 56.4386 54.2036 40.6655 52.6764C24.8923 51.1492 9.09742 63.0235 5.24677 52.8152C1.39612 42.6069 7.13576 12.9977 13.3259 9.70215Z" fill="#AAA0B6"/>
</g>
<g opacity="0.2">
<path d="M511.001 123.122C511.001 123.122 516.024 156.115 519.743 157.836C523.462 159.557 636.871 160.848 638.913 160.058C640.956 159.268 650.93 120.251 637.777 119.97C624.624 119.688 510.604 120.65 511.001 123.122Z" fill="#9F90B0"/>
<path opacity="0.5" d="M607.755 102.662C607.62 101.871 603.395 78.1312 595.332 70.5424C587.269 62.9536 586.167 64.8844 580.721 66.4117C575.275 67.9389 556.938 67.7174 558.603 71.1992C560.267 74.681 565.238 95.3582 562.836 104.498C560.434 113.638 608.421 106.247 607.755 102.662Z" fill="#AA9DB8"/>
<path opacity="0.5" d="M592.5 166.376C592.5 166.376 547.367 166.376 539.503 168.892C531.638 171.409 537.711 189.245 539.503 196.05C541.294 202.856 536.11 211.837 549.198 209.44C562.287 207.042 587.847 207.445 592.5 203.054C597.154 198.662 597.939 166.352 592.5 166.376Z" fill="#9A8CAA"/>
</g>
</g>
<defs>
<linearGradient id="paint0_linear_3103_44266" x1="303.046" y1="-15.4128" x2="205.137" y2="61.2526" gradientUnits="userSpaceOnUse">
<stop stop-color="#B88AAC"/>
<stop offset="1"/>
</linearGradient>
<linearGradient id="paint1_linear_3103_44266" x1="317.419" y1="-15.4128" x2="415.328" y2="61.2525" gradientUnits="userSpaceOnUse">
<stop stop-color="#B88AAC"/>
<stop offset="1"/>
</linearGradient>
<clipPath id="clip0_3103_44266">
<rect width="614.574" height="431" fill="white"/>
</clipPath>
</defs>
</svg>
